<svg xmlns="http://www.w3.org/2000/svg" class="_0r0u9w" width="576" height="576" style="overflow: visible; width: 576px; height: 576px; transform: translate(0px, 0px);"><g style="transform: scale(1) translate(0px, 0px);"><g><g transform="translate(0, 0)"><g></g></g><g transform="translate(288, 288)"><g><g><path d="M0 -288 A288 288 0 0 1 143.99999999999997 -249.41531628991834 L71.99999999999999 -124.70765814495917 A144 144 0 0 0 0 -144 Z" fill="#0096c7" opacity="1" pointer-events="auto"></path><path d="M143.99999999999997 -249.41531628991834 A288 288 0 0 1 249.4153162899183 -144.00000000000003 L124.70765814495915 -72.00000000000001 A144 144 0 0 0 71.99999999999999 -124.70765814495917 Z" fill="#00b5d7" opacity="1" pointer-events="auto"></path><path d="M249.4153162899183 -144.00000000000003 A288 288 0 0 1 288 -1.7634913907721887e-14 L144 -8.817456953860943e-15 A144 144 0 0 0 124.70765814495915 -72.00000000000001 Z" fill="#2f5f98" opacity="1" pointer-events="auto"></path><path d="M288 -1.7634913907721887e-14 A288 288 0 0 1 249.41531628991834 143.99999999999994 L124.70765814495917 71.99999999999997 A144 144 0 0 0 144 -8.817456953860943e-15 Z" fill="#0078b6" opacity="1" pointer-events="auto"></path><path d="M249.41531628991834 143.99999999999994 A288 288 0 0 1 144.00000000000009 249.41531628991828 L72.00000000000004 124.70765814495914 A144 144 0 0 0 124.70765814495917 71.99999999999997 Z" fill="#023f8a" opacity="1" pointer-events="auto"></path><path d="M144.00000000000009 249.41531628991828 A288 288 0 0 1 1.631675202522618e-13 288 L8.15837601261309e-14 144 A144 144 0 0 0 72.00000000000004 124.70765814495914 Z" fill="#0078b6" opacity="1" pointer-events="auto"></path><path d="M1.631675202522618e-13 288 A288 288 0 0 1 -143.99999999999983 249.41531628991845 L-71.99999999999991 124.70765814495923 A144 144 0 0 0 8.15837601261309e-14 144 Z" fill="#0096c7" opacity="1" pointer-events="auto"></path><path d="M-143.99999999999983 249.41531628991845 A288 288 0 0 1 -249.41531628991825 144.0000000000001 L-124.70765814495913 72.00000000000006 A144 144 0 0 0 -71.99999999999991 124.70765814495923 Z" fill="#00b5d7" opacity="1" pointer-events="auto"></path><path d="M-249.41531628991825 144.0000000000001 A288 288 0 0 1 -288 5.2904741723165653e-14 L-144 2.6452370861582827e-14 A144 144 0 0 0 -124.70765814495913 72.00000000000006 Z" fill="#2f5f98" opacity="1" pointer-events="auto"></path><path d="M-288 5.2904741723165653e-14 A288 288 0 0 1 -249.4153162899183 -144.00000000000003 L-124.70765814495915 -72.00000000000001 A144 144 0 0 0 -144 2.6452370861582827e-14 Z" fill="#0078b6" opacity="1" pointer-events="auto"></path><path d="M-249.4153162899183 -144.00000000000003 A288 288 0 0 1 -143.99999999999991 -249.4153162899184 L-71.99999999999996 -124.7076581449592 A144 144 0 0 0 -124.70765814495915 -72.00000000000001 Z" fill="#023f8a" opacity="1" pointer-events="auto"></path><path d="M-143.99999999999991 -249.4153162899184 A288 288 0 0 1 -0.028799999952003417 -287.99999856 L-0.014399999976001708 -143.99999928 A144 144 0 0 0 -71.99999999999996 -124.7076581449592 Z" fill="#0078b6" opacity="1" pointer-events="auto"></path></g></g></g></g></g></svg>