<?xml version="1.0" standalone="no"?>
<!DOCTYPE svg PUBLIC "-//W3C//DTD SVG 1.1//EN" "http://www.w3.org/Graphics/SVG/1.1/DTD/svg11.dtd" >
<svg xmlns="http://www.w3.org/2000/svg" xmlns:xlink="http://www.w3.org/1999/xlink" version="1.1">
<metadata>
Created by FontForge 20190801 at Thu Jun  1 00:39:16 2023
 By root
Copyright \(c\) 2020 by Sensatype Studio. All rights reserved.
</metadata>
<defs>
<font id="CatchyMager" horiz-adv-x="250" >
  <font-face 
    font-family="Catchy Mager"
    font-weight="400"
    font-stretch="normal"
    units-per-em="1000"
    panose-1="2 0 5 6 0 0 0 2 0 4"
    ascent="800"
    descent="-200"
    x-height="459"
    cap-height="632"
    bbox="-368.821 -324 6020.62 848"
    underline-thickness="50"
    underline-position="-100"
    stemh="22"
    stemv="68"
    unicode-range="U+000D-FB01"
  />
<missing-glyph horiz-adv-x="219" 
 />
    <glyph glyph-name="uniE001" unicode="at" horiz-adv-x="767" 
d="M739 39c16 6 25 -13 8 -22c-34 -17 -71 -27 -104 -27c-55 0 -99 30 -98 113v268c-38 -41 -88 -68 -142 -89v-216c0 -42 12 -49 32 -49c10 0 12 -12 1 -15s-24 -5 -37 -5c-32 0 -64 13 -64 57v49c-23 -59 -78 -111 -178 -111c-89 0 -137 55 -137 114
c0 126 163 136 315 180v55c0 71 -60 100 -120 100c-25 0 -51 -5 -72 -14c-40 -21 -38 -59 -26 -87c14 -32 -7 -54 -30 -54c-18 0 -38 15 -39 51c0 7 2 16 5 25v1c1 3 2 5 3 7c0 1 1 2 1 2l2 5s0 1 1 2l9 16c7 10 15 21 25 28c36 30 87 45 138 45c87 0 171 -44 171 -127v-32
c85 34 155 87 178 190c1 6 2 13 3 20c0 1 0 2 1 2c1 10 2 20 2 31c0 1 1 3 1 5c0 10 1 22 1 34c0 8 6 12 12 12s12 -4 12 -12v-134h75c18 0 17 -23 0 -23h-75v-330c0 -59 20 -83 56 -83c19 0 43 7 70 18zM335 206v54c-122 -36 -238 -55 -238 -155c0 -45 31 -81 81 -81
c61 0 155 37 157 182z" />
    <glyph glyph-name="uniE23D" unicode="gi" horiz-adv-x="681" 
d="M217 31c205 -1 237 -98 237 -180c0 -80 -75 -175 -240 -175c-176 0 -234 82 -234 169c0 42 16 87 47 117c10 10 20 14 27 14c14 0 20 -15 8 -37c-64 -120 4 -240 152 -240c117 0 165 79 165 152c0 101 -52 140 -164 140h-59c-94 0 -112 30 -112 64c0 24 15 52 75 61
c-164 76 -130 351 95 351c18 0 35 -3 50 -6v1c15 -5 36 -7 58 -7c84 0 197 35 195 123c-2 43 23 62 47 62c34 0 68 -36 32 -98c-41 -72 -156 -119 -265 -108c137 -90 101 -339 -117 -339h-58c-47 0 -68 -11 -68 -32c0 -20 15 -32 68 -32h61zM663 16c10 -1 10 -17 -1 -17
h-192c-10 0 -11 16 -1 17c34 6 63 -3 63 50v277c0 54 -7 42 -54 42c-10 0 -15 14 1 18c46 12 71 26 109 49c6 3 12 -3 12 -10v-376c0 -53 30 -44 63 -50zM214 444c-160 -1 -165 -326 0 -326s161 326 0 326z" />
    <glyph glyph-name="fi" unicode="fi" horiz-adv-x="488" 
d="M460 18c10 -2 9 -17 -1 -17h-69c-55 0 -61 29 -61 65v310c0 54 -7 63 -55 63h-115v-372c0 -53 30 -44 63 -50c10 -1 10 -17 -1 -17h-192c-10 0 -11 16 -1 17c34 6 63 -3 63 50v372h-57c-17 0 -17 22 0 22h57v97c0 95 83 137 161 137c50 0 129 -13 146 -82
c10 -41 -15 -64 -41 -64c-22 0 -44 16 -48 52c-3 28 -6 72 -58 72c-59 0 -92 -67 -92 -115v-97h216c15 0 22 -5 22 -19v-374c0 -53 29 -44 63 -50z" />
    <glyph glyph-name="uniE01A" unicode="er" horiz-adv-x="913" 
d="M866 437c47 -39 23 -78 -5 -78c-14 0 -28 9 -35 34c-7 27 -28 41 -65 41c-232 0 -202 -439 -491 -439h-17c-112 0 -229 63 -232 234c-1 140 81 238 218 238h9c123 -4 201 -88 201 -205c0 -17 -10 -32 -33 -32h-318c0 -149 86 -208 172 -206c147 0 204 144 273 268v63
c0 54 -6 53 -54 53c-10 0 -15 14 1 18c37 10 77 22 110 38c5 3 12 2 12 -5v-65c38 43 85 72 149 72c49 0 79 -8 105 -29zM248 438c-98 -3 -143 -74 -149 -180h231c38 0 53 17 53 50c1 66 -47 130 -135 130zM675 17c9 -2 9 -17 -1 -17h-193c-10 0 -10 15 -1 17
c34 6 63 -3 63 50v126c14 27 27 54 41 79c4 8 11 11 16 11c7 0 12 -5 12 -17v-199c0 -53 29 -44 63 -50z" />
    <glyph glyph-name="uniE01F" unicode="um" horiz-adv-x="1413" 
d="M1385 16c10 -1 9 -17 -1 -17h-69c-55 0 -61 30 -61 65v268c0 65 -52 95 -107 95c-67 0 -139 -42 -140 -121v-240c0 -53 29 -44 63 -50c9 -1 9 -17 -1 -17h-193c-10 0 -10 16 -1 17c34 6 63 -3 63 50v266c0 61 -44 91 -95 95c-145 0 -244 -131 -359 -261
c-72 -80 -142 -173 -257 -173c-88 -6 -176 40 -176 133v228c0 54 -6 54 -54 54c-10 0 -15 13 1 17c37 10 77 22 110 38c5 3 12 3 12 -4v-333c0 -63 50 -94 107 -95c60 0 107 30 151 71v252c0 54 -6 54 -54 54c-10 0 -15 13 1 17c36 10 77 22 110 38c5 3 12 3 12 -4v-286
c3 4 7 8 11 12c54 60 107 124 164 177c0 46 -9 46 -54 46c-10 0 -15 13 1 17c37 10 77 22 110 38c5 3 12 3 12 -4v-43c46 30 96 49 152 49c70 3 138 -29 158 -94c33 63 101 94 167 94c79 0 154 -45 154 -133v-266c0 -53 29 -44 63 -50zM754 16c10 -1 9 -17 -1 -17h-192
c-11 0 -11 16 -1 17c33 6 63 -3 63 50v227c15 17 32 34 45 45c4 3 8 4 11 4c7 0 12 -4 12 -13v-263c0 -53 29 -44 63 -50zM497 26c14 -1 13 -14 0 -16l-99 -11c-16 -2 -20 4 -20 19v18c15 12 29 25 42 39c5 5 11 9 16 9c6 0 11 -5 11 -18c0 -34 20 -38 50 -40z" />
    <glyph glyph-name="C_a_t_c_h_y_space_M_a_g_e_r" unicode="Catchy&#x20;Mager" horiz-adv-x="6044" 
d="M2490 19c9 -2 9 -17 -1 -17h-193c-10 0 -10 15 -1 17c34 5 63 -3 63 50v266c0 65 -53 95 -112 95c-69 0 -146 -43 -146 -123v-238c0 -53 29 -45 63 -50c9 -2 9 -17 -1 -17h-193c-10 0 -10 15 -1 17c34 5 63 -3 63 50v532c0 26 -8 37 -22 37c-7 0 -16 -2 -26 -7
c-80 -34 -179 -64 -260 -64c-70 0 -127 23 -146 83c-14 45 13 72 40 72c21 0 41 -15 45 -51c5 -51 45 -70 99 -70c102 0 255 69 313 112c3 3 8 4 13 4c6 0 11 -3 12 -12l1 1v-322c35 56 102 84 167 84c82 0 160 -45 160 -133v-266c0 -53 29 -45 63 -50zM4156 613
c-34 -6 -63 3 -63 -50v-491c0 -53 29 -44 63 -50c9 -1 9 -16 -1 -16h-197c-10 0 -10 15 -1 16c34 6 63 -3 63 50v484l-210 -494h-31c-17 0 -25 5 -35 17l-64 148c-13 29 -30 68 -44 102l-7 14c-13 31 -24 57 -28 65c-24 55 -42 100 -59 135l6 -465v1c0 -54 34 -51 67 -57
c10 -1 10 -16 -1 -16h-171c-11 0 -11 15 -1 16c33 6 67 3 68 56l5 520c-27 47 -51 66 -89 66c-58 0 -67 -38 -63 -88c2 -35 -17 -52 -37 -52c-23 0 -47 23 -36 63c13 51 61 96 144 96c123 0 173 -88 228 -216c13 -30 64 -146 92 -209l12 -27v-1l1 -2v-1l36 -80
c3 -8 13 -8 17 0l200 483h135c10 0 10 -15 1 -17zM487 250c78 0 103 104 103 166c0 101 -53 209 -201 209c-343 0 -351 -606 0 -606c138 0 189 55 225 108c6 9 14 12 20 12c15 0 25 -16 12 -32c-57 -67 -135 -113 -257 -113c-460 0 -460 656 0 656c170 0 267 -104 267 -220
c0 -144 -123 -220 -246 -205c-85 10 -64 81 -22 81c11 0 23 -5 35 -16c14 -13 28 -40 64 -40zM1441 39c16 6 25 -13 8 -22c-34 -17 -71 -27 -104 -27c-55 0 -99 30 -98 113v268c-38 -41 -88 -68 -142 -89v-216c0 -42 12 -49 32 -49c10 0 12 -12 1 -15s-24 -5 -37 -5
c-32 0 -64 13 -64 57v49c-23 -59 -78 -111 -178 -111c-89 0 -137 55 -137 114c0 126 163 136 315 180v55c0 71 -60 100 -120 100c-25 0 -51 -5 -72 -14c-40 -21 -38 -59 -26 -87c14 -32 -7 -54 -30 -54c-18 0 -38 15 -39 51c0 7 2 16 5 25v1c1 3 2 5 3 7c0 1 1 2 1 2l2 5
s0 1 1 2l9 16c7 10 15 21 25 28c36 30 87 45 138 45c87 0 171 -44 171 -127v-32c85 34 155 87 178 190c1 6 2 13 3 20c0 1 0 2 1 2c1 10 2 20 2 31c0 1 1 3 1 5c0 10 1 22 1 34c0 8 6 12 12 12s12 -4 12 -12v-134h75c18 0 17 -23 0 -23h-75v-330c0 -59 20 -83 56 -83
c19 0 43 7 70 18zM3096 592c98 13 93 -92 13 -76c-9 2 -23 6 -39 6c-31 0 -71 -16 -107 -93c0 -1 -1 -2 -1 -2l-2 -6s-1 -1 -1 -2l-9 -20c-1 -3 -2 -7 -4 -10c-69 -164 -150 -358 -211 -503c-37 -90 -109 -130 -175 -130c-70 0 -134 45 -147 122c-5 33 19 51 42 51
c21 0 41 -13 39 -43c-4 -61 37 -96 85 -96c45 0 96 30 124 98c3 6 5 11 7 17l15 35c2 5 5 11 7 17c12 30 0 56 -8 74l-153 363c-20 50 -54 43 -87 48c-10 2 -9 17 1 17h207c10 0 11 -15 1 -17c-32 -5 -61 -1 -47 -40c50 -120 62 -156 125 -304c2 -7 6 -10 10 -10
c3 0 7 3 11 11c43 103 86 207 130 312c57 143 127 175 174 181zM4870 31c205 -1 238 -97 238 -180c0 -80 -76 -174 -241 -174c-175 0 -234 82 -234 169c0 42 16 87 48 117c10 10 20 14 27 14c13 0 19 -15 7 -38c-64 -119 5 -239 152 -239c117 -1 165 78 165 151
c0 101 -52 141 -164 141h-59c-94 0 -112 29 -112 63c0 24 15 53 75 61c-164 77 -130 351 95 351c18 0 35 -2 51 -5c8 -3 16 -4 25 -4c41 0 72 31 77 63c4 26 21 37 38 37c25 0 50 -27 24 -66c-17 -26 -62 -51 -99 -57c139 -89 103 -339 -116 -339h-58c-47 0 -68 -11 -68 -33
c0 -19 15 -31 68 -31h61v-1zM1884 99c4 7 10 10 15 10c9 0 17 -11 10 -23c-30 -55 -107 -91 -188 -91c-112 0 -229 63 -231 234c-2 140 92 238 229 238c49 0 96 -15 133 -45h1c0 -1 1 -2 2 -3c3 -3 16 -14 18 -17l2 -2l5 -6c1 0 1 -1 2 -2c3 -5 6 -9 9 -13c1 -1 1 -2 2 -2
c8 -13 13 -26 14 -36c3 -38 -17 -55 -37 -55c-21 0 -42 19 -32 51c8 25 6 58 -21 76c-1 1 -2 2 -3 2c-3 3 -7 5 -12 6h1c-22 11 -46 17 -69 17c-110 0 -168 -83 -168 -207c0 -150 86 -209 172 -207c57 1 115 23 146 75zM5994 437c47 -39 23 -78 -5 -78c-14 0 -28 9 -35 34
c-7 27 -28 41 -65 41c-232 0 -202 -439 -491 -439h-17c-112 0 -229 63 -232 234c-1 140 81 238 218 238h9c123 -4 201 -88 201 -205c0 -17 -10 -32 -33 -32h-318c0 -149 86 -208 172 -206c147 0 204 144 273 268v63c0 54 -6 53 -54 53c-10 0 -15 14 1 18c37 10 77 22 110 38
c5 3 12 2 12 -5v-65c38 43 85 72 149 72c49 0 79 -8 105 -29zM4624 16c10 0 12 -13 1 -16s-23 -5 -35 -5c-33 0 -65 13 -65 57v50c-23 -60 -78 -111 -178 -111c-89 0 -138 55 -138 113c1 120 138 144 234 149c47 3 82 1 82 8v79c0 70 -59 100 -120 100c-26 0 -51 -5 -73 -15
c-40 -20 -37 -59 -25 -86c14 -33 -8 -55 -30 -55c-19 0 -38 15 -39 51c0 8 2 16 5 25v2l3 6c3 9 7 19 13 26c4 6 8 11 12 16c1 1 1 1 2 1c3 5 7 8 11 11c36 30 87 45 137 45c87 0 172 -44 172 -127v-276c0 -41 12 -48 31 -48zM4867 444c-160 0 -165 -325 0 -325
s161 326 0 325zM5376 438c-98 -3 -143 -74 -149 -180h231c38 0 53 17 53 50c1 66 -47 130 -135 130zM5803 17c9 -2 9 -17 -1 -17h-193c-10 0 -10 15 -1 17c34 6 63 -3 63 50v126c14 27 27 54 41 79c4 8 11 11 16 11c7 0 12 -5 12 -17v-199c0 -53 29 -44 63 -50zM1037 206v54
c-122 -36 -238 -55 -238 -155c0 -45 31 -81 81 -81c61 0 155 37 157 182zM4368 23c61 0 154 37 157 182v31c-86 0 -238 -8 -238 -133c0 -44 31 -80 81 -80z" />
    <glyph glyph-name=".notdef" horiz-adv-x="219" 
 />
    <glyph glyph-name="uni0000" horiz-adv-x="0" 
 />
    <glyph glyph-name="uni0000" horiz-adv-x="0" 
 />
    <glyph glyph-name="uni000D" unicode="&#xd;" horiz-adv-x="219" 
 />
    <glyph glyph-name="space" unicode=" " horiz-adv-x="219" 
 />
    <glyph glyph-name="three" unicode="3" horiz-adv-x="509" 
d="M326 348c79 -3 153 -65 153 -157c0 -133 -118 -196 -236 -196c-95 0 -190 42 -221 121c-5 14 2 21 10 21c6 0 12 -4 15 -10c26 -58 99 -90 172 -90c87 0 174 47 174 151c0 72 -70 162 -221 142c-27 -4 -29 32 -2 31c239 -16 272 264 69 264c-46 0 -85 -17 -113 -37
c-26 -18 -38 -56 -25 -81c16 -31 -4 -51 -25 -51c-16 0 -33 11 -36 37c-2 15 5 36 15 55v2l2 2c4 8 9 15 15 22c1 1 2 2 3 4l4 4h1c44 48 110 69 179 69c223 0 254 -248 67 -298c-10 -3 -10 -5 0 -5z" />
    <glyph glyph-name="four" unicode="4" horiz-adv-x="513" 
d="M478 241c1 9 15 7 15 0l-5 -129c0 -3 -3 -5 -6 -5h-69v-36c0 -53 30 -44 63 -50c10 -2 10 -17 -1 -17h-193c-10 0 -11 15 -1 17c34 6 63 -3 63 50v36h-324v45l357 479h36v-458c48 6 54 23 65 68zM65 172h279v372z" />
    <glyph glyph-name="five" unicode="5" horiz-adv-x="483" 
d="M234 434c106 0 229 -58 229 -222c0 -145 -120 -219 -235 -219c-63 0 -126 23 -166 68h-2c-24 23 -42 64 -39 89c3 26 20 37 36 37c21 0 41 -20 25 -51c-13 -26 0 -64 27 -81c24 -17 56 -26 89 -26c86 0 182 59 182 183s-85 188 -171 188c-60 0 -120 -31 -154 -93l-13 2
l38 322h218c93 0 98 13 112 71c1 8 15 7 15 -1l-5 -129c0 -3 -3 -4 -6 -4h-316l-23 -197c33 41 91 63 159 63z" />
    <glyph glyph-name="six" unicode="6" horiz-adv-x="529" 
d="M284 451c303 9 300 -457 -13 -450c-119 2 -231 85 -231 313c0 169 70 327 248 327c70 0 121 -27 162 -82c0 -1 0 -2 1 -3c15 -24 25 -56 22 -77c-3 -27 -19 -38 -34 -38c-20 0 -38 21 -22 54c10 20 6 48 -7 68c-3 4 -6 7 -10 11l-1 2l-1 1c-28 28 -63 41 -112 40
c-118 -2 -159 -180 -166 -265c-1 -11 4 -9 8 -2c25 49 75 99 156 101zM287 29c187 1 198 387 -1 387c-213 0 -216 -387 1 -387z" />
    <glyph glyph-name="seven" unicode="7" horiz-adv-x="488" 
d="M448 631c20 0 22 -5 18 -24c-3 -13 -4 -27 -6 -40c-126 -91 -256 -253 -256 -523c0 -30 -19 -46 -37 -46s-36 15 -36 46c0 222 121 405 251 502c18 13 27 21 -2 21h-230c-92 0 -101 -13 -114 -70c-2 -8 -16 -7 -15 1l4 129c0 3 3 4 7 4h416z" />
    <glyph glyph-name="eight" unicode="8" horiz-adv-x="527" 
d="M334 345c261 -45 215 -352 -70 -352c-259 0 -316 288 -49 346c-211 56 -168 303 58 303c255 0 259 -250 61 -297zM273 620c-132 0 -202 -201 19 -261c143 40 152 261 -19 261zM273 16c167 1 257 240 -13 310c-213 -60 -171 -310 13 -310z" />
    <glyph glyph-name="nine" unicode="9" horiz-adv-x="530" 
d="M279 641c118 -3 231 -85 231 -314c0 -239 -137 -333 -263 -333c-40 0 -78 9 -111 26c-2 1 -3 1 -4 2h-1c-34 18 -57 43 -69 65c0 1 0 2 -1 2c0 2 -1 3 -2 4c-3 6 -4 11 -5 17c0 2 0 3 1 4c-1 21 13 34 27 34s28 -11 32 -35c2 -13 2 -29 15 -45c34 -34 74 -51 115 -51
c94 0 186 93 186 272c0 11 -5 10 -8 3c-25 -50 -76 -100 -157 -102c-303 -9 -300 457 14 451zM263 225c214 0 216 388 0 387c-188 0 -199 -387 0 -387z" />
    <glyph glyph-name="A" unicode="A" horiz-adv-x="742" 
d="M715 16c9 -2 9 -12 -1 -12h-66v1h-78v-1h-71c-11 0 -11 10 -1 12c33 5 67 -2 49 42c-12 31 -25 61 -38 92h-331l-38 -92c-18 -44 33 -37 66 -42c10 -2 9 -12 -1 -12h-88v1h-23v-1h-65c-10 0 -11 10 -1 12c34 5 65 -3 86 48l222 531c13 31 19 44 54 37l241 -574
c21 -44 51 -37 84 -42zM188 172h311c-49 115 -98 230 -146 345c-7 15 -14 15 -20 0z" />
    <glyph glyph-name="B" unicode="B" horiz-adv-x="609" 
d="M401 363c103 -13 188 -63 188 -176s-105 -182 -248 -182h-312c-10 0 -11 15 -1 16c34 6 63 -2 63 50v494c0 53 -29 44 -63 50c-10 2 -9 17 1 17h285c85 0 201 -29 201 -139c0 -82 -68 -118 -114 -130zM297 27c131 0 219 65 219 159c0 103 -85 158 -213 158
c-36 0 -50 1 -85 -3c-22 -2 -24 31 1 28c35 -4 47 -3 81 -3c84 0 149 58 149 124c0 81 -68 119 -160 119h-79s-45 -7 -45 -42l-1 9v-516l1 9c0 -35 21 -42 46 -42h86z" />
    <glyph glyph-name="C" unicode="C" horiz-adv-x="648" 
d="M590 123c6 9 14 13 20 13c14 0 25 -16 11 -32c-57 -67 -135 -113 -256 -113c-459 0 -459 655 0 655c51 0 96 -9 135 -23c28 -6 84 -40 102 -61c32 -38 7 -74 -22 -74c-14 0 -30 8 -41 29c-13 26 -2 59 -67 89c-32 11 -74 14 -107 14c-342 0 -350 -604 0 -604
c138 0 189 55 225 107z" />
    <glyph glyph-name="D" unicode="D" horiz-adv-x="685" 
d="M297 632c490 0 489 -627 0 -627h-268c-11 0 -11 15 -1 16c33 6 62 -2 62 50v494c0 53 -29 44 -62 50c-10 2 -10 17 1 17h268zM280 26c416 0 410 583 0 583h-71c-25 0 -45 -7 -45 -42v-498c0 -35 21 -43 46 -43h70z" />
    <glyph glyph-name="E" unicode="E" horiz-adv-x="570" 
d="M533 115c2 9 17 8 17 -1l-5 -104c0 -4 -4 -5 -7 -5h-509c-11 0 -11 15 -1 16c33 6 62 -2 62 50v494c0 53 -29 44 -62 50c-10 2 -10 17 1 17h486c4 0 7 -2 7 -5l6 -105c0 -8 -16 -10 -18 -1c-15 65 -40 88 -144 88h-157c-25 0 -45 -7 -45 -42v-252h199c62 0 76 33 78 63
c1 10 17 10 17 -1v-146c0 -10 -16 -11 -17 -1c-2 31 -16 63 -78 63h-199v-224c0 -30 16 -40 37 -42h199c104 0 118 23 133 88z" />
    <glyph glyph-name="F" unicode="F" horiz-adv-x="548" 
d="M522 627l6 -105c0 -8 -15 -10 -17 -1c-15 65 -40 88 -145 88h-157c-25 0 -45 -7 -45 -42v-252h199c62 0 76 33 78 63c1 10 17 10 17 -1v-146c0 -10 -16 -11 -17 -1c-2 31 -16 63 -78 63h-199v-222c0 -52 30 -44 63 -50c10 -1 10 -16 -1 -16h-197c-11 0 -11 15 -1 16
c33 6 63 -2 63 50v494c0 53 -30 44 -63 50c-10 2 -10 17 1 17h486c4 0 7 -2 7 -5z" />
    <glyph glyph-name="G" unicode="G" horiz-adv-x="703" 
d="M674 264c11 0 11 -15 1 -17c-33 -5 -57 -8 -57 -61v-147c0 -3 -3 -5 -5 -5c-73 0 -110 -43 -249 -43c-458 0 -458 655 0 655c51 0 96 -9 135 -23h1c4 -1 9 -3 15 -6c30 -13 68 -34 86 -55c32 -38 7 -74 -22 -74c-14 0 -29 8 -40 29c-14 25 -4 57 -63 87
c-26 13 -65 16 -112 16c-353 0 -352 -604 0 -604c73 0 122 16 156 37c20 14 28 26 28 46v93c0 53 -41 50 -74 55c-10 2 -10 17 1 17h199z" />
    <glyph glyph-name="H" unicode="H" horiz-adv-x="705" 
d="M677 21c10 -1 9 -16 -1 -16h-197c-11 0 -11 15 -1 16c33 6 62 -2 62 50v248h-376v-248c0 -52 29 -44 63 -50c10 -1 9 -16 -1 -16h-197c-11 0 -11 15 -1 16c33 6 62 -2 62 50v494c0 53 -29 44 -62 50c-10 2 -10 17 1 17h197c10 0 11 -15 1 -17c-34 -6 -63 3 -63 -50v-223
h376v223c0 53 -29 44 -62 50c-10 2 -10 17 1 17h197c10 0 11 -15 1 -17c-34 -6 -63 3 -63 -50v-494c0 -52 29 -44 63 -50z" />
    <glyph glyph-name="I" unicode="I" horiz-adv-x="255" 
d="M227 21c10 -1 9 -16 -1 -16h-197c-11 0 -11 15 -1 16c33 6 62 -2 62 50v494c0 53 -29 44 -62 50c-10 2 -10 17 1 17h197c10 0 11 -15 1 -17c-34 -6 -63 3 -63 -50v-494c0 -52 29 -44 63 -50z" />
    <glyph glyph-name="J" unicode="J" horiz-adv-x="223" 
d="M214 632c11 0 11 -15 1 -17c-33 -6 -62 3 -62 -50v-515c0 -92 -67 -161 -156 -171c-20 -2 -52 -5 -73 6c-44 21 -21 74 18 59c26 -10 38 -44 64 -44c8 0 18 4 30 13c25 26 43 75 43 137v515c0 53 -29 44 -63 50c-10 2 -9 17 1 17h197z" />
    <glyph glyph-name="K" unicode="K" horiz-adv-x="690" 
d="M627 222c44 0 43 -59 42 -89c0 -70 -33 -139 -120 -139c-134 0 -223 304 -352 310c-18 -2 -18 27 -1 25c15 -2 9 -3 24 -3c123 0 241 124 277 239c10 44 -18 44 -52 50c-9 2 -9 17 1 17h188c11 0 11 -15 1 -17c-33 -6 -54 -12 -62 -39v1c-30 -125 -157 -235 -272 -264
c119 -24 177 -268 287 -268c53 0 71 62 42 95c-19 21 -35 26 -35 48c0 21 17 34 32 34zM227 21c10 -1 10 -16 -1 -16h-197c-10 0 -11 15 -1 16c34 6 63 -2 63 50v494c0 53 -29 44 -63 50c-10 2 -9 17 1 17h197c11 0 11 -15 1 -17c-33 -6 -62 3 -62 -50v-494
c0 -52 29 -44 62 -50z" />
    <glyph glyph-name="L" unicode="L" horiz-adv-x="590" 
d="M533 132c2 9 17 8 17 -1l-5 -121c0 -4 -4 -5 -7 -5h-509c-11 0 -11 15 -1 16c33 6 62 -2 62 50v494c0 53 -29 44 -62 50c-10 2 -10 17 1 17h197c10 0 11 -15 1 -17c-34 -6 -63 3 -63 -50v-496c0 -30 16 -40 37 -42h188c104 0 129 40 144 105z" />
    <glyph glyph-name="M" unicode="M" horiz-adv-x="773" 
d="M745 21c10 -1 9 -16 -1 -16h-197c-11 0 -11 15 -1 16c33 6 62 -2 62 50v487l-210 -497h-31c-18 0 -26 6 -35 17l-203 466l5 -466c1 -54 35 -51 68 -57c10 -1 10 -17 -1 -17h-172c-11 0 -11 16 -1 17c33 6 68 3 68 57l5 483c0 52 -29 48 -62 54c-10 2 -10 17 1 17h106
c23 0 34 -9 41 -25l203 -460c4 -9 14 -9 17 0l201 485h136c10 0 11 -15 1 -17c-34 -6 -63 3 -63 -50v-494c0 -52 29 -44 63 -50z" />
    <glyph glyph-name="N" unicode="N" horiz-adv-x="701" 
d="M672 628c11 0 11 -15 1 -17c-34 -5 -74 3 -74 -50l-1 -547c0 -10 -4 -15 -14 -15h-35c-18 0 -26 6 -35 18l-385 535l5 -486c0 -52 35 -45 69 -50c10 -2 9 -17 -1 -17h-173c-11 0 -11 15 -1 17c34 5 69 -1 69 53l5 497c-2 47 -30 40 -63 45c-10 2 -9 17 1 17h103
c30 0 39 -8 53 -27c119 -166 239 -333 359 -500c8 -12 17 -8 17 5v460c-3 47 -41 40 -74 45c-10 2 -9 17 1 17h173z" />
    <glyph glyph-name="O" unicode="O" horiz-adv-x="770" 
d="M365 642c460 0 460 -657 0 -657s-460 657 0 657zM365 5c354 0 355 617 0 617c-354 0 -353 -617 0 -617zM419 321c9 -4 9 -12 0 -15c-11 -4 -28 -2 -35 -10c-8 -7 -6 -25 -11 -36c-4 -9 -12 -9 -15 0c-4 11 -2 28 -10 35c-7 8 -25 6 -36 11c-9 4 -9 12 0 15
c11 4 28 2 35 10c8 7 6 25 11 36c4 9 12 9 15 0c4 -11 2 -28 10 -35c7 -8 25 -6 36 -11z" />
    <glyph glyph-name="P" unicode="P" horiz-adv-x="610" 
d="M320 628c142 0 270 -71 270 -209c0 -175 -203 -228 -346 -212l-26 -1c-18 0 -18 22 -1 20c15 -2 9 -3 24 -3c148 0 264 67 264 195s-101 188 -263 188h-34l3 -1c-25 0 -46 -7 -46 -42v-497c0 -53 29 -45 63 -50c10 -2 9 -17 -1 -17h-198c-10 0 -11 15 -1 17
c34 5 63 -3 63 50v495c0 53 -29 45 -63 50c-10 2 -9 17 1 17h291z" />
    <glyph glyph-name="Q" unicode="Q" horiz-adv-x="760" 
d="M365 642c460 0 460 -657 0 -657s-460 657 0 657zM365 622c-354 0 -353 -617 0 -617c354 0 355 617 0 617zM692 -37c18 -21 6 -44 -11 -62c-38 -39 -84 -75 -140 -75c-93 0 -161 98 -225 98c-8 0 -15 -1 -22 -4c-13 -5 -19 9 -6 17c31 21 64 24 98 20
c89 -10 139 -102 218 -90c56 10 26 58 40 90c4 10 15 15 26 15c9 0 17 -3 22 -9z" />
    <glyph glyph-name="R" unicode="R" horiz-adv-x="667" 
d="M604 221c44 0 43 -60 42 -90c-1 -70 -34 -140 -121 -140c-134 0 -178 210 -307 215c-18 -1 -18 22 -1 20c15 -2 8 -3 24 -3c148 0 264 67 264 195s-101 188 -264 188h-33l3 -1c-25 0 -46 -7 -46 -42v-497c0 -53 29 -45 63 -50c9 -2 9 -17 -1 -17h-198c-11 0 -11 15 -1 17
c33 5 63 -3 63 50v495c0 53 -30 45 -63 50c-10 2 -10 17 1 17h290c143 0 271 -71 271 -209c0 -140 -129 -200 -254 -211c104 -26 129 -165 222 -165c54 0 81 58 51 91c-18 21 -37 34 -37 56c0 19 14 31 32 31z" />
    <glyph glyph-name="S" unicode="S" horiz-adv-x="584" 
d="M275 373c127 -26 289 -53 289 -200c0 -131 -127 -185 -259 -185c-110 0 -192 25 -275 101c-18 18 -6 37 9 37c6 0 12 -3 18 -11c53 -75 157 -107 234 -105c194 5 296 212 63 267c-129 31 -306 46 -306 186c0 124 116 176 235 176c45 0 90 -8 130 -22c14 -4 30 -11 47 -21
h2c17 -11 32 -22 41 -33c28 -33 9 -62 -15 -62c-10 0 -22 5 -30 19c-16 27 -4 59 -66 83c-32 10 -68 15 -104 15c-88 0 -170 -34 -170 -120c0 -50 26 -97 157 -125z" />
    <glyph glyph-name="T" unicode="T" horiz-adv-x="615" 
d="M589 623l5 -116c1 -9 -15 -10 -17 -1c-15 83 -13 99 -128 99h-60c-25 0 -45 -7 -45 -42v-497c0 -53 30 -45 63 -50c10 -2 10 -17 -1 -17h-197c-11 0 -11 15 -2 17c34 5 63 -3 63 50v497c0 35 -20 42 -44 42h-60c-115 0 -113 -16 -128 -99c-2 -9 -18 -8 -17 1l5 116
c0 4 3 5 7 5h549c4 0 7 -1 7 -5z" />
    <glyph glyph-name="U" unicode="U" horiz-adv-x="709" 
d="M680 628c11 0 11 -15 1 -17c-33 -5 -74 3 -74 -50v-330c1 -162 -129 -244 -258 -244c-130 0 -259 82 -258 244v330c0 53 -30 45 -63 50c-10 2 -10 17 1 17h198c10 0 10 -15 1 -17c-34 -5 -63 3 -63 -50v-330c2 -140 104 -208 206 -208c104 0 209 71 209 208v333
c-1 49 -41 42 -74 47c-10 2 -9 17 1 17h173z" />
    <glyph glyph-name="V" unicode="V" horiz-adv-x="744" 
d="M716 628c10 0 10 -15 1 -17c-34 -5 -69 0 -90 -50c-76 -182 -162 -388 -236 -564c-29 -9 -39 8 -52 36l-222 530c-21 50 -55 43 -89 48c-10 2 -9 17 1 17h215c11 0 11 -15 2 -17c-34 -5 -65 0 -47 -44l192 -453c3 -7 7 -11 10 -11c4 0 7 4 10 11l191 454
c18 44 -30 38 -64 43c-10 2 -9 17 1 17h177z" />
    <glyph glyph-name="W" unicode="W" horiz-adv-x="1176" 
d="M1148 628c10 0 10 -15 1 -17c-34 -5 -70 0 -91 -51l-235 -563c-29 -9 -39 8 -52 36c-62 170 -124 340 -187 510l-227 -546c-29 -9 -39 8 -52 36l-190 526c-22 50 -53 47 -87 52c-10 2 -9 17 1 17h216c10 0 10 -15 1 -17c-34 -5 -68 -3 -50 -47l161 -450
c3 -7 7 -11 11 -11c3 0 7 4 10 11c59 139 146 348 204 486c1 3 4 7 6 11c10 17 21 22 51 17l184 -514c6 -15 13 -15 20 0l191 453c17 44 -19 39 -53 44c-9 2 -9 17 1 17h166z" />
    <glyph glyph-name="X" unicode="X" horiz-adv-x="711" 
d="M684 16c9 -2 9 -17 -1 -17h-222c-10 0 -11 16 -1 17c40 2 68 5 38 45c-161 221 -97 136 -155 214l-164 -216c-30 -40 0 -41 40 -43c10 -1 9 -17 -1 -17h-167c-10 0 -10 15 -1 17c34 5 61 -2 97 46l179 236c-33 44 -92 122 -200 267c-37 47 -65 41 -99 46c-9 2 -9 17 1 17
h222c10 0 10 -16 1 -17c-40 -2 -68 -5 -38 -45c154 -208 88 -120 143 -194c5 -7 9 -10 13 -10s8 3 13 9l146 193c30 39 4 45 -36 47c-10 1 -9 17 1 17h167c10 0 10 -15 1 -17c-34 -5 -62 1 -98 -47v1l-177 -234c35 -48 95 -128 197 -266c37 -48 67 -44 101 -49z" />
    <glyph glyph-name="Y" unicode="Y" horiz-adv-x="751" 
d="M722 628c11 0 11 -9 1 -11c-34 -6 -57 2 -93 -46l-218 -307v-204c0 -53 29 -44 63 -50c10 -1 9 -11 -1 -11h-198c-10 0 -11 10 -1 11c34 6 63 -3 63 50v198l-217 313c-36 48 -60 40 -93 46c-10 2 -10 11 1 11h221c10 0 11 -11 1 -11c-40 -2 -73 -5 -43 -45l180 -265
c5 -6 9 -9 13 -9c3 0 7 3 12 8l189 267c27 37 -5 42 -44 44c-10 0 -10 11 1 11h163z" />
    <glyph glyph-name="Z" unicode="Z" horiz-adv-x="589" 
d="M530 127c2 9 17 8 17 -1l-5 -122c-1 -4 -4 -5 -8 -5h-494v1c-22 2 -23 23 -16 35c130 191 289 379 422 570h-263c-104 0 -124 -40 -139 -105c-2 -9 -17 -7 -17 1l5 122c1 4 4 5 8 5h509l-431 -588c-6 -11 -4 -18 10 -18h263c104 0 124 40 139 105z" />
    <glyph glyph-name="a" unicode="a" horiz-adv-x="464" 
d="M435 16c10 0 12 -13 1 -16s-23 -5 -35 -5c-33 0 -65 13 -65 57v50c-23 -60 -78 -111 -178 -111c-89 0 -138 55 -138 113c1 120 138 144 234 149c47 3 82 1 82 8v79c0 70 -59 100 -120 100c-26 0 -51 -5 -73 -15c-40 -20 -37 -59 -25 -86c14 -33 -8 -55 -30 -55
c-19 0 -38 15 -39 51c0 8 2 16 5 25v2l3 6c3 9 7 19 13 26c4 6 8 11 12 16c1 1 1 1 2 1c3 5 7 8 11 11c36 30 87 45 137 45c87 0 172 -44 172 -127v-276c0 -41 12 -48 31 -48zM179 23c61 0 154 37 157 182v31c-86 0 -238 -8 -238 -133c0 -44 31 -80 81 -80z" />
    <glyph glyph-name="b" unicode="b" horiz-adv-x="486" 
d="M247 467c130 0 209 -103 209 -234c0 -137 -89 -242 -229 -242c-149 0 -203 82 -203 221v387c0 54 -7 53 -54 53c-11 0 -15 14 1 18c36 10 76 22 109 38c6 3 12 2 12 -5v-296c37 41 89 60 155 60zM219 15c97 0 159 107 162 213c3 107 -49 211 -165 211
c-63 0 -124 -45 -124 -85v-176c0 -95 34 -164 127 -163z" />
    <glyph glyph-name="c" unicode="c" horiz-adv-x="483" 
d="M415 99c4 7 10 10 15 10c9 0 17 -11 10 -23c-30 -55 -107 -91 -188 -91c-112 0 -229 63 -231 234c-2 140 92 238 229 238c49 0 96 -15 133 -45h1c0 -1 1 -2 2 -3c3 -3 16 -14 18 -17l2 -2l5 -6c1 0 1 -1 2 -2c3 -5 6 -9 9 -13c1 -1 1 -2 2 -2c8 -13 13 -26 14 -36
c3 -38 -17 -55 -37 -55c-21 0 -42 19 -32 51c8 25 6 58 -21 76c-1 1 -2 2 -3 2c-3 3 -7 5 -12 6h1c-22 11 -46 17 -69 17c-110 0 -168 -83 -168 -207c0 -150 86 -209 172 -207c57 1 115 23 146 75z" />
    <glyph glyph-name="d" unicode="d" horiz-adv-x="533" 
d="M502 26c14 -1 13 -14 0 -15l-99 -11c-16 -2 -20 4 -20 19v32c-36 -41 -88 -60 -154 -60c-131 0 -209 103 -209 234c0 138 88 242 229 242c61 0 107 -23 134 -57v189c0 54 -6 53 -54 53c-10 0 -15 14 1 18c37 10 77 22 110 38c5 3 12 2 12 -5v-642c0 -27 21 -33 50 -35z
M260 19c63 0 123 45 123 85v205c0 101 -65 135 -126 134c-98 0 -159 -107 -162 -213c-3 -107 49 -211 165 -211z" />
    <glyph glyph-name="e" unicode="e" horiz-adv-x="489" 
d="M449 262c0 -17 -10 -32 -33 -32h-319c1 -149 86 -208 172 -206c58 1 110 23 141 75c4 7 10 10 15 10c9 0 17 -11 10 -23c-30 -55 -101 -91 -182 -91c-112 0 -230 63 -232 234c-2 140 81 238 218 238c123 0 210 -80 210 -205zM330 258c38 0 53 17 53 50
c0 66 -47 130 -136 130c-97 -3 -142 -74 -148 -180h231z" />
    <glyph glyph-name="f" unicode="f" horiz-adv-x="322" 
d="M352 642c21 -32 2 -54 -19 -54c-14 0 -29 9 -34 29c-7 28 -26 53 -61 54c-49 -2 -79 -53 -79 -114v-97h116c17 0 17 -22 0 -22h-116v-372c0 -53 29 -44 63 -50c10 -1 9 -17 -1 -17h-192c-11 0 -11 16 -1 17c33 6 63 -3 63 50v372h-57c-18 0 -18 22 0 22h57v97
c0 110 93 147 173 133c5 0 9 -1 13 -2c2 -1 5 -1 7 -1v-1c28 -8 56 -26 68 -44z" />
    <glyph glyph-name="g" unicode="g" horiz-adv-x="475" 
d="M217 31c205 -1 238 -97 238 -180c0 -80 -76 -174 -241 -174c-175 0 -234 82 -234 169c0 42 16 87 48 117c10 10 20 14 27 14c13 0 19 -15 7 -38c-64 -119 5 -239 152 -239c117 -1 165 78 165 151c0 101 -52 141 -164 141h-59c-94 0 -112 29 -112 63c0 24 15 53 75 61
c-164 77 -130 351 95 351c18 0 35 -2 51 -5c8 -3 16 -4 25 -4c41 0 72 31 77 63c4 26 21 37 38 37c25 0 50 -27 24 -66c-17 -26 -62 -51 -99 -57c139 -89 103 -339 -116 -339h-58c-47 0 -68 -11 -68 -33c0 -19 15 -31 68 -31h61v-1zM214 444c-160 0 -165 -325 0 -325
s161 326 0 325z" />
    <glyph glyph-name="h" unicode="h" horiz-adv-x="576" 
d="M549 17c9 -2 9 -17 -1 -17h-193c-10 0 -10 15 -1 17c34 6 63 -3 63 50v266c0 65 -53 95 -112 95c-69 0 -146 -43 -146 -123v-238c0 -53 29 -44 63 -50c10 -2 9 -17 -1 -17h-192c-11 0 -11 15 -1 17c33 6 62 -3 62 50v533c0 53 -6 53 -54 53c-10 0 -15 13 1 18
c37 9 77 21 110 37c5 3 12 3 12 -4v-321c35 56 102 83 166 83c83 0 161 -45 161 -133v-266c0 -53 29 -44 63 -50z" />
    <glyph glyph-name="i" unicode="i" 
d="M121 514c-33 0 -46 52 -46 75c0 30 23 45 46 45c22 0 45 -15 45 -45c0 -22 -13 -75 -45 -75zM222 17c10 -2 10 -17 -1 -17h-192c-10 0 -11 15 -1 17c34 6 63 -3 63 50v288c0 54 -7 53 -54 53c-11 0 -15 14 1 18c36 10 76 22 109 38c6 3 12 2 12 -5v-392
c0 -53 30 -44 63 -50z" />
    <glyph glyph-name="j" unicode="j" horiz-adv-x="168" 
d="M92 514c-32 0 -45 52 -45 75c0 30 23 45 46 45c22 0 45 -15 45 -45c0 -22 -14 -75 -46 -75zM119 464c5 3 12 2 12 -5v-508c0 -112 -73 -162 -153 -162c-14 0 -28 1 -42 4c-52 10 -41 64 -7 64c8 0 16 -3 26 -9c13 -9 31 -16 49 -16c16 0 32 6 44 21c13 16 14 53 14 83
v419c0 54 -6 53 -54 53c-10 0 -15 14 1 18c37 10 77 22 110 38z" />
    <glyph glyph-name="k" unicode="k" horiz-adv-x="562" 
d="M534 16c10 -1 10 -16 -1 -16h-184c-10 0 -11 15 -1 16c27 5 36 13 8 42l-116 122c-5 5 -11 7 -16 7s-10 -2 -13 -5c-20 -23 -38 -43 -52 -59v-56c0 -53 30 -44 63 -50c10 -2 10 -17 -1 -17h-192c-10 0 -11 15 -1 17c34 6 63 -3 63 50v533c0 53 -7 53 -54 53
c-10 0 -15 13 1 18c36 9 76 21 109 37c6 3 12 3 12 -4v-539l205 240l-1 -1c27 31 -9 36 -45 38c-10 1 -10 17 1 17h185c11 0 11 -16 2 -17c-58 -4 -85 -17 -119 -55v1c-35 -42 -79 -93 -120 -141l176 -186v1c43 -44 58 -40 91 -46z" />
    <glyph glyph-name="l" unicode="l" 
d="M222 17c10 -2 10 -17 -1 -17h-192c-10 0 -11 15 -1 17c34 6 63 -3 63 50v533c0 53 -7 53 -54 53c-10 0 -15 13 1 18c36 9 76 21 109 37c6 3 12 3 12 -4v-637c0 -53 30 -44 63 -50z" />
    <glyph glyph-name="m" unicode="m" horiz-adv-x="881" 
d="M853 17c10 -2 9 -17 -1 -17h-192c-11 0 -11 15 -1 17c33 6 62 -3 62 50v266c0 65 -51 95 -107 95c-66 0 -139 -43 -140 -122v-239c0 -53 30 -44 63 -50c10 -2 10 -17 -1 -17h-192c-10 0 -11 15 -1 17c34 6 63 -3 63 50v266c0 65 -51 95 -107 95c-67 0 -140 -43 -140 -123
v-238c0 -53 29 -44 63 -50c9 -2 9 -17 -1 -17h-193c-10 0 -10 15 -1 17c34 6 63 -3 63 50v288c0 54 -6 53 -54 53c-10 0 -15 14 1 18c37 10 77 22 110 38c5 3 12 2 12 -5v-76c34 56 99 83 160 83c67 0 131 -32 149 -95c33 63 102 94 168 94c80 0 154 -45 154 -132v-266
c0 -53 29 -44 63 -50z" />
    <glyph glyph-name="n" unicode="n" horiz-adv-x="576" 
d="M549 17c9 -2 9 -17 -1 -17h-193c-10 0 -10 15 -1 17c34 6 63 -3 63 50v266c0 65 -53 95 -112 95c-69 0 -146 -43 -146 -123v-238c0 -53 29 -44 63 -50c10 -2 9 -17 -1 -17h-192c-11 0 -11 15 -1 17c33 6 62 -3 62 50v288c0 54 -6 53 -54 53c-10 0 -15 14 1 18
c37 10 77 22 110 38c5 3 12 2 12 -5v-76c35 56 102 83 166 83c83 0 161 -45 161 -133v-266c0 -53 29 -44 63 -50z" />
    <glyph glyph-name="o" unicode="o" horiz-adv-x="503" 
d="M251 466c309 0 309 -476 0 -476c-308 0 -308 476 0 476zM251 10c208 0 209 436 0 436s-208 -436 0 -436z" />
    <glyph glyph-name="p" unicode="p" horiz-adv-x="523" 
d="M294 466c131 0 209 -103 209 -234c0 -138 -88 -242 -229 -242c-61 0 -107 23 -135 57v-230c0 -53 30 -45 63 -51c10 -1 10 -17 -1 -17h-192c-10 0 -11 16 -1 17c34 6 63 -2 63 51v532c0 54 -7 53 -54 53c-10 0 -15 14 1 18c36 10 76 21 110 38c5 3 11 2 11 -5v-47
c37 41 89 60 155 60zM266 14c97 0 159 107 162 213c3 107 -49 211 -165 211c-63 0 -124 -45 -124 -85v-205c0 -101 66 -135 127 -134z" />
    <glyph glyph-name="q" unicode="q" horiz-adv-x="513" 
d="M515 -234c10 -1 10 -17 -1 -17h-192c-11 0 -11 16 -1 17c34 6 63 -2 63 51v233c-37 -41 -89 -60 -155 -60c-130 0 -209 103 -209 234c0 137 89 242 229 242c65 0 113 -26 140 -63c8 9 41 43 55 43c4 0 8 -2 8 -10v-619c0 -53 29 -45 63 -51zM261 18c62 0 123 45 123 85
v232c0 67 -66 108 -127 107c-97 0 -159 -107 -162 -213c-3 -107 49 -211 166 -211z" />
    <glyph glyph-name="r" unicode="r" horiz-adv-x="443" 
d="M396 437c48 -35 20 -77 -10 -77c-13 0 -26 8 -34 28c-13 32 -38 45 -66 45c-58 0 -127 -55 -127 -131v-235c0 -53 29 -44 63 -50c9 -2 9 -17 -1 -17h-193c-10 0 -10 15 -1 17c34 6 63 -3 63 50v288c0 54 -6 53 -54 53c-10 0 -15 14 1 18c36 10 76 22 110 38
c5 3 12 2 12 -5v-80c31 55 89 87 147 87c31 0 62 -9 90 -29z" />
    <glyph glyph-name="s" unicode="s" horiz-adv-x="410" 
d="M227 272c73 -24 163 -52 163 -145c0 -103 -97 -138 -184 -138c-67 0 -135 24 -180 67c-10 10 -4 21 6 21c3 0 7 -1 10 -4c33 -29 88 -55 168 -55c78 0 122 45 122 89c0 57 -76 80 -122 95c-73 25 -171 40 -171 139c0 91 82 126 160 125c63 -1 107 -13 140 -46
c42 -42 16 -78 -12 -78c-14 0 -29 9 -35 32c-11 42 -38 66 -93 66c-66 0 -102 -37 -102 -74c0 -62 83 -78 130 -94z" />
    <glyph glyph-name="t" unicode="t" horiz-adv-x="279" 
d="M241 37c16 7 25 -13 8 -21c-34 -17 -72 -28 -105 -28c-54 0 -98 30 -97 113v332h-64c-17 0 -17 22 0 22c76 1 103 22 108 135c0 8 6 12 12 12s12 -4 12 -12v-135h75c18 0 18 -22 0 -22h-75v-330c0 -60 20 -83 57 -83c19 0 42 6 69 17z" />
    <glyph glyph-name="u" unicode="u" horiz-adv-x="531" 
d="M500 26c14 -1 13 -14 0 -15l-100 -11c-16 -2 -19 4 -19 19v58c-36 -56 -103 -84 -167 -84c-82 0 -160 45 -160 133v229c0 54 -7 53 -54 53c-10 0 -15 14 1 18c36 10 76 22 109 38c6 3 12 2 12 -5v-333c0 -65 54 -95 112 -95c70 0 147 43 147 123v201c0 54 -7 53 -54 53
c-11 0 -15 14 1 18c36 10 76 22 109 38c6 3 12 2 12 -5v-398c0 -27 21 -33 51 -35z" />
    <glyph glyph-name="v" unicode="v" horiz-adv-x="552" 
d="M524 464c10 0 10 -17 1 -18c-27 -4 -53 -1 -74 -24c-69 -164 -101 -241 -176 -422c-29 -8 -45 9 -57 36l-153 365c-21 49 -54 39 -87 45c-10 1 -10 18 1 18h207c10 0 10 -17 1 -18c-32 -5 -61 0 -48 -38c51 -121 63 -157 126 -305c6 -15 13 -15 19 0l128 304
c14 40 -32 33 -64 39c-10 1 -9 18 1 18h175z" />
    <glyph glyph-name="w" unicode="w" horiz-adv-x="880" 
d="M852 459c10 0 10 -17 1 -18c-33 -6 -68 2 -89 -48v1c-61 -149 -89 -227 -161 -399c-29 -8 -44 9 -57 36l-134 332c-52 -127 -83 -211 -149 -368c-28 -8 -44 9 -57 36l-158 390c-20 20 -45 16 -71 20c-9 1 -9 18 1 18h202c10 0 11 -17 1 -18c-33 -6 -64 1 -46 -43v1
c48 -118 56 -155 118 -301c6 -15 13 -15 19 0l134 328c0 2 1 4 2 5c6 18 21 41 39 34l146 -367c6 -15 13 -15 19 0l123 303l-1 -2c18 44 -30 36 -63 42c-10 1 -10 18 1 18h180z" />
    <glyph glyph-name="x" unicode="x" horiz-adv-x="560" 
d="M534 14c8 -2 8 -14 -1 -14h-194c-9 0 -9 13 -1 14c34 2 58 4 32 38c-100 139 -59 85 -101 141l-108 -143v1c-25 -34 0 -35 34 -37c8 -1 8 -14 -1 -14h-147c-9 0 -9 12 -1 14c28 5 50 -1 81 37l125 165c-25 33 -68 90 -142 189c-31 40 -55 33 -84 37c-8 2 -8 17 1 17h194
c9 0 9 -15 1 -16c-34 -2 -58 -2 -32 -36h-1c95 -128 51 -69 94 -128c4 -5 7 -8 11 -8l100 133c26 34 4 37 -30 39c-9 1 -8 16 1 16h147c9 0 9 -14 1 -16c-29 -5 -52 2 -83 -38l-121 -160c26 -36 70 -95 140 -189c31 -41 56 -37 85 -42z" />
    <glyph glyph-name="y" unicode="y" horiz-adv-x="548" 
d="M519 459c11 0 11 -15 1 -16c-33 -6 -67 0 -88 -50v2l-193 -462c-30 -71 -76 -123 -154 -123c-54 0 -92 28 -109 59c-19 36 3 59 26 59c15 0 30 -10 34 -32c6 -35 21 -56 58 -56c68 0 99 61 122 115c12 31 0 58 -8 76l-153 365c-21 49 -54 41 -87 47c-10 1 -10 16 1 16
h207c10 0 10 -15 1 -16c-32 -6 -61 -2 -48 -40c51 -121 63 -157 126 -305c6 -15 13 -15 19 0l128 304c14 40 -31 35 -64 41c-9 1 -9 16 1 16h180z" />
    <glyph glyph-name="z" unicode="z" horiz-adv-x="444" 
d="M388 113c2 8 16 7 16 -1l-5 -108c0 -3 -3 -4 -6 -4h-357c-16 0 -21 17 -8 33l294 406h-147c-93 0 -116 -36 -129 -93c-2 -8 -16 -7 -15 0l5 109c0 3 2 4 6 4h345c19 0 19 -12 12 -23c-25 -35 -50 -69 -74 -104l-150 -208c-24 -35 -49 -69 -74 -104h159
c93 0 115 35 128 93z" />
    <glyph glyph-name="exclam" unicode="!" horiz-adv-x="123" 
d="M71 129c-1 -11 -18 -11 -19 0c-10 140 -31 334 -31 472c0 23 21 35 41 35s39 -11 39 -35c0 -138 -20 -332 -30 -472zM61 87c30 0 42 -29 42 -48c0 -28 -21 -42 -41 -42c-21 0 -42 14 -42 42c0 20 12 48 41 48z" />
    <glyph glyph-name="quotedbl" unicode="&#x22;" horiz-adv-x="217" 
d="M119 485c0 29 21 43 42 43s42 -14 42 -43c0 -33 -21 -42 -34 -95c-3 -12 -13 -14 -16 0c-14 53 -34 62 -34 95zM15 485c0 29 21 43 43 43c21 0 42 -14 42 -43c0 -33 -21 -42 -34 -95c-3 -12 -13 -14 -17 0c-14 53 -34 62 -34 95z" />
    <glyph glyph-name="numbersign" unicode="#" horiz-adv-x="704" 
d="M671 453c8 0 13 -7 12 -14c-1 -8 -8 -15 -17 -15h-163l-31 -213h164c8 0 14 -6 13 -14c-2 -8 -9 -14 -17 -14h-164l-23 -165c-1 -7 -9 -14 -17 -14s-13 7 -12 14l24 165h-214l-23 -165c-1 -7 -9 -14 -16 -14c-8 0 -14 7 -13 14l24 165h-164c-8 0 -14 6 -13 14
c2 8 9 14 17 14h164l30 213h-163c-9 0 -14 7 -13 15c1 7 9 14 17 14h163l24 164c1 8 8 14 16 14s14 -6 12 -14l-23 -164h213l24 164c1 8 8 14 16 14s13 -6 12 -14l-23 -164h164zM444 211l30 213h-213l-31 -213h214z" />
    <glyph glyph-name="dollar" unicode="$" horiz-adv-x="582" 
d="M562 176c0 -129 -125 -183 -255 -184v-62c0 -8 -7 -15 -16 -15c-8 0 -15 7 -15 15v63c-96 4 -171 31 -246 100c-19 18 -7 37 9 37c6 0 13 -4 18 -11c49 -70 144 -102 219 -104v228c0 9 7 16 15 16c9 0 16 -7 16 -16v-227c182 16 271 212 46 265c-129 30 -306 45 -306 184
c0 122 113 174 229 176v62c0 8 7 15 15 15c9 0 16 -7 16 -15v-63c53 -3 104 -15 150 -41c1 0 3 -1 4 -2c16 -9 32 -20 41 -31c28 -34 9 -62 -15 -62c-10 0 -22 5 -30 19c-16 26 -5 59 -67 83c-26 8 -54 13 -83 14v-206c0 -8 -7 -15 -16 -15c-8 0 -15 7 -15 15v207
c-83 -3 -158 -38 -158 -120c0 -50 25 -97 156 -124c126 -27 288 -54 288 -201z" />
    <glyph glyph-name="percent" unicode="%" horiz-adv-x="604" 
d="M527 639c3 4 8 6 12 6c10 0 20 -11 11 -23l-471 -627c-3 -4 -7 -6 -11 -6c-11 0 -21 11 -12 23l415 552c-25 -9 -51 -13 -78 -13c-39 0 -79 9 -114 22c50 -80 12 -212 -119 -212c-188 0 -184 274 0 274c25 0 46 -5 64 -13c45 -28 104 -47 160 -47c54 0 107 18 143 64z
M161 378c118 0 114 240 -1 240s-117 -240 1 -240zM444 274c184 0 189 -274 0 -274c-188 0 -184 274 0 274zM445 17c118 0 113 240 -2 240s-116 -240 2 -240z" />
    <glyph glyph-name="ampersand" unicode="&#x26;" horiz-adv-x="659" 
d="M570 491c-13 35 7 55 29 55c20 0 42 -17 39 -57c-8 -90 -89 -130 -171 -162c184 -41 174 -341 -174 -337c-349 5 -337 321 -108 347l8 -1c-198 43 -167 311 64 308c76 -1 170 -39 170 -129c0 -26 -15 -38 -30 -38c-17 0 -33 16 -25 47c17 64 -38 99 -101 99
c-68 0 -145 -42 -145 -139c0 -79 43 -137 120 -138c17 0 13 -17 0 -17c-191 3 -221 -305 46 -308c106 -1 213 46 223 147c10 95 -37 134 -90 134c-18 0 -37 -5 -55 -14c0 0 -1 0 -2 -1c-17 -7 -31 -15 -43 -24c-30 -31 21 -53 21 -87c0 -25 -15 -39 -33 -39
c-65 1 -45 97 -2 138h1c2 2 4 5 6 6c82 74 296 93 252 210z" />
    <glyph glyph-name="parenleft" unicode="(" horiz-adv-x="166" 
d="M149 628c-80 -214 -80 -552 0 -765c7 -19 -5 -22 -14 -8c-154 240 -154 540 0 780c9 15 21 11 14 -7z" />
    <glyph glyph-name="quotesingle" unicode="'" horiz-adv-x="121" 
d="M25 468c-16 37 9 59 35 59c21 0 43 -16 40 -53c-2 -26 -22 -65 -39 -89c-7 -9 -19 -4 -16 7c18 56 -10 52 -20 76z" />
    <glyph glyph-name="parenright" unicode=")" horiz-adv-x="168" 
d="M29 651c153 -240 153 -540 0 -780c-9 -14 -21 -11 -14 8c80 213 80 551 0 765c-7 18 5 22 14 7z" />
    <glyph glyph-name="asterisk" unicode="*" horiz-adv-x="238" 
d="M197 443c30 -17 13 -58 -15 -58c-5 0 -10 2 -16 5c-20 11 -19 26 -42 51c10 -32 22 -40 22 -63c0 -20 -15 -31 -31 -31c-15 0 -31 11 -31 31c0 23 14 30 23 63c-23 -25 -23 -40 -43 -51c-6 -3 -11 -5 -16 -5c-28 0 -45 41 -15 58c20 12 33 5 64 12c-31 7 -44 0 -64 12
c-30 17 -13 58 15 58c5 0 10 -2 16 -5c20 -11 20 -26 43 -51c-10 32 -23 40 -23 63c0 21 16 31 31 31c16 0 31 -10 31 -31c0 -23 -13 -31 -23 -63c23 25 23 40 43 51c6 3 11 5 16 5c28 0 45 -41 15 -59c-19 -11 -33 -4 -64 -11c31 -7 45 0 64 -12z" />
    <glyph glyph-name="comma" unicode="," horiz-adv-x="122" 
d="M25 3c-16 37 10 59 35 59c22 0 44 -16 41 -53c-3 -26 -23 -66 -40 -90c-7 -9 -19 -4 -15 7c17 56 -11 52 -21 77z" />
    <glyph glyph-name="plus" unicode="+" horiz-adv-x="453" 
d="M405 226c32 0 32 -43 0 -43h-158v-158c0 -16 -11 -24 -22 -24c-10 0 -21 8 -21 24v158h-160c-29 0 -30 42 0 42h160v161c0 15 11 22 22 22c10 0 21 -7 21 -22v-160h158z" />
    <glyph glyph-name="hyphen" unicode="-" horiz-adv-x="448" 
d="M404 265c32 0 32 -43 0 -43h-361c-29 0 -30 42 0 42z" />
    <glyph glyph-name="period" unicode="." horiz-adv-x="129" 
d="M64 82c25 0 45 -20 45 -44c0 -25 -20 -44 -45 -44c-24 0 -44 19 -44 44c0 24 20 44 44 44z" />
    <glyph glyph-name="slash" unicode="/" horiz-adv-x="447" 
d="M394 724c4 8 10 11 16 11c11 0 20 -11 14 -25l-372 -797c-3 -7 -9 -10 -15 -10c-10 0 -21 10 -14 24z" />
    <glyph glyph-name="colon" unicode=":" horiz-adv-x="129" 
d="M64 281c-24 0 -44 20 -44 44s20 44 44 44c25 0 45 -20 45 -44s-20 -44 -45 -44zM64 160c25 0 45 -20 45 -44s-20 -44 -45 -44c-24 0 -44 20 -44 44s20 44 44 44z" />
    <glyph glyph-name="semicolon" unicode=";" horiz-adv-x="129" 
d="M64 280c-24 0 -44 20 -44 44s20 44 44 44c25 0 45 -20 45 -44s-20 -44 -45 -44zM29 103c-16 37 9 59 35 59c21 0 43 -16 40 -53c-2 -26 -22 -65 -39 -89c-7 -9 -19 -5 -16 7c18 56 -10 52 -20 76z" />
    <glyph glyph-name="less" unicode="&#x3c;" horiz-adv-x="224" 
d="M20 229l131 165h53l-130 -165l130 -166h-53z" />
    <glyph glyph-name="equal" unicode="=" horiz-adv-x="392" 
d="M43 294c-29 0 -30 43 0 43h305c31 0 32 -43 0 -43h-305zM348 192c31 0 32 -43 0 -43h-305c-29 0 -30 43 0 43h305z" />
    <glyph glyph-name="greater" unicode="&#x3e;" horiz-adv-x="224" 
d="M74 394l130 -165l-130 -166h-54l131 166l-131 165h54z" />
    <glyph glyph-name="question" unicode="?" horiz-adv-x="494" 
d="M247 647c137 0 227 -57 227 -156c0 -173 -256 -196 -256 -351c0 -15 -9 -22 -18 -22c-8 0 -16 6 -18 18c-25 205 210 208 210 360c0 69 -42 126 -140 126c-75 0 -150 -40 -151 -131c0 -36 -20 -52 -40 -52c-29 0 -57 33 -30 92c34 74 110 116 216 116zM200 87
c30 0 42 -29 42 -48c0 -28 -21 -42 -42 -42s-42 14 -42 42c0 20 13 48 42 48z" />
    <glyph glyph-name="underscore" unicode="_" horiz-adv-x="450" 
d="M406 42c31 0 32 -43 0 -43h-363c-29 0 -30 43 0 43h363z" />
    <glyph glyph-name="bracketright" unicode="]" horiz-adv-x="158" 
d="M135 -70c-1 -9 -6 -16 -15 -16h-86c-22 0 -21 28 0 28h73v729h-73c-22 0 -21 28 0 28h86c7 0 15 -7 15 -14v-755z" />
    <glyph glyph-name="backslash" unicode="\" horiz-adv-x="447" 
d="M424 -70c7 -14 -4 -24 -14 -24c-6 0 -12 3 -15 10l-372 797c-6 15 3 25 14 25c6 0 12 -3 16 -11z" />
    <glyph glyph-name="bracketleft" unicode="[" horiz-adv-x="157" 
d="M118 -64c21 0 21 -28 0 -28h-87c-4 0 -7 2 -10 4c-3 3 -4 7 -4 11v756c0 3 1 7 4 10c3 2 6 4 10 4h87c21 0 21 -28 0 -28h-73v-729h73z" />
    <glyph glyph-name="braceleft" unicode="{" horiz-adv-x="215" 
d="M175 -52c23 -3 23 -28 1 -30c-35 0 -73 18 -85 52c-15 41 -8 210 -8 265c0 37 -11 53 -44 58c-10 2 -21 4 -20 16c-1 12 10 15 20 16c33 5 44 22 44 58c0 55 -7 225 8 265c12 35 50 52 85 52c22 -1 22 -26 -1 -30c-60 -5 -61 -32 -61 -85v-207c0 -26 -11 -55 -34 -65
c-8 -4 -11 -3 0 -7c23 -10 34 -40 34 -65v-207c0 -21 -4 -53 16 -71c16 -14 33 -13 45 -15z" />
    <glyph glyph-name="bar" unicode="|" horiz-adv-x="71" 
d="M20 740c0 11 8 16 16 16c7 0 15 -5 15 -16v-848c0 -12 -8 -17 -15 -17c-8 0 -16 5 -16 17v848z" />
    <glyph glyph-name="braceright" unicode="}" horiz-adv-x="215" 
d="M174 325c11 -1 22 -4 21 -16c1 -12 -10 -14 -21 -16c-32 -5 -43 -21 -43 -58c0 -55 7 -224 -8 -265c-12 -34 -50 -52 -85 -52c-22 2 -22 27 1 30c12 2 29 1 45 15c20 18 16 50 16 71v207c0 25 11 55 34 65c11 4 8 3 0 7c-23 10 -34 39 -34 65v207c0 53 -1 80 -61 85
c-23 4 -23 29 -1 30c35 0 73 -17 85 -52c15 -40 8 -210 8 -265c0 -36 11 -53 43 -58z" />
    <glyph glyph-name="at" unicode="@" horiz-adv-x="842" 
d="M416 441c56 0 79 -27 109 -27c11 0 23 4 39 15c7 5 15 4 15 -5v-250c0 -74 31 -112 66 -112c48 0 105 70 104 213c-1 174 -111 313 -319 313c-436 0 -440 -688 6 -688c66 0 171 12 225 54c13 10 22 -5 11 -13c-52 -37 -146 -63 -225 -63c-568 0 -562 739 -18 730
c263 -4 393 -148 393 -331c0 -164 -103 -237 -187 -237c-52 0 -97 28 -105 80c-23 -57 -68 -81 -119 -81c-240 0 -230 402 5 402zM521 189v176c0 31 -31 51 -71 51c-185 2 -189 -349 -35 -349c53 0 106 40 106 122z" />
    <glyph glyph-name="Euro" unicode="&#x20ac;" horiz-adv-x="732" 
d="M674 119c6 9 13 12 20 12c14 0 25 -16 12 -32c-57 -67 -135 -113 -257 -113c-193 0 -304 116 -335 250h-75c-24 0 -25 26 0 26h70c-4 30 -5 60 -1 90h-69c-24 0 -25 26 0 26h72c27 140 139 263 338 263c51 0 96 -8 135 -23c3 0 7 -2 12 -4h3c2 -2 2 -2 4 -3
c29 -13 66 -34 83 -54c32 -38 7 -74 -22 -74c-14 0 -30 8 -41 29c-13 26 -2 59 -66 89c-33 12 -75 15 -108 15c-146 0 -231 -111 -253 -238h307c26 0 26 -26 0 -26h-311c-3 -30 -3 -60 1 -90h310c26 0 26 -26 0 -26h-306c24 -121 107 -225 252 -225c138 0 189 56 225 108z
" />
    <glyph glyph-name="oslash" unicode="&#xf8;" horiz-adv-x="502" 
d="M360 436c193 -96 157 -450 -109 -450c-35 0 -66 7 -93 18l-77 -166c-3 -7 -9 -10 -15 -10c-11 0 -21 10 -15 24l78 166c-178 106 -137 443 122 443c29 0 55 -5 78 -12l93 198c4 8 10 11 15 11c11 0 21 -11 14 -25zM251 441c-163 0 -197 -268 -104 -383l170 365
c-19 11 -41 18 -66 18zM251 6c170 0 201 291 93 397l-172 -369c22 -17 48 -28 79 -28z" />
    <glyph glyph-name="Oslash" unicode="&#xd8;" horiz-adv-x="729" 
d="M521 610c294 -129 242 -624 -157 -624c-46 0 -88 7 -125 19l-45 -96c-4 -7 -9 -10 -15 -10c-11 0 -21 10 -15 23l44 95c-294 129 -242 624 156 624c47 0 89 -7 126 -19l45 95c4 8 10 11 16 11c10 0 20 -10 13 -25zM364 621c-297 0 -343 -434 -141 -573l255 548
c-33 16 -70 25 -114 25zM364 6c296 0 344 434 142 573l-255 -548c32 -16 70 -25 113 -25z" />
    <glyph glyph-name="perthousand" unicode="&#x2030;" horiz-adv-x="905" 
d="M526 638c3 4 8 6 12 6c10 0 20 -11 11 -23l-471 -626c-3 -4 -7 -6 -11 -6c-10 0 -21 11 -12 23l415 552c-25 -9 -51 -13 -78 -13c-39 0 -79 9 -114 22c50 -81 12 -212 -118 -212c-189 0 -184 274 0 274c24 0 45 -6 64 -14c44 -28 102 -47 158 -47c55 0 108 18 144 64z
M160 377c119 0 114 240 -1 240s-117 -240 1 -240zM443 273c184 0 189 -273 0 -273c-188 0 -183 273 0 273zM745 273c184 0 188 -273 0 -273c-189 0 -184 273 0 273zM444 16c118 0 114 240 -1 240s-117 -240 1 -240zM746 16c118 0 113 240 -2 240s-117 -240 2 -240z" />
    <glyph glyph-name="section" unicode="&#xa7;" horiz-adv-x="515" 
d="M495 312c0 -82 -64 -119 -133 -130c12 -17 19 -37 19 -63c0 -101 -95 -135 -179 -135c-65 0 -133 23 -177 66c-10 10 -3 20 6 20c3 0 7 -1 10 -4c33 -28 86 -53 165 -53c75 0 118 44 118 86c0 56 -74 78 -118 94c-72 24 -167 38 -167 135c0 80 56 124 137 127
c-15 16 -24 38 -24 67c0 89 80 123 156 122c61 -1 105 -13 137 -45c41 -41 15 -76 -12 -76c-14 0 -28 9 -34 31c-11 41 -38 64 -91 64c-64 1 -100 -35 -100 -72c0 -61 82 -76 128 -92c71 -24 159 -51 159 -142zM337 208c64 6 101 46 101 84c0 57 -74 79 -119 94
c-37 13 -80 23 -113 43v-1c-72 14 -111 -34 -111 -76c0 -60 81 -75 127 -91c40 -13 83 -28 115 -53z" />
    <glyph glyph-name="questiondown" unicode="&#xbf;" horiz-adv-x="496" 
d="M295 550c-30 0 -42 29 -42 48c0 28 21 42 42 42s42 -14 42 -42c0 -20 -13 -48 -42 -48zM394 145c0 35 20 52 40 52c29 0 58 -34 30 -93c-34 -74 -110 -116 -216 -116c-137 0 -228 57 -228 157c0 173 257 196 257 352c0 14 9 21 18 21c8 0 16 -6 18 -18
c25 -205 -211 -208 -211 -361c0 -68 42 -125 140 -125c76 0 151 39 152 131z" />
    <glyph glyph-name="yen" unicode="&#xa5;" horiz-adv-x="751" 
d="M722 629c11 0 11 -10 1 -12c-34 -5 -57 2 -93 -45l-216 -305h113c32 0 33 -26 0 -26h-115v-91h115c32 0 33 -26 0 -26h-115v-63c0 -53 29 -45 63 -50c10 -2 9 -11 -1 -11h-198c-10 0 -11 9 -1 11c34 5 63 -3 63 50v63h-117c-28 0 -29 26 0 26h117v91h-117
c-28 0 -29 26 0 26h112l-212 305c-36 47 -60 40 -93 45c-10 2 -10 12 1 12h221c10 0 11 -11 1 -12c-40 -2 -73 -4 -43 -44l180 -265c5 -6 9 -10 13 -10c3 0 7 3 12 9l189 266c27 38 -5 42 -44 44c-10 1 -10 12 1 12h163z" />
    <glyph glyph-name="guillemotleft" unicode="&#xab;" horiz-adv-x="385" 
d="M361 371l-130 -166l130 -166h-53l-131 166l131 166h53zM200 371l-131 -166l131 -166h-54l-130 166l130 166h54z" />
    <glyph glyph-name="guillemotright" unicode="&#xbb;" horiz-adv-x="385" 
d="M73 391l131 -166l-131 -166h-53l130 166l-130 166h53zM235 391l130 -166l-130 -166h-54l131 166l-131 166h54z" />
    <glyph glyph-name="registered" unicode="&#xae;" horiz-adv-x="679" 
d="M339 629c172 0 320 -135 320 -315s-148 -315 -320 -315c-171 0 -319 135 -319 315s148 315 319 315zM339 26c157 0 293 123 293 288s-136 288 -293 288s-293 -123 -293 -288s136 -288 293 -288zM494 273c44 0 42 -133 -42 -133c-75 0 -98 111 -162 114
c-7 -1 -13 3 -13 11c0 7 6 11 13 10c4 0 7 -1 12 -1c0 -1 134 -3 134 97c0 76 -71 94 -134 94c-16 0 -35 4 -35 -17v-264c1 -21 14 -17 29 -20c12 -2 11 -20 -2 -20h-104c-13 0 -14 18 -2 20c16 3 29 -1 29 21v262c0 22 -13 18 -29 21c-12 2 -11 20 2 20h153
c72 0 149 -35 149 -116c0 -69 -56 -104 -118 -114c35 -21 58 -79 96 -79c20 0 36 23 22 38c-9 10 -21 19 -21 34c0 13 10 22 23 22z" />
    <glyph glyph-name="cent" unicode="&#xa2;" horiz-adv-x="463" 
d="M415 101c4 7 10 10 15 10c9 0 17 -11 10 -23c-27 -50 -96 -85 -170 -90v-90c0 -9 -7 -16 -16 -16c-8 0 -15 7 -15 16v90c-108 5 -216 69 -218 234c-2 135 87 231 218 237v90c0 9 7 16 15 16c9 0 16 -7 16 -16v-91c42 -3 81 -18 113 -44h1s1 -2 2 -2c1 -1 2 -2 3 -2l5 -6
c1 0 2 -1 3 -2l2 -2l3 -4c1 -1 2 -1 2 -2c7 -7 13 -15 18 -23l2 -2v-1c8 -12 13 -24 14 -35c3 -38 -17 -54 -37 -54c-21 0 -42 19 -32 50c8 25 6 58 -21 77c-1 0 -2 1 -3 2c-3 2 -7 4 -12 6h1c-20 10 -42 16 -64 17v-415c57 2 115 24 145 75zM97 233
c0 -132 67 -193 142 -205v410c-93 -12 -142 -91 -142 -205z" />
    <glyph glyph-name="sterling" unicode="&#xa3;" horiz-adv-x="523" 
d="M492 22c6 0 11 -5 11 -11c0 -7 -5 -11 -11 -11h-461c-6 0 -11 4 -11 11c0 6 5 11 11 11c70 0 84 126 85 245h-62c-6 0 -11 5 -11 11s5 11 11 11h63c0 43 -1 85 -1 117c0 160 73 245 180 245c33 0 69 -8 108 -25c11 -4 21 -9 31 -15h1l3 -3c13 -8 25 -17 34 -26
c32 -32 14 -63 -12 -63c-9 0 -20 4 -29 16c-18 25 1 62 -61 80c-16 4 -31 6 -45 6c-87 0 -138 -77 -138 -215c0 -44 -1 -82 -1 -117h112c6 0 11 -5 11 -11s-5 -11 -11 -11h-113c-4 -175 -19 -220 -49 -245h355z" />
    <glyph glyph-name="copyright" unicode="&#xa9;" horiz-adv-x="679" 
d="M339 629c172 0 320 -135 320 -315s-148 -315 -320 -315c-171 0 -319 135 -319 315s148 315 319 315zM339 26c157 0 293 123 293 288s-136 288 -293 288s-293 -123 -293 -288s136 -288 293 -288zM471 217c4 6 10 9 15 9c11 0 20 -13 10 -25c-36 -43 -81 -61 -136 -61
c-104 0 -182 70 -182 174s78 174 182 174c39 0 99 -13 126 -45c21 -24 3 -48 -16 -48c-11 0 -24 9 -29 31c-10 36 -50 37 -81 37c-84 0 -127 -74 -127 -150s43 -148 127 -148c49 0 83 11 111 52z" />
    <glyph glyph-name="emdash" unicode="&#x2014;" horiz-adv-x="913" 
d="M868 246c32 0 33 -42 0 -42h-826c-28 0 -30 42 0 42h826z" />
    <glyph glyph-name="endash" unicode="&#x2013;" horiz-adv-x="450" 
d="M406 246c31 0 32 -42 0 -42h-363c-29 0 -30 42 0 42h363z" />
    <glyph glyph-name="bullet" unicode="&#x2022;" horiz-adv-x="129" 
d="M64 274c25 0 45 -20 45 -45c0 -24 -20 -44 -45 -44c-24 0 -44 20 -44 44c0 25 20 45 44 45z" />
    <glyph glyph-name="ellipsis" unicode="&#x2026;" horiz-adv-x="425" 
d="M65 82c24 0 44 -19 44 -44c0 -24 -20 -44 -44 -44c-25 0 -45 20 -45 44c0 25 20 44 45 44zM212 82c25 0 45 -19 45 -44c0 -24 -20 -44 -45 -44c-24 0 -44 20 -44 44c0 25 20 44 44 44zM360 82c25 0 45 -19 45 -44c0 -24 -20 -44 -45 -44c-24 0 -44 20 -44 44
c0 25 20 44 44 44z" />
    <glyph glyph-name="onesuperior" unicode="&#xb9;" horiz-adv-x="127" 
d="M104 362c4 -1 4 -7 0 -7h-81c-4 0 -4 6 0 7c14 2 26 -1 26 21v183c0 22 -5 20 -25 20c-4 0 -5 5 0 7c14 5 36 17 46 30c3 4 8 3 8 -2v-238c0 -22 12 -19 26 -21z" />
    <glyph glyph-name="twosuperior" unicode="&#xb2;" horiz-adv-x="222" 
d="M194 411c1 3 7 3 7 0l-2 -54c0 -2 -2 -2 -3 -2h-175c-14 98 141 86 144 191c2 44 -29 67 -62 67c-17 0 -35 -7 -48 -20c-8 -9 -12 -23 -7 -33c7 -14 -1 -23 -9 -23c-6 0 -13 5 -14 17c-1 9 3 22 9 32c2 3 3 5 5 7c17 22 45 32 73 32c44 0 88 -27 89 -80
c2 -103 -141 -104 -158 -158c-1 -4 1 -6 5 -6c31 0 62 0 93 1c38 0 48 5 53 29z" />
    <glyph glyph-name="threesuperior" unicode="&#xb3;" horiz-adv-x="233" 
d="M149 499c33 -1 64 -27 64 -66c0 -56 -49 -82 -99 -82c-40 0 -80 18 -93 51c-4 9 8 11 11 4c11 -24 41 -38 72 -38c37 0 73 20 73 64c0 30 -30 68 -93 59c-11 -1 -12 14 -1 13c100 -6 114 111 29 111c-23 0 -43 -11 -53 -22c-7 -8 -9 -19 -5 -28c7 -13 -1 -21 -10 -21
c-7 0 -14 4 -15 15c-1 7 2 16 6 24c3 6 6 10 10 14h2c18 20 45 28 74 28c93 0 106 -103 28 -124c-5 -1 -4 -2 0 -2z" />
    <glyph glyph-name="ordmasculine" unicode="&#xba;" horiz-adv-x="279" 
d="M139 624c159 0 159 -274 0 -274c-158 0 -158 274 0 274zM139 358c112 0 113 258 0 258c-112 0 -112 -258 0 -258z" />
    <glyph glyph-name="ring" unicode="&#x2da;" horiz-adv-x="217" 
d="M42 600c37 0 67 -30 67 -67s-30 -68 -67 -68s-67 31 -67 68s30 67 67 67zM42 487c25 0 46 20 46 46c0 25 -21 45 -46 45s-46 -20 -46 -45c0 -26 21 -46 46 -46z" />
    <glyph glyph-name="quoteright" unicode="&#x2019;" horiz-adv-x="122" 
d="M24 520c-16 37 10 59 35 59c22 0 44 -16 41 -53c-3 -26 -23 -65 -40 -89c-7 -10 -19 -5 -15 6c17 57 -11 53 -21 77z" />
    <glyph glyph-name="asciicircum" unicode="^" horiz-adv-x="379" 
d="M23 398l162 133l169 -127l1 -54l-169 128l-162 -134z" />
    <glyph glyph-name="degree" unicode="&#xb0;" horiz-adv-x="202" 
d="M99 539c49 0 89 -40 89 -88c0 -49 -40 -89 -89 -89c-48 0 -88 40 -88 89c0 48 40 88 88 88zM99 388c35 0 63 28 63 63c0 34 -28 62 -63 62c-34 0 -62 -28 -62 -62c0 -35 28 -63 62 -63z" />
    <glyph glyph-name="cedilla" unicode="&#xb8;" horiz-adv-x="201" 
d="M80 -52c64 10 107 -33 107 -83s-37 -92 -91 -92c-34 0 -64 15 -82 37c-5 6 3 13 8 8c15 -15 37 -24 58 -24c41 0 71 27 71 66s-40 68 -81 64c-19 -1 -27 7 -19 21l27 55h15z" />
    <glyph glyph-name="ogonek" unicode="&#x2db;" horiz-adv-x="182" 
d="M110 -52l-13 52h15l27 -55c8 -14 0 -22 -19 -21c-41 4 -81 -25 -81 -64s30 -66 71 -66c21 0 43 9 58 24c5 5 13 -2 8 -8c-18 -22 -48 -37 -82 -37c-54 0 -92 42 -92 92s44 93 108 83z" />
    <glyph glyph-name="grave" unicode="`" horiz-adv-x="155" 
d="M139 477c5 -9 0 -16 -10 -10c-39 23 -81 42 -101 62c-25 25 -2 60 25 60c8 0 16 -4 24 -11c20 -20 38 -63 62 -101z" />
    <glyph glyph-name="dotaccent" unicode="&#x2d9;" horiz-adv-x="109" 
d="M52 556c24 0 43 -19 43 -43s-19 -44 -43 -44s-44 20 -44 44s20 43 44 43z" />
    <glyph glyph-name="caron" unicode="&#x2c7;" horiz-adv-x="226" 
d="M203 572c9 5 11 -1 7 -6c-27 -31 -54 -62 -81 -92c-5 -5 -10 -8 -14 -8s-8 3 -14 8c-27 30 -54 61 -81 92c-4 5 -2 11 7 6c29 -17 59 -34 88 -50c29 16 59 33 88 50z" />
    <glyph glyph-name="acute" unicode="&#xb4;" horiz-adv-x="155" 
d="M81 580c8 7 16 11 24 11c27 0 50 -35 25 -60c-20 -20 -62 -39 -101 -62c-10 -6 -15 1 -10 10c24 38 42 81 62 101z" />
    <glyph glyph-name="circumflex" unicode="&#x2c6;" horiz-adv-x="221" 
d="M205 474c4 -5 2 -11 -7 -6l-88 51l-88 -51c-9 -5 -11 1 -7 6l81 93c6 6 10 8 14 8s9 -2 14 -8z" />
    <glyph glyph-name="tilde" unicode="&#x2dc;" horiz-adv-x="302" 
d="M280 522c6 7 9 6 6 -4c-11 -34 -30 -46 -55 -46c-54 0 -132 58 -181 58c-13 0 -24 -4 -32 -15c-3 -4 -9 -6 -7 2c11 35 31 47 55 47c55 0 132 -58 181 -58c13 0 25 5 33 16z" />
    <glyph glyph-name="hungarumlaut" unicode="&#x2dd;" horiz-adv-x="266" 
d="M81 580c8 7 16 11 24 11c27 0 50 -35 25 -60c-20 -20 -62 -39 -101 -62c-10 -6 -15 1 -10 10c24 38 42 81 62 101zM192 580c8 7 16 11 24 11c27 0 50 -35 25 -60c-20 -20 -62 -39 -101 -62c-10 -6 -15 1 -10 10c24 38 42 81 62 101z" />
    <glyph glyph-name="breve" unicode="&#x2d8;" horiz-adv-x="313" 
d="M283 545c6 7 21 -11 14 -19c-36 -43 -85 -59 -132 -59c-66 0 -127 31 -146 64c-2 4 10 18 14 14c39 -39 85 -57 128 -57c46 0 90 20 122 57z" />
    <glyph glyph-name="quotesinglbase" unicode="&#x201a;" horiz-adv-x="116" 
d="M25 3c-16 37 10 59 35 59c22 0 44 -16 41 -53c-3 -26 -23 -66 -40 -90c-7 -9 -19 -4 -15 7c17 56 -11 52 -21 77z" />
    <glyph glyph-name="quotedblbase" unicode="&#x201e;" horiz-adv-x="216" 
d="M25 3c-16 37 10 59 35 59c22 0 44 -16 41 -53c-3 -26 -23 -66 -40 -90c-7 -9 -19 -4 -15 7c17 56 -11 52 -21 77zM125 3c-16 37 10 59 35 59c22 0 44 -16 41 -53c-3 -26 -23 -66 -40 -90c-7 -9 -19 -4 -15 7c17 56 -11 52 -21 77z" />
    <glyph glyph-name="guilsinglleft" unicode="&#x2039;" horiz-adv-x="218" 
d="M20 229l131 165h53l-130 -165l130 -166h-53z" />
    <glyph glyph-name="quoteleft" unicode="&#x2018;" horiz-adv-x="120" 
d="M102 477c12 -37 -12 -57 -36 -57c-23 0 -47 18 -40 57c5 26 28 63 47 85c8 10 20 4 15 -7c-22 -55 6 -54 14 -78z" />
    <glyph glyph-name="quotedblleft" unicode="&#x201c;" horiz-adv-x="220" 
d="M102 477c12 -37 -12 -57 -36 -57c-23 0 -47 18 -40 57c5 26 28 63 47 85c8 10 20 4 15 -7c-22 -55 6 -54 14 -78zM202 477c12 -37 -12 -57 -36 -57c-23 0 -47 18 -40 57c5 26 28 63 47 85c8 10 20 4 15 -7c-22 -55 6 -54 14 -78z" />
    <glyph glyph-name="quotedblright" unicode="&#x201d;" horiz-adv-x="214" 
d="M24 520c-16 37 10 59 35 59c22 0 44 -16 41 -53c-3 -26 -23 -65 -40 -89c-7 -10 -19 -5 -15 6c17 57 -11 53 -21 77zM123 520c-16 37 10 59 35 59c22 0 44 -16 41 -53c-3 -26 -23 -65 -40 -89c-7 -10 -19 -5 -15 6c17 57 -11 53 -21 77z" />
    <glyph glyph-name="guilsinglright" unicode="&#x203a;" horiz-adv-x="236" 
d="M92 396l130 -165l-130 -166h-54l131 166l-131 165h54z" />
    <glyph glyph-name="periodcentered" unicode="&#xb7;" horiz-adv-x="123" 
d="M64 240c25 0 45 -20 45 -44c0 -25 -20 -44 -45 -44c-24 0 -44 19 -44 44c0 24 20 44 44 44z" />
    <glyph glyph-name="plusminus" unicode="&#xb1;" horiz-adv-x="440" 
d="M402 281c32 0 32 -43 0 -43h-158v-158c0 -16 -11 -24 -22 -24c-10 0 -21 8 -21 24v158h-160c-29 0 -30 42 0 42h160v161c0 15 11 22 22 22c10 0 21 -7 21 -22v-160h158zM401 43c32 0 32 -43 0 -43h-361c-29 0 -30 42 0 42z" />
    <glyph glyph-name="macron" unicode="&#xaf;" horiz-adv-x="327" 
d="M289 509c32 0 32 -43 0 -43h-261c-29 0 -30 42 0 42z" />
    <glyph glyph-name="minus" unicode="&#x2212;" horiz-adv-x="438" 
d="M400 236c32 0 32 -43 0 -43h-361c-29 0 -30 42 0 42z" />
    <glyph glyph-name="logicalnot" unicode="&#xac;" horiz-adv-x="452" 
d="M404 265c24 0 30 -25 18 -37v-116c0 -15 -11 -22 -21 -22c-11 0 -21 7 -21 22l-1 110h-336c-29 0 -30 42 0 42z" />
    <glyph glyph-name="dieresis" unicode="&#xa8;" horiz-adv-x="219" 
d="M52 556c24 0 43 -19 43 -43s-19 -44 -43 -44s-44 20 -44 44s20 43 44 43zM152 556c24 0 43 -19 43 -43s-19 -44 -43 -44s-44 20 -44 44s20 43 44 43z" />
    <glyph glyph-name="exclamdown" unicode="&#xa1;" horiz-adv-x="123" 
d="M55 548c-30 -1 -43 28 -43 47c-1 28 21 43 42 43c20 0 41 -14 41 -41c0 -20 -11 -49 -40 -49zM45 506c1 11 18 11 19 0c13 -140 37 -333 39 -471c1 -23 -21 -36 -42 -36c-19 0 -38 11 -38 34c-2 138 15 333 22 473z" />
    <glyph glyph-name="OE" unicode="&#x152;" horiz-adv-x="1118" 
d="M1077 115c2 9 17 8 17 -1l-5 -104c0 -4 -4 -5 -7 -5h-509c-11 0 -11 15 -1 16c33 6 62 -2 62 50v28c-58 -68 -147 -114 -269 -114c-460 0 -460 657 0 657c122 0 211 -47 269 -115v38c0 53 -29 44 -62 50c-10 2 -10 17 1 17h486c4 0 7 -2 7 -5l6 -105c0 -8 -16 -10 -18 -1
c-15 65 -40 88 -144 88h-157c-25 0 -45 -7 -45 -42v-219c1 -11 2 -22 2 -33h197c62 0 76 33 78 63c1 10 17 10 17 -1v-146c0 -10 -16 -11 -17 -1c-2 31 -16 63 -78 63h-198c-1 -5 -1 -10 -1 -14v-210c0 -30 16 -40 37 -42h199c104 0 118 23 133 88zM365 5
c354 0 355 617 0 617c-354 0 -353 -617 0 -617zM419 321c9 -4 9 -12 0 -15c-11 -4 -28 -2 -35 -10c-8 -7 -6 -25 -11 -36c-4 -9 -12 -9 -15 0c-4 11 -2 28 -10 35c-7 8 -25 6 -36 11c-9 4 -9 12 0 15c11 4 28 2 35 10c8 7 6 25 11 36c4 9 12 9 15 0c4 -11 2 -28 10 -35
c7 -8 25 -6 36 -11z" />
    <glyph glyph-name="oe" unicode="&#x153;" horiz-adv-x="864" 
d="M840 262c0 -17 -10 -32 -33 -32h-319c1 -149 86 -208 172 -206c58 1 110 23 141 75c4 7 10 10 15 10c9 0 17 -11 10 -23c-30 -55 -101 -91 -182 -91c-76 0 -154 29 -198 100c-37 -61 -102 -105 -195 -105c-308 0 -308 476 0 476c91 0 155 -42 193 -101
c36 63 100 102 186 102h8c124 -4 202 -88 202 -205zM251 10c208 0 209 436 0 436s-208 -436 0 -436zM721 258c38 0 53 17 53 50c0 66 -47 130 -136 130c-97 -3 -142 -74 -148 -180h231z" />
    <glyph glyph-name="AE" unicode="&#xc6;" horiz-adv-x="1065" 
d="M1014 115c2 9 17 8 17 -1l-5 -104c0 -4 -4 -5 -7 -5h-300c-1 -1 -3 -1 -5 -1h-66v1h-78v-1h-71c-11 0 -11 10 -1 12h4c1 3 3 4 7 5c14 2 28 2 39 6c5 5 5 15 -1 31v-1l-38 93h-331l-38 -92c-18 -44 33 -37 66 -42c10 -2 9 -12 -1 -12h-88v1h-23v-1h-65
c-10 0 -11 10 -1 12c34 5 65 -3 86 48l222 531c13 31 19 44 54 37l181 -431v364c0 53 -29 44 -62 50c-10 2 -10 17 1 17h486c4 0 7 -2 7 -5l6 -105c0 -8 -16 -10 -18 -1c-15 65 -40 88 -144 88h-157c-25 0 -45 -7 -45 -42v-252h199c62 0 76 33 78 63c1 10 17 10 17 -1v-146
c0 -10 -16 -11 -17 -1c-2 31 -16 63 -78 63h-199v-224c0 -30 16 -40 37 -42h199c104 0 118 23 133 88zM188 172h311c-49 115 -98 230 -146 345c-7 15 -14 15 -20 0z" />
    <glyph glyph-name="ae" unicode="&#xe6;" horiz-adv-x="800" 
d="M766 262c0 -17 -10 -32 -33 -32h-319c1 -149 86 -208 172 -206c58 1 110 23 141 75c4 7 10 10 15 10c9 0 17 -11 10 -23c-30 -55 -101 -91 -182 -91c-60 0 -122 18 -166 61c1 -34 13 -40 31 -40c10 0 12 -13 1 -16s-23 -5 -35 -5c-33 0 -65 13 -65 57v50
c-23 -60 -78 -111 -178 -111c-89 0 -138 55 -138 113c1 120 138 144 234 149c47 3 82 1 82 8v79c0 70 -59 100 -120 100c-26 0 -51 -5 -73 -15c-40 -20 -37 -59 -25 -86c14 -33 -8 -55 -30 -55c-19 0 -38 15 -39 51c0 8 2 16 5 25v2l3 6c3 9 7 19 13 26l12 16c1 1 1 1 2 1
c3 5 7 8 11 11c36 30 86 44 137 44c66 0 130 -24 158 -72c37 46 94 73 166 73h8c124 -4 202 -88 202 -205zM647 258c38 0 53 17 53 50c0 66 -47 130 -136 130c-97 -3 -142 -74 -148 -180h231zM179 23c61 0 154 37 157 182v31c-86 0 -238 -8 -238 -133c0 -44 31 -80 81 -80z
" />
    <glyph glyph-name="ordfeminine" unicode="&#xaa;" horiz-adv-x="219" 
d="M200 311c6 0 7 -5 0 -7c-15 -4 -42 -3 -42 24v21c-9 -26 -34 -48 -77 -48c-39 0 -61 24 -61 50c0 51 61 62 102 63c20 3 36 2 36 4v35c0 31 -26 43 -52 43c-11 0 -22 -2 -32 -6c-18 -10 -17 -26 -11 -38c6 -14 -3 -23 -13 -23c-8 0 -18 6 -18 22c0 4 1 7 3 11
c0 1 0 2 1 3c0 1 2 3 3 4c1 3 2 5 3 7c2 2 3 4 6 8c0 1 0 1 1 2l3 2c17 14 38 20 60 20c38 0 75 -19 75 -55v-121c0 -17 6 -21 13 -21zM89 315c55 0 69 47 69 93c-37 0 -104 -4 -104 -59c0 -18 14 -34 35 -34z" />
    <glyph glyph-name="brokenbar" unicode="&#xa6;" horiz-adv-x="117" 
d="M40 638c0 16 11 24 22 24c10 0 21 -8 21 -24l-4 -361c0 -15 -11 -22 -21 -22c-11 0 -21 7 -21 22zM38 181c0 16 11 24 22 24c10 0 21 -8 21 -24l-4 -361c0 -15 -11 -22 -21 -22c-11 0 -21 7 -21 22z" />
    <glyph glyph-name="multiply" unicode="&#xd7;" horiz-adv-x="364" 
d="M301 342c6 7 12 10 18 10c16 0 29 -20 14 -38l-107 -122l93 -122c13 -17 -1 -35 -16 -35c-6 0 -12 2 -17 9l-89 116l-102 -116c-5 -6 -11 -9 -17 -9c-16 0 -30 19 -15 36l108 123l-104 137c-14 18 -1 36 15 36c6 0 13 -3 19 -10l99 -130z" />
    <glyph glyph-name="divide" unicode="&#xf7;" horiz-adv-x="442" 
d="M214 281c-24 0 -44 20 -44 44s20 44 44 44c25 0 45 -20 45 -44s-20 -44 -45 -44zM394 236c32 0 32 -43 0 -43h-361c-29 0 -30 42 0 42zM214 160c25 0 45 -20 45 -44s-20 -44 -45 -44c-24 0 -44 20 -44 44s20 44 44 44z" />
    <glyph glyph-name="asciitilde" unicode="~" horiz-adv-x="515" 
d="M479 196c10 12 15 10 10 -7c-18 -59 -52 -79 -94 -79c-92 0 -225 99 -308 99c-23 0 -42 -7 -56 -25c-5 -7 -15 -10 -12 4c18 59 52 79 95 79c93 0 225 -98 308 -98c23 0 43 8 57 27z" />
    <glyph glyph-name="fraction" unicode="&#x2044;" horiz-adv-x="447" 
d="M390 691c4 8 10 11 16 11c11 0 20 -11 14 -25l-372 -797c-3 -7 -9 -10 -15 -10c-10 0 -21 10 -14 24z" />
    <glyph glyph-name="dagger" unicode="&#x2020;" horiz-adv-x="445" 
d="M397 500c32 0 32 -43 0 -43h-162v-565c0 -12 -8 -17 -15 -17c-8 0 -16 5 -16 17v565h-168c-29 0 -30 42 0 42h168v241c0 11 8 16 16 16c7 0 15 -5 15 -16v-241z" />
    <glyph glyph-name="daggerdbl" unicode="&#x2021;" horiz-adv-x="409" 
d="M56 494c-29 0 -30 43 0 43h138v203c0 11 8 16 16 16c7 0 15 -5 15 -16v-203h136c31 0 32 -43 0 -43h-136v-402h136c31 0 32 -43 0 -43h-136v-157c0 -12 -8 -17 -15 -17c-8 0 -16 5 -16 17v157h-138c-29 0 -30 43 0 43h138v402h-138z" />
    <glyph glyph-name="Lslash" unicode="&#x141;" horiz-adv-x="590" 
d="M177 375c6 5 11 7 17 7c17 0 29 -21 12 -37l-42 -40v-236c0 -30 16 -40 37 -42h188c104 0 129 40 144 105c2 9 17 8 17 -1l-5 -121c0 -4 -4 -5 -7 -5h-509c-11 0 -11 15 -1 16c33 6 62 -2 62 50v165l-3 -3c-5 -5 -10 -7 -15 -7c-17 0 -31 22 -14 38l32 30v271
c0 53 -29 44 -62 50c-10 2 -10 17 1 17h197c10 0 11 -15 1 -17c-34 -6 -63 3 -63 -50v-202z" />
    <glyph glyph-name="lslash" unicode="&#x142;" 
d="M172 400c6 5 12 8 17 8c17 0 29 -21 12 -38l-42 -40v-263c0 -53 30 -44 63 -50c10 -2 10 -17 -1 -17h-192c-10 0 -11 15 -1 17c34 6 63 -3 63 50v198l-8 -7c-5 -5 -10 -7 -15 -7c-17 0 -31 22 -14 37l37 35v277c0 53 -7 53 -54 53c-10 0 -15 13 1 18c36 9 76 21 109 37
c6 3 12 3 12 -4v-317z" />
    <glyph glyph-name="uniE4E7" unicode="&#xe4e7;" horiz-adv-x="576" 
d="M548 19c9 -2 9 -17 -1 -17h-193c-10 0 -10 15 -1 17c34 5 63 -3 63 50v266c0 65 -53 95 -112 95c-69 0 -146 -43 -146 -123v-238c0 -53 29 -45 63 -50c9 -2 9 -17 -1 -17h-193c-10 0 -10 15 -1 17c34 5 63 -3 63 50v532c0 26 -8 37 -22 37c-7 0 -16 -2 -26 -7
c-80 -34 -179 -64 -260 -64c-70 0 -127 23 -146 83c-14 45 13 72 40 72c21 0 41 -15 45 -51c5 -51 45 -70 99 -70c102 0 255 69 313 112c3 3 8 4 13 4c6 0 11 -3 12 -12l1 1v-322c35 56 102 84 167 84c82 0 160 -45 160 -133v-266c0 -53 29 -45 63 -50z" />
    <glyph glyph-name="uniE4F8" unicode="&#xe4f8;" horiz-adv-x="538" 
d="M578 592c98 13 93 -92 13 -76c-9 2 -23 6 -39 6c-31 0 -71 -16 -107 -93c0 -1 -1 -2 -1 -2l-2 -6s-1 -1 -1 -2l-9 -20c-1 -3 -2 -7 -4 -10c-69 -164 -150 -358 -211 -503c-37 -90 -109 -130 -175 -130c-70 0 -134 45 -147 122c-5 33 19 51 42 51c21 0 41 -13 39 -43
c-4 -61 37 -96 85 -96c45 0 96 30 124 98c3 6 5 11 7 17l15 35c2 5 5 11 7 17c12 30 0 56 -8 74l-153 363c-20 50 -54 43 -87 48c-10 2 -9 17 1 17h207c10 0 11 -15 1 -17c-32 -5 -61 -1 -47 -40c50 -120 62 -156 125 -304c2 -7 6 -10 10 -10c3 0 7 3 11 11
c43 103 86 207 130 312c57 143 127 175 174 181z" />
    <glyph glyph-name="uniE482" unicode="&#xe482;" horiz-adv-x="648" 
d="M463 250c78 0 103 104 103 166c0 101 -53 209 -201 209c-343 0 -351 -606 0 -606c138 0 189 55 225 108c6 9 14 12 20 12c15 0 25 -16 12 -32c-57 -67 -135 -113 -257 -113c-460 0 -460 656 0 656c170 0 267 -104 267 -220c0 -144 -123 -220 -246 -205
c-85 10 -64 81 -22 81c11 0 23 -5 35 -16c14 -13 28 -40 64 -40z" />
    <glyph glyph-name="uniE4AC" unicode="&#xe4ac;" horiz-adv-x="773" 
d="M740 613c-34 -6 -63 3 -63 -50v-491c0 -53 29 -44 63 -50c9 -1 9 -16 -1 -16h-197c-10 0 -10 15 -1 16c34 6 63 -3 63 50v484l-210 -494h-31c-17 0 -25 5 -35 17l-64 148c-13 29 -30 68 -44 102l-7 14c-13 31 -24 57 -28 65c-24 55 -42 100 -59 135l6 -465v1
c0 -54 34 -51 67 -57c10 -1 10 -16 -1 -16h-171c-11 0 -11 15 -1 16c33 6 67 3 68 56l5 520c-27 47 -51 66 -89 66c-58 0 -67 -38 -63 -88c2 -35 -17 -52 -37 -52c-23 0 -47 23 -36 63c13 51 61 96 144 96c123 0 173 -88 228 -216c13 -30 64 -146 92 -209l12 -27v-1l1 -2v-1
l36 -80c3 -8 13 -8 17 0l200 483h135c10 0 10 -15 1 -17z" />
    <glyph glyph-name="Aacute" unicode="&#xc1;" horiz-adv-x="742" 
d="M405 767c8 7 16 11 24 11c27 0 50 -35 25 -60c-20 -20 -62 -39 -101 -62c-10 -6 -15 1 -10 10c24 38 42 81 62 101zM715 16c9 -2 9 -12 -1 -12h-66v1h-78v-1h-71c-11 0 -11 10 -1 12c33 5 67 -2 49 42c-12 31 -25 61 -38 92h-331l-38 -92c-18 -44 33 -37 66 -42
c10 -2 9 -12 -1 -12h-88v1h-23v-1h-65c-10 0 -11 10 -1 12c34 5 65 -3 86 48l222 531c13 31 19 44 54 37l241 -574c21 -44 51 -37 84 -42zM188 172h311c-49 115 -98 230 -146 345c-7 15 -14 15 -20 0z" />
    <glyph glyph-name="Abreve" unicode="&#x102;" horiz-adv-x="742" 
d="M497 732c6 7 21 -11 14 -19c-36 -43 -85 -59 -132 -59c-66 0 -127 31 -146 64c-2 4 10 18 14 14c39 -39 85 -57 128 -57c46 0 90 20 122 57zM715 16c9 -2 9 -12 -1 -12h-66v1h-78v-1h-71c-11 0 -11 10 -1 12c33 5 67 -2 49 42c-12 31 -25 61 -38 92h-331l-38 -92
c-18 -44 33 -37 66 -42c10 -2 9 -12 -1 -12h-88v1h-23v-1h-65c-10 0 -11 10 -1 12c34 5 65 -3 86 48l222 531c13 31 19 44 54 37l241 -574c21 -44 51 -37 84 -42zM188 172h311c-49 115 -98 230 -146 345c-7 15 -14 15 -20 0z" />
    <glyph glyph-name="Acircumflex" unicode="&#xc2;" horiz-adv-x="742" 
d="M471 667c4 -5 2 -11 -7 -6l-88 51l-88 -51c-9 -5 -11 1 -7 6l81 93c6 6 10 8 14 8s9 -2 14 -8zM715 16c9 -2 9 -12 -1 -12h-66v1h-78v-1h-71c-11 0 -11 10 -1 12c33 5 67 -2 49 42c-12 31 -25 61 -38 92h-331l-38 -92c-18 -44 33 -37 66 -42c10 -2 9 -12 -1 -12h-88v1
h-23v-1h-65c-10 0 -11 10 -1 12c34 5 65 -3 86 48l222 531c13 31 19 44 54 37l241 -574c21 -44 51 -37 84 -42zM188 172h311c-49 115 -98 230 -146 345c-7 15 -14 15 -20 0z" />
    <glyph glyph-name="Agrave" unicode="&#xc0;" horiz-adv-x="742" 
d="M417 671c5 -9 0 -16 -10 -10c-39 23 -81 42 -101 62c-25 25 -2 60 25 60c8 0 16 -4 24 -11c20 -20 38 -63 62 -101zM715 16c9 -2 9 -12 -1 -12h-66v1h-78v-1h-71c-11 0 -11 10 -1 12c33 5 67 -2 49 42c-12 31 -25 61 -38 92h-331l-38 -92c-18 -44 33 -37 66 -42
c10 -2 9 -12 -1 -12h-88v1h-23v-1h-65c-10 0 -11 10 -1 12c34 5 65 -3 86 48l222 531c13 31 19 44 54 37l241 -574c21 -44 51 -37 84 -42zM188 172h311c-49 115 -98 230 -146 345c-7 15 -14 15 -20 0z" />
    <glyph glyph-name="Adieresis" unicode="&#xc4;" horiz-adv-x="742" 
d="M326 746c24 0 43 -19 43 -43s-19 -44 -43 -44s-44 20 -44 44s20 43 44 43zM426 746c24 0 43 -19 43 -43s-19 -44 -43 -44s-44 20 -44 44s20 43 44 43zM715 16c9 -2 9 -12 -1 -12h-66v1h-78v-1h-71c-11 0 -11 10 -1 12c33 5 67 -2 49 42c-12 31 -25 61 -38 92h-331
l-38 -92c-18 -44 33 -37 66 -42c10 -2 9 -12 -1 -12h-88v1h-23v-1h-65c-10 0 -11 10 -1 12c34 5 65 -3 86 48l222 531c13 31 19 44 54 37l241 -574c21 -44 51 -37 84 -42zM188 172h311c-49 115 -98 230 -146 345c-7 15 -14 15 -20 0z" />
    <glyph glyph-name="Amacron" unicode="&#x100;" horiz-adv-x="742" 
d="M506 700c32 0 32 -43 0 -43h-261c-29 0 -30 42 0 42zM715 16c9 -2 9 -12 -1 -12h-66v1h-78v-1h-71c-11 0 -11 10 -1 12c33 5 67 -2 49 42c-12 31 -25 61 -38 92h-331l-38 -92c-18 -44 33 -37 66 -42c10 -2 9 -12 -1 -12h-88v1h-23v-1h-65c-10 0 -11 10 -1 12
c34 5 65 -3 86 48l222 531c13 31 19 44 54 37l241 -574c21 -44 51 -37 84 -42zM188 172h311c-49 115 -98 230 -146 345c-7 15 -14 15 -20 0z" />
    <glyph glyph-name="Aogonek" unicode="&#x104;" horiz-adv-x="742" 
d="M712 13c9 -2 9 -12 -1 -12h-62l11 -23c8 -14 0 -22 -19 -21c-41 4 -81 -25 -81 -64s30 -66 71 -66c21 0 43 9 58 24c5 5 13 -2 8 -8c-18 -22 -48 -37 -82 -37c-54 0 -92 42 -92 92s44 93 108 83l-5 21h-59v-1h-71c-11 0 -11 10 -1 12c33 5 67 -2 49 42h1l-39 92h-331
l-38 -92c-18 -44 33 -37 66 -42c10 -2 9 -12 -1 -12h-88v1h-23v-1h-65c-10 0 -11 10 -1 12c34 5 65 -3 86 48l222 531c13 31 19 44 54 37l241 -574c21 -44 51 -37 84 -42zM185 169h311c-49 115 -98 230 -146 345c-7 15 -14 15 -20 0z" />
    <glyph glyph-name="Aring" unicode="&#xc5;" horiz-adv-x="742" 
d="M376 794c37 0 67 -30 67 -67s-30 -68 -67 -68s-67 31 -67 68s30 67 67 67zM376 681c25 0 46 20 46 46c0 25 -21 45 -46 45s-46 -20 -46 -45c0 -26 21 -46 46 -46zM715 16c9 -2 9 -12 -1 -12h-66v1h-78v-1h-71c-11 0 -11 10 -1 12c33 5 67 -2 49 42c-12 31 -25 61 -38 92
h-331l-38 -92c-18 -44 33 -37 66 -42c10 -2 9 -12 -1 -12h-88v1h-23v-1h-65c-10 0 -11 10 -1 12c34 5 65 -3 86 48l222 531c13 31 19 44 54 37l241 -574c21 -44 51 -37 84 -42zM188 172h311c-49 115 -98 230 -146 345c-7 15 -14 15 -20 0z" />
    <glyph glyph-name="Atilde" unicode="&#xc3;" horiz-adv-x="742" 
d="M524 710c6 7 9 6 6 -4c-11 -34 -30 -46 -55 -46c-54 0 -132 58 -181 58c-13 0 -24 -4 -32 -15c-3 -4 -9 -6 -7 2c11 35 31 47 55 47c55 0 132 -58 181 -58c13 0 25 5 33 16zM715 16c9 -2 9 -12 -1 -12h-66v1h-78v-1h-71c-11 0 -11 10 -1 12c33 5 67 -2 49 42
c-12 31 -25 61 -38 92h-331l-38 -92c-18 -44 33 -37 66 -42c10 -2 9 -12 -1 -12h-88v1h-23v-1h-65c-10 0 -11 10 -1 12c34 5 65 -3 86 48l222 531c13 31 19 44 54 37l241 -574c21 -44 51 -37 84 -42zM188 172h311c-49 115 -98 230 -146 345c-7 15 -14 15 -20 0z" />
    <glyph glyph-name="AEacute" unicode="&#x1fc;" horiz-adv-x="1065" 
d="M611 773c8 7 16 11 24 11c27 0 50 -35 25 -60c-20 -20 -62 -39 -101 -62c-10 -6 -15 1 -10 10c24 38 42 81 62 101zM1014 115c2 9 17 8 17 -1l-5 -104c0 -4 -4 -5 -7 -5h-300c-1 -1 -3 -1 -5 -1h-66v1h-78v-1h-71c-11 0 -11 10 -1 12h4c1 3 3 4 7 5c14 2 28 2 39 6
c5 5 5 15 -1 31v-1l-38 93h-331l-38 -92c-18 -44 33 -37 66 -42c10 -2 9 -12 -1 -12h-88v1h-23v-1h-65c-10 0 -11 10 -1 12c34 5 65 -3 86 48l222 531c13 31 19 44 54 37l181 -431v364c0 53 -29 44 -62 50c-10 2 -10 17 1 17h486c4 0 7 -2 7 -5l6 -105c0 -8 -16 -10 -18 -1
c-15 65 -40 88 -144 88h-157c-25 0 -45 -7 -45 -42v-252h199c62 0 76 33 78 63c1 10 17 10 17 -1v-146c0 -10 -16 -11 -17 -1c-2 31 -16 63 -78 63h-199v-224c0 -30 16 -40 37 -42h199c104 0 118 23 133 88zM188 172h311c-49 115 -98 230 -146 345c-7 15 -14 15 -20 0z" />
    <glyph glyph-name="Cacute" unicode="&#x106;" horiz-adv-x="648" 
d="M396 776c8 7 16 11 24 11c27 0 50 -35 25 -60c-20 -20 -62 -39 -101 -62c-10 -6 -15 1 -10 10c24 38 42 81 62 101zM590 123c6 9 14 13 20 13c14 0 25 -16 11 -32c-57 -67 -135 -113 -256 -113c-459 0 -459 655 0 655c51 0 96 -9 135 -23c28 -6 84 -40 102 -61
c32 -38 7 -74 -22 -74c-14 0 -30 8 -41 29c-13 26 -2 59 -67 89c-32 11 -74 14 -107 14c-342 0 -350 -604 0 -604c138 0 189 55 225 107z" />
    <glyph glyph-name="Ccaron" unicode="&#x10c;" horiz-adv-x="648" 
d="M456 772c9 5 11 -1 7 -6c-27 -31 -54 -62 -81 -92c-5 -5 -10 -8 -14 -8s-8 3 -14 8c-27 30 -54 61 -81 92c-4 5 -2 11 7 6c29 -17 59 -34 88 -50c29 16 59 33 88 50zM590 123c6 9 14 13 20 13c14 0 25 -16 11 -32c-57 -67 -135 -113 -256 -113c-459 0 -459 655 0 655
c51 0 96 -9 135 -23c28 -6 84 -40 102 -61c32 -38 7 -74 -22 -74c-14 0 -30 8 -41 29c-13 26 -2 59 -67 89c-32 11 -74 14 -107 14c-342 0 -350 -604 0 -604c138 0 189 55 225 107z" />
    <glyph glyph-name="Ccedilla" unicode="&#xc7;" horiz-adv-x="648" 
d="M344 -41c64 10 107 -33 107 -83s-37 -92 -91 -92c-34 0 -64 15 -82 37c-5 6 3 13 8 8c15 -15 37 -24 58 -24c41 0 71 27 71 66s-40 68 -81 64c-19 -1 -27 7 -19 21l17 36c-425 30 -415 654 33 654c51 0 96 -9 135 -23c5 -1 10 -3 15 -5v-1h1c30 -12 68 -34 86 -55
c32 -38 7 -74 -22 -74c-14 0 -30 8 -41 29c-13 26 -2 59 -67 89c-32 11 -74 14 -107 14c-342 0 -350 -604 0 -604c138 0 189 55 225 107c6 9 14 13 20 13c14 0 25 -16 11 -32c-57 -67 -135 -113 -256 -113c-5 0 -9 1 -13 1z" />
    <glyph glyph-name="Ccircumflex" unicode="&#x108;" horiz-adv-x="648" 
d="M462 676c4 -5 2 -11 -7 -6l-88 51l-88 -51c-9 -5 -11 1 -7 6l81 93c6 6 10 8 14 8s9 -2 14 -8zM590 123c6 9 14 13 20 13c14 0 25 -16 11 -32c-57 -67 -135 -113 -256 -113c-459 0 -459 655 0 655c51 0 96 -9 135 -23c28 -6 84 -40 102 -61c32 -38 7 -74 -22 -74
c-14 0 -30 8 -41 29c-13 26 -2 59 -67 89c-32 11 -74 14 -107 14c-342 0 -350 -604 0 -604c138 0 189 55 225 107z" />
    <glyph glyph-name="Cdotaccent" unicode="&#x10a;" horiz-adv-x="648" 
d="M367 754c24 0 43 -19 43 -43s-19 -44 -43 -44s-44 20 -44 44s20 43 44 43zM590 123c6 9 14 13 20 13c14 0 25 -16 11 -32c-57 -67 -135 -113 -256 -113c-459 0 -459 655 0 655c51 0 96 -9 135 -23c28 -6 84 -40 102 -61c32 -38 7 -74 -22 -74c-14 0 -30 8 -41 29
c-13 26 -2 59 -67 89c-32 11 -74 14 -107 14c-342 0 -350 -604 0 -604c138 0 189 55 225 107z" />
    <glyph glyph-name="Dcaron" unicode="&#x10e;" horiz-adv-x="685" 
d="M343 765c9 5 11 -1 7 -6c-27 -31 -54 -62 -81 -92c-5 -5 -10 -8 -14 -8s-8 3 -14 8c-27 30 -54 61 -81 92c-4 5 -2 11 7 6c29 -17 59 -34 88 -50c29 16 59 33 88 50zM297 632c490 0 489 -627 0 -627h-268c-11 0 -11 15 -1 16c33 6 62 -2 62 50v494c0 53 -29 44 -62 50
c-10 2 -10 17 1 17h268zM280 26c416 0 410 583 0 583h-71c-25 0 -45 -7 -45 -42v-498c0 -35 21 -43 46 -43h70z" />
    <glyph glyph-name="Eacute" unicode="&#xc9;" horiz-adv-x="570" 
d="M331 765c8 7 16 11 24 11c27 0 50 -35 25 -60c-20 -20 -62 -39 -101 -62c-10 -6 -15 1 -10 10c24 38 42 81 62 101zM533 115c2 9 17 8 17 -1l-5 -104c0 -4 -4 -5 -7 -5h-509c-11 0 -11 15 -1 16c33 6 62 -2 62 50v494c0 53 -29 44 -62 50c-10 2 -10 17 1 17h486
c4 0 7 -2 7 -5l6 -105c0 -8 -16 -10 -18 -1c-15 65 -40 88 -144 88h-157c-25 0 -45 -7 -45 -42v-252h199c62 0 76 33 78 63c1 10 17 10 17 -1v-146c0 -10 -16 -11 -17 -1c-2 31 -16 63 -78 63h-199v-224c0 -30 16 -40 37 -42h199c104 0 118 23 133 88z" />
    <glyph glyph-name="Ebreve" unicode="&#x114;" horiz-adv-x="570" 
d="M423 730c6 7 21 -11 14 -19c-36 -43 -85 -59 -132 -59c-66 0 -127 31 -146 64c-2 4 10 18 14 14c39 -39 85 -57 128 -57c46 0 90 20 122 57zM533 115c2 9 17 8 17 -1l-5 -104c0 -4 -4 -5 -7 -5h-509c-11 0 -11 15 -1 16c33 6 62 -2 62 50v494c0 53 -29 44 -62 50
c-10 2 -10 17 1 17h486c4 0 7 -2 7 -5l6 -105c0 -8 -16 -10 -18 -1c-15 65 -40 88 -144 88h-157c-25 0 -45 -7 -45 -42v-252h199c62 0 76 33 78 63c1 10 17 10 17 -1v-146c0 -10 -16 -11 -17 -1c-2 31 -16 63 -78 63h-199v-224c0 -30 16 -40 37 -42h199c104 0 118 23 133 88
z" />
    <glyph glyph-name="Ecaron" unicode="&#x11a;" horiz-adv-x="570" 
d="M391 761c9 5 11 -1 7 -6c-27 -31 -54 -62 -81 -92c-5 -5 -10 -8 -14 -8s-8 3 -14 8c-27 30 -54 61 -81 92c-4 5 -2 11 7 6c29 -17 59 -34 88 -50c29 16 59 33 88 50zM533 115c2 9 17 8 17 -1l-5 -104c0 -4 -4 -5 -7 -5h-509c-11 0 -11 15 -1 16c33 6 62 -2 62 50v494
c0 53 -29 44 -62 50c-10 2 -10 17 1 17h486c4 0 7 -2 7 -5l6 -105c0 -8 -16 -10 -18 -1c-15 65 -40 88 -144 88h-157c-25 0 -45 -7 -45 -42v-252h199c62 0 76 33 78 63c1 10 17 10 17 -1v-146c0 -10 -16 -11 -17 -1c-2 31 -16 63 -78 63h-199v-224c0 -30 16 -40 37 -42h199
c104 0 118 23 133 88z" />
    <glyph glyph-name="Ecircumflex" unicode="&#xca;" horiz-adv-x="570" 
d="M397 665c4 -5 2 -11 -7 -6l-88 51l-88 -51c-9 -5 -11 1 -7 6l81 93c6 6 10 8 14 8s9 -2 14 -8zM533 115c2 9 17 8 17 -1l-5 -104c0 -4 -4 -5 -7 -5h-509c-11 0 -11 15 -1 16c33 6 62 -2 62 50v494c0 53 -29 44 -62 50c-10 2 -10 17 1 17h486c4 0 7 -2 7 -5l6 -105
c0 -8 -16 -10 -18 -1c-15 65 -40 88 -144 88h-157c-25 0 -45 -7 -45 -42v-252h199c62 0 76 33 78 63c1 10 17 10 17 -1v-146c0 -10 -16 -11 -17 -1c-2 31 -16 63 -78 63h-199v-224c0 -30 16 -40 37 -42h199c104 0 118 23 133 88z" />
    <glyph glyph-name="Edieresis" unicode="&#xcb;" horiz-adv-x="570" 
d="M252 744c24 0 43 -19 43 -43s-19 -44 -43 -44s-44 20 -44 44s20 43 44 43zM352 744c24 0 43 -19 43 -43s-19 -44 -43 -44s-44 20 -44 44s20 43 44 43zM533 115c2 9 17 8 17 -1l-5 -104c0 -4 -4 -5 -7 -5h-509c-11 0 -11 15 -1 16c33 6 62 -2 62 50v494
c0 53 -29 44 -62 50c-10 2 -10 17 1 17h486c4 0 7 -2 7 -5l6 -105c0 -8 -16 -10 -18 -1c-15 65 -40 88 -144 88h-157c-25 0 -45 -7 -45 -42v-252h199c62 0 76 33 78 63c1 10 17 10 17 -1v-146c0 -10 -16 -11 -17 -1c-2 31 -16 63 -78 63h-199v-224c0 -30 16 -40 37 -42h199
c104 0 118 23 133 88z" />
    <glyph glyph-name="Edotaccent" unicode="&#x116;" horiz-adv-x="570" 
d="M302 743c24 0 43 -19 43 -43s-19 -44 -43 -44s-44 20 -44 44s20 43 44 43zM533 115c2 9 17 8 17 -1l-5 -104c0 -4 -4 -5 -7 -5h-509c-11 0 -11 15 -1 16c33 6 62 -2 62 50v494c0 53 -29 44 -62 50c-10 2 -10 17 1 17h486c4 0 7 -2 7 -5l6 -105c0 -8 -16 -10 -18 -1
c-15 65 -40 88 -144 88h-157c-25 0 -45 -7 -45 -42v-252h199c62 0 76 33 78 63c1 10 17 10 17 -1v-146c0 -10 -16 -11 -17 -1c-2 31 -16 63 -78 63h-199v-224c0 -30 16 -40 37 -42h199c104 0 118 23 133 88z" />
    <glyph glyph-name="Egrave" unicode="&#xc8;" horiz-adv-x="570" 
d="M343 669c5 -9 0 -16 -10 -10c-39 23 -81 42 -101 62c-25 25 -2 60 25 60c8 0 16 -4 24 -11c20 -20 38 -63 62 -101zM533 115c2 9 17 8 17 -1l-5 -104c0 -4 -4 -5 -7 -5h-509c-11 0 -11 15 -1 16c33 6 62 -2 62 50v494c0 53 -29 44 -62 50c-10 2 -10 17 1 17h486
c4 0 7 -2 7 -5l6 -105c0 -8 -16 -10 -18 -1c-15 65 -40 88 -144 88h-157c-25 0 -45 -7 -45 -42v-252h199c62 0 76 33 78 63c1 10 17 10 17 -1v-146c0 -10 -16 -11 -17 -1c-2 31 -16 63 -78 63h-199v-224c0 -30 16 -40 37 -42h199c104 0 118 23 133 88z" />
    <glyph glyph-name="Emacron" unicode="&#x112;" horiz-adv-x="570" 
d="M432 698c32 0 32 -43 0 -43h-261c-29 0 -30 42 0 42zM533 115c2 9 17 8 17 -1l-5 -104c0 -4 -4 -5 -7 -5h-509c-11 0 -11 15 -1 16c33 6 62 -2 62 50v494c0 53 -29 44 -62 50c-10 2 -10 17 1 17h486c4 0 7 -2 7 -5l6 -105c0 -8 -16 -10 -18 -1c-15 65 -40 88 -144 88
h-157c-25 0 -45 -7 -45 -42v-252h199c62 0 76 33 78 63c1 10 17 10 17 -1v-146c0 -10 -16 -11 -17 -1c-2 31 -16 63 -78 63h-199v-224c0 -30 16 -40 37 -42h199c104 0 118 23 133 88z" />
    <glyph glyph-name="Eogonek" unicode="&#x118;" horiz-adv-x="570" 
d="M531 116c2 9 17 8 17 -1l-5 -104c0 -4 -4 -5 -7 -5h-200l17 -36c8 -14 0 -22 -19 -21c-41 4 -81 -25 -81 -64s30 -66 71 -66c21 0 43 9 58 24c5 5 13 -2 8 -8c-18 -22 -48 -37 -82 -37c-54 0 -92 42 -92 92s44 93 108 83l-8 33h-289c-11 0 -11 15 -1 16c33 6 62 -2 62 50
v494c0 53 -29 44 -62 50c-10 2 -10 17 1 17h486c4 0 7 -2 7 -5l6 -105c0 -8 -16 -10 -18 -1c-15 65 -40 88 -144 88h-157c-25 0 -45 -7 -45 -42v-252h199c62 0 76 33 78 63c1 10 17 10 17 -1v-146c0 -10 -16 -11 -17 -1c-2 31 -16 63 -78 63h-199v-224c0 -30 16 -40 37 -42
h199c104 0 118 23 133 88z" />
    <glyph glyph-name="Gbreve" unicode="&#x11e;" horiz-adv-x="703" 
d="M486 738c6 7 21 -11 14 -19c-36 -43 -85 -59 -132 -59c-66 0 -127 31 -146 64c-2 4 10 18 14 14c39 -39 85 -57 128 -57c46 0 90 20 122 57zM674 264c11 0 11 -15 1 -17c-33 -5 -57 -8 -57 -61v-147c0 -3 -3 -5 -5 -5c-73 0 -110 -43 -249 -43c-458 0 -458 655 0 655
c51 0 96 -9 135 -23h1c4 -1 9 -3 15 -6c30 -13 68 -34 86 -55c32 -38 7 -74 -22 -74c-14 0 -29 8 -40 29c-14 25 -4 57 -63 87c-26 13 -65 16 -112 16c-353 0 -352 -604 0 -604c73 0 122 16 156 37c20 14 28 26 28 46v93c0 53 -41 50 -74 55c-10 2 -10 17 1 17h199z" />
    <glyph glyph-name="Gcircumflex" unicode="&#x11c;" horiz-adv-x="703" 
d="M460 673c4 -5 2 -11 -7 -6l-88 51l-88 -51c-9 -5 -11 1 -7 6l81 93c6 6 10 8 14 8s9 -2 14 -8zM674 264c11 0 11 -15 1 -17c-33 -5 -57 -8 -57 -61v-147c0 -3 -3 -5 -5 -5c-73 0 -110 -43 -249 -43c-458 0 -458 655 0 655c51 0 96 -9 135 -23h1c4 -1 9 -3 15 -6
c30 -13 68 -34 86 -55c32 -38 7 -74 -22 -74c-14 0 -29 8 -40 29c-14 25 -4 57 -63 87c-26 13 -65 16 -112 16c-353 0 -352 -604 0 -604c73 0 122 16 156 37c20 14 28 26 28 46v93c0 53 -41 50 -74 55c-10 2 -10 17 1 17h199z" />
    <glyph glyph-name="uni0122" unicode="&#x122;" horiz-adv-x="703" 
d="M674 264c11 0 11 -15 1 -17c-33 -5 -57 -8 -57 -61v-147c0 -3 -3 -5 -5 -5c-73 0 -110 -43 -249 -43c-458 0 -458 655 0 655c51 0 96 -9 135 -23h1c4 -1 9 -3 15 -6c30 -13 68 -34 86 -55c32 -38 7 -74 -22 -74c-14 0 -29 8 -40 29c-14 25 -4 57 -63 87
c-26 13 -65 16 -112 16c-353 0 -352 -604 0 -604c73 0 122 16 156 37c20 14 28 26 28 46v93c0 53 -41 50 -74 55c-10 2 -10 17 1 17h199zM324 -86c-16 37 10 59 35 59c22 0 44 -16 41 -53c-3 -26 -23 -66 -40 -90c-7 -9 -19 -4 -15 7c17 56 -11 52 -21 77z" />
    <glyph glyph-name="Gdotaccent" unicode="&#x120;" horiz-adv-x="703" 
d="M365 751c24 0 43 -19 43 -43s-19 -44 -43 -44s-44 20 -44 44s20 43 44 43zM674 264c11 0 11 -15 1 -17c-33 -5 -57 -8 -57 -61v-147c0 -3 -3 -5 -5 -5c-73 0 -110 -43 -249 -43c-458 0 -458 655 0 655c51 0 96 -9 135 -23h1c4 -1 9 -3 15 -6c30 -13 68 -34 86 -55
c32 -38 7 -74 -22 -74c-14 0 -29 8 -40 29c-14 25 -4 57 -63 87c-26 13 -65 16 -112 16c-353 0 -352 -604 0 -604c73 0 122 16 156 37c20 14 28 26 28 46v93c0 53 -41 50 -74 55c-10 2 -10 17 1 17h199z" />
    <glyph glyph-name="Hcircumflex" unicode="&#x124;" horiz-adv-x="705" 
d="M452 663c4 -5 2 -11 -7 -6l-88 51l-88 -51c-9 -5 -11 1 -7 6l81 93c6 6 10 8 14 8s9 -2 14 -8zM677 21c10 -1 9 -16 -1 -16h-197c-11 0 -11 15 -1 16c33 6 62 -2 62 50v248h-376v-248c0 -52 29 -44 63 -50c10 -1 9 -16 -1 -16h-197c-11 0 -11 15 -1 16c33 6 62 -2 62 50
v494c0 53 -29 44 -62 50c-10 2 -10 17 1 17h197c10 0 11 -15 1 -17c-34 -6 -63 3 -63 -50v-223h376v223c0 53 -29 44 -62 50c-10 2 -10 17 1 17h197c10 0 11 -15 1 -17c-34 -6 -63 3 -63 -50v-494c0 -52 29 -44 63 -50z" />
    <glyph glyph-name="Iacute" unicode="&#xcd;" horiz-adv-x="255" 
d="M154 760c8 7 16 11 24 11c27 0 50 -35 25 -60c-20 -20 -62 -39 -101 -62c-10 -6 -15 1 -10 10c24 38 42 81 62 101zM227 21c10 -1 9 -16 -1 -16h-197c-11 0 -11 15 -1 16c33 6 62 -2 62 50v494c0 53 -29 44 -62 50c-10 2 -10 17 1 17h197c10 0 11 -15 1 -17
c-34 -6 -63 3 -63 -50v-494c0 -52 29 -44 63 -50z" />
    <glyph glyph-name="Ibreve" unicode="&#x12c;" horiz-adv-x="255" 
d="M246 725c6 7 21 -11 14 -19c-36 -43 -85 -59 -132 -59c-66 0 -127 31 -146 64c-2 4 10 18 14 14c39 -39 85 -57 128 -57c46 0 90 20 122 57zM227 21c10 -1 9 -16 -1 -16h-197c-11 0 -11 15 -1 16c33 6 62 -2 62 50v494c0 53 -29 44 -62 50c-10 2 -10 17 1 17h197
c10 0 11 -15 1 -17c-34 -6 -63 3 -63 -50v-494c0 -52 29 -44 63 -50z" />
    <glyph glyph-name="Icircumflex" unicode="&#xce;" horiz-adv-x="255" 
d="M220 660c4 -5 2 -11 -7 -6l-88 51l-88 -51c-9 -5 -11 1 -7 6l81 93c6 6 10 8 14 8s9 -2 14 -8zM227 21c10 -1 9 -16 -1 -16h-197c-11 0 -11 15 -1 16c33 6 62 -2 62 50v494c0 53 -29 44 -62 50c-10 2 -10 17 1 17h197c10 0 11 -15 1 -17c-34 -6 -63 3 -63 -50v-494
c0 -52 29 -44 63 -50z" />
    <glyph glyph-name="Idieresis" unicode="&#xcf;" horiz-adv-x="255" 
d="M75 739c24 0 43 -19 43 -43s-19 -44 -43 -44s-44 20 -44 44s20 43 44 43zM175 739c24 0 43 -19 43 -43s-19 -44 -43 -44s-44 20 -44 44s20 43 44 43zM227 21c10 -1 9 -16 -1 -16h-197c-11 0 -11 15 -1 16c33 6 62 -2 62 50v494c0 53 -29 44 -62 50c-10 2 -10 17 1 17h197
c10 0 11 -15 1 -17c-34 -6 -63 3 -63 -50v-494c0 -52 29 -44 63 -50z" />
    <glyph glyph-name="Idotaccent" unicode="&#x130;" horiz-adv-x="255" 
d="M125 738c24 0 43 -19 43 -43s-19 -44 -43 -44s-44 20 -44 44s20 43 44 43zM227 21c10 -1 9 -16 -1 -16h-197c-11 0 -11 15 -1 16c33 6 62 -2 62 50v494c0 53 -29 44 -62 50c-10 2 -10 17 1 17h197c10 0 11 -15 1 -17c-34 -6 -63 3 -63 -50v-494c0 -52 29 -44 63 -50z" />
    <glyph glyph-name="Igrave" unicode="&#xcc;" horiz-adv-x="255" 
d="M166 664c5 -9 0 -16 -10 -10c-39 23 -81 42 -101 62c-25 25 -2 60 25 60c8 0 16 -4 24 -11c20 -20 38 -63 62 -101zM227 21c10 -1 9 -16 -1 -16h-197c-11 0 -11 15 -1 16c33 6 62 -2 62 50v494c0 53 -29 44 -62 50c-10 2 -10 17 1 17h197c10 0 11 -15 1 -17
c-34 -6 -63 3 -63 -50v-494c0 -52 29 -44 63 -50z" />
    <glyph glyph-name="Imacron" unicode="&#x12a;" horiz-adv-x="255" 
d="M255 693c32 0 32 -43 0 -43h-261c-29 0 -30 42 0 42zM227 21c10 -1 9 -16 -1 -16h-197c-11 0 -11 15 -1 16c33 6 62 -2 62 50v494c0 53 -29 44 -62 50c-10 2 -10 17 1 17h197c10 0 11 -15 1 -17c-34 -6 -63 3 -63 -50v-494c0 -52 29 -44 63 -50z" />
    <glyph glyph-name="Iogonek" unicode="&#x12e;" horiz-adv-x="255" 
d="M226 24c10 -1 9 -16 -1 -16h-82l14 -27c8 -14 0 -22 -19 -21c-41 4 -81 -25 -81 -64s30 -66 71 -66c21 0 43 9 58 24c5 5 13 -2 8 -8c-18 -22 -48 -37 -82 -37c-54 0 -92 42 -92 92s44 93 108 83l-6 24h-94c-11 0 -11 15 -1 16c33 6 62 -2 62 50v494c0 53 -29 44 -62 50
c-10 2 -10 17 1 17h197c10 0 11 -15 1 -17c-34 -6 -63 3 -63 -50v-494c0 -52 29 -44 63 -50z" />
    <glyph glyph-name="Itilde" unicode="&#x128;" horiz-adv-x="255" 
d="M273 703c6 7 9 6 6 -4c-11 -34 -30 -46 -55 -46c-54 0 -132 58 -181 58c-13 0 -24 -4 -32 -15c-3 -4 -9 -6 -7 2c11 35 31 47 55 47c55 0 132 -58 181 -58c13 0 25 5 33 16zM227 21c10 -1 9 -16 -1 -16h-197c-11 0 -11 15 -1 16c33 6 62 -2 62 50v494c0 53 -29 44 -62 50
c-10 2 -10 17 1 17h197c10 0 11 -15 1 -17c-34 -6 -63 3 -63 -50v-494c0 -52 29 -44 63 -50z" />
    <glyph glyph-name="Jcircumflex" unicode="&#x134;" horiz-adv-x="223" 
d="M207 663c4 -5 2 -11 -7 -6l-88 51l-88 -51c-9 -5 -11 1 -7 6l81 93c6 6 10 8 14 8s9 -2 14 -8zM214 632c11 0 11 -15 1 -17c-33 -6 -62 3 -62 -50v-515c0 -92 -67 -161 -156 -171c-20 -2 -52 -5 -73 6c-44 21 -21 74 18 59c26 -10 38 -44 64 -44c8 0 18 4 30 13
c25 26 43 75 43 137v515c0 53 -29 44 -63 50c-10 2 -9 17 1 17h197z" />
    <glyph glyph-name="uni0136" unicode="&#x136;" horiz-adv-x="690" 
d="M627 222c44 0 43 -59 42 -89c0 -70 -33 -139 -120 -139c-134 0 -223 304 -352 310c-18 -2 -18 27 -1 25c15 -2 9 -3 24 -3c123 0 241 124 277 239c10 44 -18 44 -52 50c-9 2 -9 17 1 17h188c11 0 11 -15 1 -17c-33 -6 -54 -12 -62 -39v1c-30 -125 -157 -235 -272 -264
c119 -24 177 -268 287 -268c53 0 71 62 42 95c-19 21 -35 26 -35 48c0 21 17 34 32 34zM227 21c10 -1 10 -16 -1 -16h-197c-10 0 -11 15 -1 16c34 6 63 -2 63 50v494c0 53 -29 44 -63 50c-10 2 -9 17 1 17h197c11 0 11 -15 1 -17c-33 -6 -62 3 -62 -50v-494
c0 -52 29 -44 62 -50zM271 -75c-16 37 10 59 35 59c22 0 44 -16 41 -53c-3 -26 -23 -66 -40 -90c-7 -9 -19 -4 -15 7c17 56 -11 52 -21 77z" />
    <glyph glyph-name="Lacute" unicode="&#x139;" horiz-adv-x="590" 
d="M155 765c8 7 16 11 24 11c27 0 50 -35 25 -60c-20 -20 -62 -39 -101 -62c-10 -6 -15 1 -10 10c24 38 42 81 62 101zM533 132c2 9 17 8 17 -1l-5 -121c0 -4 -4 -5 -7 -5h-509c-11 0 -11 15 -1 16c33 6 62 -2 62 50v494c0 53 -29 44 -62 50c-10 2 -10 17 1 17h197
c10 0 11 -15 1 -17c-34 -6 -63 3 -63 -50v-496c0 -30 16 -40 37 -42h188c104 0 129 40 144 105z" />
    <glyph glyph-name="Lcaron" unicode="&#x13d;" horiz-adv-x="590" 
d="M92 744c-16 37 10 59 35 59c22 0 44 -16 41 -53c-3 -26 -23 -65 -40 -89c-7 -10 -19 -5 -15 6c17 57 -11 53 -21 77zM533 132c2 9 17 8 17 -1l-5 -121c0 -4 -4 -5 -7 -5h-509c-11 0 -11 15 -1 16c33 6 62 -2 62 50v494c0 53 -29 44 -62 50c-10 2 -10 17 1 17h197
c10 0 11 -15 1 -17c-34 -6 -63 3 -63 -50v-496c0 -30 16 -40 37 -42h188c104 0 129 40 144 105z" />
    <glyph glyph-name="uni013B" unicode="&#x13b;" horiz-adv-x="590" 
d="M533 132c2 9 17 8 17 -1l-5 -121c0 -4 -4 -5 -7 -5h-509c-11 0 -11 15 -1 16c33 6 62 -2 62 50v494c0 53 -29 44 -62 50c-10 2 -10 17 1 17h197c10 0 11 -15 1 -17c-34 -6 -63 3 -63 -50v-496c0 -30 16 -40 37 -42h188c104 0 129 40 144 105zM257 -82c-16 37 10 59 35 59
c22 0 44 -16 41 -53c-3 -26 -23 -66 -40 -90c-7 -9 -19 -4 -15 7c17 56 -11 52 -21 77z" />
    <glyph glyph-name="Ldot" unicode="&#x13f;" horiz-adv-x="590" 
d="M533 132c2 9 17 8 17 -1l-5 -121c0 -4 -4 -5 -7 -5h-509c-11 0 -11 15 -1 16c33 6 62 -2 62 50v494c0 53 -29 44 -62 50c-10 2 -10 17 1 17h197c10 0 11 -15 1 -17c-34 -6 -63 3 -63 -50v-496c0 -30 16 -40 37 -42h188c104 0 129 40 144 105zM294 240c25 0 45 -20 45 -44
c0 -25 -20 -44 -45 -44c-24 0 -44 19 -44 44c0 24 20 44 44 44z" />
    <glyph glyph-name="Nacute" unicode="&#x143;" horiz-adv-x="701" 
d="M383 763c8 7 16 11 24 11c27 0 50 -35 25 -60c-20 -20 -62 -39 -101 -62c-10 -6 -15 1 -10 10c24 38 42 81 62 101zM672 628c11 0 11 -15 1 -17c-34 -5 -74 3 -74 -50l-1 -547c0 -10 -4 -15 -14 -15h-35c-18 0 -26 6 -35 18l-385 535l5 -486c0 -52 35 -45 69 -50
c10 -2 9 -17 -1 -17h-173c-11 0 -11 15 -1 17c34 5 69 -1 69 53l5 497c-2 47 -30 40 -63 45c-10 2 -9 17 1 17h103c30 0 39 -8 53 -27c119 -166 239 -333 359 -500c8 -12 17 -8 17 5v460c-3 47 -41 40 -74 45c-10 2 -9 17 1 17h173z" />
    <glyph glyph-name="Ncaron" unicode="&#x147;" horiz-adv-x="701" 
d="M443 759c9 5 11 -1 7 -6c-27 -31 -54 -62 -81 -92c-5 -5 -10 -8 -14 -8s-8 3 -14 8c-27 30 -54 61 -81 92c-4 5 -2 11 7 6c29 -17 59 -34 88 -50c29 16 59 33 88 50zM672 628c11 0 11 -15 1 -17c-34 -5 -74 3 -74 -50l-1 -547c0 -10 -4 -15 -14 -15h-35
c-18 0 -26 6 -35 18l-385 535l5 -486c0 -52 35 -45 69 -50c10 -2 9 -17 -1 -17h-173c-11 0 -11 15 -1 17c34 5 69 -1 69 53l5 497c-2 47 -30 40 -63 45c-10 2 -9 17 1 17h103c30 0 39 -8 53 -27c119 -166 239 -333 359 -500c8 -12 17 -8 17 5v460c-3 47 -41 40 -74 45
c-10 2 -9 17 1 17h173z" />
    <glyph glyph-name="uni0145" unicode="&#x145;" horiz-adv-x="701" 
d="M672 628c11 0 11 -15 1 -17c-34 -5 -74 3 -74 -50l-1 -547c0 -10 -4 -15 -14 -15h-35c-18 0 -26 6 -35 18l-385 535l5 -486c0 -52 35 -45 69 -50c10 -2 9 -17 -1 -17h-173c-11 0 -11 15 -1 17c34 5 69 -1 69 53l5 497c-2 47 -30 40 -63 45c-10 2 -9 17 1 17h103
c30 0 39 -8 53 -27c119 -166 239 -333 359 -500c8 -12 17 -8 17 5v460c-3 47 -41 40 -74 45c-10 2 -9 17 1 17h173zM283 -79c-16 37 10 59 35 59c22 0 44 -16 41 -53c-3 -26 -23 -66 -40 -90c-7 -9 -19 -4 -15 7c17 56 -11 52 -21 77z" />
    <glyph glyph-name="Ntilde" unicode="&#xd1;" horiz-adv-x="701" 
d="M502 706c6 7 9 6 6 -4c-11 -34 -30 -46 -55 -46c-54 0 -132 58 -181 58c-13 0 -24 -4 -32 -15c-3 -4 -9 -6 -7 2c11 35 31 47 55 47c55 0 132 -58 181 -58c13 0 25 5 33 16zM672 628c11 0 11 -15 1 -17c-34 -5 -74 3 -74 -50l-1 -547c0 -10 -4 -15 -14 -15h-35
c-18 0 -26 6 -35 18l-385 535l5 -486c0 -52 35 -45 69 -50c10 -2 9 -17 -1 -17h-173c-11 0 -11 15 -1 17c34 5 69 -1 69 53l5 497c-2 47 -30 40 -63 45c-10 2 -9 17 1 17h103c30 0 39 -8 53 -27c119 -166 239 -333 359 -500c8 -12 17 -8 17 5v460c-3 47 -41 40 -74 45
c-10 2 -9 17 1 17h173z" />
    <glyph glyph-name="Oacute" unicode="&#xd3;" horiz-adv-x="770" 
d="M394 774c8 7 16 11 24 11c27 0 50 -35 25 -60c-20 -20 -62 -39 -101 -62c-10 -6 -15 1 -10 10c24 38 42 81 62 101zM365 642c460 0 460 -657 0 -657s-460 657 0 657zM365 5c354 0 355 617 0 617c-354 0 -353 -617 0 -617zM419 321c9 -4 9 -12 0 -15
c-11 -4 -28 -2 -35 -10c-8 -7 -6 -25 -11 -36c-4 -9 -12 -9 -15 0c-4 11 -2 28 -10 35c-7 8 -25 6 -36 11c-9 4 -9 12 0 15c11 4 28 2 35 10c8 7 6 25 11 36c4 9 12 9 15 0c4 -11 2 -28 10 -35c7 -8 25 -6 36 -11z" />
    <glyph glyph-name="Obreve" unicode="&#x14e;" horiz-adv-x="770" 
d="M486 739c6 7 21 -11 14 -19c-36 -43 -85 -59 -132 -59c-66 0 -127 31 -146 64c-2 4 10 18 14 14c39 -39 85 -57 128 -57c46 0 90 20 122 57zM365 642c460 0 460 -657 0 -657s-460 657 0 657zM365 5c354 0 355 617 0 617c-354 0 -353 -617 0 -617zM419 321
c9 -4 9 -12 0 -15c-11 -4 -28 -2 -35 -10c-8 -7 -6 -25 -11 -36c-4 -9 -12 -9 -15 0c-4 11 -2 28 -10 35c-7 8 -25 6 -36 11c-9 4 -9 12 0 15c11 4 28 2 35 10c8 7 6 25 11 36c4 9 12 9 15 0c4 -11 2 -28 10 -35c7 -8 25 -6 36 -11z" />
    <glyph glyph-name="Ocircumflex" unicode="&#xd4;" horiz-adv-x="770" 
d="M460 674c4 -5 2 -11 -7 -6l-88 51l-88 -51c-9 -5 -11 1 -7 6l81 93c6 6 10 8 14 8s9 -2 14 -8zM365 642c460 0 460 -657 0 -657s-460 657 0 657zM365 5c354 0 355 617 0 617c-354 0 -353 -617 0 -617zM419 321c9 -4 9 -12 0 -15c-11 -4 -28 -2 -35 -10
c-8 -7 -6 -25 -11 -36c-4 -9 -12 -9 -15 0c-4 11 -2 28 -10 35c-7 8 -25 6 -36 11c-9 4 -9 12 0 15c11 4 28 2 35 10c8 7 6 25 11 36c4 9 12 9 15 0c4 -11 2 -28 10 -35c7 -8 25 -6 36 -11z" />
    <glyph glyph-name="Odieresis" unicode="&#xd6;" horiz-adv-x="770" 
d="M315 753c24 0 43 -19 43 -43s-19 -44 -43 -44s-44 20 -44 44s20 43 44 43zM415 753c24 0 43 -19 43 -43s-19 -44 -43 -44s-44 20 -44 44s20 43 44 43zM365 642c460 0 460 -657 0 -657s-460 657 0 657zM365 5c354 0 355 617 0 617c-354 0 -353 -617 0 -617zM419 321
c9 -4 9 -12 0 -15c-11 -4 -28 -2 -35 -10c-8 -7 -6 -25 -11 -36c-4 -9 -12 -9 -15 0c-4 11 -2 28 -10 35c-7 8 -25 6 -36 11c-9 4 -9 12 0 15c11 4 28 2 35 10c8 7 6 25 11 36c4 9 12 9 15 0c4 -11 2 -28 10 -35c7 -8 25 -6 36 -11z" />
    <glyph glyph-name="Ograve" unicode="&#xd2;" horiz-adv-x="770" 
d="M406 678c5 -9 0 -16 -10 -10c-39 23 -81 42 -101 62c-25 25 -2 60 25 60c8 0 16 -4 24 -11c20 -20 38 -63 62 -101zM365 642c460 0 460 -657 0 -657s-460 657 0 657zM365 5c354 0 355 617 0 617c-354 0 -353 -617 0 -617zM419 321c9 -4 9 -12 0 -15
c-11 -4 -28 -2 -35 -10c-8 -7 -6 -25 -11 -36c-4 -9 -12 -9 -15 0c-4 11 -2 28 -10 35c-7 8 -25 6 -36 11c-9 4 -9 12 0 15c11 4 28 2 35 10c8 7 6 25 11 36c4 9 12 9 15 0c4 -11 2 -28 10 -35c7 -8 25 -6 36 -11z" />
    <glyph glyph-name="Ohungarumlaut" unicode="&#x150;" horiz-adv-x="770" 
d="M362 777c8 7 16 11 24 11c27 0 50 -35 25 -60c-20 -20 -62 -39 -101 -62c-10 -6 -15 1 -10 10c24 38 42 81 62 101zM473 777c8 7 16 11 24 11c27 0 50 -35 25 -60c-20 -20 -62 -39 -101 -62c-10 -6 -15 1 -10 10c24 38 42 81 62 101zM365 642c460 0 460 -657 0 -657
s-460 657 0 657zM365 5c354 0 355 617 0 617c-354 0 -353 -617 0 -617zM419 321c9 -4 9 -12 0 -15c-11 -4 -28 -2 -35 -10c-8 -7 -6 -25 -11 -36c-4 -9 -12 -9 -15 0c-4 11 -2 28 -10 35c-7 8 -25 6 -36 11c-9 4 -9 12 0 15c11 4 28 2 35 10c8 7 6 25 11 36c4 9 12 9 15 0
c4 -11 2 -28 10 -35c7 -8 25 -6 36 -11z" />
    <glyph glyph-name="Omacron" unicode="&#x14c;" horiz-adv-x="770" 
d="M495 707c32 0 32 -43 0 -43h-261c-29 0 -30 42 0 42zM365 642c460 0 460 -657 0 -657s-460 657 0 657zM365 5c354 0 355 617 0 617c-354 0 -353 -617 0 -617zM419 321c9 -4 9 -12 0 -15c-11 -4 -28 -2 -35 -10c-8 -7 -6 -25 -11 -36c-4 -9 -12 -9 -15 0
c-4 11 -2 28 -10 35c-7 8 -25 6 -36 11c-9 4 -9 12 0 15c11 4 28 2 35 10c8 7 6 25 11 36c4 9 12 9 15 0c4 -11 2 -28 10 -35c7 -8 25 -6 36 -11z" />
    <glyph glyph-name="Oslashacute" unicode="&#x1fe;" horiz-adv-x="770" 
d="M430 795c8 7 16 11 24 11c27 0 50 -35 25 -60c-20 -20 -62 -39 -101 -62c-10 -6 -15 1 -10 10c24 38 42 81 62 101zM521 610c294 -129 242 -624 -157 -624c-46 0 -88 7 -125 19l-45 -96c-4 -7 -9 -10 -15 -10c-11 0 -21 10 -15 23l44 95c-294 129 -242 624 156 624
c47 0 89 -7 126 -19l45 95c4 8 10 11 16 11c10 0 20 -10 13 -25zM364 621c-297 0 -343 -434 -141 -573l255 548c-33 16 -70 25 -114 25zM364 6c296 0 344 434 142 573l-255 -548c32 -16 70 -25 113 -25z" />
    <glyph glyph-name="Otilde" unicode="&#xd5;" horiz-adv-x="770" 
d="M513 717c6 7 9 6 6 -4c-11 -34 -30 -46 -55 -46c-54 0 -132 58 -181 58c-13 0 -24 -4 -32 -15c-3 -4 -9 -6 -7 2c11 35 31 47 55 47c55 0 132 -58 181 -58c13 0 25 5 33 16zM365 642c460 0 460 -657 0 -657s-460 657 0 657zM365 5c354 0 355 617 0 617
c-354 0 -353 -617 0 -617zM419 321c9 -4 9 -12 0 -15c-11 -4 -28 -2 -35 -10c-8 -7 -6 -25 -11 -36c-4 -9 -12 -9 -15 0c-4 11 -2 28 -10 35c-7 8 -25 6 -36 11c-9 4 -9 12 0 15c11 4 28 2 35 10c8 7 6 25 11 36c4 9 12 9 15 0c4 -11 2 -28 10 -35c7 -8 25 -6 36 -11z" />
    <glyph glyph-name="Racute" unicode="&#x154;" horiz-adv-x="667" 
d="M304 765c8 7 16 11 24 11c27 0 50 -35 25 -60c-20 -20 -62 -39 -101 -62c-10 -6 -15 1 -10 10c24 38 42 81 62 101zM604 221c44 0 43 -60 42 -90c-1 -70 -34 -140 -121 -140c-134 0 -178 210 -307 215c-18 -1 -18 22 -1 20c15 -2 8 -3 24 -3c148 0 264 67 264 195
s-101 188 -264 188h-33l3 -1c-25 0 -46 -7 -46 -42v-497c0 -53 29 -45 63 -50c9 -2 9 -17 -1 -17h-198c-11 0 -11 15 -1 17c33 5 63 -3 63 50v495c0 53 -30 45 -63 50c-10 2 -10 17 1 17h290c143 0 271 -71 271 -209c0 -140 -129 -200 -254 -211c104 -26 129 -165 222 -165
c54 0 81 58 51 91c-18 21 -37 34 -37 56c0 19 14 31 32 31z" />
    <glyph glyph-name="Rcaron" unicode="&#x158;" horiz-adv-x="667" 
d="M364 761c9 5 11 -1 7 -6c-27 -31 -54 -62 -81 -92c-5 -5 -10 -8 -14 -8s-8 3 -14 8c-27 30 -54 61 -81 92c-4 5 -2 11 7 6c29 -17 59 -34 88 -50c29 16 59 33 88 50zM604 221c44 0 43 -60 42 -90c-1 -70 -34 -140 -121 -140c-134 0 -178 210 -307 215
c-18 -1 -18 22 -1 20c15 -2 8 -3 24 -3c148 0 264 67 264 195s-101 188 -264 188h-33l3 -1c-25 0 -46 -7 -46 -42v-497c0 -53 29 -45 63 -50c9 -2 9 -17 -1 -17h-198c-11 0 -11 15 -1 17c33 5 63 -3 63 50v495c0 53 -30 45 -63 50c-10 2 -10 17 1 17h290
c143 0 271 -71 271 -209c0 -140 -129 -200 -254 -211c104 -26 129 -165 222 -165c54 0 81 58 51 91c-18 21 -37 34 -37 56c0 19 14 31 32 31z" />
    <glyph glyph-name="uni0156" unicode="&#x156;" horiz-adv-x="667" 
d="M604 221c44 0 43 -60 42 -90c-1 -70 -34 -140 -121 -140c-134 0 -178 210 -307 215c-18 -1 -18 22 -1 20c15 -2 8 -3 24 -3c148 0 264 67 264 195s-101 188 -264 188h-33l3 -1c-25 0 -46 -7 -46 -42v-497c0 -53 29 -45 63 -50c9 -2 9 -17 -1 -17h-198c-11 0 -11 15 -1 17
c33 5 63 -3 63 50v495c0 53 -30 45 -63 50c-10 2 -10 17 1 17h290c143 0 271 -71 271 -209c0 -140 -129 -200 -254 -211c104 -26 129 -165 222 -165c54 0 81 58 51 91c-18 21 -37 34 -37 56c0 19 14 31 32 31zM250 -75c-16 37 10 59 35 59c22 0 44 -16 41 -53
c-3 -26 -23 -66 -40 -90c-7 -9 -19 -4 -15 7c17 56 -11 52 -21 77z" />
    <glyph glyph-name="Sacute" unicode="&#x15a;" horiz-adv-x="584" 
d="M319 774c8 7 16 11 24 11c27 0 50 -35 25 -60c-20 -20 -62 -39 -101 -62c-10 -6 -15 1 -10 10c24 38 42 81 62 101zM275 373c127 -26 289 -53 289 -200c0 -131 -127 -185 -259 -185c-110 0 -192 25 -275 101c-18 18 -6 37 9 37c6 0 12 -3 18 -11
c53 -75 157 -107 234 -105c194 5 296 212 63 267c-129 31 -306 46 -306 186c0 124 116 176 235 176c45 0 90 -8 130 -22c14 -4 30 -11 47 -21h2c17 -11 32 -22 41 -33c28 -33 9 -62 -15 -62c-10 0 -22 5 -30 19c-16 27 -4 59 -66 83c-32 10 -68 15 -104 15
c-88 0 -170 -34 -170 -120c0 -50 26 -97 157 -125z" />
    <glyph glyph-name="Scaron" unicode="&#x160;" horiz-adv-x="584" 
d="M379 770c9 5 11 -1 7 -6c-27 -31 -54 -62 -81 -92c-5 -5 -10 -8 -14 -8s-8 3 -14 8c-27 30 -54 61 -81 92c-4 5 -2 11 7 6c29 -17 59 -34 88 -50c29 16 59 33 88 50zM275 373c127 -26 289 -53 289 -200c0 -131 -127 -185 -259 -185c-110 0 -192 25 -275 101
c-18 18 -6 37 9 37c6 0 12 -3 18 -11c53 -75 157 -107 234 -105c194 5 296 212 63 267c-129 31 -306 46 -306 186c0 124 116 176 235 176c45 0 90 -8 130 -22c14 -4 30 -11 47 -21h2c17 -11 32 -22 41 -33c28 -33 9 -62 -15 -62c-10 0 -22 5 -30 19c-16 27 -4 59 -66 83
c-32 10 -68 15 -104 15c-88 0 -170 -34 -170 -120c0 -50 26 -97 157 -125z" />
    <glyph glyph-name="Scedilla" unicode="&#x15e;" horiz-adv-x="584" 
d="M274 -52c64 10 107 -33 107 -83s-37 -92 -91 -92c-34 0 -64 15 -82 37c-5 6 3 13 8 8c15 -15 37 -24 58 -24c41 0 71 27 71 66s-40 68 -81 64c-19 -1 -27 7 -19 21l21 44c-91 6 -163 33 -236 100c-18 18 -6 37 9 37c6 0 12 -3 18 -11c53 -75 157 -107 234 -105
c194 5 296 212 63 267c-129 31 -306 46 -306 186c0 124 116 176 235 176c45 0 90 -8 130 -22c14 -4 30 -11 46 -20l4 -2c16 -10 31 -21 40 -32c28 -33 9 -62 -15 -62c-10 0 -22 5 -30 19c-16 27 -4 59 -66 83c-32 10 -68 15 -104 15c-88 0 -170 -34 -170 -120
c0 -50 26 -97 157 -125c127 -26 289 -53 289 -200c0 -131 -127 -185 -259 -185h-21z" />
    <glyph glyph-name="Scircumflex" unicode="&#x15c;" horiz-adv-x="584" 
d="M385 674c4 -5 2 -11 -7 -6l-88 51l-88 -51c-9 -5 -11 1 -7 6l81 93c6 6 10 8 14 8s9 -2 14 -8zM275 373c127 -26 289 -53 289 -200c0 -131 -127 -185 -259 -185c-110 0 -192 25 -275 101c-18 18 -6 37 9 37c6 0 12 -3 18 -11c53 -75 157 -107 234 -105
c194 5 296 212 63 267c-129 31 -306 46 -306 186c0 124 116 176 235 176c45 0 90 -8 130 -22c14 -4 30 -11 47 -21h2c17 -11 32 -22 41 -33c28 -33 9 -62 -15 -62c-10 0 -22 5 -30 19c-16 27 -4 59 -66 83c-32 10 -68 15 -104 15c-88 0 -170 -34 -170 -120
c0 -50 26 -97 157 -125z" />
    <glyph glyph-name="uni0218" unicode="&#x218;" horiz-adv-x="584" 
d="M275 373c127 -26 289 -53 289 -200c0 -131 -127 -185 -259 -185c-110 0 -192 25 -275 101c-18 18 -6 37 9 37c6 0 12 -3 18 -11c53 -75 157 -107 234 -105c194 5 296 212 63 267c-129 31 -306 46 -306 186c0 124 116 176 235 176c45 0 90 -8 130 -22c14 -4 30 -11 47 -21
h2c17 -11 32 -22 41 -33c28 -33 9 -62 -15 -62c-10 0 -22 5 -30 19c-16 27 -4 59 -66 83c-32 10 -68 15 -104 15c-88 0 -170 -34 -170 -120c0 -50 26 -97 157 -125zM239 -87c-16 37 10 59 35 59c22 0 44 -16 41 -53c-3 -26 -23 -66 -40 -90c-7 -9 -19 -4 -15 7
c17 56 -11 52 -21 77z" />
    <glyph glyph-name="Tcaron" unicode="&#x164;" horiz-adv-x="615" 
d="M399 767c9 5 11 -1 7 -6c-27 -31 -54 -62 -81 -92c-5 -5 -10 -8 -14 -8s-8 3 -14 8c-27 30 -54 61 -81 92c-4 5 -2 11 7 6c29 -17 59 -34 88 -50c29 16 59 33 88 50zM589 623l5 -116c1 -9 -15 -10 -17 -1c-15 83 -13 99 -128 99h-60c-25 0 -45 -7 -45 -42v-497
c0 -53 30 -45 63 -50c10 -2 10 -17 -1 -17h-197c-11 0 -11 15 -2 17c34 5 63 -3 63 50v497c0 35 -20 42 -44 42h-60c-115 0 -113 -16 -128 -99c-2 -9 -18 -8 -17 1l5 116c0 4 3 5 7 5h549c4 0 7 -1 7 -5z" />
    <glyph glyph-name="uni0162" unicode="&#x162;" horiz-adv-x="615" 
d="M589 623l5 -116c1 -9 -15 -10 -17 -1c-15 83 -13 99 -128 99h-60c-25 0 -45 -7 -45 -42v-497c0 -53 30 -45 63 -50c10 -2 10 -17 -1 -17h-197c-11 0 -11 15 -2 17c34 5 63 -3 63 50v497c0 35 -20 42 -44 42h-60c-115 0 -113 -16 -128 -99c-2 -9 -18 -8 -17 1l5 116
c0 4 3 5 7 5h549c4 0 7 -1 7 -5zM280 -73c-16 37 10 59 35 59c22 0 44 -16 41 -53c-3 -26 -23 -66 -40 -90c-7 -9 -19 -4 -15 7c17 56 -11 52 -21 77z" />
    <glyph glyph-name="Uacute" unicode="&#xda;" horiz-adv-x="709" 
d="M396 767c8 7 16 11 24 11c27 0 50 -35 25 -60c-20 -20 -62 -39 -101 -62c-10 -6 -15 1 -10 10c24 38 42 81 62 101zM680 628c11 0 11 -15 1 -17c-33 -5 -74 3 -74 -50v-330c1 -162 -129 -244 -258 -244c-130 0 -259 82 -258 244v330c0 53 -30 45 -63 50
c-10 2 -10 17 1 17h198c10 0 10 -15 1 -17c-34 -5 -63 3 -63 -50v-330c2 -140 104 -208 206 -208c104 0 209 71 209 208v333c-1 49 -41 42 -74 47c-10 2 -9 17 1 17h173z" />
    <glyph glyph-name="Ubreve" unicode="&#x16c;" horiz-adv-x="709" 
d="M488 732c6 7 21 -11 14 -19c-36 -43 -85 -59 -132 -59c-66 0 -127 31 -146 64c-2 4 10 18 14 14c39 -39 85 -57 128 -57c46 0 90 20 122 57zM680 628c11 0 11 -15 1 -17c-33 -5 -74 3 -74 -50v-330c1 -162 -129 -244 -258 -244c-130 0 -259 82 -258 244v330
c0 53 -30 45 -63 50c-10 2 -10 17 1 17h198c10 0 10 -15 1 -17c-34 -5 -63 3 -63 -50v-330c2 -140 104 -208 206 -208c104 0 209 71 209 208v333c-1 49 -41 42 -74 47c-10 2 -9 17 1 17h173z" />
    <glyph glyph-name="Ucircumflex" unicode="&#xdb;" horiz-adv-x="709" 
d="M462 667c4 -5 2 -11 -7 -6l-88 51l-88 -51c-9 -5 -11 1 -7 6l81 93c6 6 10 8 14 8s9 -2 14 -8zM680 628c11 0 11 -15 1 -17c-33 -5 -74 3 -74 -50v-330c1 -162 -129 -244 -258 -244c-130 0 -259 82 -258 244v330c0 53 -30 45 -63 50c-10 2 -10 17 1 17h198
c10 0 10 -15 1 -17c-34 -5 -63 3 -63 -50v-330c2 -140 104 -208 206 -208c104 0 209 71 209 208v333c-1 49 -41 42 -74 47c-10 2 -9 17 1 17h173z" />
    <glyph glyph-name="Udieresis" unicode="&#xdc;" horiz-adv-x="709" 
d="M317 746c24 0 43 -19 43 -43s-19 -44 -43 -44s-44 20 -44 44s20 43 44 43zM417 746c24 0 43 -19 43 -43s-19 -44 -43 -44s-44 20 -44 44s20 43 44 43zM680 628c11 0 11 -15 1 -17c-33 -5 -74 3 -74 -50v-330c1 -162 -129 -244 -258 -244c-130 0 -259 82 -258 244v330
c0 53 -30 45 -63 50c-10 2 -10 17 1 17h198c10 0 10 -15 1 -17c-34 -5 -63 3 -63 -50v-330c2 -140 104 -208 206 -208c104 0 209 71 209 208v333c-1 49 -41 42 -74 47c-10 2 -9 17 1 17h173z" />
    <glyph glyph-name="Ugrave" unicode="&#xd9;" horiz-adv-x="709" 
d="M408 671c5 -9 0 -16 -10 -10c-39 23 -81 42 -101 62c-25 25 -2 60 25 60c8 0 16 -4 24 -11c20 -20 38 -63 62 -101zM680 628c11 0 11 -15 1 -17c-33 -5 -74 3 -74 -50v-330c1 -162 -129 -244 -258 -244c-130 0 -259 82 -258 244v330c0 53 -30 45 -63 50
c-10 2 -10 17 1 17h198c10 0 10 -15 1 -17c-34 -5 -63 3 -63 -50v-330c2 -140 104 -208 206 -208c104 0 209 71 209 208v333c-1 49 -41 42 -74 47c-10 2 -9 17 1 17h173z" />
    <glyph glyph-name="Uhungarumlaut" unicode="&#x170;" horiz-adv-x="709" 
d="M364 770c8 7 16 11 24 11c27 0 50 -35 25 -60c-20 -20 -62 -39 -101 -62c-10 -6 -15 1 -10 10c24 38 42 81 62 101zM475 770c8 7 16 11 24 11c27 0 50 -35 25 -60c-20 -20 -62 -39 -101 -62c-10 -6 -15 1 -10 10c24 38 42 81 62 101zM680 628c11 0 11 -15 1 -17
c-33 -5 -74 3 -74 -50v-330c1 -162 -129 -244 -258 -244c-130 0 -259 82 -258 244v330c0 53 -30 45 -63 50c-10 2 -10 17 1 17h198c10 0 10 -15 1 -17c-34 -5 -63 3 -63 -50v-330c2 -140 104 -208 206 -208c104 0 209 71 209 208v333c-1 49 -41 42 -74 47c-10 2 -9 17 1 17
h173z" />
    <glyph glyph-name="Umacron" unicode="&#x16a;" horiz-adv-x="709" 
d="M497 700c32 0 32 -43 0 -43h-261c-29 0 -30 42 0 42zM680 628c11 0 11 -15 1 -17c-33 -5 -74 3 -74 -50v-330c1 -162 -129 -244 -258 -244c-130 0 -259 82 -258 244v330c0 53 -30 45 -63 50c-10 2 -10 17 1 17h198c10 0 10 -15 1 -17c-34 -5 -63 3 -63 -50v-330
c2 -140 104 -208 206 -208c104 0 209 71 209 208v333c-1 49 -41 42 -74 47c-10 2 -9 17 1 17h173z" />
    <glyph glyph-name="Uogonek" unicode="&#x172;" horiz-adv-x="709" 
d="M676 628c11 0 11 -15 1 -17c-33 -5 -74 3 -74 -50v-330c1 -156 -119 -237 -244 -243l20 -40c8 -14 0 -22 -19 -21c-41 4 -81 -25 -81 -64s30 -66 71 -66c21 0 43 9 58 24c5 5 13 -2 8 -8c-18 -22 -48 -37 -82 -37c-54 0 -92 42 -92 92s44 93 108 83l-9 37
c-129 1 -256 83 -254 243v330c0 53 -30 45 -63 50c-10 2 -10 17 1 17h198c10 0 10 -15 1 -17c-34 -5 -63 3 -63 -50v-330c2 -140 104 -208 206 -208c104 0 209 71 209 208v333c-1 49 -41 42 -74 47c-10 2 -9 17 1 17h173z" />
    <glyph glyph-name="Uring" unicode="&#x16e;" horiz-adv-x="709" 
d="M367 794c37 0 67 -30 67 -67s-30 -68 -67 -68s-67 31 -67 68s30 67 67 67zM367 681c25 0 46 20 46 46c0 25 -21 45 -46 45s-46 -20 -46 -45c0 -26 21 -46 46 -46zM680 628c11 0 11 -15 1 -17c-33 -5 -74 3 -74 -50v-330c1 -162 -129 -244 -258 -244
c-130 0 -259 82 -258 244v330c0 53 -30 45 -63 50c-10 2 -10 17 1 17h198c10 0 10 -15 1 -17c-34 -5 -63 3 -63 -50v-330c2 -140 104 -208 206 -208c104 0 209 71 209 208v333c-1 49 -41 42 -74 47c-10 2 -9 17 1 17h173z" />
    <glyph glyph-name="Utilde" unicode="&#x168;" horiz-adv-x="709" 
d="M515 710c6 7 9 6 6 -4c-11 -34 -30 -46 -55 -46c-54 0 -132 58 -181 58c-13 0 -24 -4 -32 -15c-3 -4 -9 -6 -7 2c11 35 31 47 55 47c55 0 132 -58 181 -58c13 0 25 5 33 16zM680 628c11 0 11 -15 1 -17c-33 -5 -74 3 -74 -50v-330c1 -162 -129 -244 -258 -244
c-130 0 -259 82 -258 244v330c0 53 -30 45 -63 50c-10 2 -10 17 1 17h198c10 0 10 -15 1 -17c-34 -5 -63 3 -63 -50v-330c2 -140 104 -208 206 -208c104 0 209 71 209 208v333c-1 49 -41 42 -74 47c-10 2 -9 17 1 17h173z" />
    <glyph glyph-name="Wacute" unicode="&#x1e82;" horiz-adv-x="1176" 
d="M655 772c8 7 16 11 24 11c27 0 50 -35 25 -60c-20 -20 -62 -39 -101 -62c-10 -6 -15 1 -10 10c24 38 42 81 62 101zM1148 628c10 0 10 -15 1 -17c-34 -5 -70 0 -91 -51l-235 -563c-29 -9 -39 8 -52 36c-62 170 -124 340 -187 510l-227 -546c-29 -9 -39 8 -52 36l-190 526
c-22 50 -53 47 -87 52c-10 2 -9 17 1 17h216c10 0 10 -15 1 -17c-34 -5 -68 -3 -50 -47l161 -450c3 -7 7 -11 11 -11c3 0 7 4 10 11c59 139 146 348 204 486c1 3 4 7 6 11c10 17 21 22 51 17l184 -514c6 -15 13 -15 20 0l191 453c17 44 -19 39 -53 44c-9 2 -9 17 1 17h166z
" />
    <glyph glyph-name="Wcircumflex" unicode="&#x174;" horiz-adv-x="1176" 
d="M721 672c4 -5 2 -11 -7 -6l-88 51l-88 -51c-9 -5 -11 1 -7 6l81 93c6 6 10 8 14 8s9 -2 14 -8zM1148 628c10 0 10 -15 1 -17c-34 -5 -70 0 -91 -51l-235 -563c-29 -9 -39 8 -52 36c-62 170 -124 340 -187 510l-227 -546c-29 -9 -39 8 -52 36l-190 526
c-22 50 -53 47 -87 52c-10 2 -9 17 1 17h216c10 0 10 -15 1 -17c-34 -5 -68 -3 -50 -47l161 -450c3 -7 7 -11 11 -11c3 0 7 4 10 11c59 139 146 348 204 486c1 3 4 7 6 11c10 17 21 22 51 17l184 -514c6 -15 13 -15 20 0l191 453c17 44 -19 39 -53 44c-9 2 -9 17 1 17h166z
" />
    <glyph glyph-name="Wdieresis" unicode="&#x1e84;" horiz-adv-x="1176" 
d="M576 751c24 0 43 -19 43 -43s-19 -44 -43 -44s-44 20 -44 44s20 43 44 43zM676 751c24 0 43 -19 43 -43s-19 -44 -43 -44s-44 20 -44 44s20 43 44 43zM1148 628c10 0 10 -15 1 -17c-34 -5 -70 0 -91 -51l-235 -563c-29 -9 -39 8 -52 36c-62 170 -124 340 -187 510
l-227 -546c-29 -9 -39 8 -52 36l-190 526c-22 50 -53 47 -87 52c-10 2 -9 17 1 17h216c10 0 10 -15 1 -17c-34 -5 -68 -3 -50 -47l161 -450c3 -7 7 -11 11 -11c3 0 7 4 10 11c59 139 146 348 204 486c1 3 4 7 6 11c10 17 21 22 51 17l184 -514c6 -15 13 -15 20 0l191 453
c17 44 -19 39 -53 44c-9 2 -9 17 1 17h166z" />
    <glyph glyph-name="Wgrave" unicode="&#x1e80;" horiz-adv-x="1176" 
d="M667 676c5 -9 0 -16 -10 -10c-39 23 -81 42 -101 62c-25 25 -2 60 25 60c8 0 16 -4 24 -11c20 -20 38 -63 62 -101zM1148 628c10 0 10 -15 1 -17c-34 -5 -70 0 -91 -51l-235 -563c-29 -9 -39 8 -52 36c-62 170 -124 340 -187 510l-227 -546c-29 -9 -39 8 -52 36l-190 526
c-22 50 -53 47 -87 52c-10 2 -9 17 1 17h216c10 0 10 -15 1 -17c-34 -5 -68 -3 -50 -47l161 -450c3 -7 7 -11 11 -11c3 0 7 4 10 11c59 139 146 348 204 486c1 3 4 7 6 11c10 17 21 22 51 17l184 -514c6 -15 13 -15 20 0l191 453c17 44 -19 39 -53 44c-9 2 -9 17 1 17h166z
" />
    <glyph glyph-name="Yacute" unicode="&#xdd;" horiz-adv-x="751" 
d="M439 769c8 7 16 11 24 11c27 0 50 -35 25 -60c-20 -20 -62 -39 -101 -62c-10 -6 -15 1 -10 10c24 38 42 81 62 101zM722 628c11 0 11 -9 1 -11c-34 -6 -57 2 -93 -46l-218 -307v-204c0 -53 29 -44 63 -50c10 -1 9 -11 -1 -11h-198c-10 0 -11 10 -1 11c34 6 63 -3 63 50
v198l-217 313c-36 48 -60 40 -93 46c-10 2 -10 11 1 11h221c10 0 11 -11 1 -11c-40 -2 -73 -5 -43 -45l180 -265c5 -6 9 -9 13 -9c3 0 7 3 12 8l189 267c27 37 -5 42 -44 44c-10 0 -10 11 1 11h163z" />
    <glyph glyph-name="Ycircumflex" unicode="&#x176;" horiz-adv-x="751" 
d="M505 669c4 -5 2 -11 -7 -6l-88 51l-88 -51c-9 -5 -11 1 -7 6l81 93c6 6 10 8 14 8s9 -2 14 -8zM722 628c11 0 11 -9 1 -11c-34 -6 -57 2 -93 -46l-218 -307v-204c0 -53 29 -44 63 -50c10 -1 9 -11 -1 -11h-198c-10 0 -11 10 -1 11c34 6 63 -3 63 50v198l-217 313
c-36 48 -60 40 -93 46c-10 2 -10 11 1 11h221c10 0 11 -11 1 -11c-40 -2 -73 -5 -43 -45l180 -265c5 -6 9 -9 13 -9c3 0 7 3 12 8l189 267c27 37 -5 42 -44 44c-10 0 -10 11 1 11h163z" />
    <glyph glyph-name="Ydieresis" unicode="&#x178;" horiz-adv-x="751" 
d="M360 748c24 0 43 -19 43 -43s-19 -44 -43 -44s-44 20 -44 44s20 43 44 43zM460 748c24 0 43 -19 43 -43s-19 -44 -43 -44s-44 20 -44 44s20 43 44 43zM722 628c11 0 11 -9 1 -11c-34 -6 -57 2 -93 -46l-218 -307v-204c0 -53 29 -44 63 -50c10 -1 9 -11 -1 -11h-198
c-10 0 -11 10 -1 11c34 6 63 -3 63 50v198l-217 313c-36 48 -60 40 -93 46c-10 2 -10 11 1 11h221c10 0 11 -11 1 -11c-40 -2 -73 -5 -43 -45l180 -265c5 -6 9 -9 13 -9c3 0 7 3 12 8l189 267c27 37 -5 42 -44 44c-10 0 -10 11 1 11h163z" />
    <glyph glyph-name="Ygrave" unicode="&#x1ef2;" horiz-adv-x="751" 
d="M451 673c5 -9 0 -16 -10 -10c-39 23 -81 42 -101 62c-25 25 -2 60 25 60c8 0 16 -4 24 -11c20 -20 38 -63 62 -101zM722 628c11 0 11 -9 1 -11c-34 -6 -57 2 -93 -46l-218 -307v-204c0 -53 29 -44 63 -50c10 -1 9 -11 -1 -11h-198c-10 0 -11 10 -1 11c34 6 63 -3 63 50
v198l-217 313c-36 48 -60 40 -93 46c-10 2 -10 11 1 11h221c10 0 11 -11 1 -11c-40 -2 -73 -5 -43 -45l180 -265c5 -6 9 -9 13 -9c3 0 7 3 12 8l189 267c27 37 -5 42 -44 44c-10 0 -10 11 1 11h163z" />
    <glyph glyph-name="Zacute" unicode="&#x179;" horiz-adv-x="589" 
d="M319 767c8 7 16 11 24 11c27 0 50 -35 25 -60c-20 -20 -62 -39 -101 -62c-10 -6 -15 1 -10 10c24 38 42 81 62 101zM530 127c2 9 17 8 17 -1l-5 -122c-1 -4 -4 -5 -8 -5h-494v1c-22 2 -23 23 -16 35c130 191 289 379 422 570h-263c-104 0 -124 -40 -139 -105
c-2 -9 -17 -7 -17 1l5 122c1 4 4 5 8 5h509l-431 -588c-6 -11 -4 -18 10 -18h263c104 0 124 40 139 105z" />
    <glyph glyph-name="Zcaron" unicode="&#x17d;" horiz-adv-x="589" 
d="M379 763c9 5 11 -1 7 -6c-27 -31 -54 -62 -81 -92c-5 -5 -10 -8 -14 -8s-8 3 -14 8c-27 30 -54 61 -81 92c-4 5 -2 11 7 6c29 -17 59 -34 88 -50c29 16 59 33 88 50zM530 127c2 9 17 8 17 -1l-5 -122c-1 -4 -4 -5 -8 -5h-494v1c-22 2 -23 23 -16 35
c130 191 289 379 422 570h-263c-104 0 -124 -40 -139 -105c-2 -9 -17 -7 -17 1l5 122c1 4 4 5 8 5h509l-431 -588c-6 -11 -4 -18 10 -18h263c104 0 124 40 139 105z" />
    <glyph glyph-name="Zdotaccent" unicode="&#x17b;" horiz-adv-x="589" 
d="M290 745c24 0 43 -19 43 -43s-19 -44 -43 -44s-44 20 -44 44s20 43 44 43zM530 127c2 9 17 8 17 -1l-5 -122c-1 -4 -4 -5 -8 -5h-494v1c-22 2 -23 23 -16 35c130 191 289 379 422 570h-263c-104 0 -124 -40 -139 -105c-2 -9 -17 -7 -17 1l5 122c1 4 4 5 8 5h509
l-431 -588c-6 -11 -4 -18 10 -18h263c104 0 124 40 139 105z" />
    <glyph glyph-name="aacute" unicode="&#xe1;" horiz-adv-x="464" 
d="M266 599c8 7 16 11 24 11c27 0 50 -35 25 -60c-20 -20 -62 -39 -101 -62c-10 -6 -15 1 -10 10c24 38 42 81 62 101zM435 16c10 0 12 -13 1 -16s-23 -5 -35 -5c-33 0 -65 13 -65 57v50c-23 -60 -78 -111 -178 -111c-89 0 -138 55 -138 113c1 120 138 144 234 149
c47 3 82 1 82 8v79c0 70 -59 100 -120 100c-26 0 -51 -5 -73 -15c-40 -20 -37 -59 -25 -86c14 -33 -8 -55 -30 -55c-19 0 -38 15 -39 51c0 8 2 16 5 25v2l3 6c3 9 7 19 13 26c4 6 8 11 12 16c1 1 1 1 2 1c3 5 7 8 11 11c36 30 87 45 137 45c87 0 172 -44 172 -127v-276
c0 -41 12 -48 31 -48zM179 23c61 0 154 37 157 182v31c-86 0 -238 -8 -238 -133c0 -44 31 -80 81 -80z" />
    <glyph glyph-name="abreve" unicode="&#x103;" horiz-adv-x="464" 
d="M358 564c6 7 21 -11 14 -19c-36 -43 -85 -59 -132 -59c-66 0 -127 31 -146 64c-2 4 10 18 14 14c39 -39 85 -57 128 -57c46 0 90 20 122 57zM435 16c10 0 12 -13 1 -16s-23 -5 -35 -5c-33 0 -65 13 -65 57v50c-23 -60 -78 -111 -178 -111c-89 0 -138 55 -138 113
c1 120 138 144 234 149c47 3 82 1 82 8v79c0 70 -59 100 -120 100c-26 0 -51 -5 -73 -15c-40 -20 -37 -59 -25 -86c14 -33 -8 -55 -30 -55c-19 0 -38 15 -39 51c0 8 2 16 5 25v2l3 6c3 9 7 19 13 26c4 6 8 11 12 16c1 1 1 1 2 1c3 5 7 8 11 11c36 30 87 45 137 45
c87 0 172 -44 172 -127v-276c0 -41 12 -48 31 -48zM179 23c61 0 154 37 157 182v31c-86 0 -238 -8 -238 -133c0 -44 31 -80 81 -80z" />
    <glyph glyph-name="acircumflex" unicode="&#xe2;" horiz-adv-x="464" 
d="M332 499c4 -5 2 -11 -7 -6l-88 51l-88 -51c-9 -5 -11 1 -7 6l81 93c6 6 10 8 14 8s9 -2 14 -8zM435 16c10 0 12 -13 1 -16s-23 -5 -35 -5c-33 0 -65 13 -65 57v50c-23 -60 -78 -111 -178 -111c-89 0 -138 55 -138 113c1 120 138 144 234 149c47 3 82 1 82 8v79
c0 70 -59 100 -120 100c-26 0 -51 -5 -73 -15c-40 -20 -37 -59 -25 -86c14 -33 -8 -55 -30 -55c-19 0 -38 15 -39 51c0 8 2 16 5 25v2l3 6c3 9 7 19 13 26c4 6 8 11 12 16c1 1 1 1 2 1c3 5 7 8 11 11c36 30 87 45 137 45c87 0 172 -44 172 -127v-276c0 -41 12 -48 31 -48z
M179 23c61 0 154 37 157 182v31c-86 0 -238 -8 -238 -133c0 -44 31 -80 81 -80z" />
    <glyph glyph-name="adieresis" unicode="&#xe4;" horiz-adv-x="464" 
d="M187 578c24 0 43 -19 43 -43s-19 -44 -43 -44s-44 20 -44 44s20 43 44 43zM287 578c24 0 43 -19 43 -43s-19 -44 -43 -44s-44 20 -44 44s20 43 44 43zM435 16c10 0 12 -13 1 -16s-23 -5 -35 -5c-33 0 -65 13 -65 57v50c-23 -60 -78 -111 -178 -111
c-89 0 -138 55 -138 113c1 120 138 144 234 149c47 3 82 1 82 8v79c0 70 -59 100 -120 100c-26 0 -51 -5 -73 -15c-40 -20 -37 -59 -25 -86c14 -33 -8 -55 -30 -55c-19 0 -38 15 -39 51c0 8 2 16 5 25v2l3 6c3 9 7 19 13 26c4 6 8 11 12 16c1 1 1 1 2 1c3 5 7 8 11 11
c36 30 87 45 137 45c87 0 172 -44 172 -127v-276c0 -41 12 -48 31 -48zM179 23c61 0 154 37 157 182v31c-86 0 -238 -8 -238 -133c0 -44 31 -80 81 -80z" />
    <glyph glyph-name="agrave" unicode="&#xe0;" horiz-adv-x="464" 
d="M278 503c5 -9 0 -16 -10 -10c-39 23 -81 42 -101 62c-25 25 -2 60 25 60c8 0 16 -4 24 -11c20 -20 38 -63 62 -101zM435 16c10 0 12 -13 1 -16s-23 -5 -35 -5c-33 0 -65 13 -65 57v50c-23 -60 -78 -111 -178 -111c-89 0 -138 55 -138 113c1 120 138 144 234 149
c47 3 82 1 82 8v79c0 70 -59 100 -120 100c-26 0 -51 -5 -73 -15c-40 -20 -37 -59 -25 -86c14 -33 -8 -55 -30 -55c-19 0 -38 15 -39 51c0 8 2 16 5 25v2l3 6c3 9 7 19 13 26c4 6 8 11 12 16c1 1 1 1 2 1c3 5 7 8 11 11c36 30 87 45 137 45c87 0 172 -44 172 -127v-276
c0 -41 12 -48 31 -48zM179 23c61 0 154 37 157 182v31c-86 0 -238 -8 -238 -133c0 -44 31 -80 81 -80z" />
    <glyph glyph-name="amacron" unicode="&#x101;" horiz-adv-x="464" 
d="M367 532c32 0 32 -43 0 -43h-261c-29 0 -30 42 0 42zM435 16c10 0 12 -13 1 -16s-23 -5 -35 -5c-33 0 -65 13 -65 57v50c-23 -60 -78 -111 -178 -111c-89 0 -138 55 -138 113c1 120 138 144 234 149c47 3 82 1 82 8v79c0 70 -59 100 -120 100c-26 0 -51 -5 -73 -15
c-40 -20 -37 -59 -25 -86c14 -33 -8 -55 -30 -55c-19 0 -38 15 -39 51c0 8 2 16 5 25v2l3 6c3 9 7 19 13 26c4 6 8 11 12 16c1 1 1 1 2 1c3 5 7 8 11 11c36 30 87 45 137 45c87 0 172 -44 172 -127v-276c0 -41 12 -48 31 -48zM179 23c61 0 154 37 157 182v31
c-86 0 -238 -8 -238 -133c0 -44 31 -80 81 -80z" />
    <glyph glyph-name="aogonek" unicode="&#x105;" horiz-adv-x="464" 
d="M448 -150c5 5 13 -2 8 -8c-18 -22 -48 -37 -82 -37c-54 0 -92 42 -92 92s44 93 108 83l-5 19c-26 4 -49 19 -49 55v50c-23 -60 -78 -111 -178 -111c-89 0 -138 55 -138 113c1 120 138 144 234 149c47 3 82 1 82 8v79c0 70 -59 100 -120 100c-26 0 -51 -5 -73 -15
c-40 -20 -37 -59 -25 -86c14 -33 -8 -55 -30 -55c-19 0 -38 15 -39 51c0 8 2 16 5 25v2l3 6c3 9 7 19 13 26l12 16c1 1 1 1 2 1c3 5 7 8 11 11c36 30 87 45 137 45c87 0 172 -44 172 -127v-276c0 -41 12 -48 31 -48c10 0 12 -13 1 -16c-8 -2 -18 -3 -28 -4l11 -21
c8 -14 0 -22 -19 -21c-41 4 -81 -25 -81 -64s30 -66 71 -66c21 0 43 9 58 24zM336 207v31c-86 0 -238 -8 -238 -133c0 -44 31 -80 81 -80c61 0 154 37 157 182z" />
    <glyph glyph-name="aring" unicode="&#xe5;" horiz-adv-x="464" 
d="M237 626c37 0 67 -30 67 -67s-30 -68 -67 -68s-67 31 -67 68s30 67 67 67zM237 513c25 0 46 20 46 46c0 25 -21 45 -46 45s-46 -20 -46 -45c0 -26 21 -46 46 -46zM435 16c10 0 12 -13 1 -16s-23 -5 -35 -5c-33 0 -65 13 -65 57v50c-23 -60 -78 -111 -178 -111
c-89 0 -138 55 -138 113c1 120 138 144 234 149c47 3 82 1 82 8v79c0 70 -59 100 -120 100c-26 0 -51 -5 -73 -15c-40 -20 -37 -59 -25 -86c14 -33 -8 -55 -30 -55c-19 0 -38 15 -39 51c0 8 2 16 5 25v2l3 6c3 9 7 19 13 26c4 6 8 11 12 16c1 1 1 1 2 1c3 5 7 8 11 11
c36 30 87 45 137 45c87 0 172 -44 172 -127v-276c0 -41 12 -48 31 -48zM179 23c61 0 154 37 157 182v31c-86 0 -238 -8 -238 -133c0 -44 31 -80 81 -80z" />
    <glyph glyph-name="atilde" unicode="&#xe3;" horiz-adv-x="464" 
d="M385 542c6 7 9 6 6 -4c-11 -34 -30 -46 -55 -46c-54 0 -132 58 -181 58c-13 0 -24 -4 -32 -15c-3 -4 -9 -6 -7 2c11 35 31 47 55 47c55 0 132 -58 181 -58c13 0 25 5 33 16zM435 16c10 0 12 -13 1 -16s-23 -5 -35 -5c-33 0 -65 13 -65 57v50c-23 -60 -78 -111 -178 -111
c-89 0 -138 55 -138 113c1 120 138 144 234 149c47 3 82 1 82 8v79c0 70 -59 100 -120 100c-26 0 -51 -5 -73 -15c-40 -20 -37 -59 -25 -86c14 -33 -8 -55 -30 -55c-19 0 -38 15 -39 51c0 8 2 16 5 25v2l3 6c3 9 7 19 13 26c4 6 8 11 12 16c1 1 1 1 2 1c3 5 7 8 11 11
c36 30 87 45 137 45c87 0 172 -44 172 -127v-276c0 -41 12 -48 31 -48zM179 23c61 0 154 37 157 182v31c-86 0 -238 -8 -238 -133c0 -44 31 -80 81 -80z" />
    <glyph glyph-name="aeacute" unicode="&#x1fd;" horiz-adv-x="800" 
d="M392 580c8 7 16 11 24 11c27 0 50 -35 25 -60c-20 -20 -62 -39 -101 -62c-10 -6 -15 1 -10 10c24 38 42 81 62 101zM766 262c0 -17 -10 -32 -33 -32h-319c1 -149 86 -208 172 -206c58 1 110 23 141 75c4 7 10 10 15 10c9 0 17 -11 10 -23c-30 -55 -101 -91 -182 -91
c-60 0 -122 18 -166 61c1 -34 13 -40 31 -40c10 0 12 -13 1 -16s-23 -5 -35 -5c-33 0 -65 13 -65 57v50c-23 -60 -78 -111 -178 -111c-89 0 -138 55 -138 113c1 120 138 144 234 149c47 3 82 1 82 8v79c0 70 -59 100 -120 100c-26 0 -51 -5 -73 -15c-40 -20 -37 -59 -25 -86
c14 -33 -8 -55 -30 -55c-19 0 -38 15 -39 51c0 8 2 16 5 25v2l3 6c3 9 7 19 13 26l12 16c1 1 1 1 2 1c3 5 7 8 11 11c36 30 86 44 137 44c66 0 130 -24 158 -72c37 46 94 73 166 73h8c124 -4 202 -88 202 -205zM647 258c38 0 53 17 53 50c0 66 -47 130 -136 130
c-97 -3 -142 -74 -148 -180h231zM179 23c61 0 154 37 157 182v31c-86 0 -238 -8 -238 -133c0 -44 31 -80 81 -80z" />
    <glyph glyph-name="cacute" unicode="&#x107;" horiz-adv-x="483" 
d="M277 604c8 7 16 11 24 11c27 0 50 -35 25 -60c-20 -20 -62 -39 -101 -62c-10 -6 -15 1 -10 10c24 38 42 81 62 101zM415 99c4 7 10 10 15 10c9 0 17 -11 10 -23c-30 -55 -107 -91 -188 -91c-112 0 -229 63 -231 234c-2 140 92 238 229 238c49 0 96 -15 133 -45h1
c0 -1 1 -2 2 -3c3 -3 16 -14 18 -17l2 -2l5 -6c1 0 1 -1 2 -2c3 -5 6 -9 9 -13c1 -1 1 -2 2 -2c8 -13 13 -26 14 -36c3 -38 -17 -55 -37 -55c-21 0 -42 19 -32 51c8 25 6 58 -21 76c-1 1 -2 2 -3 2c-3 3 -7 5 -12 6h1c-22 11 -46 17 -69 17c-110 0 -168 -83 -168 -207
c0 -150 86 -209 172 -207c57 1 115 23 146 75z" />
    <glyph glyph-name="ccaron" unicode="&#x10d;" horiz-adv-x="483" 
d="M337 600c9 5 11 -1 7 -6c-27 -31 -54 -62 -81 -92c-5 -5 -10 -8 -14 -8s-8 3 -14 8c-27 30 -54 61 -81 92c-4 5 -2 11 7 6c29 -17 59 -34 88 -50c29 16 59 33 88 50zM415 99c4 7 10 10 15 10c9 0 17 -11 10 -23c-30 -55 -107 -91 -188 -91c-112 0 -229 63 -231 234
c-2 140 92 238 229 238c49 0 96 -15 133 -45h1c0 -1 1 -2 2 -3c3 -3 16 -14 18 -17l2 -2l5 -6c1 0 1 -1 2 -2c3 -5 6 -9 9 -13c1 -1 1 -2 2 -2c8 -13 13 -26 14 -36c3 -38 -17 -55 -37 -55c-21 0 -42 19 -32 51c8 25 6 58 -21 76c-1 1 -2 2 -3 2c-3 3 -7 5 -12 6h1
c-22 11 -46 17 -69 17c-110 0 -168 -83 -168 -207c0 -150 86 -209 172 -207c57 1 115 23 146 75z" />
    <glyph glyph-name="ccedilla" unicode="&#xe7;" horiz-adv-x="483" 
d="M249 -33c64 10 107 -33 107 -83s-37 -92 -91 -92c-34 0 -64 15 -82 37c-5 6 3 13 8 8c15 -15 37 -24 58 -24c41 0 71 27 71 66s-40 68 -81 64c-19 -1 -27 7 -19 21l15 32c-107 5 -212 70 -214 233c-2 140 92 238 229 238c49 0 96 -15 133 -45h1c0 -1 1 -2 2 -3l11 -10
c2 -2 5 -4 7 -7l9 -10l9 -13c1 -1 1 -2 2 -2v-1c8 -12 13 -25 14 -35c3 -38 -17 -55 -37 -55c-21 0 -42 19 -32 51c8 25 6 58 -21 76c-1 1 -2 2 -3 2c-3 3 -7 5 -12 6h1c-22 11 -46 17 -69 17c-110 0 -168 -83 -168 -207c0 -150 86 -209 172 -207c57 1 115 23 146 75
c4 7 10 10 15 10c9 0 17 -11 10 -23c-30 -54 -105 -90 -184 -91z" />
    <glyph glyph-name="ccircumflex" unicode="&#x109;" horiz-adv-x="483" 
d="M343 504c4 -5 2 -11 -7 -6l-88 51l-88 -51c-9 -5 -11 1 -7 6l81 93c6 6 10 8 14 8s9 -2 14 -8zM415 99c4 7 10 10 15 10c9 0 17 -11 10 -23c-30 -55 -107 -91 -188 -91c-112 0 -229 63 -231 234c-2 140 92 238 229 238c49 0 96 -15 133 -45h1c0 -1 1 -2 2 -3
c3 -3 16 -14 18 -17l2 -2l5 -6c1 0 1 -1 2 -2c3 -5 6 -9 9 -13c1 -1 1 -2 2 -2c8 -13 13 -26 14 -36c3 -38 -17 -55 -37 -55c-21 0 -42 19 -32 51c8 25 6 58 -21 76c-1 1 -2 2 -3 2c-3 3 -7 5 -12 6h1c-22 11 -46 17 -69 17c-110 0 -168 -83 -168 -207
c0 -150 86 -209 172 -207c57 1 115 23 146 75z" />
    <glyph glyph-name="cdotaccent" unicode="&#x10b;" horiz-adv-x="483" 
d="M248 582c24 0 43 -19 43 -43s-19 -44 -43 -44s-44 20 -44 44s20 43 44 43zM415 99c4 7 10 10 15 10c9 0 17 -11 10 -23c-30 -55 -107 -91 -188 -91c-112 0 -229 63 -231 234c-2 140 92 238 229 238c49 0 96 -15 133 -45h1c0 -1 1 -2 2 -3c3 -3 16 -14 18 -17l2 -2l5 -6
c1 0 1 -1 2 -2c3 -5 6 -9 9 -13c1 -1 1 -2 2 -2c8 -13 13 -26 14 -36c3 -38 -17 -55 -37 -55c-21 0 -42 19 -32 51c8 25 6 58 -21 76c-1 1 -2 2 -3 2c-3 3 -7 5 -12 6h1c-22 11 -46 17 -69 17c-110 0 -168 -83 -168 -207c0 -150 86 -209 172 -207c57 1 115 23 146 75z" />
    <glyph glyph-name="dcaron" unicode="&#x10f;" horiz-adv-x="619" 
d="M502 26c14 -1 13 -14 0 -15l-99 -11c-16 -2 -20 4 -20 19v32c-36 -41 -88 -60 -154 -60c-131 0 -209 103 -209 234c0 138 88 242 229 242c61 0 107 -23 134 -57v189c0 54 -6 53 -54 53c-10 0 -15 14 1 18c37 10 77 22 110 38c5 3 12 2 12 -5v-642c0 -27 21 -33 50 -35z
M505 580c-16 37 10 59 35 59c22 0 44 -16 41 -53c-3 -26 -23 -65 -40 -89c-7 -10 -19 -5 -15 6c17 57 -11 53 -21 77zM260 19c63 0 123 45 123 85v205c0 101 -65 135 -126 134c-98 0 -159 -107 -162 -213c-3 -107 49 -211 165 -211z" />
    <glyph glyph-name="eacute" unicode="&#xe9;" horiz-adv-x="489" 
d="M270 597c8 7 16 11 24 11c27 0 50 -35 25 -60c-20 -20 -62 -39 -101 -62c-10 -6 -15 1 -10 10c24 38 42 81 62 101zM449 262c0 -17 -10 -32 -33 -32h-319c1 -149 86 -208 172 -206c58 1 110 23 141 75c4 7 10 10 15 10c9 0 17 -11 10 -23c-30 -55 -101 -91 -182 -91
c-112 0 -230 63 -232 234c-2 140 81 238 218 238c123 0 210 -80 210 -205zM330 258c38 0 53 17 53 50c0 66 -47 130 -136 130c-97 -3 -142 -74 -148 -180h231z" />
    <glyph glyph-name="ebreve" unicode="&#x115;" horiz-adv-x="489" 
d="M362 562c6 7 21 -11 14 -19c-36 -43 -85 -59 -132 -59c-66 0 -127 31 -146 64c-2 4 10 18 14 14c39 -39 85 -57 128 -57c46 0 90 20 122 57zM449 262c0 -17 -10 -32 -33 -32h-319c1 -149 86 -208 172 -206c58 1 110 23 141 75c4 7 10 10 15 10c9 0 17 -11 10 -23
c-30 -55 -101 -91 -182 -91c-112 0 -230 63 -232 234c-2 140 81 238 218 238c123 0 210 -80 210 -205zM330 258c38 0 53 17 53 50c0 66 -47 130 -136 130c-97 -3 -142 -74 -148 -180h231z" />
    <glyph glyph-name="ecaron" unicode="&#x11b;" horiz-adv-x="489" 
d="M330 593c9 5 11 -1 7 -6c-27 -31 -54 -62 -81 -92c-5 -5 -10 -8 -14 -8s-8 3 -14 8c-27 30 -54 61 -81 92c-4 5 -2 11 7 6c29 -17 59 -34 88 -50c29 16 59 33 88 50zM449 262c0 -17 -10 -32 -33 -32h-319c1 -149 86 -208 172 -206c58 1 110 23 141 75c4 7 10 10 15 10
c9 0 17 -11 10 -23c-30 -55 -101 -91 -182 -91c-112 0 -230 63 -232 234c-2 140 81 238 218 238c123 0 210 -80 210 -205zM330 258c38 0 53 17 53 50c0 66 -47 130 -136 130c-97 -3 -142 -74 -148 -180h231z" />
    <glyph glyph-name="ecircumflex" unicode="&#xea;" horiz-adv-x="489" 
d="M336 497c4 -5 2 -11 -7 -6l-88 51l-88 -51c-9 -5 -11 1 -7 6l81 93c6 6 10 8 14 8s9 -2 14 -8zM449 262c0 -17 -10 -32 -33 -32h-319c1 -149 86 -208 172 -206c58 1 110 23 141 75c4 7 10 10 15 10c9 0 17 -11 10 -23c-30 -55 -101 -91 -182 -91c-112 0 -230 63 -232 234
c-2 140 81 238 218 238c123 0 210 -80 210 -205zM330 258c38 0 53 17 53 50c0 66 -47 130 -136 130c-97 -3 -142 -74 -148 -180h231z" />
    <glyph glyph-name="edieresis" unicode="&#xeb;" horiz-adv-x="489" 
d="M191 576c24 0 43 -19 43 -43s-19 -44 -43 -44s-44 20 -44 44s20 43 44 43zM291 576c24 0 43 -19 43 -43s-19 -44 -43 -44s-44 20 -44 44s20 43 44 43zM449 262c0 -17 -10 -32 -33 -32h-319c1 -149 86 -208 172 -206c58 1 110 23 141 75c4 7 10 10 15 10
c9 0 17 -11 10 -23c-30 -55 -101 -91 -182 -91c-112 0 -230 63 -232 234c-2 140 81 238 218 238c123 0 210 -80 210 -205zM330 258c38 0 53 17 53 50c0 66 -47 130 -136 130c-97 -3 -142 -74 -148 -180h231z" />
    <glyph glyph-name="edotaccent" unicode="&#x117;" horiz-adv-x="489" 
d="M241 575c24 0 43 -19 43 -43s-19 -44 -43 -44s-44 20 -44 44s20 43 44 43zM449 262c0 -17 -10 -32 -33 -32h-319c1 -149 86 -208 172 -206c58 1 110 23 141 75c4 7 10 10 15 10c9 0 17 -11 10 -23c-30 -55 -101 -91 -182 -91c-112 0 -230 63 -232 234
c-2 140 81 238 218 238c123 0 210 -80 210 -205zM330 258c38 0 53 17 53 50c0 66 -47 130 -136 130c-97 -3 -142 -74 -148 -180h231z" />
    <glyph glyph-name="egrave" unicode="&#xe8;" horiz-adv-x="489" 
d="M282 501c5 -9 0 -16 -10 -10c-39 23 -81 42 -101 62c-25 25 -2 60 25 60c8 0 16 -4 24 -11c20 -20 38 -63 62 -101zM449 262c0 -17 -10 -32 -33 -32h-319c1 -149 86 -208 172 -206c58 1 110 23 141 75c4 7 10 10 15 10c9 0 17 -11 10 -23c-30 -55 -101 -91 -182 -91
c-112 0 -230 63 -232 234c-2 140 81 238 218 238c123 0 210 -80 210 -205zM330 258c38 0 53 17 53 50c0 66 -47 130 -136 130c-97 -3 -142 -74 -148 -180h231z" />
    <glyph glyph-name="emacron" unicode="&#x113;" horiz-adv-x="489" 
d="M371 530c32 0 32 -43 0 -43h-261c-29 0 -30 42 0 42zM449 262c0 -17 -10 -32 -33 -32h-319c1 -149 86 -208 172 -206c58 1 110 23 141 75c4 7 10 10 15 10c9 0 17 -11 10 -23c-30 -55 -101 -91 -182 -91c-112 0 -230 63 -232 234c-2 140 81 238 218 238
c123 0 210 -80 210 -205zM330 258c38 0 53 17 53 50c0 66 -47 130 -136 130c-97 -3 -142 -74 -148 -180h231z" />
    <glyph glyph-name="eogonek" unicode="&#x119;" horiz-adv-x="489" 
d="M449 265c0 -17 -10 -32 -33 -32h-319c1 -149 86 -208 172 -206c58 1 110 23 141 75c4 7 10 10 15 10c9 0 17 -11 10 -23c-28 -51 -93 -86 -168 -90l16 -33c8 -14 0 -22 -19 -21c-41 4 -81 -25 -81 -64s30 -66 71 -66c21 0 43 9 58 24c5 5 13 -2 8 -8
c-18 -22 -48 -37 -82 -37c-54 0 -92 42 -92 92s44 93 108 83l-7 30c-110 2 -224 66 -226 233c-2 140 81 238 218 238h8c124 -4 202 -88 202 -205zM330 261c38 0 53 17 53 50c0 66 -47 130 -136 130c-97 -3 -142 -74 -148 -180h231z" />
    <glyph glyph-name="gbreve" unicode="&#x11f;" horiz-adv-x="475" 
d="M362 639c6 7 21 -11 14 -19c-36 -43 -85 -59 -132 -59c-66 0 -127 31 -146 64c-2 4 10 18 14 14c39 -39 85 -57 128 -57c46 0 90 20 122 57zM217 31c205 -1 238 -97 238 -180c0 -80 -76 -174 -241 -174c-175 0 -234 82 -234 169c0 42 16 87 48 117c10 10 20 14 27 14
c13 0 19 -15 7 -38c-64 -119 5 -239 152 -239c117 -1 165 78 165 151c0 101 -52 141 -164 141h-59c-94 0 -112 29 -112 63c0 24 15 53 75 61c-164 77 -130 351 95 351c18 0 35 -2 51 -5c8 -3 16 -4 25 -4c41 0 72 31 77 63c4 26 21 37 38 37c25 0 50 -27 24 -66
c-17 -26 -62 -51 -99 -57c139 -89 103 -339 -116 -339h-58c-47 0 -68 -11 -68 -33c0 -19 15 -31 68 -31h61v-1zM214 444c-160 0 -165 -325 0 -325s161 326 0 325z" />
    <glyph glyph-name="gcircumflex" unicode="&#x11d;" horiz-adv-x="475" 
d="M336 574c4 -5 2 -11 -7 -6l-88 51l-88 -51c-9 -5 -11 1 -7 6l81 93c6 6 10 8 14 8s9 -2 14 -8zM217 31c205 -1 238 -97 238 -180c0 -80 -76 -174 -241 -174c-175 0 -234 82 -234 169c0 42 16 87 48 117c10 10 20 14 27 14c13 0 19 -15 7 -38c-64 -119 5 -239 152 -239
c117 -1 165 78 165 151c0 101 -52 141 -164 141h-59c-94 0 -112 29 -112 63c0 24 15 53 75 61c-164 77 -130 351 95 351c18 0 35 -2 51 -5c8 -3 16 -4 25 -4c41 0 72 31 77 63c4 26 21 37 38 37c25 0 50 -27 24 -66c-17 -26 -62 -51 -99 -57c139 -89 103 -339 -116 -339h-58
c-47 0 -68 -11 -68 -33c0 -19 15 -31 68 -31h61v-1zM214 444c-160 0 -165 -325 0 -325s161 326 0 325z" />
    <glyph glyph-name="uni0123" unicode="&#x123;" horiz-adv-x="475" 
d="M260 557c12 -37 -12 -57 -36 -57c-23 0 -47 18 -40 57c5 26 28 63 47 85c8 10 20 4 15 -7c-22 -55 6 -54 14 -78zM217 31c205 -1 238 -97 238 -180c0 -80 -76 -174 -241 -174c-175 0 -234 82 -234 169c0 42 16 87 48 117c10 10 20 14 27 14c13 0 19 -15 7 -38
c-64 -119 5 -239 152 -239c117 -1 165 78 165 151c0 101 -52 141 -164 141h-59c-94 0 -112 29 -112 63c0 24 15 53 75 61c-164 77 -130 351 95 351c18 0 35 -2 51 -5c8 -3 16 -4 25 -4c41 0 72 31 77 63c4 26 21 37 38 37c25 0 50 -27 24 -66c-17 -26 -62 -51 -99 -57
c139 -89 103 -339 -116 -339h-58c-47 0 -68 -11 -68 -33c0 -19 15 -31 68 -31h61v-1zM214 444c-160 0 -165 -325 0 -325s161 326 0 325z" />
    <glyph glyph-name="gdotaccent" unicode="&#x121;" horiz-adv-x="475" 
d="M241 652c24 0 43 -19 43 -43s-19 -44 -43 -44s-44 20 -44 44s20 43 44 43zM217 31c205 -1 238 -97 238 -180c0 -80 -76 -174 -241 -174c-175 0 -234 82 -234 169c0 42 16 87 48 117c10 10 20 14 27 14c13 0 19 -15 7 -38c-64 -119 5 -239 152 -239c117 -1 165 78 165 151
c0 101 -52 141 -164 141h-59c-94 0 -112 29 -112 63c0 24 15 53 75 61c-164 77 -130 351 95 351c18 0 35 -2 51 -5c8 -3 16 -4 25 -4c41 0 72 31 77 63c4 26 21 37 38 37c25 0 50 -27 24 -66c-17 -26 -62 -51 -99 -57c139 -89 103 -339 -116 -339h-58c-47 0 -68 -11 -68 -33
c0 -19 15 -31 68 -31h61v-1zM214 444c-160 0 -165 -325 0 -325s161 326 0 325z" />
    <glyph glyph-name="hcircumflex" unicode="&#x125;" horiz-adv-x="576" 
d="M387 738c4 -5 2 -11 -7 -6l-88 51l-88 -51c-9 -5 -11 1 -7 6l81 93c6 6 10 8 14 8s9 -2 14 -8zM549 17c9 -2 9 -17 -1 -17h-193c-10 0 -10 15 -1 17c34 6 63 -3 63 50v266c0 65 -53 95 -112 95c-69 0 -146 -43 -146 -123v-238c0 -53 29 -44 63 -50c10 -2 9 -17 -1 -17
h-192c-11 0 -11 15 -1 17c33 6 62 -3 62 50v533c0 53 -6 53 -54 53c-10 0 -15 13 1 18c37 9 77 21 110 37c5 3 12 3 12 -4v-321c35 56 102 83 166 83c83 0 161 -45 161 -133v-266c0 -53 29 -44 63 -50z" />
    <glyph glyph-name="iacute" unicode="&#xed;" 
d="M152 601c8 7 16 11 24 11c27 0 50 -35 25 -60c-20 -20 -62 -39 -101 -62c-10 -6 -15 1 -10 10c24 38 42 81 62 101zM222 17c10 -2 10 -17 -1 -17h-192c-10 0 -11 15 -1 17c34 6 63 -3 63 50v288c0 54 -7 53 -54 53c-11 0 -15 14 1 18c36 10 76 22 109 38c6 3 12 2 12 -5
v-392c0 -53 30 -44 63 -50z" />
    <glyph glyph-name="ibreve" unicode="&#x12d;" 
d="M244 566c6 7 21 -11 14 -19c-36 -43 -85 -59 -132 -59c-66 0 -127 31 -146 64c-2 4 10 18 14 14c39 -39 85 -57 128 -57c46 0 90 20 122 57zM222 17c10 -2 10 -17 -1 -17h-192c-10 0 -11 15 -1 17c34 6 63 -3 63 50v288c0 54 -7 53 -54 53c-11 0 -15 14 1 18
c36 10 76 22 109 38c6 3 12 2 12 -5v-392c0 -53 30 -44 63 -50z" />
    <glyph glyph-name="icircumflex" unicode="&#xee;" 
d="M218 501c4 -5 2 -11 -7 -6l-88 51l-88 -51c-9 -5 -11 1 -7 6l81 93c6 6 10 8 14 8s9 -2 14 -8zM222 17c10 -2 10 -17 -1 -17h-192c-10 0 -11 15 -1 17c34 6 63 -3 63 50v288c0 54 -7 53 -54 53c-11 0 -15 14 1 18c36 10 76 22 109 38c6 3 12 2 12 -5v-392
c0 -53 30 -44 63 -50z" />
    <glyph glyph-name="idieresis" unicode="&#xef;" 
d="M73 580c24 0 43 -19 43 -43s-19 -44 -43 -44s-44 20 -44 44s20 43 44 43zM173 580c24 0 43 -19 43 -43s-19 -44 -43 -44s-44 20 -44 44s20 43 44 43zM222 17c10 -2 10 -17 -1 -17h-192c-10 0 -11 15 -1 17c34 6 63 -3 63 50v288c0 54 -7 53 -54 53c-11 0 -15 14 1 18
c36 10 76 22 109 38c6 3 12 2 12 -5v-392c0 -53 30 -44 63 -50z" />
    <glyph glyph-name="igrave" unicode="&#xec;" 
d="M164 505c5 -9 0 -16 -10 -10c-39 23 -81 42 -101 62c-25 25 -2 60 25 60c8 0 16 -4 24 -11c20 -20 38 -63 62 -101zM222 17c10 -2 10 -17 -1 -17h-192c-10 0 -11 15 -1 17c34 6 63 -3 63 50v288c0 54 -7 53 -54 53c-11 0 -15 14 1 18c36 10 76 22 109 38c6 3 12 2 12 -5
v-392c0 -53 30 -44 63 -50z" />
    <glyph glyph-name="imacron" unicode="&#x12b;" 
d="M253 534c32 0 32 -43 0 -43h-261c-29 0 -30 42 0 42zM222 17c10 -2 10 -17 -1 -17h-192c-10 0 -11 15 -1 17c34 6 63 -3 63 50v288c0 54 -7 53 -54 53c-11 0 -15 14 1 18c36 10 76 22 109 38c6 3 12 2 12 -5v-392c0 -53 30 -44 63 -50z" />
    <glyph glyph-name="iogonek" unicode="&#x12f;" 
d="M118 516c-33 0 -46 52 -46 75c0 30 23 45 46 45c22 0 45 -15 45 -45c0 -22 -13 -75 -45 -75zM219 19c10 -2 10 -17 -1 -17h-76l13 -28c8 -14 0 -22 -19 -21c-41 4 -81 -25 -81 -64s30 -66 71 -66c21 0 43 9 58 24c5 5 13 -2 8 -8c-18 -22 -48 -37 -82 -37
c-54 0 -92 42 -92 92s44 93 108 83l-6 25h-94c-10 0 -11 15 -1 17c34 6 63 -3 63 50v288c0 54 -7 53 -54 53c-11 0 -15 14 1 18c36 10 76 22 109 38c6 3 12 2 12 -5v-392c0 -53 30 -44 63 -50z" />
    <glyph glyph-name="itilde" unicode="&#x129;" 
d="M271 544c6 7 9 6 6 -4c-11 -34 -30 -46 -55 -46c-54 0 -132 58 -181 58c-13 0 -24 -4 -32 -15c-3 -4 -9 -6 -7 2c11 35 31 47 55 47c55 0 132 -58 181 -58c13 0 25 5 33 16zM222 17c10 -2 10 -17 -1 -17h-192c-10 0 -11 15 -1 17c34 6 63 -3 63 50v288c0 54 -7 53 -54 53
c-11 0 -15 14 1 18c36 10 76 22 109 38c6 3 12 2 12 -5v-392c0 -53 30 -44 63 -50z" />
    <glyph glyph-name="jcircumflex" unicode="&#x135;" horiz-adv-x="198" 
d="M191 495c4 -5 2 -11 -7 -6l-88 51l-88 -51c-9 -5 -11 1 -7 6l81 93c6 6 10 8 14 8s9 -2 14 -8zM119 464c5 3 12 2 12 -5v-508c0 -112 -73 -162 -153 -162c-14 0 -28 1 -42 4c-52 10 -41 64 -7 64c8 0 16 -3 26 -9c13 -9 31 -16 49 -16c16 0 32 6 44 21c13 16 14 53 14 83
v419c0 54 -6 53 -54 53c-10 0 -15 14 1 18c37 10 77 22 110 38z" />
    <glyph glyph-name="uni0137" unicode="&#x137;" horiz-adv-x="562" 
d="M534 16c10 -1 10 -16 -1 -16h-184c-10 0 -11 15 -1 16c27 5 36 13 8 42l-116 122c-5 5 -11 7 -16 7s-10 -2 -13 -5c-20 -23 -38 -43 -52 -59v-56c0 -53 30 -44 63 -50c10 -2 10 -17 -1 -17h-192c-10 0 -11 15 -1 17c34 6 63 -3 63 50v533c0 53 -7 53 -54 53
c-10 0 -15 13 1 18c36 9 76 21 109 37c6 3 12 3 12 -4v-539l205 240l-1 -1c27 31 -9 36 -45 38c-10 1 -10 17 1 17h185c11 0 11 -16 2 -17c-58 -4 -85 -17 -119 -55v1c-35 -42 -79 -93 -120 -141l176 -186v1c43 -44 58 -40 91 -46zM243 -84c-16 37 10 59 35 59
c22 0 44 -16 41 -53c-3 -26 -23 -66 -40 -90c-7 -9 -19 -4 -15 7c17 56 -11 52 -21 77z" />
    <glyph glyph-name="lacute" unicode="&#x13a;" 
d="M151 837c8 7 16 11 24 11c27 0 50 -35 25 -60c-20 -20 -62 -39 -101 -62c-10 -6 -15 1 -10 10c24 38 42 81 62 101zM222 17c10 -2 10 -17 -1 -17h-192c-10 0 -11 15 -1 17c34 6 63 -3 63 50v533c0 53 -7 53 -54 53c-10 0 -15 13 1 18c36 9 76 21 109 37c6 3 12 3 12 -4
v-637c0 -53 30 -44 63 -50z" />
    <glyph glyph-name="lcaron" unicode="&#x13e;" horiz-adv-x="304" 
d="M222 17c10 -2 10 -17 -1 -17h-192c-10 0 -11 15 -1 17c34 6 63 -3 63 50v533c0 53 -7 53 -54 53c-10 0 -15 13 1 18c36 9 76 21 109 37c6 3 12 3 12 -4v-637c0 -53 30 -44 63 -50zM197 598c-16 37 10 59 35 59c22 0 44 -16 41 -53c-3 -26 -23 -65 -40 -89
c-7 -10 -19 -5 -15 6c17 57 -11 53 -21 77z" />
    <glyph glyph-name="uni013C" unicode="&#x13c;" 
d="M222 17c10 -2 10 -17 -1 -17h-192c-10 0 -11 15 -1 17c34 6 63 -3 63 50v533c0 53 -7 53 -54 53c-10 0 -15 13 1 18c36 9 76 21 109 37c6 3 12 3 12 -4v-637c0 -53 30 -44 63 -50zM83 -73c-16 37 10 59 35 59c22 0 44 -16 41 -53c-3 -26 -23 -66 -40 -90
c-7 -9 -19 -4 -15 7c17 56 -11 52 -21 77z" />
    <glyph glyph-name="ldot" unicode="&#x140;" horiz-adv-x="330" 
d="M222 17c10 -2 10 -17 -1 -17h-192c-10 0 -11 15 -1 17c34 6 63 -3 63 50v533c0 53 -7 53 -54 53c-10 0 -15 13 1 18c36 9 76 21 109 37c6 3 12 3 12 -4v-637c0 -53 30 -44 63 -50zM243 283c25 0 45 -20 45 -44c0 -25 -20 -44 -45 -44c-24 0 -44 19 -44 44
c0 24 20 44 44 44z" />
    <glyph glyph-name="nacute" unicode="&#x144;" horiz-adv-x="576" 
d="M315 596c8 7 16 11 24 11c27 0 50 -35 25 -60c-20 -20 -62 -39 -101 -62c-10 -6 -15 1 -10 10c24 38 42 81 62 101zM549 17c9 -2 9 -17 -1 -17h-193c-10 0 -10 15 -1 17c34 6 63 -3 63 50v266c0 65 -53 95 -112 95c-69 0 -146 -43 -146 -123v-238c0 -53 29 -44 63 -50
c10 -2 9 -17 -1 -17h-192c-11 0 -11 15 -1 17c33 6 62 -3 62 50v288c0 54 -6 53 -54 53c-10 0 -15 14 1 18c37 10 77 22 110 38c5 3 12 2 12 -5v-76c35 56 102 83 166 83c83 0 161 -45 161 -133v-266c0 -53 29 -44 63 -50z" />
    <glyph glyph-name="napostrophe" unicode="&#x149;" horiz-adv-x="576" 
d="M80 546c-16 37 10 59 35 59c22 0 44 -16 41 -53c-3 -26 -23 -66 -40 -90c-7 -9 -19 -4 -15 7c17 56 -11 52 -21 77zM549 17c9 -2 9 -17 -1 -17h-193c-10 0 -10 15 -1 17c34 6 63 -3 63 50v266c0 65 -53 95 -112 95c-69 0 -146 -43 -146 -123v-238c0 -53 29 -44 63 -50
c10 -2 9 -17 -1 -17h-192c-11 0 -11 15 -1 17c33 6 62 -3 62 50v288c0 54 -6 53 -54 53c-10 0 -15 14 1 18c37 10 77 22 110 38c5 3 12 2 12 -5v-76c35 56 102 83 166 83c83 0 161 -45 161 -133v-266c0 -53 29 -44 63 -50z" />
    <glyph glyph-name="ncaron" unicode="&#x148;" horiz-adv-x="576" 
d="M375 592c9 5 11 -1 7 -6c-27 -31 -54 -62 -81 -92c-5 -5 -10 -8 -14 -8s-8 3 -14 8c-27 30 -54 61 -81 92c-4 5 -2 11 7 6c29 -17 59 -34 88 -50c29 16 59 33 88 50zM549 17c9 -2 9 -17 -1 -17h-193c-10 0 -10 15 -1 17c34 6 63 -3 63 50v266c0 65 -53 95 -112 95
c-69 0 -146 -43 -146 -123v-238c0 -53 29 -44 63 -50c10 -2 9 -17 -1 -17h-192c-11 0 -11 15 -1 17c33 6 62 -3 62 50v288c0 54 -6 53 -54 53c-10 0 -15 14 1 18c37 10 77 22 110 38c5 3 12 2 12 -5v-76c35 56 102 83 166 83c83 0 161 -45 161 -133v-266
c0 -53 29 -44 63 -50z" />
    <glyph glyph-name="uni0146" unicode="&#x146;" horiz-adv-x="576" 
d="M549 17c9 -2 9 -17 -1 -17h-193c-10 0 -10 15 -1 17c34 6 63 -3 63 50v266c0 65 -53 95 -112 95c-69 0 -146 -43 -146 -123v-238c0 -53 29 -44 63 -50c10 -2 9 -17 -1 -17h-192c-11 0 -11 15 -1 17c33 6 62 -3 62 50v288c0 54 -6 53 -54 53c-10 0 -15 14 1 18
c37 10 77 22 110 38c5 3 12 2 12 -5v-76c35 56 102 83 166 83c83 0 161 -45 161 -133v-266c0 -53 29 -44 63 -50zM239 -84c-16 37 10 59 35 59c22 0 44 -16 41 -53c-3 -26 -23 -66 -40 -90c-7 -9 -19 -4 -15 7c17 56 -11 52 -21 77z" />
    <glyph glyph-name="ntilde" unicode="&#xf1;" horiz-adv-x="576" 
d="M434 539c6 7 9 6 6 -4c-11 -34 -30 -46 -55 -46c-54 0 -132 58 -181 58c-13 0 -24 -4 -32 -15c-3 -4 -9 -6 -7 2c11 35 31 47 55 47c55 0 132 -58 181 -58c13 0 25 5 33 16zM549 17c9 -2 9 -17 -1 -17h-193c-10 0 -10 15 -1 17c34 6 63 -3 63 50v266c0 65 -53 95 -112 95
c-69 0 -146 -43 -146 -123v-238c0 -53 29 -44 63 -50c10 -2 9 -17 -1 -17h-192c-11 0 -11 15 -1 17c33 6 62 -3 62 50v288c0 54 -6 53 -54 53c-10 0 -15 14 1 18c37 10 77 22 110 38c5 3 12 2 12 -5v-76c35 56 102 83 166 83c83 0 161 -45 161 -133v-266
c0 -53 29 -44 63 -50z" />
    <glyph glyph-name="oacute" unicode="&#xf3;" horiz-adv-x="503" 
d="M280 596c8 7 16 11 24 11c27 0 50 -35 25 -60c-20 -20 -62 -39 -101 -62c-10 -6 -15 1 -10 10c24 38 42 81 62 101zM251 466c309 0 309 -476 0 -476c-308 0 -308 476 0 476zM251 10c208 0 209 436 0 436s-208 -436 0 -436z" />
    <glyph glyph-name="obreve" unicode="&#x14f;" horiz-adv-x="503" 
d="M372 561c6 7 21 -11 14 -19c-36 -43 -85 -59 -132 -59c-66 0 -127 31 -146 64c-2 4 10 18 14 14c39 -39 85 -57 128 -57c46 0 90 20 122 57zM251 466c309 0 309 -476 0 -476c-308 0 -308 476 0 476zM251 10c208 0 209 436 0 436s-208 -436 0 -436z" />
    <glyph glyph-name="ocircumflex" unicode="&#xf4;" horiz-adv-x="503" 
d="M346 496c4 -5 2 -11 -7 -6l-88 51l-88 -51c-9 -5 -11 1 -7 6l81 93c6 6 10 8 14 8s9 -2 14 -8zM251 466c309 0 309 -476 0 -476c-308 0 -308 476 0 476zM251 10c208 0 209 436 0 436s-208 -436 0 -436z" />
    <glyph glyph-name="odieresis" unicode="&#xf6;" horiz-adv-x="503" 
d="M201 575c24 0 43 -19 43 -43s-19 -44 -43 -44s-44 20 -44 44s20 43 44 43zM301 575c24 0 43 -19 43 -43s-19 -44 -43 -44s-44 20 -44 44s20 43 44 43zM251 466c309 0 309 -476 0 -476c-308 0 -308 476 0 476zM251 10c208 0 209 436 0 436s-208 -436 0 -436z" />
    <glyph glyph-name="ograve" unicode="&#xf2;" horiz-adv-x="503" 
d="M292 500c5 -9 0 -16 -10 -10c-39 23 -81 42 -101 62c-25 25 -2 60 25 60c8 0 16 -4 24 -11c20 -20 38 -63 62 -101zM251 466c309 0 309 -476 0 -476c-308 0 -308 476 0 476zM251 10c208 0 209 436 0 436s-208 -436 0 -436z" />
    <glyph glyph-name="ohungarumlaut" unicode="&#x151;" horiz-adv-x="503" 
d="M248 599c8 7 16 11 24 11c27 0 50 -35 25 -60c-20 -20 -62 -39 -101 -62c-10 -6 -15 1 -10 10c24 38 42 81 62 101zM359 599c8 7 16 11 24 11c27 0 50 -35 25 -60c-20 -20 -62 -39 -101 -62c-10 -6 -15 1 -10 10c24 38 42 81 62 101zM251 466c309 0 309 -476 0 -476
c-308 0 -308 476 0 476zM251 10c208 0 209 436 0 436s-208 -436 0 -436z" />
    <glyph glyph-name="omacron" unicode="&#x14d;" horiz-adv-x="503" 
d="M381 529c32 0 32 -43 0 -43h-261c-29 0 -30 42 0 42zM251 466c309 0 309 -476 0 -476c-308 0 -308 476 0 476zM251 10c208 0 209 436 0 436s-208 -436 0 -436z" />
    <glyph glyph-name="oslashacute" unicode="&#x1ff;" horiz-adv-x="503" 
d="M360 436c193 -96 157 -450 -109 -450c-35 0 -66 7 -93 18l-77 -166c-3 -7 -9 -10 -15 -10c-11 0 -21 10 -15 24l78 166c-178 106 -137 443 122 443c29 0 55 -5 78 -12l93 198c4 8 10 11 15 11c11 0 21 -11 14 -25zM299 633c8 7 16 11 24 11c27 0 50 -35 25 -60
c-20 -20 -62 -39 -101 -62c-10 -6 -15 1 -10 10c24 38 42 81 62 101zM251 441c-163 0 -197 -268 -104 -383l170 365c-19 11 -41 18 -66 18zM251 6c170 0 201 291 93 397l-172 -369c22 -17 48 -28 79 -28z" />
    <glyph glyph-name="otilde" unicode="&#xf5;" horiz-adv-x="503" 
d="M399 539c6 7 9 6 6 -4c-11 -34 -30 -46 -55 -46c-54 0 -132 58 -181 58c-13 0 -24 -4 -32 -15c-3 -4 -9 -6 -7 2c11 35 31 47 55 47c55 0 132 -58 181 -58c13 0 25 5 33 16zM251 466c309 0 309 -476 0 -476c-308 0 -308 476 0 476zM251 10c208 0 209 436 0 436
s-208 -436 0 -436z" />
    <glyph glyph-name="uniE02A" unicode="&#xe02a;" horiz-adv-x="410" 
d="M227 272c73 -24 163 -52 163 -145c0 -103 -97 -138 -184 -138c-67 0 -135 24 -180 67c-10 10 -4 21 6 21c3 0 7 -1 10 -4c33 -29 88 -55 168 -55c78 0 122 45 122 89c0 57 -76 80 -122 95c-73 25 -171 40 -171 139c0 91 82 126 160 125c63 -1 107 -13 140 -46
c42 -42 16 -78 -12 -78c-14 0 -29 9 -35 32c-11 42 -38 66 -93 66c-66 0 -102 -37 -102 -74c0 -62 83 -78 130 -94zM153 -86c-16 37 10 59 35 59c22 0 44 -16 41 -53c-3 -26 -23 -66 -40 -90c-7 -9 -19 -4 -15 7c17 56 -11 52 -21 77z" />
    <glyph glyph-name="racute" unicode="&#x155;" horiz-adv-x="443" 
d="M255 593c8 7 16 11 24 11c27 0 50 -35 25 -60c-20 -20 -62 -39 -101 -62c-10 -6 -15 1 -10 10c24 38 42 81 62 101zM396 437c48 -35 20 -77 -10 -77c-13 0 -26 8 -34 28c-13 32 -38 45 -66 45c-58 0 -127 -55 -127 -131v-235c0 -53 29 -44 63 -50c9 -2 9 -17 -1 -17h-193
c-10 0 -10 15 -1 17c34 6 63 -3 63 50v288c0 54 -6 53 -54 53c-10 0 -15 14 1 18c36 10 76 22 110 38c5 3 12 2 12 -5v-80c31 55 89 87 147 87c31 0 62 -9 90 -29z" />
    <glyph glyph-name="rcaron" unicode="&#x159;" horiz-adv-x="443" 
d="M315 589c9 5 11 -1 7 -6c-27 -31 -54 -62 -81 -92c-5 -5 -10 -8 -14 -8s-8 3 -14 8c-27 30 -54 61 -81 92c-4 5 -2 11 7 6c29 -17 59 -34 88 -50c29 16 59 33 88 50zM396 437c48 -35 20 -77 -10 -77c-13 0 -26 8 -34 28c-13 32 -38 45 -66 45c-58 0 -127 -55 -127 -131
v-235c0 -53 29 -44 63 -50c9 -2 9 -17 -1 -17h-193c-10 0 -10 15 -1 17c34 6 63 -3 63 50v288c0 54 -6 53 -54 53c-10 0 -15 14 1 18c36 10 76 22 110 38c5 3 12 2 12 -5v-80c31 55 89 87 147 87c31 0 62 -9 90 -29z" />
    <glyph glyph-name="uni0157" unicode="&#x157;" horiz-adv-x="443" 
d="M396 437c48 -35 20 -77 -10 -77c-13 0 -26 8 -34 28c-13 32 -38 45 -66 45c-58 0 -127 -55 -127 -131v-235c0 -53 29 -44 63 -50c9 -2 9 -17 -1 -17h-193c-10 0 -10 15 -1 17c34 6 63 -3 63 50v288c0 54 -6 53 -54 53c-10 0 -15 14 1 18c36 10 76 22 110 38
c5 3 12 2 12 -5v-80c31 55 89 87 147 87c31 0 62 -9 90 -29zM83 -76c-16 37 10 59 35 59c22 0 44 -16 41 -53c-3 -26 -23 -66 -40 -90c-7 -9 -19 -4 -15 7c17 56 -11 52 -21 77z" />
    <glyph glyph-name="sacute" unicode="&#x15b;" horiz-adv-x="410" 
d="M226 596c8 7 16 11 24 11c27 0 50 -35 25 -60c-20 -20 -62 -39 -101 -62c-10 -6 -15 1 -10 10c24 38 42 81 62 101zM227 272c73 -24 163 -52 163 -145c0 -103 -97 -138 -184 -138c-67 0 -135 24 -180 67c-10 10 -4 21 6 21c3 0 7 -1 10 -4c33 -29 88 -55 168 -55
c78 0 122 45 122 89c0 57 -76 80 -122 95c-73 25 -171 40 -171 139c0 91 82 126 160 125c63 -1 107 -13 140 -46c42 -42 16 -78 -12 -78c-14 0 -29 9 -35 32c-11 42 -38 66 -93 66c-66 0 -102 -37 -102 -74c0 -62 83 -78 130 -94z" />
    <glyph glyph-name="scaron" unicode="&#x161;" horiz-adv-x="410" 
d="M286 592c9 5 11 -1 7 -6c-27 -31 -54 -62 -81 -92c-5 -5 -10 -8 -14 -8s-8 3 -14 8c-27 30 -54 61 -81 92c-4 5 -2 11 7 6c29 -17 59 -34 88 -50c29 16 59 33 88 50zM227 272c73 -24 163 -52 163 -145c0 -103 -97 -138 -184 -138c-67 0 -135 24 -180 67
c-10 10 -4 21 6 21c3 0 7 -1 10 -4c33 -29 88 -55 168 -55c78 0 122 45 122 89c0 57 -76 80 -122 95c-73 25 -171 40 -171 139c0 91 82 126 160 125c63 -1 107 -13 140 -46c42 -42 16 -78 -12 -78c-14 0 -29 9 -35 32c-11 42 -38 66 -93 66c-66 0 -102 -37 -102 -74
c0 -62 83 -78 130 -94z" />
    <glyph glyph-name="scedilla" unicode="&#x15f;" horiz-adv-x="410" 
d="M187 -41c64 10 107 -33 107 -83s-37 -92 -91 -92c-34 0 -64 15 -82 37c-5 6 3 13 8 8c15 -15 37 -24 58 -24c41 0 71 27 71 66s-40 68 -81 64c-19 -1 -27 7 -19 21l17 35c-57 6 -111 28 -149 65c-10 10 -4 21 6 21c3 0 7 -1 10 -4c33 -29 88 -55 168 -55
c78 0 122 45 122 89c0 57 -76 80 -122 95c-73 25 -171 40 -171 139c0 91 82 126 160 125c63 -1 107 -13 140 -46c42 -42 16 -78 -12 -78c-14 0 -29 9 -35 32c-11 42 -38 66 -93 66c-66 0 -102 -37 -102 -74c0 -62 83 -78 130 -94c73 -24 163 -52 163 -145
c0 -103 -97 -138 -184 -138h-12z" />
    <glyph glyph-name="scircumflex" unicode="&#x15d;" horiz-adv-x="410" 
d="M292 496c4 -5 2 -11 -7 -6l-88 51l-88 -51c-9 -5 -11 1 -7 6l81 93c6 6 10 8 14 8s9 -2 14 -8zM227 272c73 -24 163 -52 163 -145c0 -103 -97 -138 -184 -138c-67 0 -135 24 -180 67c-10 10 -4 21 6 21c3 0 7 -1 10 -4c33 -29 88 -55 168 -55c78 0 122 45 122 89
c0 57 -76 80 -122 95c-73 25 -171 40 -171 139c0 91 82 126 160 125c63 -1 107 -13 140 -46c42 -42 16 -78 -12 -78c-14 0 -29 9 -35 32c-11 42 -38 66 -93 66c-66 0 -102 -37 -102 -74c0 -62 83 -78 130 -94z" />
    <glyph glyph-name="uni0219" unicode="&#x219;" horiz-adv-x="410" 
d="M227 272c73 -24 163 -52 163 -145c0 -103 -97 -138 -184 -138c-67 0 -135 24 -180 67c-10 10 -4 21 6 21c3 0 7 -1 10 -4c33 -29 88 -55 168 -55c78 0 122 45 122 89c0 57 -76 80 -122 95c-73 25 -171 40 -171 139c0 91 82 126 160 125c63 -1 107 -13 140 -46
c42 -42 16 -78 -12 -78c-14 0 -29 9 -35 32c-11 42 -38 66 -93 66c-66 0 -102 -37 -102 -74c0 -62 83 -78 130 -94zM164 -94c-16 37 10 59 35 59c22 0 44 -16 41 -53c-3 -26 -23 -66 -40 -90c-7 -9 -19 -4 -15 7c17 56 -11 52 -21 77z" />
    <glyph glyph-name="tcaron" unicode="&#x165;" horiz-adv-x="296" 
d="M241 37c16 7 25 -13 8 -21c-34 -17 -72 -28 -105 -28c-54 0 -98 30 -97 113v332h-64c-17 0 -17 22 0 22c76 1 103 22 108 135c0 8 6 12 12 12s12 -4 12 -12v-135h75c18 0 18 -22 0 -22h-75v-330c0 -60 20 -83 57 -83c19 0 42 6 69 17zM225 516c-16 37 10 59 35 59
c22 0 44 -16 41 -53c-3 -26 -23 -65 -40 -89c-7 -10 -19 -5 -15 6c17 57 -11 53 -21 77z" />
    <glyph glyph-name="uni0163" unicode="&#x163;" horiz-adv-x="279" 
d="M241 37c16 7 25 -13 8 -21c-34 -17 -72 -28 -105 -28c-54 0 -98 30 -97 113v332h-64c-17 0 -17 22 0 22c76 1 103 22 108 135c0 8 6 12 12 12s12 -4 12 -12v-135h75c18 0 18 -22 0 -22h-75v-330c0 -60 20 -83 57 -83c19 0 42 6 69 17zM91 -87c-16 37 10 59 35 59
c22 0 44 -16 41 -53c-3 -26 -23 -66 -40 -90c-7 -9 -19 -4 -15 7c17 56 -11 52 -21 77z" />
    <glyph glyph-name="uacute" unicode="&#xfa;" horiz-adv-x="531" 
d="M293 595c8 7 16 11 24 11c27 0 50 -35 25 -60c-20 -20 -62 -39 -101 -62c-10 -6 -15 1 -10 10c24 38 42 81 62 101zM500 26c14 -1 13 -14 0 -15l-100 -11c-16 -2 -19 4 -19 19v58c-36 -56 -103 -84 -167 -84c-82 0 -160 45 -160 133v229c0 54 -7 53 -54 53
c-10 0 -15 14 1 18c36 10 76 22 109 38c6 3 12 2 12 -5v-333c0 -65 54 -95 112 -95c70 0 147 43 147 123v201c0 54 -7 53 -54 53c-11 0 -15 14 1 18c36 10 76 22 109 38c6 3 12 2 12 -5v-398c0 -27 21 -33 51 -35z" />
    <glyph glyph-name="ubreve" unicode="&#x16d;" horiz-adv-x="531" 
d="M385 560c6 7 21 -11 14 -19c-36 -43 -85 -59 -132 -59c-66 0 -127 31 -146 64c-2 4 10 18 14 14c39 -39 85 -57 128 -57c46 0 90 20 122 57zM500 26c14 -1 13 -14 0 -15l-100 -11c-16 -2 -19 4 -19 19v58c-36 -56 -103 -84 -167 -84c-82 0 -160 45 -160 133v229
c0 54 -7 53 -54 53c-10 0 -15 14 1 18c36 10 76 22 109 38c6 3 12 2 12 -5v-333c0 -65 54 -95 112 -95c70 0 147 43 147 123v201c0 54 -7 53 -54 53c-11 0 -15 14 1 18c36 10 76 22 109 38c6 3 12 2 12 -5v-398c0 -27 21 -33 51 -35z" />
    <glyph glyph-name="ucircumflex" unicode="&#xfb;" horiz-adv-x="531" 
d="M359 495c4 -5 2 -11 -7 -6l-88 51l-88 -51c-9 -5 -11 1 -7 6l81 93c6 6 10 8 14 8s9 -2 14 -8zM500 26c14 -1 13 -14 0 -15l-100 -11c-16 -2 -19 4 -19 19v58c-36 -56 -103 -84 -167 -84c-82 0 -160 45 -160 133v229c0 54 -7 53 -54 53c-10 0 -15 14 1 18
c36 10 76 22 109 38c6 3 12 2 12 -5v-333c0 -65 54 -95 112 -95c70 0 147 43 147 123v201c0 54 -7 53 -54 53c-11 0 -15 14 1 18c36 10 76 22 109 38c6 3 12 2 12 -5v-398c0 -27 21 -33 51 -35z" />
    <glyph glyph-name="udieresis" unicode="&#xfc;" horiz-adv-x="531" 
d="M214 574c24 0 43 -19 43 -43s-19 -44 -43 -44s-44 20 -44 44s20 43 44 43zM314 574c24 0 43 -19 43 -43s-19 -44 -43 -44s-44 20 -44 44s20 43 44 43zM500 26c14 -1 13 -14 0 -15l-100 -11c-16 -2 -19 4 -19 19v58c-36 -56 -103 -84 -167 -84c-82 0 -160 45 -160 133v229
c0 54 -7 53 -54 53c-10 0 -15 14 1 18c36 10 76 22 109 38c6 3 12 2 12 -5v-333c0 -65 54 -95 112 -95c70 0 147 43 147 123v201c0 54 -7 53 -54 53c-11 0 -15 14 1 18c36 10 76 22 109 38c6 3 12 2 12 -5v-398c0 -27 21 -33 51 -35z" />
    <glyph glyph-name="uhungarumlaut" unicode="&#x171;" horiz-adv-x="531" 
d="M261 598c8 7 16 11 24 11c27 0 50 -35 25 -60c-20 -20 -62 -39 -101 -62c-10 -6 -15 1 -10 10c24 38 42 81 62 101zM372 598c8 7 16 11 24 11c27 0 50 -35 25 -60c-20 -20 -62 -39 -101 -62c-10 -6 -15 1 -10 10c24 38 42 81 62 101zM500 26c14 -1 13 -14 0 -15l-100 -11
c-16 -2 -19 4 -19 19v58c-36 -56 -103 -84 -167 -84c-82 0 -160 45 -160 133v229c0 54 -7 53 -54 53c-10 0 -15 14 1 18c36 10 76 22 109 38c6 3 12 2 12 -5v-333c0 -65 54 -95 112 -95c70 0 147 43 147 123v201c0 54 -7 53 -54 53c-11 0 -15 14 1 18c36 10 76 22 109 38
c6 3 12 2 12 -5v-398c0 -27 21 -33 51 -35z" />
    <glyph glyph-name="ugrave" unicode="&#xf9;" horiz-adv-x="531" 
d="M305 499c5 -9 0 -16 -10 -10c-39 23 -81 42 -101 62c-25 25 -2 60 25 60c8 0 16 -4 24 -11c20 -20 38 -63 62 -101zM500 26c14 -1 13 -14 0 -15l-100 -11c-16 -2 -19 4 -19 19v58c-36 -56 -103 -84 -167 -84c-82 0 -160 45 -160 133v229c0 54 -7 53 -54 53
c-10 0 -15 14 1 18c36 10 76 22 109 38c6 3 12 2 12 -5v-333c0 -65 54 -95 112 -95c70 0 147 43 147 123v201c0 54 -7 53 -54 53c-11 0 -15 14 1 18c36 10 76 22 109 38c6 3 12 2 12 -5v-398c0 -27 21 -33 51 -35z" />
    <glyph glyph-name="umacron" unicode="&#x16b;" horiz-adv-x="531" 
d="M394 528c32 0 32 -43 0 -43h-261c-29 0 -30 42 0 42zM500 26c14 -1 13 -14 0 -15l-100 -11c-16 -2 -19 4 -19 19v58c-36 -56 -103 -84 -167 -84c-82 0 -160 45 -160 133v229c0 54 -7 53 -54 53c-10 0 -15 14 1 18c36 10 76 22 109 38c6 3 12 2 12 -5v-333
c0 -65 54 -95 112 -95c70 0 147 43 147 123v201c0 54 -7 53 -54 53c-11 0 -15 14 1 18c36 10 76 22 109 38c6 3 12 2 12 -5v-398c0 -27 21 -33 51 -35z" />
    <glyph glyph-name="uogonek" unicode="&#x173;" horiz-adv-x="531" 
d="M497 27c14 -1 13 -14 0 -15l-56 -6l12 -24c8 -14 0 -22 -19 -21c-41 4 -81 -25 -81 -64s30 -66 71 -66c21 0 43 9 58 24c5 5 13 -2 8 -8c-18 -22 -48 -37 -82 -37c-54 0 -92 42 -92 92s44 93 108 83l-5 19l-22 -3c-16 -2 -19 4 -19 19v58c-36 -56 -103 -84 -167 -84
c-82 0 -160 45 -160 133v229c0 54 -7 53 -54 53c-10 0 -15 14 1 18c36 10 76 22 109 38c6 3 12 2 12 -5v-333c0 -65 54 -95 112 -95c70 0 147 43 147 123v201c0 54 -7 53 -54 53c-11 0 -15 14 1 18c36 10 76 22 109 38c6 3 12 2 12 -5v-398c0 -27 21 -33 51 -35z" />
    <glyph glyph-name="uring" unicode="&#x16f;" horiz-adv-x="531" 
d="M264 622c37 0 67 -30 67 -67s-30 -68 -67 -68s-67 31 -67 68s30 67 67 67zM264 509c25 0 46 20 46 46c0 25 -21 45 -46 45s-46 -20 -46 -45c0 -26 21 -46 46 -46zM500 26c14 -1 13 -14 0 -15l-100 -11c-16 -2 -19 4 -19 19v58c-36 -56 -103 -84 -167 -84
c-82 0 -160 45 -160 133v229c0 54 -7 53 -54 53c-10 0 -15 14 1 18c36 10 76 22 109 38c6 3 12 2 12 -5v-333c0 -65 54 -95 112 -95c70 0 147 43 147 123v201c0 54 -7 53 -54 53c-11 0 -15 14 1 18c36 10 76 22 109 38c6 3 12 2 12 -5v-398c0 -27 21 -33 51 -35z" />
    <glyph glyph-name="utilde" unicode="&#x169;" horiz-adv-x="531" 
d="M412 538c6 7 9 6 6 -4c-11 -34 -30 -46 -55 -46c-54 0 -132 58 -181 58c-13 0 -24 -4 -32 -15c-3 -4 -9 -6 -7 2c11 35 31 47 55 47c55 0 132 -58 181 -58c13 0 25 5 33 16zM500 26c14 -1 13 -14 0 -15l-100 -11c-16 -2 -19 4 -19 19v58c-36 -56 -103 -84 -167 -84
c-82 0 -160 45 -160 133v229c0 54 -7 53 -54 53c-10 0 -15 14 1 18c36 10 76 22 109 38c6 3 12 2 12 -5v-333c0 -65 54 -95 112 -95c70 0 147 43 147 123v201c0 54 -7 53 -54 53c-11 0 -15 14 1 18c36 10 76 22 109 38c6 3 12 2 12 -5v-398c0 -27 21 -33 51 -35z" />
    <glyph glyph-name="wacute" unicode="&#x1e83;" horiz-adv-x="880" 
d="M471 605c8 7 16 11 24 11c27 0 50 -35 25 -60c-20 -20 -62 -39 -101 -62c-10 -6 -15 1 -10 10c24 38 42 81 62 101zM852 459c10 0 10 -17 1 -18c-33 -6 -68 2 -89 -48v1c-61 -149 -89 -227 -161 -399c-29 -8 -44 9 -57 36l-134 332c-52 -127 -83 -211 -149 -368
c-28 -8 -44 9 -57 36l-158 390c-20 20 -45 16 -71 20c-9 1 -9 18 1 18h202c10 0 11 -17 1 -18c-33 -6 -64 1 -46 -43v1c48 -118 56 -155 118 -301c6 -15 13 -15 19 0l134 328c0 2 1 4 2 5c6 18 21 41 39 34l146 -367c6 -15 13 -15 19 0l123 303l-1 -2c18 44 -30 36 -63 42
c-10 1 -10 18 1 18h180z" />
    <glyph glyph-name="wcircumflex" unicode="&#x175;" horiz-adv-x="880" 
d="M537 505c4 -5 2 -11 -7 -6l-88 51l-88 -51c-9 -5 -11 1 -7 6l81 93c6 6 10 8 14 8s9 -2 14 -8zM852 459c10 0 10 -17 1 -18c-33 -6 -68 2 -89 -48v1c-61 -149 -89 -227 -161 -399c-29 -8 -44 9 -57 36l-134 332c-52 -127 -83 -211 -149 -368c-28 -8 -44 9 -57 36
l-158 390c-20 20 -45 16 -71 20c-9 1 -9 18 1 18h202c10 0 11 -17 1 -18c-33 -6 -64 1 -46 -43v1c48 -118 56 -155 118 -301c6 -15 13 -15 19 0l134 328c0 2 1 4 2 5c6 18 21 41 39 34l146 -367c6 -15 13 -15 19 0l123 303l-1 -2c18 44 -30 36 -63 42c-10 1 -10 18 1 18h180
z" />
    <glyph glyph-name="wdieresis" unicode="&#x1e85;" horiz-adv-x="880" 
d="M392 584c24 0 43 -19 43 -43s-19 -44 -43 -44s-44 20 -44 44s20 43 44 43zM492 584c24 0 43 -19 43 -43s-19 -44 -43 -44s-44 20 -44 44s20 43 44 43zM852 459c10 0 10 -17 1 -18c-33 -6 -68 2 -89 -48v1c-61 -149 -89 -227 -161 -399c-29 -8 -44 9 -57 36l-134 332
c-52 -127 -83 -211 -149 -368c-28 -8 -44 9 -57 36l-158 390c-20 20 -45 16 -71 20c-9 1 -9 18 1 18h202c10 0 11 -17 1 -18c-33 -6 -64 1 -46 -43v1c48 -118 56 -155 118 -301c6 -15 13 -15 19 0l134 328c0 2 1 4 2 5c6 18 21 41 39 34l146 -367c6 -15 13 -15 19 0l123 303
l-1 -2c18 44 -30 36 -63 42c-10 1 -10 18 1 18h180z" />
    <glyph glyph-name="wgrave" unicode="&#x1e81;" horiz-adv-x="880" 
d="M483 509c5 -9 0 -16 -10 -10c-39 23 -81 42 -101 62c-25 25 -2 60 25 60c8 0 16 -4 24 -11c20 -20 38 -63 62 -101zM852 459c10 0 10 -17 1 -18c-33 -6 -68 2 -89 -48v1c-61 -149 -89 -227 -161 -399c-29 -8 -44 9 -57 36l-134 332c-52 -127 -83 -211 -149 -368
c-28 -8 -44 9 -57 36l-158 390c-20 20 -45 16 -71 20c-9 1 -9 18 1 18h202c10 0 11 -17 1 -18c-33 -6 -64 1 -46 -43v1c48 -118 56 -155 118 -301c6 -15 13 -15 19 0l134 328c0 2 1 4 2 5c6 18 21 41 39 34l146 -367c6 -15 13 -15 19 0l123 303l-1 -2c18 44 -30 36 -63 42
c-10 1 -10 18 1 18h180z" />
    <glyph glyph-name="yacute" unicode="&#xfd;" horiz-adv-x="548" 
d="M303 597c8 7 16 11 24 11c27 0 50 -35 25 -60c-20 -20 -62 -39 -101 -62c-10 -6 -15 1 -10 10c24 38 42 81 62 101zM519 459c11 0 11 -15 1 -16c-33 -6 -67 0 -88 -50v2l-193 -462c-30 -71 -76 -123 -154 -123c-54 0 -92 28 -109 59c-19 36 3 59 26 59
c15 0 30 -10 34 -32c6 -35 21 -56 58 -56c68 0 99 61 122 115c12 31 0 58 -8 76l-153 365c-21 49 -54 41 -87 47c-10 1 -10 16 1 16h207c10 0 10 -15 1 -16c-32 -6 -61 -2 -48 -40c51 -121 63 -157 126 -305c6 -15 13 -15 19 0l128 304c14 40 -31 35 -64 41c-9 1 -9 16 1 16
h180z" />
    <glyph glyph-name="ycircumflex" unicode="&#x177;" horiz-adv-x="548" 
d="M369 497c4 -5 2 -11 -7 -6l-88 51l-88 -51c-9 -5 -11 1 -7 6l81 93c6 6 10 8 14 8s9 -2 14 -8zM519 459c11 0 11 -15 1 -16c-33 -6 -67 0 -88 -50v2l-193 -462c-30 -71 -76 -123 -154 -123c-54 0 -92 28 -109 59c-19 36 3 59 26 59c15 0 30 -10 34 -32
c6 -35 21 -56 58 -56c68 0 99 61 122 115c12 31 0 58 -8 76l-153 365c-21 49 -54 41 -87 47c-10 1 -10 16 1 16h207c10 0 10 -15 1 -16c-32 -6 -61 -2 -48 -40c51 -121 63 -157 126 -305c6 -15 13 -15 19 0l128 304c14 40 -31 35 -64 41c-9 1 -9 16 1 16h180z" />
    <glyph glyph-name="ydieresis" unicode="&#xff;" horiz-adv-x="548" 
d="M224 576c24 0 43 -19 43 -43s-19 -44 -43 -44s-44 20 -44 44s20 43 44 43zM324 576c24 0 43 -19 43 -43s-19 -44 -43 -44s-44 20 -44 44s20 43 44 43zM519 459c11 0 11 -15 1 -16c-33 -6 -67 0 -88 -50v2l-193 -462c-30 -71 -76 -123 -154 -123c-54 0 -92 28 -109 59
c-19 36 3 59 26 59c15 0 30 -10 34 -32c6 -35 21 -56 58 -56c68 0 99 61 122 115c12 31 0 58 -8 76l-153 365c-21 49 -54 41 -87 47c-10 1 -10 16 1 16h207c10 0 10 -15 1 -16c-32 -6 -61 -2 -48 -40c51 -121 63 -157 126 -305c6 -15 13 -15 19 0l128 304
c14 40 -31 35 -64 41c-9 1 -9 16 1 16h180z" />
    <glyph glyph-name="ygrave" unicode="&#x1ef3;" horiz-adv-x="548" 
d="M315 501c5 -9 0 -16 -10 -10c-39 23 -81 42 -101 62c-25 25 -2 60 25 60c8 0 16 -4 24 -11c20 -20 38 -63 62 -101zM519 459c11 0 11 -15 1 -16c-33 -6 -67 0 -88 -50v2l-193 -462c-30 -71 -76 -123 -154 -123c-54 0 -92 28 -109 59c-19 36 3 59 26 59
c15 0 30 -10 34 -32c6 -35 21 -56 58 -56c68 0 99 61 122 115c12 31 0 58 -8 76l-153 365c-21 49 -54 41 -87 47c-10 1 -10 16 1 16h207c10 0 10 -15 1 -16c-32 -6 -61 -2 -48 -40c51 -121 63 -157 126 -305c6 -15 13 -15 19 0l128 304c14 40 -31 35 -64 41c-9 1 -9 16 1 16
h180z" />
    <glyph glyph-name="zacute" unicode="&#x17a;" horiz-adv-x="444" 
d="M252 589c8 7 16 11 24 11c27 0 50 -35 25 -60c-20 -20 -62 -39 -101 -62c-10 -6 -15 1 -10 10c24 38 42 81 62 101zM388 113c2 8 16 7 16 -1l-5 -108c0 -3 -3 -4 -6 -4h-357c-16 0 -21 17 -8 33l294 406h-147c-93 0 -116 -36 -129 -93c-2 -8 -16 -7 -15 0l5 109
c0 3 2 4 6 4h345c19 0 19 -12 12 -23c-25 -35 -50 -69 -74 -104l-150 -208c-24 -35 -49 -69 -74 -104h159c93 0 115 35 128 93z" />
    <glyph glyph-name="zcaron" unicode="&#x17e;" horiz-adv-x="444" 
d="M312 585c9 5 11 -1 7 -6c-27 -31 -54 -62 -81 -92c-5 -5 -10 -8 -14 -8s-8 3 -14 8c-27 30 -54 61 -81 92c-4 5 -2 11 7 6c29 -17 59 -34 88 -50c29 16 59 33 88 50zM388 113c2 8 16 7 16 -1l-5 -108c0 -3 -3 -4 -6 -4h-357c-16 0 -21 17 -8 33l294 406h-147
c-93 0 -116 -36 -129 -93c-2 -8 -16 -7 -15 0l5 109c0 3 2 4 6 4h345c19 0 19 -12 12 -23c-25 -35 -50 -69 -74 -104l-150 -208c-24 -35 -49 -69 -74 -104h159c93 0 115 35 128 93z" />
    <glyph glyph-name="zdotaccent" unicode="&#x17c;" horiz-adv-x="444" 
d="M223 567c24 0 43 -19 43 -43s-19 -44 -43 -44s-44 20 -44 44s20 43 44 43zM388 113c2 8 16 7 16 -1l-5 -108c0 -3 -3 -4 -6 -4h-357c-16 0 -21 17 -8 33l294 406h-147c-93 0 -116 -36 -129 -93c-2 -8 -16 -7 -15 0l5 109c0 3 2 4 6 4h345c19 0 19 -12 12 -23
c-25 -35 -50 -69 -74 -104l-150 -208c-24 -35 -49 -69 -74 -104h159c93 0 115 35 128 93z" />
    <glyph glyph-name="two" unicode="2" horiz-adv-x="483" 
d="M436 138c2 9 16 7 16 0l-5 -129c0 -4 -3 -5 -6 -5c0 0 -1 1 -3 1v-1h-415c-35 234 335 205 345 457c4 105 -71 159 -149 159c-40 0 -80 -14 -112 -42c-22 -20 -32 -58 -19 -83c16 -33 -2 -54 -22 -54c-15 0 -31 11 -35 38c-2 22 8 54 23 78c4 6 7 11 11 15c0 1 1 1 2 1
c41 52 107 77 173 77c105 0 209 -63 212 -190c5 -249 -337 -250 -376 -379c-3 -9 0 -13 11 -13h221c93 0 115 13 128 70z" />
    <glyph glyph-name="zero" unicode="0" horiz-adv-x="630" 
d="M325 647c380 0 380 -655 0 -655c-379 0 -379 655 0 655zM325 12c268 0 269 615 0 615s-267 -615 0 -615z" />
    <glyph glyph-name="one" unicode="1" horiz-adv-x="249" 
d="M221 21c10 -1 10 -16 -1 -16h-192c-10 0 -10 15 -1 16c34 6 63 -2 63 50v438c0 53 -12 47 -59 47c-11 0 -14 13 -1 17c34 12 85 41 111 72c7 9 17 8 17 -4v-570c0 -52 30 -44 63 -50z" />
    <glyph glyph-name="dotlessi" unicode="&#x131;" 
d="M222 17c10 -2 10 -17 -1 -17h-192c-10 0 -11 15 -1 17c34 6 63 -3 63 50v288c0 54 -7 53 -54 53c-11 0 -15 14 1 18c36 10 76 22 109 38c6 3 12 2 12 -5v-392c0 -53 30 -44 63 -50z" />
    <glyph glyph-name="germandbls" unicode="&#xdf;" horiz-adv-x="631" 
d="M401 363c103 -13 188 -63 188 -176s-105 -182 -248 -182h-312c-10 0 -11 15 -1 16c34 6 63 -2 63 50v494c0 53 -29 44 -63 50c-10 2 -9 17 1 17h285c85 0 201 -29 201 -139c0 -82 -68 -118 -114 -130zM297 27c131 0 219 65 219 159c0 103 -85 158 -213 158
c-36 0 -50 1 -85 -3c-22 -2 -24 31 1 28c35 -4 47 -3 81 -3c84 0 149 58 149 124c0 81 -68 119 -160 119h-79s-45 -7 -45 -42l-1 9v-516l1 9c0 -35 21 -42 46 -42h86z" />
    </font>
</defs>
</svg>
