<?xml version="1.0" standalone="no"?>
<!DOCTYPE svg PUBLIC "-//W3C//DTD SVG 1.1//EN" "http://www.w3.org/Graphics/SVG/1.1/DTD/svg11.dtd" >
<svg xmlns="http://www.w3.org/2000/svg" xmlns:xlink="http://www.w3.org/1999/xlink" version="1.1">
<metadata>
Created by FontForge 20190801 at Sun Mar 26 08:09:46 2017
 By root
Copyright (c) 2015 by Studio Kmzero. All rights reserved.
</metadata>
<defs>
<font id="CocoGothic-BoldItalic" horiz-adv-x="0" >
  <font-face 
    font-family="Coco Gothic"
    font-weight="700"
    font-style="italic"
    font-stretch="normal"
    units-per-em="1000"
    panose-1="2 0 5 6 0 0 0 2 0 4"
    ascent="800"
    descent="-200"
    x-height="491"
    cap-height="742"
    bbox="-387.444 -387 1369.26 1121"
    underline-thickness="50"
    underline-position="-100"
    slope="-12"
    unicode-range="U+000D-FB04"
  />
<missing-glyph horiz-adv-x="313" 
d="M357 38q-36 -9 -70 -9q-54 0 -96 20.5t-68.5 55t-36 80.5t0.5 97q12 54 42 100.5t72 80.5t92 53.5t101 19.5q55 0 97 -21t68 -56t35.5 -81t-1.5 -96q-9 -46 -32 -85.5t-54.5 -71t-70 -53.5t-79.5 -34zM449 506q-25 9 -59 9q-50 0 -96.5 -19t-84.5 -51t-64.5 -74
t-36.5 -89t-1 -89.5t33.5 -74.5t63 -51t87.5 -19q48 0 94.5 18.5t84.5 50t65.5 74t37.5 91.5q9 43 3.5 79.5t-22.5 65.5t-44.5 49t-60.5 30zM448 125q-34 -24 -72.5 -38.5t-79.5 -14.5t-73.5 14.5t-55.5 38.5h281zM153 141q-18 29 -24 64.5t2 76.5q8 38 27.5 71.5t48.5 61.5
h278zM233 438q34 26 72.5 40t79.5 14t73.5 -14.5t54.5 -39.5h-280zM549 282q-8 -38 -27 -72t-48 -62h-279l331 275q40 -64 23 -141z" />
    <glyph glyph-name="ff" unicode="ff" horiz-adv-x="630" 
d="M-9 -204q-27 0 -22 26l14 64q5 25 30 25h2q25 2 47 21.5t28 46.5l85 404h-38q-27 0 -21 29l11 52q3 14 12 21t21 7h40l18 86q9 41 30.5 73t52 53.5t67.5 33t77 11.5q28 0 21 -28l-14 -69q-2 -11 -9.5 -18.5t-18.5 -7.5q-29 0 -50 -14.5t-29 -47.5l-15 -72h180l18 86
q9 41 30.5 73t52 53.5t67.5 33t77 11.5q27 0 22 -28l-15 -69q-3 -12 -9 -17t-14 -7t-16 -3t-15 -5q-19 -5 -33 -18t-20 -38l-15 -72h53q26 0 20 -28l-11 -52q-2 -13 -11.5 -21t-21.5 -8h-52l-79 -373q-4 -22 -11 -45q-12 -38 -34 -68.5t-52 -53t-66 -35t-74 -12.5
q-27 0 -22 26l14 64q5 25 30 25h2q25 2 47 21.5t28 46.5l85 404h-178l-79 -373q-4 -22 -11 -45q-12 -38 -34 -68.5t-52 -53t-66 -35t-74 -12.5z" />
    <glyph glyph-name="fi" unicode="fi" horiz-adv-x="573" 
d="M-15 -204q-28 0 -21 26l13 64q6 25 30 25h2q26 2 47.5 21.5t27.5 46.5l86 404h-38q-27 0 -21 29l11 52q6 27 33 27h39l15 72q9 44 30.5 78.5t51.5 58.5t67.5 36.5t80.5 12.5q29 0 22 -28l-14 -69q-2 -11 -10 -18.5t-18 -7.5q-29 0 -50.5 -15t-28.5 -47l-16 -73h283
q26 0 21 -25l-95 -443q-5 -23 -29 -23h-83q-25 0 -20 23l77 360h-176l-79 -373q-3 -11 -5.5 -22.5t-6.5 -22.5q-12 -38 -34 -68.5t-52 -53t-66 -35t-74 -12.5zM520 637q7 32 34 54.5t59 22.5q33 0 50.5 -22.5t10.5 -54.5t-34 -54t-60 -22q-32 0 -49.5 22t-10.5 54z" />
    <glyph glyph-name="ffi" unicode="ffi" horiz-adv-x="897" 
d="M-7 -204q-22 0 -22 19q0 5 1 7l13 64q2 12 10.5 18.5t19.5 6.5h2q25 2 47 21.5t28 46.5l86 403h-39q-22 0 -22 21q0 2 0.5 4.5t0.5 4.5l11 52q3 14 12 20.5t21 6.5h39l19 87q9 41 30.5 73t52 53.5t67.5 33t77 11.5q22 0 22 -20v-8l-15 -69q-2 -11 -9.5 -18.5t-18.5 -7.5
q-28 0 -50 -15t-29 -47l-15 -73h186l16 74q9 43 30.5 77t51.5 58t67.5 36.5t80.5 12.5q22 0 22 -20v-8l-15 -69q-2 -11 -9.5 -18.5t-18.5 -7.5q-28 0 -50 -15t-29 -47l-15 -73h279q22 0 22 -19q0 -5 -1 -8l-94 -441q-5 -23 -29 -23h-83q-21 0 -21 16q0 2 0.5 3.5t0.5 3.5
l77 359h-173l-79 -372q-3 -11 -5.5 -22.5t-6.5 -22.5q-12 -37 -34 -68t-52 -53.5t-66 -35t-74 -12.5q-22 0 -22 19q0 5 1 7l13 64q2 12 10.5 18.5t19.5 6.5h2q25 2 47 21.5t28 46.5l86 403h-185l-79 -372q-3 -11 -5.5 -22.5t-6.5 -22.5q-12 -38 -34 -68.5t-52 -53t-66 -35
t-74 -12.5zM842 637q7 32 34 54.5t59 22.5q29 0 45.5 -17t16.5 -43q0 -18 -8 -35t-21 -30t-30 -20.5t-36 -7.5q-27 0 -44.5 17t-17.5 43q0 6 2 16z" />
    <glyph glyph-name=".notdef" horiz-adv-x="313" 
d="M357 38q-36 -9 -70 -9q-54 0 -96 20.5t-68.5 55t-36 80.5t0.5 97q12 54 42 100.5t72 80.5t92 53.5t101 19.5q55 0 97 -21t68 -56t35.5 -81t-1.5 -96q-9 -46 -32 -85.5t-54.5 -71t-70 -53.5t-79.5 -34zM449 506q-25 9 -59 9q-50 0 -96.5 -19t-84.5 -51t-64.5 -74
t-36.5 -89t-1 -89.5t33.5 -74.5t63 -51t87.5 -19q48 0 94.5 18.5t84.5 50t65.5 74t37.5 91.5q9 43 3.5 79.5t-22.5 65.5t-44.5 49t-60.5 30zM448 125q-34 -24 -72.5 -38.5t-79.5 -14.5t-73.5 14.5t-55.5 38.5h281zM153 141q-18 29 -24 64.5t2 76.5q8 38 27.5 71.5t48.5 61.5
h278zM233 438q34 26 72.5 40t79.5 14t73.5 -14.5t54.5 -39.5h-280zM549 282q-8 -38 -27 -72t-48 -62h-279l331 275q40 -64 23 -141z" />
    <glyph glyph-name=".null" 
 />
    <glyph glyph-name=".null" 
 />
    <glyph glyph-name="nonmarkingreturn" unicode="&#xd;" horiz-adv-x="250" 
 />
    <glyph glyph-name="space" unicode=" " horiz-adv-x="313" 
 />
    <glyph glyph-name="exclam" unicode="!" horiz-adv-x="307" 
d="M379 716l-100 -471q-2 -12 -11 -19.5t-22 -7.5h-91q-11 0 -18 7t-4 20l100 471q5 27 34 27h91q27 0 21 -27zM87 68q8 34 36.5 57.5t61.5 23.5q35 0 53.5 -23.5t10.5 -57.5q-7 -33 -35 -57t-63 -24q-33 0 -52 24t-12 57z" />
    <glyph glyph-name="quotedbl" unicode="&#x22;" horiz-adv-x="405" 
d="M166 552l36 168q4 22 27 22h70q21 0 17 -22l-36 -168q-2 -13 -9 -17.5t-18 -4.5h-69q-22 0 -18 22zM351 552l36 168q4 22 27 22h70q21 0 17 -22l-36 -168q-2 -13 -9 -17.5t-18 -4.5h-69q-22 0 -18 22z" />
    <glyph glyph-name="numbersign" unicode="#" horiz-adv-x="579" 
d="M568 554h66q21 0 16 -22l-17 -66q-2 -8 -10 -16t-18 -8h-65l-42 -144h65q9 0 14 -5t3 -16q-4 -16 -8 -32.5t-9 -33.5q-2 -8 -10.5 -16t-17.5 -8h-66l-46 -165q-6 -22 -29 -22h-66q-21 0 -17 19q0 2 1 3l46 165h-88l-46 -165q-6 -22 -30 -22h-66q-20 0 -16 19v3l46 165
h-58q-21 0 -17 21q8 34 17 68q6 22 29 22h58l42 144h-59q-21 0 -17 21q1 1 1 3l17 66q6 22 28 22h58l47 166q2 9 9.5 15.5t18.5 6.5h65q9 0 14.5 -6t3.5 -16l-46 -166h88l46 166q2 9 9.5 15.5t18.5 6.5h66q9 0 14.5 -6t3.5 -16zM340 442l-42 -144h88l42 144h-88z" />
    <glyph glyph-name="dollar" unicode="$" horiz-adv-x="641" 
d="M619 544q-6 0 -11 3.5t-11 8.5l-1 1q-7 9 -19.5 20.5t-29 21.5t-36 17t-41.5 7q-57 0 -91 -23t-41 -56q-4 -18 4.5 -31.5t25 -24t40 -19.5t49.5 -17q44 -15 86 -32.5t72.5 -43t45 -61.5t3.5 -86q-10 -46 -33.5 -84.5t-58 -68t-77 -49.5t-90.5 -29l-14 -69q-5 -22 -29 -22
h-90q-22 0 -17 22l14 67q-60 11 -108 42.5t-78 78.5v-1l-1 2q-9 13 -6 23q1 9 17 22l20 16q9 7 19 15t20 14.5t18.5 11t12.5 4.5q7 0 12 -4.5t8 -8.5l1 -2q14 -16 32.5 -31.5t39 -27t42 -18.5t41.5 -7q56 0 98.5 26.5t52.5 71.5q5 22 -5 38t-28.5 27.5t-43 20t-49.5 15.5
q-114 37 -164 88.5t-32 134.5q17 80 81.5 134t159.5 69l15 70q2 9 9 15.5t18 6.5h90q8 0 14.5 -6t4.5 -16l-16 -73q28 -7 53 -18.5t47 -26.5q10 -7 20.5 -16.5t19 -19.5t13.5 -19t3 -16q-3 -14 -15 -24l-19 -16v1q-18 -17 -38 -32.5t-29 -15.5z" />
    <glyph glyph-name="percent" unicode="%" horiz-adv-x="968" 
d="M167 564q9 41 31.5 76.5t54.5 61.5t70.5 41.5t79.5 15.5t73 -15.5t53 -41.5t28.5 -61.5t-1.5 -76.5q-9 -40 -31.5 -76t-54 -62t-70 -41.5t-79.5 -15.5t-73.5 15.5t-53 41.5t-28.5 62t1 76zM281 564q-8 -34 11 -57.5t53 -23.5q33 0 61.5 23.5t35.5 57.5q8 34 -11 57
t-52 23q-34 0 -62 -23t-36 -57zM562 184q9 41 29.5 76.5t50.5 61.5t67 41.5t78 15.5t75 -15.5t57 -41.5t32.5 -61.5t0.5 -76.5q-9 -40 -31.5 -76t-54.5 -62t-70.5 -41.5t-79.5 -15.5q-40 0 -72.5 15.5t-53.5 41.5t-29 62t1 76zM678 184q-8 -34 10.5 -57t52.5 -23q33 0 61 23
t36 57q8 38 -12.5 58.5t-50.5 20.5q-34 0 -62 -23t-35 -56zM251 28l468 689q8 11 17 18t23 7h76q13 0 19.5 -5t4.5 -14q0 -2 -1 -4.5t-2 -4.5l-1 -2q-63 -93 -125.5 -184.5t-125.5 -184.5l-97 -143q-32 -45 -62 -89.5t-60 -88.5q-8 -11 -15.5 -16.5t-18.5 -5.5h-85
q-24 0 -20 17l3 8v-1q0 2 2 4z" />
    <glyph glyph-name="ampersand" unicode="&#x26;" horiz-adv-x="868" 
d="M919 334q-14 -33 -37 -60t-51.5 -46.5t-60.5 -30.5t-64 -11q-8 0 -16.5 1t-16.5 3l-39 9q-19 -60 -52.5 -100.5t-75 -64.5t-88.5 -34t-94 -10q-53 0 -96.5 17.5t-73 48.5t-41.5 74.5t-1 94.5q16 72 55 118t93 77q-21 24 -29 57t1 75t33.5 78t59 62t75 41t82.5 15
q41 0 75.5 -11.5t58 -35.5t32 -61.5t-2.5 -89.5q-6 -28 -32 -28h-35h-18h-18q-27 0 -22 25q8 34 -6.5 54.5t-53.5 20.5q-22 0 -38.5 -7t-28 -18.5t-18.5 -25t-10 -27.5q-2 -8 -0.5 -20.5t7.5 -25t18.5 -23t31.5 -13.5q24 -3 19 -24l-1 -2v-1q-1 -2 -1 -3l-27 -64
q-7 -22 -29 -22q-56 0 -86 -30.5t-40 -75.5q-5 -22 -1 -43.5t16.5 -38t33.5 -26.5t51 -10q23 0 46.5 6.5t43.5 20t35.5 33.5t22.5 47l-52 14q-19 5 -16 25q2 11 9 24t11 25l13 29q5 10 12.5 16.5t17.5 6.5q2 0 4 -0.5t4 -0.5h-1l213 -49q8 -2 11 -2q20 0 39 13.5t30 32.5
q3 10 11.5 16t18.5 6q9 0 17.5 -3t16.5 -3l40 -10q10 -1 14.5 -9.5t2.5 -18.5q-1 -2 -1 -3.5t-1 -3.5z" />
    <glyph glyph-name="quotesingle" unicode="'" horiz-adv-x="264" 
d="M197 552l36 168q4 22 27 22h70q21 0 17 -22l-36 -168q-2 -13 -9 -17.5t-18 -4.5h-69q-22 0 -18 22z" />
    <glyph glyph-name="parenleft" unicode="(" horiz-adv-x="321" 
d="M179 -153q-48 115 -59 246.5t20 275.5t97.5 276t162.5 246q16 20 32 6l69 -54q8 -6 7.5 -15t-8.5 -16q-169 -202 -219 -443q-13 -60 -18 -117.5t-1 -113.5q7 -109 50 -211q4 -8 1.5 -16.5t-13.5 -15.5l-93 -53q-9 -6 -17 -4.5t-11 9.5z" />
    <glyph glyph-name="parenright" unicode=")" horiz-adv-x="329" 
d="M90 -153q-7 -8 -15.5 -9.5t-15.5 4.5l-69 53q-8 7 -7.5 15.5t8.5 16.5q85 102 139 211q28 56 47.5 113.5t32.5 117.5q26 120 18.5 231t-49.5 212q-5 7 -2 16t14 15l92 54q9 6 17 4.5t12 -10.5q48 -114 58.5 -246t-19.5 -276q-31 -144 -98 -275.5t-163 -246.5z" />
    <glyph glyph-name="asterisk" unicode="*" horiz-adv-x="491" 
d="M479 421l-62 -62l35 4l44 6q20 0 21 -13.5t-3 -33.5l-7 -34q-3 -12 -10 -26t-27 -14l-75 9l36 -63q2 -4 0 -12q-2 -6 -6.5 -12.5t-13.5 -11.5l-18 -9q-4 -2 -7.5 -4t-8.5 -4h1q-13 -8 -25 -14t-20 -5q-8 0 -13.5 3t-7.5 11q-3 11 -5.5 21t-4.5 21l-6 25l-43 -67
q-8 -14 -26 -14q-10 0 -16 5q-6 4 -16.5 10t-20.5 13.5t-16 16t-5 16.5q2 8 8 13q16 17 29.5 30t30.5 31q-8 -1 -17 -2t-17 -2q-10 -2 -20 -2.5t-20 -2.5q-16 0 -22.5 6t-3.5 22l12 55q4 17 11 27.5t25 10.5q20 -3 35.5 -5.5t38.5 -5.5l-33 58q-5 7 -3 19q4 13 20 23l55 28
l14 6l6 2q18 0 25.5 -22t11.5 -48l1 -1v-5q1 -3 0.5 -2.5t1.5 -2.5q11 17 20.5 32.5t20.5 32.5q11 16 29 16h6l8 -4q8 -4 18.5 -11t20 -14.5t15.5 -16t4 -16.5z" />
    <glyph glyph-name="plus" unicode="+" horiz-adv-x="450" 
d="M349 243l-22 -101q-2 -11 -10.5 -19t-22.5 -8h-75q-10 0 -18 7.5t-5 19.5l21 101h-97q-27 0 -21 28l15 70q6 27 33 27h97l21 101q6 26 35 26h75q27 0 22 -26l-22 -101h98q11 0 17.5 -7t3.5 -20l-15 -70q-2 -10 -11.5 -19t-21.5 -9h-97z" />
    <glyph glyph-name="comma" unicode="," horiz-adv-x="264" 
d="M74 66q8 35 37 59t63 24q35 0 53.5 -24.5t10.5 -64.5q-9 -42 -24.5 -73.5t-32 -52t-31.5 -31t-23 -10.5q-6 0 -9.5 2t-5.5 4l-21 18q-5 5 -3 14q2 8 8 13l9 10q4 4 9.5 12t7.5 19q-26 5 -40 28.5t-8 52.5z" />
    <glyph glyph-name="hyphen" unicode="-" horiz-adv-x="517" 
d="M180 347h326q11 0 17.5 -7t3.5 -19l-15 -71q-2 -10 -11.5 -19t-21.5 -9h-326q-26 0 -20 28l15 71q5 26 32 26z" />
    <glyph glyph-name="period" unicode="." horiz-adv-x="264" 
d="M74 68q8 34 36.5 57.5t61.5 23.5q35 0 53 -23.5t10 -57.5q-7 -33 -35 -57t-63 -24q-33 0 -51.5 24t-11.5 57z" />
    <glyph glyph-name="slash" unicode="/" horiz-adv-x="512" 
d="M41 21l450 699q13 22 36 22h91q24 0 21 -14q-2 -6 -4 -10q-14 -22 -49 -76t-80.5 -124.5t-96 -149t-96 -149t-80.5 -124.5t-49 -76q-8 -11 -14 -15t-16 -4h-101q-19 0 -16 12q0 -1 4 9z" />
    <glyph glyph-name="zero" unicode="0" horiz-adv-x="1236" 
d="M1210 533v-286h-1174v286h445q0 15 3 29q2 13 8 26t14 25q7 12 18 21q18 19 44 30q14 6 28 9q13 2 27 2q16 0 30 -3t26 -9q14 -6 26 -14q11 -8 20 -17q18 -18 30 -46q10 -26 10 -53h445zM503 582q-11 -23 -11 -49q0 -28 11 -51q5 -11 12 -22t15 -20q9 -9 20 -16
q10 -7 22 -12q23 -11 51 -11q14 0 27 2q12 2 24 7q12 6 22 13q10 6 19 16q9 9 16 20q7 10 13 21q11 25 11 53q0 11 -2 23q-2 11 -7 21q-6 20 -20 37q-7 8 -15 15t-16 12l-18 10l-20 8q-7 2 -15 3q-9 1 -19 1q-14 0 -27 -2q-13 -3 -25 -9q-24 -9 -42 -28q-8 -9 -14 -20z
M144 337q3 5 3 9v5q-1 2 -3 5q0 1 -2 3l-3 3l-2 4q-2 1 -5 1l-4 2q-3 1 -5 1h-26v-75h8v28h18q2 0 5 1q2 0 4 1q5 2 7 4q1 2 3 4zM200 370h-46v-75h46v9h-35v23h29v10h-29v22h35v11zM273 295l-23 32q1 1 3 1q1 0 2 2q4 2 5 5q1 1 2 3q1 1 2 3v6v5q0 2 -1 4q-2 4 -5 7
q-2 4 -7 4q-1 1 -3 2q-3 1 -5 1h-27v-75h11v31h11l20 -27q1 -2 3 -3q1 -1 2 -1h3h7zM324 308q0 2 1 4v4q0 6 -2 10t-6 7q-1 0 -1 1q-1 1 -3 2v0q-1 0 -3 1h-1q-1 0 -1 2q-3 0 -4 1q-3 0 -4 1l-3 1q-4 1 -4 2q-3 2 -3 3v4v4q1 0 2 1t1 2l2 1h2q2 1 3 1h2h1q1 -1 2 -1
q4 0 4 -2q1 -1 2 -1h2q4 0 7 2l2 1q0 1 -1 2l-2 2q-2 1 -3 2t-3 2q-1 0 -2 1q-1 0 -3 2q-3 0 -3 1h-3h-4q-3 -1 -5 -1l-3 -3q-2 -1 -4 -1q-1 -2 -2 -3q-2 -2 -3 -4t-1 -3q-1 -2 -1 -5v-4q0 -2 2 -4q1 -2 3 -3q1 -2 1 -3l4 -2q2 -2 4 -2l4 -2q1 -1 3 -2q1 -1 3 -1h2
q3 -1 4 -1l1 -1l2 -1q0 -1 1 -3q1 -1 1 -2v-4v-1q0 -2 -1 -3l-1 -2q0 -1 -2 -2q-1 -2 -2 -2q-2 -1 -3 -2h-2h-3h-3h-3l-2 2q-2 0 -2 2l-1 1q-3 2 -6 2h-2q-1 0 -2 -1l-3 -1q0 -2 1 -2q0 -2 2 -3q0 -1 1 -2l1 -1h1q4 -4 9 -5q4 -1 9 -1h5q2 0 4 1t5 2q2 1 3 3q3 1 5 3z
M409 322q1 3 1 5v5q0 6 -1 10q0 3 -1 5q-2 2 -3 5q-2 3 -6 7q-2 2 -4 3t-5 4q-1 0 -3 1t-5 3q-3 0 -5 1h-5h-5q-3 -1 -5 -1q-3 -2 -5 -3t-4 -1q-2 -3 -4 -4t-4 -3l-3 -3q-2 -2 -3 -4q-2 -3 -2 -5q-1 -2 -2 -5q-1 -4 -1 -10q0 -4 1 -7l2 -8q1 -3 3 -6t5 -7l6 -4q3 -2 7 -2
q6 -3 14 -3h5h5q5 2 8 4q7 3 9 5q3 4 6 9q1 2 3 5zM487 370h-10v-58v3l-1 1l-36 51q-2 0 -4 3h-2h-2h-7v-75h10v61l1 -1v-2l43 -58h8v75zM571 295l-33 75h-11l-32 -75h6q3 0 4 1l2 2l2 1l4 13h39l5 -13q1 -2 3 -3q0 -1 4 -1h7zM620 304h-32v66h-11v-75h43v9zM722 370h-10
v-45v-5q0 -2 -1 -4q-1 -4 -5 -6l-2 -2q-2 -1 -3 -3q-3 -1 -4 -1h-4q-5 0 -7 1q-3 2 -5 3t-2 2q-1 1 -2 3l-3 3v4q-1 2 -1 5v45h-10v-45v-5q0 -3 1 -4q0 -4 2 -7q2 -5 6 -7q1 -1 3 -2q1 -1 3 -2q1 -1 3 -1q2 -1 3 -2q3 0 5 -1q1 -1 4 -1q2 0 4 1q1 1 4 1l4 2q1 0 3 1l6 4
q2 2 3 4q0 1 1 3l3 3q1 2 1 4v9v45zM780 308q3 4 3 8q0 6 -2 10t-6 7q-3 2 -3 3h-2q-2 0 -3 1h-1q-2 0 -3 2h-1q-1 0 -2 1q-1 0 -2 1l-3 1q-4 1 -4 2q-2 1 -2 2q-1 1 -2 1v2q-1 0 -1 2t2 4l3 3q1 0 2 1h2q0 1 5 1h1q1 -1 2 -1q1 -1 4 -2q4 -1 5 -1q3 0 4 2l3 1l-2 2l-2 2
q0 1 -1 2q-2 1 -3 2q-2 0 -3 1q-1 0 -3 2q-2 0 -3 1h-2h-5q-2 -1 -4 -1q-2 -2 -4 -3t-3 -1l-3 -3q-1 -2 -3 -4q0 -2 -1 -3q-1 -2 -1 -5t1 -4q1 -2 1 -4q2 -4 5 -6l4 -2q1 -2 2 -2q3 -1 5 -2q1 -1 3 -2t3 -1h2q1 -1 3 -1q1 0 2 -1t3 -1q1 -1 1 -3q1 -1 1 -2v-4v-1q0 -2 -1 -3
q-1 -3 -4 -4q-2 -2 -3 -2l-2 -2h-2h-3h-3h-3q-2 1 -5 4v1q-3 2 -6 2h-1q-2 0 -3 -1l-3 -1l1 -1q0 -1 1 -1q0 -1 1 -1v-2h1v-2q2 -1 3 -1q3 -4 8 -5q4 -1 9 -1h5q2 0 5 1l4 2q2 1 4 3l3 3zM841 370h-46v-75h46v9h-36v23h30v10h-30v22h36v11zM960 322v5v5v6v4q-2 5 -5 10
q-2 3 -6 7q-1 2 -3 3t-4 4q-2 0 -4 1q-3 1 -5 3q-3 0 -5 1h-5h-5q-3 -1 -5 -1q-6 -3 -10 -4q-2 -3 -3 -4q-2 -1 -4 -3l-3 -3l-4 -4q-1 -3 -2 -5t-1 -5q-2 -4 -2 -10q0 -4 1 -7l2 -8q3 -7 9 -13q2 -2 5 -4t7 -2q6 -3 15 -3h5h5q2 1 5 2l4 2q2 2 4 3t3 2q4 4 6 9zM1038 370
h-11v-58v3q-1 1 -2 1l-36 51v1q-1 0 -2 2h-2h-3h-8v-75h12v59l1 -1l42 -58h9v75zM1099 304h-32v66h-11v-75h43v9zM1159 370h-9q-2 0 -4 -2q-4 -2 -4 -4l-17 -23l-1 -1h-1l-1 1l-18 23q-1 2 -3 4t-5 2h-8l27 -37l1 -1q0 -1 1 -1v-1v-1q0 -1 1 -1v-1v-32h11v32v1v2q1 0 1 2v1
h1zM942 352l4 -4q2 -3 3 -5q0 -3 1 -5v-6q0 -6 -1 -11q-1 -3 -3 -5t-4 -3q-2 -2 -4 -3l-4 -4q-6 -2 -11 -2q-3 0 -6 1q-3 0 -5 1q-3 2 -5 4q-2 1 -4 3q-2 1 -3 3q-2 2 -2 5q-2 3 -2 6q-1 2 -1 5q0 5 3 11q0 2 2 5q1 2 3 4l4 4q2 1 5 2q4 2 11 2h5l6 -2l4 -2zM253 343
q0 -1 -2 -4q-1 0 -1 -1q-1 -1 -3 -1q-1 -1 -4 -1h-16v23h16q2 0 4 -1h3l1 -2l2 -4q1 -1 1 -5zM391 352l4 -4q2 -3 3 -5q1 -3 2 -5v-6v-5l-2 -6t-3 -5t-4 -3q-1 -2 -3 -3q-2 -2 -5 -4q-2 -1 -5 -1q-3 -1 -6 -1q-6 0 -11 2l-4 4q-3 1 -5 3l-3 3q-2 2 -3 5l-2 6q-1 2 -1 5
q0 5 3 11q1 2 3 5q2 2 3 4q2 2 5 4l4 2l6 2h5q6 0 11 -2q3 -1 5 -2zM532 358q0 -2 1 -3v-2l14 -31h-29l14 31v2v3zM132 356l2 -2q0 -2 1 -3q1 -2 1 -5v-2q0 -2 -1 -3t-1 -2q-1 -2 -2 -2l-4 -4h-5h-18v26h18q3 0 5 -1q1 0 3 -1zM580 422q-9 4 -18 10q-10 5 -17 12h157
q-8 -7 -17 -12q-9 -6 -19 -10q-10 -3 -21 -6t-22 -3q-12 0 -22 3zM557 457l154 155q14 -19 22 -39t8 -40q0 -11 -1 -21q-2 -11 -6 -21q-4 -9 -9 -17q-5 -9 -11 -17h-157zM534 453q-13 17 -22 36q-3 10 -5 21t-2 23q0 10 2 20t5 20q3 9 8 18q5 8 12 16h156zM666 642
q10 -4 19 -10t16 -11h-158q18 14 37 21q19 9 43 9zM38 171q-2 2 -2 4l-2 4q-1 3 -1 5q-1 2 -1 5t2 8q1 2 2 5q0 2 2 3l2 5q0 1 3 3q0 1 3 3q2 1 3 2q3 2 5 3l4 1q1 0 4 1h5h7q3 -1 7 -3q4 -1 7 -3l4 -4q-1 -1 -2 -1v-2h-1h-1h-2h-3q-2 1 -4 3q-2 1 -4 1h-3h-5h-5h-4l-6 -3
q-2 -2 -4 -3q-2 -3 -3 -5q-2 -2 -3 -4q-2 -3 -2 -6v-4q0 -4 1 -7l2 -4v-4q1 -1 3 -2q1 -1 2 -3q2 -1 3 -2q1 -2 3 -2q1 -1 3 -2t4 -1q1 -1 3 -1h3h5q2 0 4 1q2 0 5 1l4 2v14h-6h-1l-1 1l-1 2l-2 1v1q-1 0 -1 1v1v1h19v-26l-2 -2l-3 -3q-3 -1 -6 -1q-3 -1 -7 -1h-7h-5h-4
q-3 1 -4 2l-5 3q-1 0 -3 2q-3 1 -3 3q-3 1 -3 3zM117 214v-22h27v-7h-27v-23h33v-8h-41v68h41v-8h-33zM180 154v60h-22v8h52v-8h-23v-60h-7zM260 214v-24h29v-6h-29v-30h-8v68h41v-8h-33zM313 222v-42q0 -2 1 -3q1 -2 2 -3q1 -3 3 -4l2 -4q0 -1 2 -2l2 -2q3 -1 5 -1h4h4
q1 0 2 1q3 1 5 2q1 1 3 2q0 2 2 4q1 1 2 4q2 2 2 6v42h7v-42v-5q-1 -2 -2 -5t-2 -5l-4 -4t-4 -3q-2 -2 -4 -3q-6 -1 -11 -1q-6 0 -12 1l-3 3q-3 1 -5 3q-3 3 -5 9q-1 3 -2 5t-1 5v42h7zM383 222v-60h30v-8h-38v68h8zM428 222v-60h32v-8h-39v68h7zM522 154l-30 68h4q2 0 4 -1
q1 -1 2 -1l1 -2l21 -51v-2q1 -1 1 -3v3l1 1v1q3 7 6 13l6 12q2 8 5 14l6 12q0 2 1 2t1 1q1 1 2 1h2h4q-4 -8 -7 -16q-4 -9 -9 -17q-3 -10 -6 -18q-4 -8 -8 -17h-7zM572 214v-22h28v-7h-28v-23h33v-8h-41v68h41v-8h-33zM655 186q-1 -1 -5 -2l23 -30h-5q-1 0 -2 1h-2l-2 2
q-1 0 -2 2l-19 25h-12v-30h-7v68h25h3q1 0 3 -1q4 -1 7 -4q1 -2 2 -3l2 -4q1 -1 1 -3v-3v-4q0 -2 -1 -3q0 -2 -1 -4t-2 -3l-2 -2zM647 190q2 0 3 2q1 0 2 1h2l2 3q0 1 1 2q0 1 1 2v4v1q-1 1 -1 3l-1 2q-1 0 -2 2q-1 0 -2 1q-1 0 -2 1h-3h-18v-24h18zM709 164q1 1 2 4
q1 1 2 3v3q0 3 -1 5q-1 0 -1 2l-2 2t-4 2q-2 0 -3 1l-3 1q-2 0 -4 1t-2 2q-5 0 -7 3q-2 0 -2 2q-1 2 -2 3v7v5q0 1 1 3q0 3 4 5l3 3q1 0 4 1q2 0 3 1h4h3q1 -1 2 -1h2l3 -2q1 0 2 -1t1 -2q2 -1 3 -2q0 -1 1 -1l-2 -1q-1 -1 -4 -1h-3q-2 1 -2 2h-1h-1h-1h-1h-1h-1h-4
q-4 0 -4 -1q-3 -3 -3 -4q-2 0 -2 -4q0 -3 2 -3q0 -2 1 -3t3 -1l1 -1q2 -2 3 -2t4 -2h2q1 0 1 -1h2q1 0 2 -2h1h1v0h2l1 -1l3 -3q1 -2 3 -3q1 -5 1 -9v-5q0 -2 -3 -4q0 -3 -4 -6q-1 -1 -3 -2l-4 -2q-2 -1 -4 -1h-5q-5 0 -8 1q-4 1 -7 4q-1 0 -2 1l-2 2v2l-1 1l1 1l1 1h2h1h2
l2 -2q2 -1 3 -2t3 -1q0 -1 2 -1h3q4 0 5 1zM744 222v-68h-8v68h8zM771 164q-6 4 -9 10q-2 7 -2 15v4v4q3 5 4 8q3 4 7 8q3 3 6 5q2 2 5 3q2 0 4 1q2 0 4 1h5h5q2 -1 5 -1q2 -1 4 -1q2 -1 4 -3l3 -2q1 -2 3 -3l3 -3l3 -5q1 -3 3 -8l2 -4v-4q0 -4 -1 -7q-1 -4 -3 -8
q-1 -3 -2 -5q-2 -3 -5 -5q-3 -3 -5 -4l-6 -4q-5 -2 -13 -2q-4 0 -7 1q-4 0 -6 1zM771 199q-2 -3 -3 -6t-1 -4q0 -2 1 -4v-3q1 -4 4 -8q0 -1 1 -2t2 -3l3 -2q1 -2 4 -2q1 -1 3 -2q1 -1 2 -1q2 -1 4 -1h4h4q2 0 3 1q1 0 3 1l4 2q1 0 3 2l2 2q1 2 2 3l2 2l2 4l1 4q0 1 1 3v4v4
q-1 3 -3 6q0 2 -2 4t-3 5q-2 1 -4 3q-2 1 -5 3h-4h-6h-6h-5q-2 -2 -4 -3q-3 -2 -5 -3q-1 -3 -2 -5zM850 154h-8v68h6h3q1 0 2 -2l35 -50q1 0 1 -2l1 -1v55h8v-68h-7l-40 56v2h-1v-58zM955 214v-24h28v-6h-28v-30h-7v68h41v-8h-34zM1032 186q-4 -1 -6 -2l22 -30h-6q-2 0 -4 1
v2q-1 0 -2 2l-19 25h-12v-30h-8v68h25h3q2 0 4 -1l4 -2l2 -2q1 -2 2 -3q1 -2 3 -4q0 -1 1 -3v-3v-4q-1 -2 -1 -3l-2 -4q-1 -2 -1 -3zM1026 192q1 0 2 1h1q3 4 3 5q1 2 1 6q0 1 -1 4q0 1 -3 4q-1 0 -1 1l-2 1h-4h-17v-24h17zM1114 164q-2 -3 -5 -4l-6 -4q-3 -1 -6 -1
q-3 -1 -7 -1t-7 1q-4 0 -7 1q-6 2 -11 8q-2 2 -4 5q-2 2 -3 5l-2 8q-2 3 -2 7q0 1 1 4q0 2 1 4t2 5q0 2 1 3q2 3 4 5q1 1 2 3q2 1 4 3l4 2q2 2 4 3q2 0 4 1q3 0 5 1h4h5q2 -1 4 -1l5 -1l3 -3l4 -2l3 -3q1 -2 3 -3q1 -2 2 -5q3 -3 4 -8l2 -4v-4v-7q-1 -4 -3 -8q-1 -3 -3 -5z
M1090 161h4q2 0 4 1q1 0 3 1l2 2q1 0 3 2l4 2l2 3q0 1 1 2l2 4v4q1 1 1 3v4v4q-1 3 -1 6l-2 4q-2 2 -3 5q-3 1 -5 3q-3 1 -5 3h-5h-5h-5h-6q-3 -2 -4 -3q-2 -2 -4 -3q-3 -3 -4 -5l-2 -4q-1 -3 -1 -6v-4v-7q0 -3 1 -4q0 -2 2 -4q0 -1 2 -2q1 -1 2 -3l3 -2q1 -2 2 -2
q1 -1 3 -2q1 -1 4 -1q1 -1 3 -1h4zM1201 221q1 1 2 1h1h6v-68h-7v56l-1 -1v-1q-2 -4 -3 -8q-1 -5 -3 -8t-3 -6l-4 -7q-1 -4 -2 -7l-2 -6q-2 -3 -3 -5q-2 -3 -3 -7h-7q-5 6 -7 13q-3 7 -6 13q-2 7 -5 14q-4 7 -6 14v1l-2 1v-56h-8v68h7q3 0 4 -1l1 -1v-2l24 -53q0 -1 1 -1v-2
q0 1 1 2v2q0 2 2 4l21 48q0 2 1 2zM36 128h77v-10v-2v-2q0 -2 -1 -3l-2 -2l-52 -71h1v1h2h1h51v-18h-81v6q0 5 1 6q0 1 2 4q1 1 1 2t1 2l2 2l1 3l46 63h-50v19zM127 128h68v-19h-49v-24h39v-20h-39v-26h49v-18h-68v107zM279 109h-29v-88h-21v88h-31v19h81v-19zM328 128
l46 -107h-12q-4 0 -8 2q-2 1 -2 3q-1 2 -3 4l-6 14h-49l-5 -14l-1 -2q-1 -1 -2 -1v-2q-1 -1 -3 -2h-2q-1 -1 -2 -1q0 -1 -1 -1h-2h-12l46 107h18zM334 63l-13 33v2q-1 0 -1 1q0 2 -1 3v-3q0 -1 -1 -1q-1 -1 -1 -2l-13 -33h30zM378 128h68v-19h-49v-27h40v-19h-40v-42h-19
v107zM553 101q2 -3 3 -6t3 -6q1 -4 1 -7v-7v-8q0 -4 -1 -7q-2 -3 -3 -6q-1 -4 -3 -7q-2 -2 -4 -5l-4 -6q-4 -2 -6 -4q-2 -3 -5 -4q-3 -3 -6 -4q-4 -1 -7 -2q-4 -1 -7 -1q-4 -1 -8 -1q-5 0 -10 2q-6 1 -11 2q-6 3 -9 6q-4 3 -9 6q-7 8 -10 17q-3 6 -4 11t-1 11q0 3 1 7
q0 3 1 7q2 8 6 12q2 4 4 7q1 2 3 5q4 2 7 4q2 2 5 4t6 3t7 3q3 0 7 1h7h8q3 -1 7 -1q3 -2 7 -3q3 -1 6 -3t5 -4t6 -4q2 -3 4 -5zM539 62l2 6v7q0 6 -2 12q-2 5 -4 8q-2 2 -5 4l-4 4q-3 2 -6 3q-6 3 -14 3t-14 -3q-2 -1 -4 -3l-6 -4t-4 -4q-2 -3 -4 -8q-2 -2 -2 -5v-7v-7
q0 -3 2 -6l4 -7q1 -3 4 -5l6 -4l4 -4q4 -1 7 -2t7 -1t7 1t7 2l6 4l4 4q3 2 5 5zM649 128h19v-107h-18l-50 72q-1 0 -1 1l-1 1q-1 2 -1 3q-2 0 -2 2v1l-2 1v-81h-19v107h17h4q2 -1 2 -2l3 -1l2 -2q5 -8 11 -15q5 -8 10 -17l12 -14q5 -8 12 -15q0 -2 1 -3v-3q0 -1 1 -2v-2v76z
M678 128h81v-19h-32v-88h-19v88h-30v19zM825 73q1 -2 3 -4l2 -4q0 -2 1 -4q1 -3 1 -7q0 -6 -3 -13l-4 -6q-2 -3 -4 -5q-4 -2 -6 -4t-6 -3t-7 -2q-4 -1 -7 -1q-4 0 -7 1q-4 1 -9 2q-3 1 -5 3q-3 2 -7 6q-2 1 -3 3q-1 1 -2 3q-2 1 -2 6l1 1l1 1q1 0 1 1h1t2 1h1h5h2q1 0 1 -1
q3 0 5 -1q2 -2 4 -3t3 -2q1 0 3 -1t5 -1q1 0 3 1q1 0 3 1q3 1 6 3l4 4q1 2 2 3t1 3q0 4 -3 6q-2 3 -4 3l-3 3h-3q-3 1 -8 4q-2 0 -4 1q-3 0 -5 2q-4 1 -6 3q-2 1 -4 3q-3 2 -4 4q-2 2 -3 4q-3 6 -3 12q0 9 3 13q1 3 3 5t5 4q2 2 5 3l6 3q2 0 5 1h7h4q2 -1 5 -1l4 -2
q1 -1 4 -2q1 -1 3 -2l4 -4l3 -2l2 -4l-4 -2l-2 -2q-2 -1 -2 -2h-4h-2h-2h-1q-3 0 -3 1l-4 2q-1 0 -1 1h-1h-3h-6h-2q-1 -1 -3 -2q-1 -1 -2 -4q-1 -1 -1 -4t1 -3l2 -2v-3h4q1 -1 2 -1l6 -2q2 -1 3 -2l5 -1q2 -2 5 -2q2 -1 5 -4zM857 39q3 0 3 -3q1 0 1 -1v-3q0 -3 -1 -5
q0 -2 -3 -4q-2 0 -3 -2h-2q-1 -1 -3 -1q-1 0 -2 1h-2l-2 2h-2q-1 1 -1 2l-2 2q-1 2 -1 5v3q0 1 1 1q1 2 2 3h1q3 3 4 3l2 2h2h3l2 -2zM898 99q-4 -4 -8 -12q-1 -2 -2 -5q-1 -4 -1 -7q0 -4 1 -7l2 -6l4 -7q1 -3 4 -5q2 -2 5 -4q2 -2 6 -4q4 -1 7 -2t7 -1q3 0 5 1t5 1q2 1 5 3
q2 1 4 3q2 0 4 1h3h3q2 0 3 -1q3 -1 5 -3l3 -5q-3 -4 -8 -7q-3 -2 -5 -3q-2 -2 -5 -3q-3 -2 -5 -2l-6 -2t-5 -1q-3 -1 -6 -1q-7 0 -12 2l-10 2q-10 5 -17 12q-8 8 -12 17q-1 6 -2 11q-2 5 -2 11q0 3 1 7q0 3 1 7l2 6q1 3 3 6q3 4 5 7q1 2 4 5l6 4q2 2 6 4q2 2 5 3t8 3
q2 0 6 1h8h6q2 0 5 -1l6 -2q2 -1 5 -2t5 -2q2 -2 5 -4q5 -4 8 -8l-3 -4l-2 -2q-1 -1 -3 -2h-3h-3h-3q-2 0 -4 1l-4 4q-3 1 -5 2q-3 1 -5 1h-5q-8 0 -14 -3q-4 -1 -6 -3zM1072 101q1 -3 3 -6l2 -6q1 -4 1 -7v-7v-8q0 -4 -1 -7l-2 -6q-2 -4 -3 -7q-4 -5 -8 -11q-4 -2 -7 -4
q-3 -3 -5 -4q-3 -3 -6 -4l-8 -2q-3 -1 -6 -1q-4 -1 -8 -1q-10 0 -21 4l-8 6q-5 3 -8 6q-4 4 -7 8t-5 9q-2 6 -3 11t-1 11q0 3 1 7v7q1 3 3 6t3 6q2 4 4 7l5 5q2 2 5 4l6 4q2 2 6 3q3 1 6 3q4 0 8 1h6h8q3 -1 6 -1q4 -2 8 -3q3 -1 6 -3q2 -2 5 -4t7 -4q1 -3 4 -5zM1057 62
q2 5 2 13v7q-1 3 -2 5q-2 5 -3 8l-4 4q-5 5 -12 7q-3 2 -6 3h-8q-7 0 -13 -3q-3 -1 -5 -3l-6 -4l-4 -4q-2 -3 -4 -8q-1 -2 -1 -5q-1 -4 -1 -7q0 -4 1 -7q0 -3 1 -6q4 -8 8 -12l6 -4q2 -2 5 -4q3 -1 7 -2t6 -1q4 0 8 1l6 2q3 2 7 4q3 2 5 4zM1188 127l1 1h2h19v-107h-19v78
v-2l-2 -3v-3q0 -1 -1 -2q-3 -9 -7 -17q-4 -9 -7 -17l-6 -16q-4 -9 -7 -18h-19l-27 68q-1 1 -1 5q-1 2 -1 3q-1 0 -1 1v-77h-20v107h19h3l1 -1q2 -1 3 -1l1 -1l3 -2l2 -2q1 -1 1 -2q2 -8 6 -15q3 -8 6 -17q3 -8 7 -16l6 -16v-1v-2v-2q2 0 2 -2v2v2q0 1 1 2v1l4 8l22 56
q0 1 1 2v2q1 1 3 2h1q1 1 2 1z" />
    <glyph glyph-name="one" unicode="1" horiz-adv-x="1236" 
d="M1210 533v-286h-1174v286h445q0 15 3 29q2 13 8 26t14 25q7 12 18 21q18 19 44 30q14 6 28 9q13 2 27 2q16 0 30 -3t26 -9q14 -6 26 -14q11 -8 20 -17q18 -18 30 -46q10 -26 10 -53h445zM503 582q-11 -23 -11 -49q0 -28 11 -51q5 -11 12 -22t15 -20q9 -9 20 -16
q10 -7 22 -12q23 -11 51 -11q14 0 27 2q12 2 24 7q12 6 22 13q10 6 19 16q9 9 16 20q7 10 13 21q11 25 11 53q0 11 -2 23q-2 11 -7 21q-6 20 -20 37q-7 8 -15 15t-16 12l-18 10l-20 8q-7 2 -15 3q-9 1 -19 1q-14 0 -27 -2q-13 -3 -25 -9q-24 -9 -42 -28q-8 -9 -14 -20z
M144 337q3 5 3 9v5q-1 2 -3 5q0 1 -2 3l-3 3l-2 4q-2 1 -5 1l-4 2q-3 1 -5 1h-26v-75h8v28h18q2 0 5 1q2 0 4 1q5 2 7 4q1 2 3 4zM200 370h-46v-75h46v9h-35v23h29v10h-29v22h35v11zM273 295l-23 32q1 1 3 1q1 0 2 2q4 2 5 5q1 1 2 3q1 1 2 3v6v5q0 2 -1 4q-2 4 -5 7
q-2 4 -7 4q-1 1 -3 2q-3 1 -5 1h-27v-75h11v31h11l20 -27q1 -2 3 -3q1 -1 2 -1h3h7zM324 308q0 2 1 4v4q0 6 -2 10t-6 7q-1 0 -1 1q-1 1 -3 2v0q-1 0 -3 1h-1q-1 0 -1 2q-3 0 -4 1q-3 0 -4 1l-3 1q-4 1 -4 2q-3 2 -3 3v4v4q1 0 2 1t1 2l2 1h2q2 1 3 1h2h1q1 -1 2 -1
q4 0 4 -2q1 -1 2 -1h2q4 0 7 2l2 1q0 1 -1 2l-2 2q-2 1 -3 2t-3 2q-1 0 -2 1q-1 0 -3 2q-3 0 -3 1h-3h-4q-3 -1 -5 -1l-3 -3q-2 -1 -4 -1q-1 -2 -2 -3q-2 -2 -3 -4t-1 -3q-1 -2 -1 -5v-4q0 -2 2 -4q1 -2 3 -3q1 -2 1 -3l4 -2q2 -2 4 -2l4 -2q1 -1 3 -2q1 -1 3 -1h2
q3 -1 4 -1l1 -1l2 -1q0 -1 1 -3q1 -1 1 -2v-4v-1q0 -2 -1 -3l-1 -2q0 -1 -2 -2q-1 -2 -2 -2q-2 -1 -3 -2h-2h-3h-3h-3l-2 2q-2 0 -2 2l-1 1q-3 2 -6 2h-2q-1 0 -2 -1l-3 -1q0 -2 1 -2q0 -2 2 -3q0 -1 1 -2l1 -1h1q4 -4 9 -5q4 -1 9 -1h5q2 0 4 1t5 2q2 1 3 3q3 1 5 3z
M409 322q1 3 1 5v5q0 6 -1 10q0 3 -1 5q-2 2 -3 5q-2 3 -6 7q-2 2 -4 3t-5 4q-1 0 -3 1t-5 3q-3 0 -5 1h-5h-5q-3 -1 -5 -1q-3 -2 -5 -3t-4 -1q-2 -3 -4 -4t-4 -3l-3 -3q-2 -2 -3 -4q-2 -3 -2 -5q-1 -2 -2 -5q-1 -4 -1 -10q0 -4 1 -7l2 -8q1 -3 3 -6t5 -7l6 -4q3 -2 7 -2
q6 -3 14 -3h5h5q5 2 8 4q7 3 9 5q3 4 6 9q1 2 3 5zM487 370h-10v-58v3l-1 1l-36 51q-2 0 -4 3h-2h-2h-7v-75h10v61l1 -1v-2l43 -58h8v75zM571 295l-33 75h-11l-32 -75h6q3 0 4 1l2 2l2 1l4 13h39l5 -13q1 -2 3 -3q0 -1 4 -1h7zM620 304h-32v66h-11v-75h43v9zM722 370h-10
v-45v-5q0 -2 -1 -4q-1 -4 -5 -6l-2 -2q-2 -1 -3 -3q-3 -1 -4 -1h-4q-5 0 -7 1q-3 2 -5 3t-2 2q-1 1 -2 3l-3 3v4q-1 2 -1 5v45h-10v-45v-5q0 -3 1 -4q0 -4 2 -7q2 -5 6 -7q1 -1 3 -2q1 -1 3 -2q1 -1 3 -1q2 -1 3 -2q3 0 5 -1q1 -1 4 -1q2 0 4 1q1 1 4 1l4 2q1 0 3 1l6 4
q2 2 3 4q0 1 1 3l3 3q1 2 1 4v9v45zM780 308q3 4 3 8q0 6 -2 10t-6 7q-3 2 -3 3h-2q-2 0 -3 1h-1q-2 0 -3 2h-1q-1 0 -2 1q-1 0 -2 1l-3 1q-4 1 -4 2q-2 1 -2 2q-1 1 -2 1v2q-1 0 -1 2t2 4l3 3q1 0 2 1h2q0 1 5 1h1q1 -1 2 -1q1 -1 4 -2q4 -1 5 -1q3 0 4 2l3 1l-2 2l-2 2
q0 1 -1 2q-2 1 -3 2q-2 0 -3 1q-1 0 -3 2q-2 0 -3 1h-2h-5q-2 -1 -4 -1q-2 -2 -4 -3t-3 -1l-3 -3q-1 -2 -3 -4q0 -2 -1 -3q-1 -2 -1 -5t1 -4q1 -2 1 -4q2 -4 5 -6l4 -2q1 -2 2 -2q3 -1 5 -2q1 -1 3 -2t3 -1h2q1 -1 3 -1q1 0 2 -1t3 -1q1 -1 1 -3q1 -1 1 -2v-4v-1q0 -2 -1 -3
q-1 -3 -4 -4q-2 -2 -3 -2l-2 -2h-2h-3h-3h-3q-2 1 -5 4v1q-3 2 -6 2h-1q-2 0 -3 -1l-3 -1l1 -1q0 -1 1 -1q0 -1 1 -1v-2h1v-2q2 -1 3 -1q3 -4 8 -5q4 -1 9 -1h5q2 0 5 1l4 2q2 1 4 3l3 3zM841 370h-46v-75h46v9h-36v23h30v10h-30v22h36v11zM960 322v5v5v6v4q-2 5 -5 10
q-2 3 -6 7q-1 2 -3 3t-4 4q-2 0 -4 1q-3 1 -5 3q-3 0 -5 1h-5h-5q-3 -1 -5 -1q-6 -3 -10 -4q-2 -3 -3 -4q-2 -1 -4 -3l-3 -3l-4 -4q-1 -3 -2 -5t-1 -5q-2 -4 -2 -10q0 -4 1 -7l2 -8q3 -7 9 -13q2 -2 5 -4t7 -2q6 -3 15 -3h5h5q2 1 5 2l4 2q2 2 4 3t3 2q4 4 6 9zM1038 370
h-11v-58v3q-1 1 -2 1l-36 51v1q-1 0 -2 2h-2h-3h-8v-75h12v59l1 -1l42 -58h9v75zM1099 304h-32v66h-11v-75h43v9zM1159 370h-9q-2 0 -4 -2q-4 -2 -4 -4l-17 -23l-1 -1h-1l-1 1l-18 23q-1 2 -3 4t-5 2h-8l27 -37l1 -1q0 -1 1 -1v-1v-1q0 -1 1 -1v-1v-32h11v32v1v2q1 0 1 2v1
h1zM942 352l4 -4q2 -3 3 -5q0 -3 1 -5v-6q0 -6 -1 -11q-1 -3 -3 -5t-4 -3q-2 -2 -4 -3l-4 -4q-6 -2 -11 -2q-3 0 -6 1q-3 0 -5 1q-3 2 -5 4q-2 1 -4 3q-2 1 -3 3q-2 2 -2 5q-2 3 -2 6q-1 2 -1 5q0 5 3 11q0 2 2 5q1 2 3 4l4 4q2 1 5 2q4 2 11 2h5l6 -2l4 -2zM253 343
q0 -1 -2 -4q-1 0 -1 -1q-1 -1 -3 -1q-1 -1 -4 -1h-16v23h16q2 0 4 -1h3l1 -2l2 -4q1 -1 1 -5zM391 352l4 -4q2 -3 3 -5q1 -3 2 -5v-6v-5l-2 -6t-3 -5t-4 -3q-1 -2 -3 -3q-2 -2 -5 -4q-2 -1 -5 -1q-3 -1 -6 -1q-6 0 -11 2l-4 4q-3 1 -5 3l-3 3q-2 2 -3 5l-2 6q-1 2 -1 5
q0 5 3 11q1 2 3 5q2 2 3 4q2 2 5 4l4 2l6 2h5q6 0 11 -2q3 -1 5 -2zM532 358q0 -2 1 -3v-2l14 -31h-29l14 31v2v3zM132 356l2 -2q0 -2 1 -3q1 -2 1 -5v-2q0 -2 -1 -3t-1 -2q-1 -2 -2 -2l-4 -4h-5h-18v26h18q3 0 5 -1q1 0 3 -1zM580 422q-9 4 -18 10q-10 5 -17 12h157
q-8 -7 -17 -12q-9 -6 -19 -10q-10 -3 -21 -6t-22 -3q-12 0 -22 3zM557 457l154 155q14 -19 22 -39t8 -40q0 -11 -1 -21q-2 -11 -6 -21q-4 -9 -9 -17q-5 -9 -11 -17h-157zM534 453q-13 17 -22 36q-3 10 -5 21t-2 23q0 10 2 20t5 20q3 9 8 18q5 8 12 16h156zM666 642
q10 -4 19 -10t16 -11h-158q18 14 37 21q19 9 43 9zM38 171q-2 2 -2 4l-2 4q-1 3 -1 5q-1 2 -1 5t2 8q1 2 2 5q0 2 2 3l2 5q0 1 3 3q0 1 3 3q2 1 3 2q3 2 5 3l4 1q1 0 4 1h5h7q3 -1 7 -3q4 -1 7 -3l4 -4q-1 -1 -2 -1v-2h-1h-1h-2h-3q-2 1 -4 3q-2 1 -4 1h-3h-5h-5h-4l-6 -3
q-2 -2 -4 -3q-2 -3 -3 -5q-2 -2 -3 -4q-2 -3 -2 -6v-4q0 -4 1 -7l2 -4v-4q1 -1 3 -2q1 -1 2 -3q2 -1 3 -2q1 -2 3 -2q1 -1 3 -2t4 -1q1 -1 3 -1h3h5q2 0 4 1q2 0 5 1l4 2v14h-6h-1l-1 1l-1 2l-2 1v1q-1 0 -1 1v1v1h19v-26l-2 -2l-3 -3q-3 -1 -6 -1q-3 -1 -7 -1h-7h-5h-4
q-3 1 -4 2l-5 3q-1 0 -3 2q-3 1 -3 3q-3 1 -3 3zM117 214v-22h27v-7h-27v-23h33v-8h-41v68h41v-8h-33zM180 154v60h-22v8h52v-8h-23v-60h-7zM260 214v-24h29v-6h-29v-30h-8v68h41v-8h-33zM313 222v-42q0 -2 1 -3q1 -2 2 -3q1 -3 3 -4l2 -4q0 -1 2 -2l2 -2q3 -1 5 -1h4h4
q1 0 2 1q3 1 5 2q1 1 3 2q0 2 2 4q1 1 2 4q2 2 2 6v42h7v-42v-5q-1 -2 -2 -5t-2 -5l-4 -4t-4 -3q-2 -2 -4 -3q-6 -1 -11 -1q-6 0 -12 1l-3 3q-3 1 -5 3q-3 3 -5 9q-1 3 -2 5t-1 5v42h7zM383 222v-60h30v-8h-38v68h8zM428 222v-60h32v-8h-39v68h7zM522 154l-30 68h4q2 0 4 -1
q1 -1 2 -1l1 -2l21 -51v-2q1 -1 1 -3v3l1 1v1q3 7 6 13l6 12q2 8 5 14l6 12q0 2 1 2t1 1q1 1 2 1h2h4q-4 -8 -7 -16q-4 -9 -9 -17q-3 -10 -6 -18q-4 -8 -8 -17h-7zM572 214v-22h28v-7h-28v-23h33v-8h-41v68h41v-8h-33zM655 186q-1 -1 -5 -2l23 -30h-5q-1 0 -2 1h-2l-2 2
q-1 0 -2 2l-19 25h-12v-30h-7v68h25h3q1 0 3 -1q4 -1 7 -4q1 -2 2 -3l2 -4q1 -1 1 -3v-3v-4q0 -2 -1 -3q0 -2 -1 -4t-2 -3l-2 -2zM647 190q2 0 3 2q1 0 2 1h2l2 3q0 1 1 2q0 1 1 2v4v1q-1 1 -1 3l-1 2q-1 0 -2 2q-1 0 -2 1q-1 0 -2 1h-3h-18v-24h18zM709 164q1 1 2 4
q1 1 2 3v3q0 3 -1 5q-1 0 -1 2l-2 2t-4 2q-2 0 -3 1l-3 1q-2 0 -4 1t-2 2q-5 0 -7 3q-2 0 -2 2q-1 2 -2 3v7v5q0 1 1 3q0 3 4 5l3 3q1 0 4 1q2 0 3 1h4h3q1 -1 2 -1h2l3 -2q1 0 2 -1t1 -2q2 -1 3 -2q0 -1 1 -1l-2 -1q-1 -1 -4 -1h-3q-2 1 -2 2h-1h-1h-1h-1h-1h-1h-4
q-4 0 -4 -1q-3 -3 -3 -4q-2 0 -2 -4q0 -3 2 -3q0 -2 1 -3t3 -1l1 -1q2 -2 3 -2t4 -2h2q1 0 1 -1h2q1 0 2 -2h1h1v0h2l1 -1l3 -3q1 -2 3 -3q1 -5 1 -9v-5q0 -2 -3 -4q0 -3 -4 -6q-1 -1 -3 -2l-4 -2q-2 -1 -4 -1h-5q-5 0 -8 1q-4 1 -7 4q-1 0 -2 1l-2 2v2l-1 1l1 1l1 1h2h1h2
l2 -2q2 -1 3 -2t3 -1q0 -1 2 -1h3q4 0 5 1zM744 222v-68h-8v68h8zM771 164q-6 4 -9 10q-2 7 -2 15v4v4q3 5 4 8q3 4 7 8q3 3 6 5q2 2 5 3q2 0 4 1q2 0 4 1h5h5q2 -1 5 -1q2 -1 4 -1q2 -1 4 -3l3 -2q1 -2 3 -3l3 -3l3 -5q1 -3 3 -8l2 -4v-4q0 -4 -1 -7q-1 -4 -3 -8
q-1 -3 -2 -5q-2 -3 -5 -5q-3 -3 -5 -4l-6 -4q-5 -2 -13 -2q-4 0 -7 1q-4 0 -6 1zM771 199q-2 -3 -3 -6t-1 -4q0 -2 1 -4v-3q1 -4 4 -8q0 -1 1 -2t2 -3l3 -2q1 -2 4 -2q1 -1 3 -2q1 -1 2 -1q2 -1 4 -1h4h4q2 0 3 1q1 0 3 1l4 2q1 0 3 2l2 2q1 2 2 3l2 2l2 4l1 4q0 1 1 3v4v4
q-1 3 -3 6q0 2 -2 4t-3 5q-2 1 -4 3q-2 1 -5 3h-4h-6h-6h-5q-2 -2 -4 -3q-3 -2 -5 -3q-1 -3 -2 -5zM850 154h-8v68h6h3q1 0 2 -2l35 -50q1 0 1 -2l1 -1v55h8v-68h-7l-40 56v2h-1v-58zM955 214v-24h28v-6h-28v-30h-7v68h41v-8h-34zM1032 186q-4 -1 -6 -2l22 -30h-6q-2 0 -4 1
v2q-1 0 -2 2l-19 25h-12v-30h-8v68h25h3q2 0 4 -1l4 -2l2 -2q1 -2 2 -3q1 -2 3 -4q0 -1 1 -3v-3v-4q-1 -2 -1 -3l-2 -4q-1 -2 -1 -3zM1026 192q1 0 2 1h1q3 4 3 5q1 2 1 6q0 1 -1 4q0 1 -3 4q-1 0 -1 1l-2 1h-4h-17v-24h17zM1114 164q-2 -3 -5 -4l-6 -4q-3 -1 -6 -1
q-3 -1 -7 -1t-7 1q-4 0 -7 1q-6 2 -11 8q-2 2 -4 5q-2 2 -3 5l-2 8q-2 3 -2 7q0 1 1 4q0 2 1 4t2 5q0 2 1 3q2 3 4 5q1 1 2 3q2 1 4 3l4 2q2 2 4 3q2 0 4 1q3 0 5 1h4h5q2 -1 4 -1l5 -1l3 -3l4 -2l3 -3q1 -2 3 -3q1 -2 2 -5q3 -3 4 -8l2 -4v-4v-7q-1 -4 -3 -8q-1 -3 -3 -5z
M1090 161h4q2 0 4 1q1 0 3 1l2 2q1 0 3 2l4 2l2 3q0 1 1 2l2 4v4q1 1 1 3v4v4q-1 3 -1 6l-2 4q-2 2 -3 5q-3 1 -5 3q-3 1 -5 3h-5h-5h-5h-6q-3 -2 -4 -3q-2 -2 -4 -3q-3 -3 -4 -5l-2 -4q-1 -3 -1 -6v-4v-7q0 -3 1 -4q0 -2 2 -4q0 -1 2 -2q1 -1 2 -3l3 -2q1 -2 2 -2
q1 -1 3 -2q1 -1 4 -1q1 -1 3 -1h4zM1201 221q1 1 2 1h1h6v-68h-7v56l-1 -1v-1q-2 -4 -3 -8q-1 -5 -3 -8t-3 -6l-4 -7q-1 -4 -2 -7l-2 -6q-2 -3 -3 -5q-2 -3 -3 -7h-7q-5 6 -7 13q-3 7 -6 13q-2 7 -5 14q-4 7 -6 14v1l-2 1v-56h-8v68h7q3 0 4 -1l1 -1v-2l24 -53q0 -1 1 -1v-2
q0 1 1 2v2q0 2 2 4l21 48q0 2 1 2zM36 128h77v-10v-2v-2q0 -2 -1 -3l-2 -2l-52 -71h1v1h2h1h51v-18h-81v6q0 5 1 6q0 1 2 4q1 1 1 2t1 2l2 2l1 3l46 63h-50v19zM127 128h68v-19h-49v-24h39v-20h-39v-26h49v-18h-68v107zM279 109h-29v-88h-21v88h-31v19h81v-19zM328 128
l46 -107h-12q-4 0 -8 2q-2 1 -2 3q-1 2 -3 4l-6 14h-49l-5 -14l-1 -2q-1 -1 -2 -1v-2q-1 -1 -3 -2h-2q-1 -1 -2 -1q0 -1 -1 -1h-2h-12l46 107h18zM334 63l-13 33v2q-1 0 -1 1q0 2 -1 3v-3q0 -1 -1 -1q-1 -1 -1 -2l-13 -33h30zM378 128h68v-19h-49v-27h40v-19h-40v-42h-19
v107zM553 101q2 -3 3 -6t3 -6q1 -4 1 -7v-7v-8q0 -4 -1 -7q-2 -3 -3 -6q-1 -4 -3 -7q-2 -2 -4 -5l-4 -6q-4 -2 -6 -4q-2 -3 -5 -4q-3 -3 -6 -4q-4 -1 -7 -2q-4 -1 -7 -1q-4 -1 -8 -1q-5 0 -10 2q-6 1 -11 2q-6 3 -9 6q-4 3 -9 6q-7 8 -10 17q-3 6 -4 11t-1 11q0 3 1 7
q0 3 1 7q2 8 6 12q2 4 4 7q1 2 3 5q4 2 7 4q2 2 5 4t6 3t7 3q3 0 7 1h7h8q3 -1 7 -1q3 -2 7 -3q3 -1 6 -3t5 -4t6 -4q2 -3 4 -5zM539 62l2 6v7q0 6 -2 12q-2 5 -4 8q-2 2 -5 4l-4 4q-3 2 -6 3q-6 3 -14 3t-14 -3q-2 -1 -4 -3l-6 -4t-4 -4q-2 -3 -4 -8q-2 -2 -2 -5v-7v-7
q0 -3 2 -6l4 -7q1 -3 4 -5l6 -4l4 -4q4 -1 7 -2t7 -1t7 1t7 2l6 4l4 4q3 2 5 5zM649 128h19v-107h-18l-50 72q-1 0 -1 1l-1 1q-1 2 -1 3q-2 0 -2 2v1l-2 1v-81h-19v107h17h4q2 -1 2 -2l3 -1l2 -2q5 -8 11 -15q5 -8 10 -17l12 -14q5 -8 12 -15q0 -2 1 -3v-3q0 -1 1 -2v-2v76z
M678 128h81v-19h-32v-88h-19v88h-30v19zM825 73q1 -2 3 -4l2 -4q0 -2 1 -4q1 -3 1 -7q0 -6 -3 -13l-4 -6q-2 -3 -4 -5q-4 -2 -6 -4t-6 -3t-7 -2q-4 -1 -7 -1q-4 0 -7 1q-4 1 -9 2q-3 1 -5 3q-3 2 -7 6q-2 1 -3 3q-1 1 -2 3q-2 1 -2 6l1 1l1 1q1 0 1 1h1t2 1h1h5h2q1 0 1 -1
q3 0 5 -1q2 -2 4 -3t3 -2q1 0 3 -1t5 -1q1 0 3 1q1 0 3 1q3 1 6 3l4 4q1 2 2 3t1 3q0 4 -3 6q-2 3 -4 3l-3 3h-3q-3 1 -8 4q-2 0 -4 1q-3 0 -5 2q-4 1 -6 3q-2 1 -4 3q-3 2 -4 4q-2 2 -3 4q-3 6 -3 12q0 9 3 13q1 3 3 5t5 4q2 2 5 3l6 3q2 0 5 1h7h4q2 -1 5 -1l4 -2
q1 -1 4 -2q1 -1 3 -2l4 -4l3 -2l2 -4l-4 -2l-2 -2q-2 -1 -2 -2h-4h-2h-2h-1q-3 0 -3 1l-4 2q-1 0 -1 1h-1h-3h-6h-2q-1 -1 -3 -2q-1 -1 -2 -4q-1 -1 -1 -4t1 -3l2 -2v-3h4q1 -1 2 -1l6 -2q2 -1 3 -2l5 -1q2 -2 5 -2q2 -1 5 -4zM857 39q3 0 3 -3q1 0 1 -1v-3q0 -3 -1 -5
q0 -2 -3 -4q-2 0 -3 -2h-2q-1 -1 -3 -1q-1 0 -2 1h-2l-2 2h-2q-1 1 -1 2l-2 2q-1 2 -1 5v3q0 1 1 1q1 2 2 3h1q3 3 4 3l2 2h2h3l2 -2zM898 99q-4 -4 -8 -12q-1 -2 -2 -5q-1 -4 -1 -7q0 -4 1 -7l2 -6l4 -7q1 -3 4 -5q2 -2 5 -4q2 -2 6 -4q4 -1 7 -2t7 -1q3 0 5 1t5 1q2 1 5 3
q2 1 4 3q2 0 4 1h3h3q2 0 3 -1q3 -1 5 -3l3 -5q-3 -4 -8 -7q-3 -2 -5 -3q-2 -2 -5 -3q-3 -2 -5 -2l-6 -2t-5 -1q-3 -1 -6 -1q-7 0 -12 2l-10 2q-10 5 -17 12q-8 8 -12 17q-1 6 -2 11q-2 5 -2 11q0 3 1 7q0 3 1 7l2 6q1 3 3 6q3 4 5 7q1 2 4 5l6 4q2 2 6 4q2 2 5 3t8 3
q2 0 6 1h8h6q2 0 5 -1l6 -2q2 -1 5 -2t5 -2q2 -2 5 -4q5 -4 8 -8l-3 -4l-2 -2q-1 -1 -3 -2h-3h-3h-3q-2 0 -4 1l-4 4q-3 1 -5 2q-3 1 -5 1h-5q-8 0 -14 -3q-4 -1 -6 -3zM1072 101q1 -3 3 -6l2 -6q1 -4 1 -7v-7v-8q0 -4 -1 -7l-2 -6q-2 -4 -3 -7q-4 -5 -8 -11q-4 -2 -7 -4
q-3 -3 -5 -4q-3 -3 -6 -4l-8 -2q-3 -1 -6 -1q-4 -1 -8 -1q-10 0 -21 4l-8 6q-5 3 -8 6q-4 4 -7 8t-5 9q-2 6 -3 11t-1 11q0 3 1 7v7q1 3 3 6t3 6q2 4 4 7l5 5q2 2 5 4l6 4q2 2 6 3q3 1 6 3q4 0 8 1h6h8q3 -1 6 -1q4 -2 8 -3q3 -1 6 -3q2 -2 5 -4t7 -4q1 -3 4 -5zM1057 62
q2 5 2 13v7q-1 3 -2 5q-2 5 -3 8l-4 4q-5 5 -12 7q-3 2 -6 3h-8q-7 0 -13 -3q-3 -1 -5 -3l-6 -4l-4 -4q-2 -3 -4 -8q-1 -2 -1 -5q-1 -4 -1 -7q0 -4 1 -7q0 -3 1 -6q4 -8 8 -12l6 -4q2 -2 5 -4q3 -1 7 -2t6 -1q4 0 8 1l6 2q3 2 7 4q3 2 5 4zM1188 127l1 1h2h19v-107h-19v78
v-2l-2 -3v-3q0 -1 -1 -2q-3 -9 -7 -17q-4 -9 -7 -17l-6 -16q-4 -9 -7 -18h-19l-27 68q-1 1 -1 5q-1 2 -1 3q-1 0 -1 1v-77h-20v107h19h3l1 -1q2 -1 3 -1l1 -1l3 -2l2 -2q1 -1 1 -2q2 -8 6 -15q3 -8 6 -17q3 -8 7 -16l6 -16v-1v-2v-2q2 0 2 -2v2v2q0 1 1 2v1l4 8l22 56
q0 1 1 2v2q1 1 3 2h1q1 1 2 1z" />
    <glyph glyph-name="two" unicode="2" horiz-adv-x="1236" 
d="M1210 533v-286h-1174v286h445q0 15 3 29q2 13 8 26t14 25q7 12 18 21q18 19 44 30q14 6 28 9q13 2 27 2q16 0 30 -3t26 -9q14 -6 26 -14q11 -8 20 -17q18 -18 30 -46q10 -26 10 -53h445zM503 582q-11 -23 -11 -49q0 -28 11 -51q5 -11 12 -22t15 -20q9 -9 20 -16
q10 -7 22 -12q23 -11 51 -11q14 0 27 2q12 2 24 7q12 6 22 13q10 6 19 16q9 9 16 20q7 10 13 21q11 25 11 53q0 11 -2 23q-2 11 -7 21q-6 20 -20 37q-7 8 -15 15t-16 12l-18 10l-20 8q-7 2 -15 3q-9 1 -19 1q-14 0 -27 -2q-13 -3 -25 -9q-24 -9 -42 -28q-8 -9 -14 -20z
M144 337q3 5 3 9v5q-1 2 -3 5q0 1 -2 3l-3 3l-2 4q-2 1 -5 1l-4 2q-3 1 -5 1h-26v-75h8v28h18q2 0 5 1q2 0 4 1q5 2 7 4q1 2 3 4zM200 370h-46v-75h46v9h-35v23h29v10h-29v22h35v11zM273 295l-23 32q1 1 3 1q1 0 2 2q4 2 5 5q1 1 2 3q1 1 2 3v6v5q0 2 -1 4q-2 4 -5 7
q-2 4 -7 4q-1 1 -3 2q-3 1 -5 1h-27v-75h11v31h11l20 -27q1 -2 3 -3q1 -1 2 -1h3h7zM324 308q0 2 1 4v4q0 6 -2 10t-6 7q-1 0 -1 1q-1 1 -3 2v0q-1 0 -3 1h-1q-1 0 -1 2q-3 0 -4 1q-3 0 -4 1l-3 1q-4 1 -4 2q-3 2 -3 3v4v4q1 0 2 1t1 2l2 1h2q2 1 3 1h2h1q1 -1 2 -1
q4 0 4 -2q1 -1 2 -1h2q4 0 7 2l2 1q0 1 -1 2l-2 2q-2 1 -3 2t-3 2q-1 0 -2 1q-1 0 -3 2q-3 0 -3 1h-3h-4q-3 -1 -5 -1l-3 -3q-2 -1 -4 -1q-1 -2 -2 -3q-2 -2 -3 -4t-1 -3q-1 -2 -1 -5v-4q0 -2 2 -4q1 -2 3 -3q1 -2 1 -3l4 -2q2 -2 4 -2l4 -2q1 -1 3 -2q1 -1 3 -1h2
q3 -1 4 -1l1 -1l2 -1q0 -1 1 -3q1 -1 1 -2v-4v-1q0 -2 -1 -3l-1 -2q0 -1 -2 -2q-1 -2 -2 -2q-2 -1 -3 -2h-2h-3h-3h-3l-2 2q-2 0 -2 2l-1 1q-3 2 -6 2h-2q-1 0 -2 -1l-3 -1q0 -2 1 -2q0 -2 2 -3q0 -1 1 -2l1 -1h1q4 -4 9 -5q4 -1 9 -1h5q2 0 4 1t5 2q2 1 3 3q3 1 5 3z
M409 322q1 3 1 5v5q0 6 -1 10q0 3 -1 5q-2 2 -3 5q-2 3 -6 7q-2 2 -4 3t-5 4q-1 0 -3 1t-5 3q-3 0 -5 1h-5h-5q-3 -1 -5 -1q-3 -2 -5 -3t-4 -1q-2 -3 -4 -4t-4 -3l-3 -3q-2 -2 -3 -4q-2 -3 -2 -5q-1 -2 -2 -5q-1 -4 -1 -10q0 -4 1 -7l2 -8q1 -3 3 -6t5 -7l6 -4q3 -2 7 -2
q6 -3 14 -3h5h5q5 2 8 4q7 3 9 5q3 4 6 9q1 2 3 5zM487 370h-10v-58v3l-1 1l-36 51q-2 0 -4 3h-2h-2h-7v-75h10v61l1 -1v-2l43 -58h8v75zM571 295l-33 75h-11l-32 -75h6q3 0 4 1l2 2l2 1l4 13h39l5 -13q1 -2 3 -3q0 -1 4 -1h7zM620 304h-32v66h-11v-75h43v9zM722 370h-10
v-45v-5q0 -2 -1 -4q-1 -4 -5 -6l-2 -2q-2 -1 -3 -3q-3 -1 -4 -1h-4q-5 0 -7 1q-3 2 -5 3t-2 2q-1 1 -2 3l-3 3v4q-1 2 -1 5v45h-10v-45v-5q0 -3 1 -4q0 -4 2 -7q2 -5 6 -7q1 -1 3 -2q1 -1 3 -2q1 -1 3 -1q2 -1 3 -2q3 0 5 -1q1 -1 4 -1q2 0 4 1q1 1 4 1l4 2q1 0 3 1l6 4
q2 2 3 4q0 1 1 3l3 3q1 2 1 4v9v45zM780 308q3 4 3 8q0 6 -2 10t-6 7q-3 2 -3 3h-2q-2 0 -3 1h-1q-2 0 -3 2h-1q-1 0 -2 1q-1 0 -2 1l-3 1q-4 1 -4 2q-2 1 -2 2q-1 1 -2 1v2q-1 0 -1 2t2 4l3 3q1 0 2 1h2q0 1 5 1h1q1 -1 2 -1q1 -1 4 -2q4 -1 5 -1q3 0 4 2l3 1l-2 2l-2 2
q0 1 -1 2q-2 1 -3 2q-2 0 -3 1q-1 0 -3 2q-2 0 -3 1h-2h-5q-2 -1 -4 -1q-2 -2 -4 -3t-3 -1l-3 -3q-1 -2 -3 -4q0 -2 -1 -3q-1 -2 -1 -5t1 -4q1 -2 1 -4q2 -4 5 -6l4 -2q1 -2 2 -2q3 -1 5 -2q1 -1 3 -2t3 -1h2q1 -1 3 -1q1 0 2 -1t3 -1q1 -1 1 -3q1 -1 1 -2v-4v-1q0 -2 -1 -3
q-1 -3 -4 -4q-2 -2 -3 -2l-2 -2h-2h-3h-3h-3q-2 1 -5 4v1q-3 2 -6 2h-1q-2 0 -3 -1l-3 -1l1 -1q0 -1 1 -1q0 -1 1 -1v-2h1v-2q2 -1 3 -1q3 -4 8 -5q4 -1 9 -1h5q2 0 5 1l4 2q2 1 4 3l3 3zM841 370h-46v-75h46v9h-36v23h30v10h-30v22h36v11zM960 322v5v5v6v4q-2 5 -5 10
q-2 3 -6 7q-1 2 -3 3t-4 4q-2 0 -4 1q-3 1 -5 3q-3 0 -5 1h-5h-5q-3 -1 -5 -1q-6 -3 -10 -4q-2 -3 -3 -4q-2 -1 -4 -3l-3 -3l-4 -4q-1 -3 -2 -5t-1 -5q-2 -4 -2 -10q0 -4 1 -7l2 -8q3 -7 9 -13q2 -2 5 -4t7 -2q6 -3 15 -3h5h5q2 1 5 2l4 2q2 2 4 3t3 2q4 4 6 9zM1038 370
h-11v-58v3q-1 1 -2 1l-36 51v1q-1 0 -2 2h-2h-3h-8v-75h12v59l1 -1l42 -58h9v75zM1099 304h-32v66h-11v-75h43v9zM1159 370h-9q-2 0 -4 -2q-4 -2 -4 -4l-17 -23l-1 -1h-1l-1 1l-18 23q-1 2 -3 4t-5 2h-8l27 -37l1 -1q0 -1 1 -1v-1v-1q0 -1 1 -1v-1v-32h11v32v1v2q1 0 1 2v1
h1zM942 352l4 -4q2 -3 3 -5q0 -3 1 -5v-6q0 -6 -1 -11q-1 -3 -3 -5t-4 -3q-2 -2 -4 -3l-4 -4q-6 -2 -11 -2q-3 0 -6 1q-3 0 -5 1q-3 2 -5 4q-2 1 -4 3q-2 1 -3 3q-2 2 -2 5q-2 3 -2 6q-1 2 -1 5q0 5 3 11q0 2 2 5q1 2 3 4l4 4q2 1 5 2q4 2 11 2h5l6 -2l4 -2zM253 343
q0 -1 -2 -4q-1 0 -1 -1q-1 -1 -3 -1q-1 -1 -4 -1h-16v23h16q2 0 4 -1h3l1 -2l2 -4q1 -1 1 -5zM391 352l4 -4q2 -3 3 -5q1 -3 2 -5v-6v-5l-2 -6t-3 -5t-4 -3q-1 -2 -3 -3q-2 -2 -5 -4q-2 -1 -5 -1q-3 -1 -6 -1q-6 0 -11 2l-4 4q-3 1 -5 3l-3 3q-2 2 -3 5l-2 6q-1 2 -1 5
q0 5 3 11q1 2 3 5q2 2 3 4q2 2 5 4l4 2l6 2h5q6 0 11 -2q3 -1 5 -2zM532 358q0 -2 1 -3v-2l14 -31h-29l14 31v2v3zM132 356l2 -2q0 -2 1 -3q1 -2 1 -5v-2q0 -2 -1 -3t-1 -2q-1 -2 -2 -2l-4 -4h-5h-18v26h18q3 0 5 -1q1 0 3 -1zM580 422q-9 4 -18 10q-10 5 -17 12h157
q-8 -7 -17 -12q-9 -6 -19 -10q-10 -3 -21 -6t-22 -3q-12 0 -22 3zM557 457l154 155q14 -19 22 -39t8 -40q0 -11 -1 -21q-2 -11 -6 -21q-4 -9 -9 -17q-5 -9 -11 -17h-157zM534 453q-13 17 -22 36q-3 10 -5 21t-2 23q0 10 2 20t5 20q3 9 8 18q5 8 12 16h156zM666 642
q10 -4 19 -10t16 -11h-158q18 14 37 21q19 9 43 9zM38 171q-2 2 -2 4l-2 4q-1 3 -1 5q-1 2 -1 5t2 8q1 2 2 5q0 2 2 3l2 5q0 1 3 3q0 1 3 3q2 1 3 2q3 2 5 3l4 1q1 0 4 1h5h7q3 -1 7 -3q4 -1 7 -3l4 -4q-1 -1 -2 -1v-2h-1h-1h-2h-3q-2 1 -4 3q-2 1 -4 1h-3h-5h-5h-4l-6 -3
q-2 -2 -4 -3q-2 -3 -3 -5q-2 -2 -3 -4q-2 -3 -2 -6v-4q0 -4 1 -7l2 -4v-4q1 -1 3 -2q1 -1 2 -3q2 -1 3 -2q1 -2 3 -2q1 -1 3 -2t4 -1q1 -1 3 -1h3h5q2 0 4 1q2 0 5 1l4 2v14h-6h-1l-1 1l-1 2l-2 1v1q-1 0 -1 1v1v1h19v-26l-2 -2l-3 -3q-3 -1 -6 -1q-3 -1 -7 -1h-7h-5h-4
q-3 1 -4 2l-5 3q-1 0 -3 2q-3 1 -3 3q-3 1 -3 3zM117 214v-22h27v-7h-27v-23h33v-8h-41v68h41v-8h-33zM180 154v60h-22v8h52v-8h-23v-60h-7zM260 214v-24h29v-6h-29v-30h-8v68h41v-8h-33zM313 222v-42q0 -2 1 -3q1 -2 2 -3q1 -3 3 -4l2 -4q0 -1 2 -2l2 -2q3 -1 5 -1h4h4
q1 0 2 1q3 1 5 2q1 1 3 2q0 2 2 4q1 1 2 4q2 2 2 6v42h7v-42v-5q-1 -2 -2 -5t-2 -5l-4 -4t-4 -3q-2 -2 -4 -3q-6 -1 -11 -1q-6 0 -12 1l-3 3q-3 1 -5 3q-3 3 -5 9q-1 3 -2 5t-1 5v42h7zM383 222v-60h30v-8h-38v68h8zM428 222v-60h32v-8h-39v68h7zM522 154l-30 68h4q2 0 4 -1
q1 -1 2 -1l1 -2l21 -51v-2q1 -1 1 -3v3l1 1v1q3 7 6 13l6 12q2 8 5 14l6 12q0 2 1 2t1 1q1 1 2 1h2h4q-4 -8 -7 -16q-4 -9 -9 -17q-3 -10 -6 -18q-4 -8 -8 -17h-7zM572 214v-22h28v-7h-28v-23h33v-8h-41v68h41v-8h-33zM655 186q-1 -1 -5 -2l23 -30h-5q-1 0 -2 1h-2l-2 2
q-1 0 -2 2l-19 25h-12v-30h-7v68h25h3q1 0 3 -1q4 -1 7 -4q1 -2 2 -3l2 -4q1 -1 1 -3v-3v-4q0 -2 -1 -3q0 -2 -1 -4t-2 -3l-2 -2zM647 190q2 0 3 2q1 0 2 1h2l2 3q0 1 1 2q0 1 1 2v4v1q-1 1 -1 3l-1 2q-1 0 -2 2q-1 0 -2 1q-1 0 -2 1h-3h-18v-24h18zM709 164q1 1 2 4
q1 1 2 3v3q0 3 -1 5q-1 0 -1 2l-2 2t-4 2q-2 0 -3 1l-3 1q-2 0 -4 1t-2 2q-5 0 -7 3q-2 0 -2 2q-1 2 -2 3v7v5q0 1 1 3q0 3 4 5l3 3q1 0 4 1q2 0 3 1h4h3q1 -1 2 -1h2l3 -2q1 0 2 -1t1 -2q2 -1 3 -2q0 -1 1 -1l-2 -1q-1 -1 -4 -1h-3q-2 1 -2 2h-1h-1h-1h-1h-1h-1h-4
q-4 0 -4 -1q-3 -3 -3 -4q-2 0 -2 -4q0 -3 2 -3q0 -2 1 -3t3 -1l1 -1q2 -2 3 -2t4 -2h2q1 0 1 -1h2q1 0 2 -2h1h1v0h2l1 -1l3 -3q1 -2 3 -3q1 -5 1 -9v-5q0 -2 -3 -4q0 -3 -4 -6q-1 -1 -3 -2l-4 -2q-2 -1 -4 -1h-5q-5 0 -8 1q-4 1 -7 4q-1 0 -2 1l-2 2v2l-1 1l1 1l1 1h2h1h2
l2 -2q2 -1 3 -2t3 -1q0 -1 2 -1h3q4 0 5 1zM744 222v-68h-8v68h8zM771 164q-6 4 -9 10q-2 7 -2 15v4v4q3 5 4 8q3 4 7 8q3 3 6 5q2 2 5 3q2 0 4 1q2 0 4 1h5h5q2 -1 5 -1q2 -1 4 -1q2 -1 4 -3l3 -2q1 -2 3 -3l3 -3l3 -5q1 -3 3 -8l2 -4v-4q0 -4 -1 -7q-1 -4 -3 -8
q-1 -3 -2 -5q-2 -3 -5 -5q-3 -3 -5 -4l-6 -4q-5 -2 -13 -2q-4 0 -7 1q-4 0 -6 1zM771 199q-2 -3 -3 -6t-1 -4q0 -2 1 -4v-3q1 -4 4 -8q0 -1 1 -2t2 -3l3 -2q1 -2 4 -2q1 -1 3 -2q1 -1 2 -1q2 -1 4 -1h4h4q2 0 3 1q1 0 3 1l4 2q1 0 3 2l2 2q1 2 2 3l2 2l2 4l1 4q0 1 1 3v4v4
q-1 3 -3 6q0 2 -2 4t-3 5q-2 1 -4 3q-2 1 -5 3h-4h-6h-6h-5q-2 -2 -4 -3q-3 -2 -5 -3q-1 -3 -2 -5zM850 154h-8v68h6h3q1 0 2 -2l35 -50q1 0 1 -2l1 -1v55h8v-68h-7l-40 56v2h-1v-58zM955 214v-24h28v-6h-28v-30h-7v68h41v-8h-34zM1032 186q-4 -1 -6 -2l22 -30h-6q-2 0 -4 1
v2q-1 0 -2 2l-19 25h-12v-30h-8v68h25h3q2 0 4 -1l4 -2l2 -2q1 -2 2 -3q1 -2 3 -4q0 -1 1 -3v-3v-4q-1 -2 -1 -3l-2 -4q-1 -2 -1 -3zM1026 192q1 0 2 1h1q3 4 3 5q1 2 1 6q0 1 -1 4q0 1 -3 4q-1 0 -1 1l-2 1h-4h-17v-24h17zM1114 164q-2 -3 -5 -4l-6 -4q-3 -1 -6 -1
q-3 -1 -7 -1t-7 1q-4 0 -7 1q-6 2 -11 8q-2 2 -4 5q-2 2 -3 5l-2 8q-2 3 -2 7q0 1 1 4q0 2 1 4t2 5q0 2 1 3q2 3 4 5q1 1 2 3q2 1 4 3l4 2q2 2 4 3q2 0 4 1q3 0 5 1h4h5q2 -1 4 -1l5 -1l3 -3l4 -2l3 -3q1 -2 3 -3q1 -2 2 -5q3 -3 4 -8l2 -4v-4v-7q-1 -4 -3 -8q-1 -3 -3 -5z
M1090 161h4q2 0 4 1q1 0 3 1l2 2q1 0 3 2l4 2l2 3q0 1 1 2l2 4v4q1 1 1 3v4v4q-1 3 -1 6l-2 4q-2 2 -3 5q-3 1 -5 3q-3 1 -5 3h-5h-5h-5h-6q-3 -2 -4 -3q-2 -2 -4 -3q-3 -3 -4 -5l-2 -4q-1 -3 -1 -6v-4v-7q0 -3 1 -4q0 -2 2 -4q0 -1 2 -2q1 -1 2 -3l3 -2q1 -2 2 -2
q1 -1 3 -2q1 -1 4 -1q1 -1 3 -1h4zM1201 221q1 1 2 1h1h6v-68h-7v56l-1 -1v-1q-2 -4 -3 -8q-1 -5 -3 -8t-3 -6l-4 -7q-1 -4 -2 -7l-2 -6q-2 -3 -3 -5q-2 -3 -3 -7h-7q-5 6 -7 13q-3 7 -6 13q-2 7 -5 14q-4 7 -6 14v1l-2 1v-56h-8v68h7q3 0 4 -1l1 -1v-2l24 -53q0 -1 1 -1v-2
q0 1 1 2v2q0 2 2 4l21 48q0 2 1 2zM36 128h77v-10v-2v-2q0 -2 -1 -3l-2 -2l-52 -71h1v1h2h1h51v-18h-81v6q0 5 1 6q0 1 2 4q1 1 1 2t1 2l2 2l1 3l46 63h-50v19zM127 128h68v-19h-49v-24h39v-20h-39v-26h49v-18h-68v107zM279 109h-29v-88h-21v88h-31v19h81v-19zM328 128
l46 -107h-12q-4 0 -8 2q-2 1 -2 3q-1 2 -3 4l-6 14h-49l-5 -14l-1 -2q-1 -1 -2 -1v-2q-1 -1 -3 -2h-2q-1 -1 -2 -1q0 -1 -1 -1h-2h-12l46 107h18zM334 63l-13 33v2q-1 0 -1 1q0 2 -1 3v-3q0 -1 -1 -1q-1 -1 -1 -2l-13 -33h30zM378 128h68v-19h-49v-27h40v-19h-40v-42h-19
v107zM553 101q2 -3 3 -6t3 -6q1 -4 1 -7v-7v-8q0 -4 -1 -7q-2 -3 -3 -6q-1 -4 -3 -7q-2 -2 -4 -5l-4 -6q-4 -2 -6 -4q-2 -3 -5 -4q-3 -3 -6 -4q-4 -1 -7 -2q-4 -1 -7 -1q-4 -1 -8 -1q-5 0 -10 2q-6 1 -11 2q-6 3 -9 6q-4 3 -9 6q-7 8 -10 17q-3 6 -4 11t-1 11q0 3 1 7
q0 3 1 7q2 8 6 12q2 4 4 7q1 2 3 5q4 2 7 4q2 2 5 4t6 3t7 3q3 0 7 1h7h8q3 -1 7 -1q3 -2 7 -3q3 -1 6 -3t5 -4t6 -4q2 -3 4 -5zM539 62l2 6v7q0 6 -2 12q-2 5 -4 8q-2 2 -5 4l-4 4q-3 2 -6 3q-6 3 -14 3t-14 -3q-2 -1 -4 -3l-6 -4t-4 -4q-2 -3 -4 -8q-2 -2 -2 -5v-7v-7
q0 -3 2 -6l4 -7q1 -3 4 -5l6 -4l4 -4q4 -1 7 -2t7 -1t7 1t7 2l6 4l4 4q3 2 5 5zM649 128h19v-107h-18l-50 72q-1 0 -1 1l-1 1q-1 2 -1 3q-2 0 -2 2v1l-2 1v-81h-19v107h17h4q2 -1 2 -2l3 -1l2 -2q5 -8 11 -15q5 -8 10 -17l12 -14q5 -8 12 -15q0 -2 1 -3v-3q0 -1 1 -2v-2v76z
M678 128h81v-19h-32v-88h-19v88h-30v19zM825 73q1 -2 3 -4l2 -4q0 -2 1 -4q1 -3 1 -7q0 -6 -3 -13l-4 -6q-2 -3 -4 -5q-4 -2 -6 -4t-6 -3t-7 -2q-4 -1 -7 -1q-4 0 -7 1q-4 1 -9 2q-3 1 -5 3q-3 2 -7 6q-2 1 -3 3q-1 1 -2 3q-2 1 -2 6l1 1l1 1q1 0 1 1h1t2 1h1h5h2q1 0 1 -1
q3 0 5 -1q2 -2 4 -3t3 -2q1 0 3 -1t5 -1q1 0 3 1q1 0 3 1q3 1 6 3l4 4q1 2 2 3t1 3q0 4 -3 6q-2 3 -4 3l-3 3h-3q-3 1 -8 4q-2 0 -4 1q-3 0 -5 2q-4 1 -6 3q-2 1 -4 3q-3 2 -4 4q-2 2 -3 4q-3 6 -3 12q0 9 3 13q1 3 3 5t5 4q2 2 5 3l6 3q2 0 5 1h7h4q2 -1 5 -1l4 -2
q1 -1 4 -2q1 -1 3 -2l4 -4l3 -2l2 -4l-4 -2l-2 -2q-2 -1 -2 -2h-4h-2h-2h-1q-3 0 -3 1l-4 2q-1 0 -1 1h-1h-3h-6h-2q-1 -1 -3 -2q-1 -1 -2 -4q-1 -1 -1 -4t1 -3l2 -2v-3h4q1 -1 2 -1l6 -2q2 -1 3 -2l5 -1q2 -2 5 -2q2 -1 5 -4zM857 39q3 0 3 -3q1 0 1 -1v-3q0 -3 -1 -5
q0 -2 -3 -4q-2 0 -3 -2h-2q-1 -1 -3 -1q-1 0 -2 1h-2l-2 2h-2q-1 1 -1 2l-2 2q-1 2 -1 5v3q0 1 1 1q1 2 2 3h1q3 3 4 3l2 2h2h3l2 -2zM898 99q-4 -4 -8 -12q-1 -2 -2 -5q-1 -4 -1 -7q0 -4 1 -7l2 -6l4 -7q1 -3 4 -5q2 -2 5 -4q2 -2 6 -4q4 -1 7 -2t7 -1q3 0 5 1t5 1q2 1 5 3
q2 1 4 3q2 0 4 1h3h3q2 0 3 -1q3 -1 5 -3l3 -5q-3 -4 -8 -7q-3 -2 -5 -3q-2 -2 -5 -3q-3 -2 -5 -2l-6 -2t-5 -1q-3 -1 -6 -1q-7 0 -12 2l-10 2q-10 5 -17 12q-8 8 -12 17q-1 6 -2 11q-2 5 -2 11q0 3 1 7q0 3 1 7l2 6q1 3 3 6q3 4 5 7q1 2 4 5l6 4q2 2 6 4q2 2 5 3t8 3
q2 0 6 1h8h6q2 0 5 -1l6 -2q2 -1 5 -2t5 -2q2 -2 5 -4q5 -4 8 -8l-3 -4l-2 -2q-1 -1 -3 -2h-3h-3h-3q-2 0 -4 1l-4 4q-3 1 -5 2q-3 1 -5 1h-5q-8 0 -14 -3q-4 -1 -6 -3zM1072 101q1 -3 3 -6l2 -6q1 -4 1 -7v-7v-8q0 -4 -1 -7l-2 -6q-2 -4 -3 -7q-4 -5 -8 -11q-4 -2 -7 -4
q-3 -3 -5 -4q-3 -3 -6 -4l-8 -2q-3 -1 -6 -1q-4 -1 -8 -1q-10 0 -21 4l-8 6q-5 3 -8 6q-4 4 -7 8t-5 9q-2 6 -3 11t-1 11q0 3 1 7v7q1 3 3 6t3 6q2 4 4 7l5 5q2 2 5 4l6 4q2 2 6 3q3 1 6 3q4 0 8 1h6h8q3 -1 6 -1q4 -2 8 -3q3 -1 6 -3q2 -2 5 -4t7 -4q1 -3 4 -5zM1057 62
q2 5 2 13v7q-1 3 -2 5q-2 5 -3 8l-4 4q-5 5 -12 7q-3 2 -6 3h-8q-7 0 -13 -3q-3 -1 -5 -3l-6 -4l-4 -4q-2 -3 -4 -8q-1 -2 -1 -5q-1 -4 -1 -7q0 -4 1 -7q0 -3 1 -6q4 -8 8 -12l6 -4q2 -2 5 -4q3 -1 7 -2t6 -1q4 0 8 1l6 2q3 2 7 4q3 2 5 4zM1188 127l1 1h2h19v-107h-19v78
v-2l-2 -3v-3q0 -1 -1 -2q-3 -9 -7 -17q-4 -9 -7 -17l-6 -16q-4 -9 -7 -18h-19l-27 68q-1 1 -1 5q-1 2 -1 3q-1 0 -1 1v-77h-20v107h19h3l1 -1q2 -1 3 -1l1 -1l3 -2l2 -2q1 -1 1 -2q2 -8 6 -15q3 -8 6 -17q3 -8 7 -16l6 -16v-1v-2v-2q2 0 2 -2v2v2q0 1 1 2v1l4 8l22 56
q0 1 1 2v2q1 1 3 2h1q1 1 2 1z" />
    <glyph glyph-name="three" unicode="3" horiz-adv-x="1236" 
d="M1210 533v-286h-1174v286h445q0 15 3 29q2 13 8 26t14 25q7 12 18 21q18 19 44 30q14 6 28 9q13 2 27 2q16 0 30 -3t26 -9q14 -6 26 -14q11 -8 20 -17q18 -18 30 -46q10 -26 10 -53h445zM503 582q-11 -23 -11 -49q0 -28 11 -51q5 -11 12 -22t15 -20q9 -9 20 -16
q10 -7 22 -12q23 -11 51 -11q14 0 27 2q12 2 24 7q12 6 22 13q10 6 19 16q9 9 16 20q7 10 13 21q11 25 11 53q0 11 -2 23q-2 11 -7 21q-6 20 -20 37q-7 8 -15 15t-16 12l-18 10l-20 8q-7 2 -15 3q-9 1 -19 1q-14 0 -27 -2q-13 -3 -25 -9q-24 -9 -42 -28q-8 -9 -14 -20z
M144 337q3 5 3 9v5q-1 2 -3 5q0 1 -2 3l-3 3l-2 4q-2 1 -5 1l-4 2q-3 1 -5 1h-26v-75h8v28h18q2 0 5 1q2 0 4 1q5 2 7 4q1 2 3 4zM200 370h-46v-75h46v9h-35v23h29v10h-29v22h35v11zM273 295l-23 32q1 1 3 1q1 0 2 2q4 2 5 5q1 1 2 3q1 1 2 3v6v5q0 2 -1 4q-2 4 -5 7
q-2 4 -7 4q-1 1 -3 2q-3 1 -5 1h-27v-75h11v31h11l20 -27q1 -2 3 -3q1 -1 2 -1h3h7zM324 308q0 2 1 4v4q0 6 -2 10t-6 7q-1 0 -1 1q-1 1 -3 2v0q-1 0 -3 1h-1q-1 0 -1 2q-3 0 -4 1q-3 0 -4 1l-3 1q-4 1 -4 2q-3 2 -3 3v4v4q1 0 2 1t1 2l2 1h2q2 1 3 1h2h1q1 -1 2 -1
q4 0 4 -2q1 -1 2 -1h2q4 0 7 2l2 1q0 1 -1 2l-2 2q-2 1 -3 2t-3 2q-1 0 -2 1q-1 0 -3 2q-3 0 -3 1h-3h-4q-3 -1 -5 -1l-3 -3q-2 -1 -4 -1q-1 -2 -2 -3q-2 -2 -3 -4t-1 -3q-1 -2 -1 -5v-4q0 -2 2 -4q1 -2 3 -3q1 -2 1 -3l4 -2q2 -2 4 -2l4 -2q1 -1 3 -2q1 -1 3 -1h2
q3 -1 4 -1l1 -1l2 -1q0 -1 1 -3q1 -1 1 -2v-4v-1q0 -2 -1 -3l-1 -2q0 -1 -2 -2q-1 -2 -2 -2q-2 -1 -3 -2h-2h-3h-3h-3l-2 2q-2 0 -2 2l-1 1q-3 2 -6 2h-2q-1 0 -2 -1l-3 -1q0 -2 1 -2q0 -2 2 -3q0 -1 1 -2l1 -1h1q4 -4 9 -5q4 -1 9 -1h5q2 0 4 1t5 2q2 1 3 3q3 1 5 3z
M409 322q1 3 1 5v5q0 6 -1 10q0 3 -1 5q-2 2 -3 5q-2 3 -6 7q-2 2 -4 3t-5 4q-1 0 -3 1t-5 3q-3 0 -5 1h-5h-5q-3 -1 -5 -1q-3 -2 -5 -3t-4 -1q-2 -3 -4 -4t-4 -3l-3 -3q-2 -2 -3 -4q-2 -3 -2 -5q-1 -2 -2 -5q-1 -4 -1 -10q0 -4 1 -7l2 -8q1 -3 3 -6t5 -7l6 -4q3 -2 7 -2
q6 -3 14 -3h5h5q5 2 8 4q7 3 9 5q3 4 6 9q1 2 3 5zM487 370h-10v-58v3l-1 1l-36 51q-2 0 -4 3h-2h-2h-7v-75h10v61l1 -1v-2l43 -58h8v75zM571 295l-33 75h-11l-32 -75h6q3 0 4 1l2 2l2 1l4 13h39l5 -13q1 -2 3 -3q0 -1 4 -1h7zM620 304h-32v66h-11v-75h43v9zM722 370h-10
v-45v-5q0 -2 -1 -4q-1 -4 -5 -6l-2 -2q-2 -1 -3 -3q-3 -1 -4 -1h-4q-5 0 -7 1q-3 2 -5 3t-2 2q-1 1 -2 3l-3 3v4q-1 2 -1 5v45h-10v-45v-5q0 -3 1 -4q0 -4 2 -7q2 -5 6 -7q1 -1 3 -2q1 -1 3 -2q1 -1 3 -1q2 -1 3 -2q3 0 5 -1q1 -1 4 -1q2 0 4 1q1 1 4 1l4 2q1 0 3 1l6 4
q2 2 3 4q0 1 1 3l3 3q1 2 1 4v9v45zM780 308q3 4 3 8q0 6 -2 10t-6 7q-3 2 -3 3h-2q-2 0 -3 1h-1q-2 0 -3 2h-1q-1 0 -2 1q-1 0 -2 1l-3 1q-4 1 -4 2q-2 1 -2 2q-1 1 -2 1v2q-1 0 -1 2t2 4l3 3q1 0 2 1h2q0 1 5 1h1q1 -1 2 -1q1 -1 4 -2q4 -1 5 -1q3 0 4 2l3 1l-2 2l-2 2
q0 1 -1 2q-2 1 -3 2q-2 0 -3 1q-1 0 -3 2q-2 0 -3 1h-2h-5q-2 -1 -4 -1q-2 -2 -4 -3t-3 -1l-3 -3q-1 -2 -3 -4q0 -2 -1 -3q-1 -2 -1 -5t1 -4q1 -2 1 -4q2 -4 5 -6l4 -2q1 -2 2 -2q3 -1 5 -2q1 -1 3 -2t3 -1h2q1 -1 3 -1q1 0 2 -1t3 -1q1 -1 1 -3q1 -1 1 -2v-4v-1q0 -2 -1 -3
q-1 -3 -4 -4q-2 -2 -3 -2l-2 -2h-2h-3h-3h-3q-2 1 -5 4v1q-3 2 -6 2h-1q-2 0 -3 -1l-3 -1l1 -1q0 -1 1 -1q0 -1 1 -1v-2h1v-2q2 -1 3 -1q3 -4 8 -5q4 -1 9 -1h5q2 0 5 1l4 2q2 1 4 3l3 3zM841 370h-46v-75h46v9h-36v23h30v10h-30v22h36v11zM960 322v5v5v6v4q-2 5 -5 10
q-2 3 -6 7q-1 2 -3 3t-4 4q-2 0 -4 1q-3 1 -5 3q-3 0 -5 1h-5h-5q-3 -1 -5 -1q-6 -3 -10 -4q-2 -3 -3 -4q-2 -1 -4 -3l-3 -3l-4 -4q-1 -3 -2 -5t-1 -5q-2 -4 -2 -10q0 -4 1 -7l2 -8q3 -7 9 -13q2 -2 5 -4t7 -2q6 -3 15 -3h5h5q2 1 5 2l4 2q2 2 4 3t3 2q4 4 6 9zM1038 370
h-11v-58v3q-1 1 -2 1l-36 51v1q-1 0 -2 2h-2h-3h-8v-75h12v59l1 -1l42 -58h9v75zM1099 304h-32v66h-11v-75h43v9zM1159 370h-9q-2 0 -4 -2q-4 -2 -4 -4l-17 -23l-1 -1h-1l-1 1l-18 23q-1 2 -3 4t-5 2h-8l27 -37l1 -1q0 -1 1 -1v-1v-1q0 -1 1 -1v-1v-32h11v32v1v2q1 0 1 2v1
h1zM942 352l4 -4q2 -3 3 -5q0 -3 1 -5v-6q0 -6 -1 -11q-1 -3 -3 -5t-4 -3q-2 -2 -4 -3l-4 -4q-6 -2 -11 -2q-3 0 -6 1q-3 0 -5 1q-3 2 -5 4q-2 1 -4 3q-2 1 -3 3q-2 2 -2 5q-2 3 -2 6q-1 2 -1 5q0 5 3 11q0 2 2 5q1 2 3 4l4 4q2 1 5 2q4 2 11 2h5l6 -2l4 -2zM253 343
q0 -1 -2 -4q-1 0 -1 -1q-1 -1 -3 -1q-1 -1 -4 -1h-16v23h16q2 0 4 -1h3l1 -2l2 -4q1 -1 1 -5zM391 352l4 -4q2 -3 3 -5q1 -3 2 -5v-6v-5l-2 -6t-3 -5t-4 -3q-1 -2 -3 -3q-2 -2 -5 -4q-2 -1 -5 -1q-3 -1 -6 -1q-6 0 -11 2l-4 4q-3 1 -5 3l-3 3q-2 2 -3 5l-2 6q-1 2 -1 5
q0 5 3 11q1 2 3 5q2 2 3 4q2 2 5 4l4 2l6 2h5q6 0 11 -2q3 -1 5 -2zM532 358q0 -2 1 -3v-2l14 -31h-29l14 31v2v3zM132 356l2 -2q0 -2 1 -3q1 -2 1 -5v-2q0 -2 -1 -3t-1 -2q-1 -2 -2 -2l-4 -4h-5h-18v26h18q3 0 5 -1q1 0 3 -1zM580 422q-9 4 -18 10q-10 5 -17 12h157
q-8 -7 -17 -12q-9 -6 -19 -10q-10 -3 -21 -6t-22 -3q-12 0 -22 3zM557 457l154 155q14 -19 22 -39t8 -40q0 -11 -1 -21q-2 -11 -6 -21q-4 -9 -9 -17q-5 -9 -11 -17h-157zM534 453q-13 17 -22 36q-3 10 -5 21t-2 23q0 10 2 20t5 20q3 9 8 18q5 8 12 16h156zM666 642
q10 -4 19 -10t16 -11h-158q18 14 37 21q19 9 43 9zM38 171q-2 2 -2 4l-2 4q-1 3 -1 5q-1 2 -1 5t2 8q1 2 2 5q0 2 2 3l2 5q0 1 3 3q0 1 3 3q2 1 3 2q3 2 5 3l4 1q1 0 4 1h5h7q3 -1 7 -3q4 -1 7 -3l4 -4q-1 -1 -2 -1v-2h-1h-1h-2h-3q-2 1 -4 3q-2 1 -4 1h-3h-5h-5h-4l-6 -3
q-2 -2 -4 -3q-2 -3 -3 -5q-2 -2 -3 -4q-2 -3 -2 -6v-4q0 -4 1 -7l2 -4v-4q1 -1 3 -2q1 -1 2 -3q2 -1 3 -2q1 -2 3 -2q1 -1 3 -2t4 -1q1 -1 3 -1h3h5q2 0 4 1q2 0 5 1l4 2v14h-6h-1l-1 1l-1 2l-2 1v1q-1 0 -1 1v1v1h19v-26l-2 -2l-3 -3q-3 -1 -6 -1q-3 -1 -7 -1h-7h-5h-4
q-3 1 -4 2l-5 3q-1 0 -3 2q-3 1 -3 3q-3 1 -3 3zM117 214v-22h27v-7h-27v-23h33v-8h-41v68h41v-8h-33zM180 154v60h-22v8h52v-8h-23v-60h-7zM260 214v-24h29v-6h-29v-30h-8v68h41v-8h-33zM313 222v-42q0 -2 1 -3q1 -2 2 -3q1 -3 3 -4l2 -4q0 -1 2 -2l2 -2q3 -1 5 -1h4h4
q1 0 2 1q3 1 5 2q1 1 3 2q0 2 2 4q1 1 2 4q2 2 2 6v42h7v-42v-5q-1 -2 -2 -5t-2 -5l-4 -4t-4 -3q-2 -2 -4 -3q-6 -1 -11 -1q-6 0 -12 1l-3 3q-3 1 -5 3q-3 3 -5 9q-1 3 -2 5t-1 5v42h7zM383 222v-60h30v-8h-38v68h8zM428 222v-60h32v-8h-39v68h7zM522 154l-30 68h4q2 0 4 -1
q1 -1 2 -1l1 -2l21 -51v-2q1 -1 1 -3v3l1 1v1q3 7 6 13l6 12q2 8 5 14l6 12q0 2 1 2t1 1q1 1 2 1h2h4q-4 -8 -7 -16q-4 -9 -9 -17q-3 -10 -6 -18q-4 -8 -8 -17h-7zM572 214v-22h28v-7h-28v-23h33v-8h-41v68h41v-8h-33zM655 186q-1 -1 -5 -2l23 -30h-5q-1 0 -2 1h-2l-2 2
q-1 0 -2 2l-19 25h-12v-30h-7v68h25h3q1 0 3 -1q4 -1 7 -4q1 -2 2 -3l2 -4q1 -1 1 -3v-3v-4q0 -2 -1 -3q0 -2 -1 -4t-2 -3l-2 -2zM647 190q2 0 3 2q1 0 2 1h2l2 3q0 1 1 2q0 1 1 2v4v1q-1 1 -1 3l-1 2q-1 0 -2 2q-1 0 -2 1q-1 0 -2 1h-3h-18v-24h18zM709 164q1 1 2 4
q1 1 2 3v3q0 3 -1 5q-1 0 -1 2l-2 2t-4 2q-2 0 -3 1l-3 1q-2 0 -4 1t-2 2q-5 0 -7 3q-2 0 -2 2q-1 2 -2 3v7v5q0 1 1 3q0 3 4 5l3 3q1 0 4 1q2 0 3 1h4h3q1 -1 2 -1h2l3 -2q1 0 2 -1t1 -2q2 -1 3 -2q0 -1 1 -1l-2 -1q-1 -1 -4 -1h-3q-2 1 -2 2h-1h-1h-1h-1h-1h-1h-4
q-4 0 -4 -1q-3 -3 -3 -4q-2 0 -2 -4q0 -3 2 -3q0 -2 1 -3t3 -1l1 -1q2 -2 3 -2t4 -2h2q1 0 1 -1h2q1 0 2 -2h1h1v0h2l1 -1l3 -3q1 -2 3 -3q1 -5 1 -9v-5q0 -2 -3 -4q0 -3 -4 -6q-1 -1 -3 -2l-4 -2q-2 -1 -4 -1h-5q-5 0 -8 1q-4 1 -7 4q-1 0 -2 1l-2 2v2l-1 1l1 1l1 1h2h1h2
l2 -2q2 -1 3 -2t3 -1q0 -1 2 -1h3q4 0 5 1zM744 222v-68h-8v68h8zM771 164q-6 4 -9 10q-2 7 -2 15v4v4q3 5 4 8q3 4 7 8q3 3 6 5q2 2 5 3q2 0 4 1q2 0 4 1h5h5q2 -1 5 -1q2 -1 4 -1q2 -1 4 -3l3 -2q1 -2 3 -3l3 -3l3 -5q1 -3 3 -8l2 -4v-4q0 -4 -1 -7q-1 -4 -3 -8
q-1 -3 -2 -5q-2 -3 -5 -5q-3 -3 -5 -4l-6 -4q-5 -2 -13 -2q-4 0 -7 1q-4 0 -6 1zM771 199q-2 -3 -3 -6t-1 -4q0 -2 1 -4v-3q1 -4 4 -8q0 -1 1 -2t2 -3l3 -2q1 -2 4 -2q1 -1 3 -2q1 -1 2 -1q2 -1 4 -1h4h4q2 0 3 1q1 0 3 1l4 2q1 0 3 2l2 2q1 2 2 3l2 2l2 4l1 4q0 1 1 3v4v4
q-1 3 -3 6q0 2 -2 4t-3 5q-2 1 -4 3q-2 1 -5 3h-4h-6h-6h-5q-2 -2 -4 -3q-3 -2 -5 -3q-1 -3 -2 -5zM850 154h-8v68h6h3q1 0 2 -2l35 -50q1 0 1 -2l1 -1v55h8v-68h-7l-40 56v2h-1v-58zM955 214v-24h28v-6h-28v-30h-7v68h41v-8h-34zM1032 186q-4 -1 -6 -2l22 -30h-6q-2 0 -4 1
v2q-1 0 -2 2l-19 25h-12v-30h-8v68h25h3q2 0 4 -1l4 -2l2 -2q1 -2 2 -3q1 -2 3 -4q0 -1 1 -3v-3v-4q-1 -2 -1 -3l-2 -4q-1 -2 -1 -3zM1026 192q1 0 2 1h1q3 4 3 5q1 2 1 6q0 1 -1 4q0 1 -3 4q-1 0 -1 1l-2 1h-4h-17v-24h17zM1114 164q-2 -3 -5 -4l-6 -4q-3 -1 -6 -1
q-3 -1 -7 -1t-7 1q-4 0 -7 1q-6 2 -11 8q-2 2 -4 5q-2 2 -3 5l-2 8q-2 3 -2 7q0 1 1 4q0 2 1 4t2 5q0 2 1 3q2 3 4 5q1 1 2 3q2 1 4 3l4 2q2 2 4 3q2 0 4 1q3 0 5 1h4h5q2 -1 4 -1l5 -1l3 -3l4 -2l3 -3q1 -2 3 -3q1 -2 2 -5q3 -3 4 -8l2 -4v-4v-7q-1 -4 -3 -8q-1 -3 -3 -5z
M1090 161h4q2 0 4 1q1 0 3 1l2 2q1 0 3 2l4 2l2 3q0 1 1 2l2 4v4q1 1 1 3v4v4q-1 3 -1 6l-2 4q-2 2 -3 5q-3 1 -5 3q-3 1 -5 3h-5h-5h-5h-6q-3 -2 -4 -3q-2 -2 -4 -3q-3 -3 -4 -5l-2 -4q-1 -3 -1 -6v-4v-7q0 -3 1 -4q0 -2 2 -4q0 -1 2 -2q1 -1 2 -3l3 -2q1 -2 2 -2
q1 -1 3 -2q1 -1 4 -1q1 -1 3 -1h4zM1201 221q1 1 2 1h1h6v-68h-7v56l-1 -1v-1q-2 -4 -3 -8q-1 -5 -3 -8t-3 -6l-4 -7q-1 -4 -2 -7l-2 -6q-2 -3 -3 -5q-2 -3 -3 -7h-7q-5 6 -7 13q-3 7 -6 13q-2 7 -5 14q-4 7 -6 14v1l-2 1v-56h-8v68h7q3 0 4 -1l1 -1v-2l24 -53q0 -1 1 -1v-2
q0 1 1 2v2q0 2 2 4l21 48q0 2 1 2zM36 128h77v-10v-2v-2q0 -2 -1 -3l-2 -2l-52 -71h1v1h2h1h51v-18h-81v6q0 5 1 6q0 1 2 4q1 1 1 2t1 2l2 2l1 3l46 63h-50v19zM127 128h68v-19h-49v-24h39v-20h-39v-26h49v-18h-68v107zM279 109h-29v-88h-21v88h-31v19h81v-19zM328 128
l46 -107h-12q-4 0 -8 2q-2 1 -2 3q-1 2 -3 4l-6 14h-49l-5 -14l-1 -2q-1 -1 -2 -1v-2q-1 -1 -3 -2h-2q-1 -1 -2 -1q0 -1 -1 -1h-2h-12l46 107h18zM334 63l-13 33v2q-1 0 -1 1q0 2 -1 3v-3q0 -1 -1 -1q-1 -1 -1 -2l-13 -33h30zM378 128h68v-19h-49v-27h40v-19h-40v-42h-19
v107zM553 101q2 -3 3 -6t3 -6q1 -4 1 -7v-7v-8q0 -4 -1 -7q-2 -3 -3 -6q-1 -4 -3 -7q-2 -2 -4 -5l-4 -6q-4 -2 -6 -4q-2 -3 -5 -4q-3 -3 -6 -4q-4 -1 -7 -2q-4 -1 -7 -1q-4 -1 -8 -1q-5 0 -10 2q-6 1 -11 2q-6 3 -9 6q-4 3 -9 6q-7 8 -10 17q-3 6 -4 11t-1 11q0 3 1 7
q0 3 1 7q2 8 6 12q2 4 4 7q1 2 3 5q4 2 7 4q2 2 5 4t6 3t7 3q3 0 7 1h7h8q3 -1 7 -1q3 -2 7 -3q3 -1 6 -3t5 -4t6 -4q2 -3 4 -5zM539 62l2 6v7q0 6 -2 12q-2 5 -4 8q-2 2 -5 4l-4 4q-3 2 -6 3q-6 3 -14 3t-14 -3q-2 -1 -4 -3l-6 -4t-4 -4q-2 -3 -4 -8q-2 -2 -2 -5v-7v-7
q0 -3 2 -6l4 -7q1 -3 4 -5l6 -4l4 -4q4 -1 7 -2t7 -1t7 1t7 2l6 4l4 4q3 2 5 5zM649 128h19v-107h-18l-50 72q-1 0 -1 1l-1 1q-1 2 -1 3q-2 0 -2 2v1l-2 1v-81h-19v107h17h4q2 -1 2 -2l3 -1l2 -2q5 -8 11 -15q5 -8 10 -17l12 -14q5 -8 12 -15q0 -2 1 -3v-3q0 -1 1 -2v-2v76z
M678 128h81v-19h-32v-88h-19v88h-30v19zM825 73q1 -2 3 -4l2 -4q0 -2 1 -4q1 -3 1 -7q0 -6 -3 -13l-4 -6q-2 -3 -4 -5q-4 -2 -6 -4t-6 -3t-7 -2q-4 -1 -7 -1q-4 0 -7 1q-4 1 -9 2q-3 1 -5 3q-3 2 -7 6q-2 1 -3 3q-1 1 -2 3q-2 1 -2 6l1 1l1 1q1 0 1 1h1t2 1h1h5h2q1 0 1 -1
q3 0 5 -1q2 -2 4 -3t3 -2q1 0 3 -1t5 -1q1 0 3 1q1 0 3 1q3 1 6 3l4 4q1 2 2 3t1 3q0 4 -3 6q-2 3 -4 3l-3 3h-3q-3 1 -8 4q-2 0 -4 1q-3 0 -5 2q-4 1 -6 3q-2 1 -4 3q-3 2 -4 4q-2 2 -3 4q-3 6 -3 12q0 9 3 13q1 3 3 5t5 4q2 2 5 3l6 3q2 0 5 1h7h4q2 -1 5 -1l4 -2
q1 -1 4 -2q1 -1 3 -2l4 -4l3 -2l2 -4l-4 -2l-2 -2q-2 -1 -2 -2h-4h-2h-2h-1q-3 0 -3 1l-4 2q-1 0 -1 1h-1h-3h-6h-2q-1 -1 -3 -2q-1 -1 -2 -4q-1 -1 -1 -4t1 -3l2 -2v-3h4q1 -1 2 -1l6 -2q2 -1 3 -2l5 -1q2 -2 5 -2q2 -1 5 -4zM857 39q3 0 3 -3q1 0 1 -1v-3q0 -3 -1 -5
q0 -2 -3 -4q-2 0 -3 -2h-2q-1 -1 -3 -1q-1 0 -2 1h-2l-2 2h-2q-1 1 -1 2l-2 2q-1 2 -1 5v3q0 1 1 1q1 2 2 3h1q3 3 4 3l2 2h2h3l2 -2zM898 99q-4 -4 -8 -12q-1 -2 -2 -5q-1 -4 -1 -7q0 -4 1 -7l2 -6l4 -7q1 -3 4 -5q2 -2 5 -4q2 -2 6 -4q4 -1 7 -2t7 -1q3 0 5 1t5 1q2 1 5 3
q2 1 4 3q2 0 4 1h3h3q2 0 3 -1q3 -1 5 -3l3 -5q-3 -4 -8 -7q-3 -2 -5 -3q-2 -2 -5 -3q-3 -2 -5 -2l-6 -2t-5 -1q-3 -1 -6 -1q-7 0 -12 2l-10 2q-10 5 -17 12q-8 8 -12 17q-1 6 -2 11q-2 5 -2 11q0 3 1 7q0 3 1 7l2 6q1 3 3 6q3 4 5 7q1 2 4 5l6 4q2 2 6 4q2 2 5 3t8 3
q2 0 6 1h8h6q2 0 5 -1l6 -2q2 -1 5 -2t5 -2q2 -2 5 -4q5 -4 8 -8l-3 -4l-2 -2q-1 -1 -3 -2h-3h-3h-3q-2 0 -4 1l-4 4q-3 1 -5 2q-3 1 -5 1h-5q-8 0 -14 -3q-4 -1 -6 -3zM1072 101q1 -3 3 -6l2 -6q1 -4 1 -7v-7v-8q0 -4 -1 -7l-2 -6q-2 -4 -3 -7q-4 -5 -8 -11q-4 -2 -7 -4
q-3 -3 -5 -4q-3 -3 -6 -4l-8 -2q-3 -1 -6 -1q-4 -1 -8 -1q-10 0 -21 4l-8 6q-5 3 -8 6q-4 4 -7 8t-5 9q-2 6 -3 11t-1 11q0 3 1 7v7q1 3 3 6t3 6q2 4 4 7l5 5q2 2 5 4l6 4q2 2 6 3q3 1 6 3q4 0 8 1h6h8q3 -1 6 -1q4 -2 8 -3q3 -1 6 -3q2 -2 5 -4t7 -4q1 -3 4 -5zM1057 62
q2 5 2 13v7q-1 3 -2 5q-2 5 -3 8l-4 4q-5 5 -12 7q-3 2 -6 3h-8q-7 0 -13 -3q-3 -1 -5 -3l-6 -4l-4 -4q-2 -3 -4 -8q-1 -2 -1 -5q-1 -4 -1 -7q0 -4 1 -7q0 -3 1 -6q4 -8 8 -12l6 -4q2 -2 5 -4q3 -1 7 -2t6 -1q4 0 8 1l6 2q3 2 7 4q3 2 5 4zM1188 127l1 1h2h19v-107h-19v78
v-2l-2 -3v-3q0 -1 -1 -2q-3 -9 -7 -17q-4 -9 -7 -17l-6 -16q-4 -9 -7 -18h-19l-27 68q-1 1 -1 5q-1 2 -1 3q-1 0 -1 1v-77h-20v107h19h3l1 -1q2 -1 3 -1l1 -1l3 -2l2 -2q1 -1 1 -2q2 -8 6 -15q3 -8 6 -17q3 -8 7 -16l6 -16v-1v-2v-2q2 0 2 -2v2v2q0 1 1 2v1l4 8l22 56
q0 1 1 2v2q1 1 3 2h1q1 1 2 1z" />
    <glyph glyph-name="four" unicode="4" horiz-adv-x="1236" 
d="M1210 533v-286h-1174v286h445q0 15 3 29q2 13 8 26t14 25q7 12 18 21q18 19 44 30q14 6 28 9q13 2 27 2q16 0 30 -3t26 -9q14 -6 26 -14q11 -8 20 -17q18 -18 30 -46q10 -26 10 -53h445zM503 582q-11 -23 -11 -49q0 -28 11 -51q5 -11 12 -22t15 -20q9 -9 20 -16
q10 -7 22 -12q23 -11 51 -11q14 0 27 2q12 2 24 7q12 6 22 13q10 6 19 16q9 9 16 20q7 10 13 21q11 25 11 53q0 11 -2 23q-2 11 -7 21q-6 20 -20 37q-7 8 -15 15t-16 12l-18 10l-20 8q-7 2 -15 3q-9 1 -19 1q-14 0 -27 -2q-13 -3 -25 -9q-24 -9 -42 -28q-8 -9 -14 -20z
M144 337q3 5 3 9v5q-1 2 -3 5q0 1 -2 3l-3 3l-2 4q-2 1 -5 1l-4 2q-3 1 -5 1h-26v-75h8v28h18q2 0 5 1q2 0 4 1q5 2 7 4q1 2 3 4zM200 370h-46v-75h46v9h-35v23h29v10h-29v22h35v11zM273 295l-23 32q1 1 3 1q1 0 2 2q4 2 5 5q1 1 2 3q1 1 2 3v6v5q0 2 -1 4q-2 4 -5 7
q-2 4 -7 4q-1 1 -3 2q-3 1 -5 1h-27v-75h11v31h11l20 -27q1 -2 3 -3q1 -1 2 -1h3h7zM324 308q0 2 1 4v4q0 6 -2 10t-6 7q-1 0 -1 1q-1 1 -3 2v0q-1 0 -3 1h-1q-1 0 -1 2q-3 0 -4 1q-3 0 -4 1l-3 1q-4 1 -4 2q-3 2 -3 3v4v4q1 0 2 1t1 2l2 1h2q2 1 3 1h2h1q1 -1 2 -1
q4 0 4 -2q1 -1 2 -1h2q4 0 7 2l2 1q0 1 -1 2l-2 2q-2 1 -3 2t-3 2q-1 0 -2 1q-1 0 -3 2q-3 0 -3 1h-3h-4q-3 -1 -5 -1l-3 -3q-2 -1 -4 -1q-1 -2 -2 -3q-2 -2 -3 -4t-1 -3q-1 -2 -1 -5v-4q0 -2 2 -4q1 -2 3 -3q1 -2 1 -3l4 -2q2 -2 4 -2l4 -2q1 -1 3 -2q1 -1 3 -1h2
q3 -1 4 -1l1 -1l2 -1q0 -1 1 -3q1 -1 1 -2v-4v-1q0 -2 -1 -3l-1 -2q0 -1 -2 -2q-1 -2 -2 -2q-2 -1 -3 -2h-2h-3h-3h-3l-2 2q-2 0 -2 2l-1 1q-3 2 -6 2h-2q-1 0 -2 -1l-3 -1q0 -2 1 -2q0 -2 2 -3q0 -1 1 -2l1 -1h1q4 -4 9 -5q4 -1 9 -1h5q2 0 4 1t5 2q2 1 3 3q3 1 5 3z
M409 322q1 3 1 5v5q0 6 -1 10q0 3 -1 5q-2 2 -3 5q-2 3 -6 7q-2 2 -4 3t-5 4q-1 0 -3 1t-5 3q-3 0 -5 1h-5h-5q-3 -1 -5 -1q-3 -2 -5 -3t-4 -1q-2 -3 -4 -4t-4 -3l-3 -3q-2 -2 -3 -4q-2 -3 -2 -5q-1 -2 -2 -5q-1 -4 -1 -10q0 -4 1 -7l2 -8q1 -3 3 -6t5 -7l6 -4q3 -2 7 -2
q6 -3 14 -3h5h5q5 2 8 4q7 3 9 5q3 4 6 9q1 2 3 5zM487 370h-10v-58v3l-1 1l-36 51q-2 0 -4 3h-2h-2h-7v-75h10v61l1 -1v-2l43 -58h8v75zM571 295l-33 75h-11l-32 -75h6q3 0 4 1l2 2l2 1l4 13h39l5 -13q1 -2 3 -3q0 -1 4 -1h7zM620 304h-32v66h-11v-75h43v9zM722 370h-10
v-45v-5q0 -2 -1 -4q-1 -4 -5 -6l-2 -2q-2 -1 -3 -3q-3 -1 -4 -1h-4q-5 0 -7 1q-3 2 -5 3t-2 2q-1 1 -2 3l-3 3v4q-1 2 -1 5v45h-10v-45v-5q0 -3 1 -4q0 -4 2 -7q2 -5 6 -7q1 -1 3 -2q1 -1 3 -2q1 -1 3 -1q2 -1 3 -2q3 0 5 -1q1 -1 4 -1q2 0 4 1q1 1 4 1l4 2q1 0 3 1l6 4
q2 2 3 4q0 1 1 3l3 3q1 2 1 4v9v45zM780 308q3 4 3 8q0 6 -2 10t-6 7q-3 2 -3 3h-2q-2 0 -3 1h-1q-2 0 -3 2h-1q-1 0 -2 1q-1 0 -2 1l-3 1q-4 1 -4 2q-2 1 -2 2q-1 1 -2 1v2q-1 0 -1 2t2 4l3 3q1 0 2 1h2q0 1 5 1h1q1 -1 2 -1q1 -1 4 -2q4 -1 5 -1q3 0 4 2l3 1l-2 2l-2 2
q0 1 -1 2q-2 1 -3 2q-2 0 -3 1q-1 0 -3 2q-2 0 -3 1h-2h-5q-2 -1 -4 -1q-2 -2 -4 -3t-3 -1l-3 -3q-1 -2 -3 -4q0 -2 -1 -3q-1 -2 -1 -5t1 -4q1 -2 1 -4q2 -4 5 -6l4 -2q1 -2 2 -2q3 -1 5 -2q1 -1 3 -2t3 -1h2q1 -1 3 -1q1 0 2 -1t3 -1q1 -1 1 -3q1 -1 1 -2v-4v-1q0 -2 -1 -3
q-1 -3 -4 -4q-2 -2 -3 -2l-2 -2h-2h-3h-3h-3q-2 1 -5 4v1q-3 2 -6 2h-1q-2 0 -3 -1l-3 -1l1 -1q0 -1 1 -1q0 -1 1 -1v-2h1v-2q2 -1 3 -1q3 -4 8 -5q4 -1 9 -1h5q2 0 5 1l4 2q2 1 4 3l3 3zM841 370h-46v-75h46v9h-36v23h30v10h-30v22h36v11zM960 322v5v5v6v4q-2 5 -5 10
q-2 3 -6 7q-1 2 -3 3t-4 4q-2 0 -4 1q-3 1 -5 3q-3 0 -5 1h-5h-5q-3 -1 -5 -1q-6 -3 -10 -4q-2 -3 -3 -4q-2 -1 -4 -3l-3 -3l-4 -4q-1 -3 -2 -5t-1 -5q-2 -4 -2 -10q0 -4 1 -7l2 -8q3 -7 9 -13q2 -2 5 -4t7 -2q6 -3 15 -3h5h5q2 1 5 2l4 2q2 2 4 3t3 2q4 4 6 9zM1038 370
h-11v-58v3q-1 1 -2 1l-36 51v1q-1 0 -2 2h-2h-3h-8v-75h12v59l1 -1l42 -58h9v75zM1099 304h-32v66h-11v-75h43v9zM1159 370h-9q-2 0 -4 -2q-4 -2 -4 -4l-17 -23l-1 -1h-1l-1 1l-18 23q-1 2 -3 4t-5 2h-8l27 -37l1 -1q0 -1 1 -1v-1v-1q0 -1 1 -1v-1v-32h11v32v1v2q1 0 1 2v1
h1zM942 352l4 -4q2 -3 3 -5q0 -3 1 -5v-6q0 -6 -1 -11q-1 -3 -3 -5t-4 -3q-2 -2 -4 -3l-4 -4q-6 -2 -11 -2q-3 0 -6 1q-3 0 -5 1q-3 2 -5 4q-2 1 -4 3q-2 1 -3 3q-2 2 -2 5q-2 3 -2 6q-1 2 -1 5q0 5 3 11q0 2 2 5q1 2 3 4l4 4q2 1 5 2q4 2 11 2h5l6 -2l4 -2zM253 343
q0 -1 -2 -4q-1 0 -1 -1q-1 -1 -3 -1q-1 -1 -4 -1h-16v23h16q2 0 4 -1h3l1 -2l2 -4q1 -1 1 -5zM391 352l4 -4q2 -3 3 -5q1 -3 2 -5v-6v-5l-2 -6t-3 -5t-4 -3q-1 -2 -3 -3q-2 -2 -5 -4q-2 -1 -5 -1q-3 -1 -6 -1q-6 0 -11 2l-4 4q-3 1 -5 3l-3 3q-2 2 -3 5l-2 6q-1 2 -1 5
q0 5 3 11q1 2 3 5q2 2 3 4q2 2 5 4l4 2l6 2h5q6 0 11 -2q3 -1 5 -2zM532 358q0 -2 1 -3v-2l14 -31h-29l14 31v2v3zM132 356l2 -2q0 -2 1 -3q1 -2 1 -5v-2q0 -2 -1 -3t-1 -2q-1 -2 -2 -2l-4 -4h-5h-18v26h18q3 0 5 -1q1 0 3 -1zM580 422q-9 4 -18 10q-10 5 -17 12h157
q-8 -7 -17 -12q-9 -6 -19 -10q-10 -3 -21 -6t-22 -3q-12 0 -22 3zM557 457l154 155q14 -19 22 -39t8 -40q0 -11 -1 -21q-2 -11 -6 -21q-4 -9 -9 -17q-5 -9 -11 -17h-157zM534 453q-13 17 -22 36q-3 10 -5 21t-2 23q0 10 2 20t5 20q3 9 8 18q5 8 12 16h156zM666 642
q10 -4 19 -10t16 -11h-158q18 14 37 21q19 9 43 9zM38 171q-2 2 -2 4l-2 4q-1 3 -1 5q-1 2 -1 5t2 8q1 2 2 5q0 2 2 3l2 5q0 1 3 3q0 1 3 3q2 1 3 2q3 2 5 3l4 1q1 0 4 1h5h7q3 -1 7 -3q4 -1 7 -3l4 -4q-1 -1 -2 -1v-2h-1h-1h-2h-3q-2 1 -4 3q-2 1 -4 1h-3h-5h-5h-4l-6 -3
q-2 -2 -4 -3q-2 -3 -3 -5q-2 -2 -3 -4q-2 -3 -2 -6v-4q0 -4 1 -7l2 -4v-4q1 -1 3 -2q1 -1 2 -3q2 -1 3 -2q1 -2 3 -2q1 -1 3 -2t4 -1q1 -1 3 -1h3h5q2 0 4 1q2 0 5 1l4 2v14h-6h-1l-1 1l-1 2l-2 1v1q-1 0 -1 1v1v1h19v-26l-2 -2l-3 -3q-3 -1 -6 -1q-3 -1 -7 -1h-7h-5h-4
q-3 1 -4 2l-5 3q-1 0 -3 2q-3 1 -3 3q-3 1 -3 3zM117 214v-22h27v-7h-27v-23h33v-8h-41v68h41v-8h-33zM180 154v60h-22v8h52v-8h-23v-60h-7zM260 214v-24h29v-6h-29v-30h-8v68h41v-8h-33zM313 222v-42q0 -2 1 -3q1 -2 2 -3q1 -3 3 -4l2 -4q0 -1 2 -2l2 -2q3 -1 5 -1h4h4
q1 0 2 1q3 1 5 2q1 1 3 2q0 2 2 4q1 1 2 4q2 2 2 6v42h7v-42v-5q-1 -2 -2 -5t-2 -5l-4 -4t-4 -3q-2 -2 -4 -3q-6 -1 -11 -1q-6 0 -12 1l-3 3q-3 1 -5 3q-3 3 -5 9q-1 3 -2 5t-1 5v42h7zM383 222v-60h30v-8h-38v68h8zM428 222v-60h32v-8h-39v68h7zM522 154l-30 68h4q2 0 4 -1
q1 -1 2 -1l1 -2l21 -51v-2q1 -1 1 -3v3l1 1v1q3 7 6 13l6 12q2 8 5 14l6 12q0 2 1 2t1 1q1 1 2 1h2h4q-4 -8 -7 -16q-4 -9 -9 -17q-3 -10 -6 -18q-4 -8 -8 -17h-7zM572 214v-22h28v-7h-28v-23h33v-8h-41v68h41v-8h-33zM655 186q-1 -1 -5 -2l23 -30h-5q-1 0 -2 1h-2l-2 2
q-1 0 -2 2l-19 25h-12v-30h-7v68h25h3q1 0 3 -1q4 -1 7 -4q1 -2 2 -3l2 -4q1 -1 1 -3v-3v-4q0 -2 -1 -3q0 -2 -1 -4t-2 -3l-2 -2zM647 190q2 0 3 2q1 0 2 1h2l2 3q0 1 1 2q0 1 1 2v4v1q-1 1 -1 3l-1 2q-1 0 -2 2q-1 0 -2 1q-1 0 -2 1h-3h-18v-24h18zM709 164q1 1 2 4
q1 1 2 3v3q0 3 -1 5q-1 0 -1 2l-2 2t-4 2q-2 0 -3 1l-3 1q-2 0 -4 1t-2 2q-5 0 -7 3q-2 0 -2 2q-1 2 -2 3v7v5q0 1 1 3q0 3 4 5l3 3q1 0 4 1q2 0 3 1h4h3q1 -1 2 -1h2l3 -2q1 0 2 -1t1 -2q2 -1 3 -2q0 -1 1 -1l-2 -1q-1 -1 -4 -1h-3q-2 1 -2 2h-1h-1h-1h-1h-1h-1h-4
q-4 0 -4 -1q-3 -3 -3 -4q-2 0 -2 -4q0 -3 2 -3q0 -2 1 -3t3 -1l1 -1q2 -2 3 -2t4 -2h2q1 0 1 -1h2q1 0 2 -2h1h1v0h2l1 -1l3 -3q1 -2 3 -3q1 -5 1 -9v-5q0 -2 -3 -4q0 -3 -4 -6q-1 -1 -3 -2l-4 -2q-2 -1 -4 -1h-5q-5 0 -8 1q-4 1 -7 4q-1 0 -2 1l-2 2v2l-1 1l1 1l1 1h2h1h2
l2 -2q2 -1 3 -2t3 -1q0 -1 2 -1h3q4 0 5 1zM744 222v-68h-8v68h8zM771 164q-6 4 -9 10q-2 7 -2 15v4v4q3 5 4 8q3 4 7 8q3 3 6 5q2 2 5 3q2 0 4 1q2 0 4 1h5h5q2 -1 5 -1q2 -1 4 -1q2 -1 4 -3l3 -2q1 -2 3 -3l3 -3l3 -5q1 -3 3 -8l2 -4v-4q0 -4 -1 -7q-1 -4 -3 -8
q-1 -3 -2 -5q-2 -3 -5 -5q-3 -3 -5 -4l-6 -4q-5 -2 -13 -2q-4 0 -7 1q-4 0 -6 1zM771 199q-2 -3 -3 -6t-1 -4q0 -2 1 -4v-3q1 -4 4 -8q0 -1 1 -2t2 -3l3 -2q1 -2 4 -2q1 -1 3 -2q1 -1 2 -1q2 -1 4 -1h4h4q2 0 3 1q1 0 3 1l4 2q1 0 3 2l2 2q1 2 2 3l2 2l2 4l1 4q0 1 1 3v4v4
q-1 3 -3 6q0 2 -2 4t-3 5q-2 1 -4 3q-2 1 -5 3h-4h-6h-6h-5q-2 -2 -4 -3q-3 -2 -5 -3q-1 -3 -2 -5zM850 154h-8v68h6h3q1 0 2 -2l35 -50q1 0 1 -2l1 -1v55h8v-68h-7l-40 56v2h-1v-58zM955 214v-24h28v-6h-28v-30h-7v68h41v-8h-34zM1032 186q-4 -1 -6 -2l22 -30h-6q-2 0 -4 1
v2q-1 0 -2 2l-19 25h-12v-30h-8v68h25h3q2 0 4 -1l4 -2l2 -2q1 -2 2 -3q1 -2 3 -4q0 -1 1 -3v-3v-4q-1 -2 -1 -3l-2 -4q-1 -2 -1 -3zM1026 192q1 0 2 1h1q3 4 3 5q1 2 1 6q0 1 -1 4q0 1 -3 4q-1 0 -1 1l-2 1h-4h-17v-24h17zM1114 164q-2 -3 -5 -4l-6 -4q-3 -1 -6 -1
q-3 -1 -7 -1t-7 1q-4 0 -7 1q-6 2 -11 8q-2 2 -4 5q-2 2 -3 5l-2 8q-2 3 -2 7q0 1 1 4q0 2 1 4t2 5q0 2 1 3q2 3 4 5q1 1 2 3q2 1 4 3l4 2q2 2 4 3q2 0 4 1q3 0 5 1h4h5q2 -1 4 -1l5 -1l3 -3l4 -2l3 -3q1 -2 3 -3q1 -2 2 -5q3 -3 4 -8l2 -4v-4v-7q-1 -4 -3 -8q-1 -3 -3 -5z
M1090 161h4q2 0 4 1q1 0 3 1l2 2q1 0 3 2l4 2l2 3q0 1 1 2l2 4v4q1 1 1 3v4v4q-1 3 -1 6l-2 4q-2 2 -3 5q-3 1 -5 3q-3 1 -5 3h-5h-5h-5h-6q-3 -2 -4 -3q-2 -2 -4 -3q-3 -3 -4 -5l-2 -4q-1 -3 -1 -6v-4v-7q0 -3 1 -4q0 -2 2 -4q0 -1 2 -2q1 -1 2 -3l3 -2q1 -2 2 -2
q1 -1 3 -2q1 -1 4 -1q1 -1 3 -1h4zM1201 221q1 1 2 1h1h6v-68h-7v56l-1 -1v-1q-2 -4 -3 -8q-1 -5 -3 -8t-3 -6l-4 -7q-1 -4 -2 -7l-2 -6q-2 -3 -3 -5q-2 -3 -3 -7h-7q-5 6 -7 13q-3 7 -6 13q-2 7 -5 14q-4 7 -6 14v1l-2 1v-56h-8v68h7q3 0 4 -1l1 -1v-2l24 -53q0 -1 1 -1v-2
q0 1 1 2v2q0 2 2 4l21 48q0 2 1 2zM36 128h77v-10v-2v-2q0 -2 -1 -3l-2 -2l-52 -71h1v1h2h1h51v-18h-81v6q0 5 1 6q0 1 2 4q1 1 1 2t1 2l2 2l1 3l46 63h-50v19zM127 128h68v-19h-49v-24h39v-20h-39v-26h49v-18h-68v107zM279 109h-29v-88h-21v88h-31v19h81v-19zM328 128
l46 -107h-12q-4 0 -8 2q-2 1 -2 3q-1 2 -3 4l-6 14h-49l-5 -14l-1 -2q-1 -1 -2 -1v-2q-1 -1 -3 -2h-2q-1 -1 -2 -1q0 -1 -1 -1h-2h-12l46 107h18zM334 63l-13 33v2q-1 0 -1 1q0 2 -1 3v-3q0 -1 -1 -1q-1 -1 -1 -2l-13 -33h30zM378 128h68v-19h-49v-27h40v-19h-40v-42h-19
v107zM553 101q2 -3 3 -6t3 -6q1 -4 1 -7v-7v-8q0 -4 -1 -7q-2 -3 -3 -6q-1 -4 -3 -7q-2 -2 -4 -5l-4 -6q-4 -2 -6 -4q-2 -3 -5 -4q-3 -3 -6 -4q-4 -1 -7 -2q-4 -1 -7 -1q-4 -1 -8 -1q-5 0 -10 2q-6 1 -11 2q-6 3 -9 6q-4 3 -9 6q-7 8 -10 17q-3 6 -4 11t-1 11q0 3 1 7
q0 3 1 7q2 8 6 12q2 4 4 7q1 2 3 5q4 2 7 4q2 2 5 4t6 3t7 3q3 0 7 1h7h8q3 -1 7 -1q3 -2 7 -3q3 -1 6 -3t5 -4t6 -4q2 -3 4 -5zM539 62l2 6v7q0 6 -2 12q-2 5 -4 8q-2 2 -5 4l-4 4q-3 2 -6 3q-6 3 -14 3t-14 -3q-2 -1 -4 -3l-6 -4t-4 -4q-2 -3 -4 -8q-2 -2 -2 -5v-7v-7
q0 -3 2 -6l4 -7q1 -3 4 -5l6 -4l4 -4q4 -1 7 -2t7 -1t7 1t7 2l6 4l4 4q3 2 5 5zM649 128h19v-107h-18l-50 72q-1 0 -1 1l-1 1q-1 2 -1 3q-2 0 -2 2v1l-2 1v-81h-19v107h17h4q2 -1 2 -2l3 -1l2 -2q5 -8 11 -15q5 -8 10 -17l12 -14q5 -8 12 -15q0 -2 1 -3v-3q0 -1 1 -2v-2v76z
M678 128h81v-19h-32v-88h-19v88h-30v19zM825 73q1 -2 3 -4l2 -4q0 -2 1 -4q1 -3 1 -7q0 -6 -3 -13l-4 -6q-2 -3 -4 -5q-4 -2 -6 -4t-6 -3t-7 -2q-4 -1 -7 -1q-4 0 -7 1q-4 1 -9 2q-3 1 -5 3q-3 2 -7 6q-2 1 -3 3q-1 1 -2 3q-2 1 -2 6l1 1l1 1q1 0 1 1h1t2 1h1h5h2q1 0 1 -1
q3 0 5 -1q2 -2 4 -3t3 -2q1 0 3 -1t5 -1q1 0 3 1q1 0 3 1q3 1 6 3l4 4q1 2 2 3t1 3q0 4 -3 6q-2 3 -4 3l-3 3h-3q-3 1 -8 4q-2 0 -4 1q-3 0 -5 2q-4 1 -6 3q-2 1 -4 3q-3 2 -4 4q-2 2 -3 4q-3 6 -3 12q0 9 3 13q1 3 3 5t5 4q2 2 5 3l6 3q2 0 5 1h7h4q2 -1 5 -1l4 -2
q1 -1 4 -2q1 -1 3 -2l4 -4l3 -2l2 -4l-4 -2l-2 -2q-2 -1 -2 -2h-4h-2h-2h-1q-3 0 -3 1l-4 2q-1 0 -1 1h-1h-3h-6h-2q-1 -1 -3 -2q-1 -1 -2 -4q-1 -1 -1 -4t1 -3l2 -2v-3h4q1 -1 2 -1l6 -2q2 -1 3 -2l5 -1q2 -2 5 -2q2 -1 5 -4zM857 39q3 0 3 -3q1 0 1 -1v-3q0 -3 -1 -5
q0 -2 -3 -4q-2 0 -3 -2h-2q-1 -1 -3 -1q-1 0 -2 1h-2l-2 2h-2q-1 1 -1 2l-2 2q-1 2 -1 5v3q0 1 1 1q1 2 2 3h1q3 3 4 3l2 2h2h3l2 -2zM898 99q-4 -4 -8 -12q-1 -2 -2 -5q-1 -4 -1 -7q0 -4 1 -7l2 -6l4 -7q1 -3 4 -5q2 -2 5 -4q2 -2 6 -4q4 -1 7 -2t7 -1q3 0 5 1t5 1q2 1 5 3
q2 1 4 3q2 0 4 1h3h3q2 0 3 -1q3 -1 5 -3l3 -5q-3 -4 -8 -7q-3 -2 -5 -3q-2 -2 -5 -3q-3 -2 -5 -2l-6 -2t-5 -1q-3 -1 -6 -1q-7 0 -12 2l-10 2q-10 5 -17 12q-8 8 -12 17q-1 6 -2 11q-2 5 -2 11q0 3 1 7q0 3 1 7l2 6q1 3 3 6q3 4 5 7q1 2 4 5l6 4q2 2 6 4q2 2 5 3t8 3
q2 0 6 1h8h6q2 0 5 -1l6 -2q2 -1 5 -2t5 -2q2 -2 5 -4q5 -4 8 -8l-3 -4l-2 -2q-1 -1 -3 -2h-3h-3h-3q-2 0 -4 1l-4 4q-3 1 -5 2q-3 1 -5 1h-5q-8 0 -14 -3q-4 -1 -6 -3zM1072 101q1 -3 3 -6l2 -6q1 -4 1 -7v-7v-8q0 -4 -1 -7l-2 -6q-2 -4 -3 -7q-4 -5 -8 -11q-4 -2 -7 -4
q-3 -3 -5 -4q-3 -3 -6 -4l-8 -2q-3 -1 -6 -1q-4 -1 -8 -1q-10 0 -21 4l-8 6q-5 3 -8 6q-4 4 -7 8t-5 9q-2 6 -3 11t-1 11q0 3 1 7v7q1 3 3 6t3 6q2 4 4 7l5 5q2 2 5 4l6 4q2 2 6 3q3 1 6 3q4 0 8 1h6h8q3 -1 6 -1q4 -2 8 -3q3 -1 6 -3q2 -2 5 -4t7 -4q1 -3 4 -5zM1057 62
q2 5 2 13v7q-1 3 -2 5q-2 5 -3 8l-4 4q-5 5 -12 7q-3 2 -6 3h-8q-7 0 -13 -3q-3 -1 -5 -3l-6 -4l-4 -4q-2 -3 -4 -8q-1 -2 -1 -5q-1 -4 -1 -7q0 -4 1 -7q0 -3 1 -6q4 -8 8 -12l6 -4q2 -2 5 -4q3 -1 7 -2t6 -1q4 0 8 1l6 2q3 2 7 4q3 2 5 4zM1188 127l1 1h2h19v-107h-19v78
v-2l-2 -3v-3q0 -1 -1 -2q-3 -9 -7 -17q-4 -9 -7 -17l-6 -16q-4 -9 -7 -18h-19l-27 68q-1 1 -1 5q-1 2 -1 3q-1 0 -1 1v-77h-20v107h19h3l1 -1q2 -1 3 -1l1 -1l3 -2l2 -2q1 -1 1 -2q2 -8 6 -15q3 -8 6 -17q3 -8 7 -16l6 -16v-1v-2v-2q2 0 2 -2v2v2q0 1 1 2v1l4 8l22 56
q0 1 1 2v2q1 1 3 2h1q1 1 2 1z" />
    <glyph glyph-name="five" unicode="5" horiz-adv-x="1236" 
d="M1210 533v-286h-1174v286h445q0 15 3 29q2 13 8 26t14 25q7 12 18 21q18 19 44 30q14 6 28 9q13 2 27 2q16 0 30 -3t26 -9q14 -6 26 -14q11 -8 20 -17q18 -18 30 -46q10 -26 10 -53h445zM503 582q-11 -23 -11 -49q0 -28 11 -51q5 -11 12 -22t15 -20q9 -9 20 -16
q10 -7 22 -12q23 -11 51 -11q14 0 27 2q12 2 24 7q12 6 22 13q10 6 19 16q9 9 16 20q7 10 13 21q11 25 11 53q0 11 -2 23q-2 11 -7 21q-6 20 -20 37q-7 8 -15 15t-16 12l-18 10l-20 8q-7 2 -15 3q-9 1 -19 1q-14 0 -27 -2q-13 -3 -25 -9q-24 -9 -42 -28q-8 -9 -14 -20z
M144 337q3 5 3 9v5q-1 2 -3 5q0 1 -2 3l-3 3l-2 4q-2 1 -5 1l-4 2q-3 1 -5 1h-26v-75h8v28h18q2 0 5 1q2 0 4 1q5 2 7 4q1 2 3 4zM200 370h-46v-75h46v9h-35v23h29v10h-29v22h35v11zM273 295l-23 32q1 1 3 1q1 0 2 2q4 2 5 5q1 1 2 3q1 1 2 3v6v5q0 2 -1 4q-2 4 -5 7
q-2 4 -7 4q-1 1 -3 2q-3 1 -5 1h-27v-75h11v31h11l20 -27q1 -2 3 -3q1 -1 2 -1h3h7zM324 308q0 2 1 4v4q0 6 -2 10t-6 7q-1 0 -1 1q-1 1 -3 2v0q-1 0 -3 1h-1q-1 0 -1 2q-3 0 -4 1q-3 0 -4 1l-3 1q-4 1 -4 2q-3 2 -3 3v4v4q1 0 2 1t1 2l2 1h2q2 1 3 1h2h1q1 -1 2 -1
q4 0 4 -2q1 -1 2 -1h2q4 0 7 2l2 1q0 1 -1 2l-2 2q-2 1 -3 2t-3 2q-1 0 -2 1q-1 0 -3 2q-3 0 -3 1h-3h-4q-3 -1 -5 -1l-3 -3q-2 -1 -4 -1q-1 -2 -2 -3q-2 -2 -3 -4t-1 -3q-1 -2 -1 -5v-4q0 -2 2 -4q1 -2 3 -3q1 -2 1 -3l4 -2q2 -2 4 -2l4 -2q1 -1 3 -2q1 -1 3 -1h2
q3 -1 4 -1l1 -1l2 -1q0 -1 1 -3q1 -1 1 -2v-4v-1q0 -2 -1 -3l-1 -2q0 -1 -2 -2q-1 -2 -2 -2q-2 -1 -3 -2h-2h-3h-3h-3l-2 2q-2 0 -2 2l-1 1q-3 2 -6 2h-2q-1 0 -2 -1l-3 -1q0 -2 1 -2q0 -2 2 -3q0 -1 1 -2l1 -1h1q4 -4 9 -5q4 -1 9 -1h5q2 0 4 1t5 2q2 1 3 3q3 1 5 3z
M409 322q1 3 1 5v5q0 6 -1 10q0 3 -1 5q-2 2 -3 5q-2 3 -6 7q-2 2 -4 3t-5 4q-1 0 -3 1t-5 3q-3 0 -5 1h-5h-5q-3 -1 -5 -1q-3 -2 -5 -3t-4 -1q-2 -3 -4 -4t-4 -3l-3 -3q-2 -2 -3 -4q-2 -3 -2 -5q-1 -2 -2 -5q-1 -4 -1 -10q0 -4 1 -7l2 -8q1 -3 3 -6t5 -7l6 -4q3 -2 7 -2
q6 -3 14 -3h5h5q5 2 8 4q7 3 9 5q3 4 6 9q1 2 3 5zM487 370h-10v-58v3l-1 1l-36 51q-2 0 -4 3h-2h-2h-7v-75h10v61l1 -1v-2l43 -58h8v75zM571 295l-33 75h-11l-32 -75h6q3 0 4 1l2 2l2 1l4 13h39l5 -13q1 -2 3 -3q0 -1 4 -1h7zM620 304h-32v66h-11v-75h43v9zM722 370h-10
v-45v-5q0 -2 -1 -4q-1 -4 -5 -6l-2 -2q-2 -1 -3 -3q-3 -1 -4 -1h-4q-5 0 -7 1q-3 2 -5 3t-2 2q-1 1 -2 3l-3 3v4q-1 2 -1 5v45h-10v-45v-5q0 -3 1 -4q0 -4 2 -7q2 -5 6 -7q1 -1 3 -2q1 -1 3 -2q1 -1 3 -1q2 -1 3 -2q3 0 5 -1q1 -1 4 -1q2 0 4 1q1 1 4 1l4 2q1 0 3 1l6 4
q2 2 3 4q0 1 1 3l3 3q1 2 1 4v9v45zM780 308q3 4 3 8q0 6 -2 10t-6 7q-3 2 -3 3h-2q-2 0 -3 1h-1q-2 0 -3 2h-1q-1 0 -2 1q-1 0 -2 1l-3 1q-4 1 -4 2q-2 1 -2 2q-1 1 -2 1v2q-1 0 -1 2t2 4l3 3q1 0 2 1h2q0 1 5 1h1q1 -1 2 -1q1 -1 4 -2q4 -1 5 -1q3 0 4 2l3 1l-2 2l-2 2
q0 1 -1 2q-2 1 -3 2q-2 0 -3 1q-1 0 -3 2q-2 0 -3 1h-2h-5q-2 -1 -4 -1q-2 -2 -4 -3t-3 -1l-3 -3q-1 -2 -3 -4q0 -2 -1 -3q-1 -2 -1 -5t1 -4q1 -2 1 -4q2 -4 5 -6l4 -2q1 -2 2 -2q3 -1 5 -2q1 -1 3 -2t3 -1h2q1 -1 3 -1q1 0 2 -1t3 -1q1 -1 1 -3q1 -1 1 -2v-4v-1q0 -2 -1 -3
q-1 -3 -4 -4q-2 -2 -3 -2l-2 -2h-2h-3h-3h-3q-2 1 -5 4v1q-3 2 -6 2h-1q-2 0 -3 -1l-3 -1l1 -1q0 -1 1 -1q0 -1 1 -1v-2h1v-2q2 -1 3 -1q3 -4 8 -5q4 -1 9 -1h5q2 0 5 1l4 2q2 1 4 3l3 3zM841 370h-46v-75h46v9h-36v23h30v10h-30v22h36v11zM960 322v5v5v6v4q-2 5 -5 10
q-2 3 -6 7q-1 2 -3 3t-4 4q-2 0 -4 1q-3 1 -5 3q-3 0 -5 1h-5h-5q-3 -1 -5 -1q-6 -3 -10 -4q-2 -3 -3 -4q-2 -1 -4 -3l-3 -3l-4 -4q-1 -3 -2 -5t-1 -5q-2 -4 -2 -10q0 -4 1 -7l2 -8q3 -7 9 -13q2 -2 5 -4t7 -2q6 -3 15 -3h5h5q2 1 5 2l4 2q2 2 4 3t3 2q4 4 6 9zM1038 370
h-11v-58v3q-1 1 -2 1l-36 51v1q-1 0 -2 2h-2h-3h-8v-75h12v59l1 -1l42 -58h9v75zM1099 304h-32v66h-11v-75h43v9zM1159 370h-9q-2 0 -4 -2q-4 -2 -4 -4l-17 -23l-1 -1h-1l-1 1l-18 23q-1 2 -3 4t-5 2h-8l27 -37l1 -1q0 -1 1 -1v-1v-1q0 -1 1 -1v-1v-32h11v32v1v2q1 0 1 2v1
h1zM942 352l4 -4q2 -3 3 -5q0 -3 1 -5v-6q0 -6 -1 -11q-1 -3 -3 -5t-4 -3q-2 -2 -4 -3l-4 -4q-6 -2 -11 -2q-3 0 -6 1q-3 0 -5 1q-3 2 -5 4q-2 1 -4 3q-2 1 -3 3q-2 2 -2 5q-2 3 -2 6q-1 2 -1 5q0 5 3 11q0 2 2 5q1 2 3 4l4 4q2 1 5 2q4 2 11 2h5l6 -2l4 -2zM253 343
q0 -1 -2 -4q-1 0 -1 -1q-1 -1 -3 -1q-1 -1 -4 -1h-16v23h16q2 0 4 -1h3l1 -2l2 -4q1 -1 1 -5zM391 352l4 -4q2 -3 3 -5q1 -3 2 -5v-6v-5l-2 -6t-3 -5t-4 -3q-1 -2 -3 -3q-2 -2 -5 -4q-2 -1 -5 -1q-3 -1 -6 -1q-6 0 -11 2l-4 4q-3 1 -5 3l-3 3q-2 2 -3 5l-2 6q-1 2 -1 5
q0 5 3 11q1 2 3 5q2 2 3 4q2 2 5 4l4 2l6 2h5q6 0 11 -2q3 -1 5 -2zM532 358q0 -2 1 -3v-2l14 -31h-29l14 31v2v3zM132 356l2 -2q0 -2 1 -3q1 -2 1 -5v-2q0 -2 -1 -3t-1 -2q-1 -2 -2 -2l-4 -4h-5h-18v26h18q3 0 5 -1q1 0 3 -1zM580 422q-9 4 -18 10q-10 5 -17 12h157
q-8 -7 -17 -12q-9 -6 -19 -10q-10 -3 -21 -6t-22 -3q-12 0 -22 3zM557 457l154 155q14 -19 22 -39t8 -40q0 -11 -1 -21q-2 -11 -6 -21q-4 -9 -9 -17q-5 -9 -11 -17h-157zM534 453q-13 17 -22 36q-3 10 -5 21t-2 23q0 10 2 20t5 20q3 9 8 18q5 8 12 16h156zM666 642
q10 -4 19 -10t16 -11h-158q18 14 37 21q19 9 43 9zM38 171q-2 2 -2 4l-2 4q-1 3 -1 5q-1 2 -1 5t2 8q1 2 2 5q0 2 2 3l2 5q0 1 3 3q0 1 3 3q2 1 3 2q3 2 5 3l4 1q1 0 4 1h5h7q3 -1 7 -3q4 -1 7 -3l4 -4q-1 -1 -2 -1v-2h-1h-1h-2h-3q-2 1 -4 3q-2 1 -4 1h-3h-5h-5h-4l-6 -3
q-2 -2 -4 -3q-2 -3 -3 -5q-2 -2 -3 -4q-2 -3 -2 -6v-4q0 -4 1 -7l2 -4v-4q1 -1 3 -2q1 -1 2 -3q2 -1 3 -2q1 -2 3 -2q1 -1 3 -2t4 -1q1 -1 3 -1h3h5q2 0 4 1q2 0 5 1l4 2v14h-6h-1l-1 1l-1 2l-2 1v1q-1 0 -1 1v1v1h19v-26l-2 -2l-3 -3q-3 -1 -6 -1q-3 -1 -7 -1h-7h-5h-4
q-3 1 -4 2l-5 3q-1 0 -3 2q-3 1 -3 3q-3 1 -3 3zM117 214v-22h27v-7h-27v-23h33v-8h-41v68h41v-8h-33zM180 154v60h-22v8h52v-8h-23v-60h-7zM260 214v-24h29v-6h-29v-30h-8v68h41v-8h-33zM313 222v-42q0 -2 1 -3q1 -2 2 -3q1 -3 3 -4l2 -4q0 -1 2 -2l2 -2q3 -1 5 -1h4h4
q1 0 2 1q3 1 5 2q1 1 3 2q0 2 2 4q1 1 2 4q2 2 2 6v42h7v-42v-5q-1 -2 -2 -5t-2 -5l-4 -4t-4 -3q-2 -2 -4 -3q-6 -1 -11 -1q-6 0 -12 1l-3 3q-3 1 -5 3q-3 3 -5 9q-1 3 -2 5t-1 5v42h7zM383 222v-60h30v-8h-38v68h8zM428 222v-60h32v-8h-39v68h7zM522 154l-30 68h4q2 0 4 -1
q1 -1 2 -1l1 -2l21 -51v-2q1 -1 1 -3v3l1 1v1q3 7 6 13l6 12q2 8 5 14l6 12q0 2 1 2t1 1q1 1 2 1h2h4q-4 -8 -7 -16q-4 -9 -9 -17q-3 -10 -6 -18q-4 -8 -8 -17h-7zM572 214v-22h28v-7h-28v-23h33v-8h-41v68h41v-8h-33zM655 186q-1 -1 -5 -2l23 -30h-5q-1 0 -2 1h-2l-2 2
q-1 0 -2 2l-19 25h-12v-30h-7v68h25h3q1 0 3 -1q4 -1 7 -4q1 -2 2 -3l2 -4q1 -1 1 -3v-3v-4q0 -2 -1 -3q0 -2 -1 -4t-2 -3l-2 -2zM647 190q2 0 3 2q1 0 2 1h2l2 3q0 1 1 2q0 1 1 2v4v1q-1 1 -1 3l-1 2q-1 0 -2 2q-1 0 -2 1q-1 0 -2 1h-3h-18v-24h18zM709 164q1 1 2 4
q1 1 2 3v3q0 3 -1 5q-1 0 -1 2l-2 2t-4 2q-2 0 -3 1l-3 1q-2 0 -4 1t-2 2q-5 0 -7 3q-2 0 -2 2q-1 2 -2 3v7v5q0 1 1 3q0 3 4 5l3 3q1 0 4 1q2 0 3 1h4h3q1 -1 2 -1h2l3 -2q1 0 2 -1t1 -2q2 -1 3 -2q0 -1 1 -1l-2 -1q-1 -1 -4 -1h-3q-2 1 -2 2h-1h-1h-1h-1h-1h-1h-4
q-4 0 -4 -1q-3 -3 -3 -4q-2 0 -2 -4q0 -3 2 -3q0 -2 1 -3t3 -1l1 -1q2 -2 3 -2t4 -2h2q1 0 1 -1h2q1 0 2 -2h1h1v0h2l1 -1l3 -3q1 -2 3 -3q1 -5 1 -9v-5q0 -2 -3 -4q0 -3 -4 -6q-1 -1 -3 -2l-4 -2q-2 -1 -4 -1h-5q-5 0 -8 1q-4 1 -7 4q-1 0 -2 1l-2 2v2l-1 1l1 1l1 1h2h1h2
l2 -2q2 -1 3 -2t3 -1q0 -1 2 -1h3q4 0 5 1zM744 222v-68h-8v68h8zM771 164q-6 4 -9 10q-2 7 -2 15v4v4q3 5 4 8q3 4 7 8q3 3 6 5q2 2 5 3q2 0 4 1q2 0 4 1h5h5q2 -1 5 -1q2 -1 4 -1q2 -1 4 -3l3 -2q1 -2 3 -3l3 -3l3 -5q1 -3 3 -8l2 -4v-4q0 -4 -1 -7q-1 -4 -3 -8
q-1 -3 -2 -5q-2 -3 -5 -5q-3 -3 -5 -4l-6 -4q-5 -2 -13 -2q-4 0 -7 1q-4 0 -6 1zM771 199q-2 -3 -3 -6t-1 -4q0 -2 1 -4v-3q1 -4 4 -8q0 -1 1 -2t2 -3l3 -2q1 -2 4 -2q1 -1 3 -2q1 -1 2 -1q2 -1 4 -1h4h4q2 0 3 1q1 0 3 1l4 2q1 0 3 2l2 2q1 2 2 3l2 2l2 4l1 4q0 1 1 3v4v4
q-1 3 -3 6q0 2 -2 4t-3 5q-2 1 -4 3q-2 1 -5 3h-4h-6h-6h-5q-2 -2 -4 -3q-3 -2 -5 -3q-1 -3 -2 -5zM850 154h-8v68h6h3q1 0 2 -2l35 -50q1 0 1 -2l1 -1v55h8v-68h-7l-40 56v2h-1v-58zM955 214v-24h28v-6h-28v-30h-7v68h41v-8h-34zM1032 186q-4 -1 -6 -2l22 -30h-6q-2 0 -4 1
v2q-1 0 -2 2l-19 25h-12v-30h-8v68h25h3q2 0 4 -1l4 -2l2 -2q1 -2 2 -3q1 -2 3 -4q0 -1 1 -3v-3v-4q-1 -2 -1 -3l-2 -4q-1 -2 -1 -3zM1026 192q1 0 2 1h1q3 4 3 5q1 2 1 6q0 1 -1 4q0 1 -3 4q-1 0 -1 1l-2 1h-4h-17v-24h17zM1114 164q-2 -3 -5 -4l-6 -4q-3 -1 -6 -1
q-3 -1 -7 -1t-7 1q-4 0 -7 1q-6 2 -11 8q-2 2 -4 5q-2 2 -3 5l-2 8q-2 3 -2 7q0 1 1 4q0 2 1 4t2 5q0 2 1 3q2 3 4 5q1 1 2 3q2 1 4 3l4 2q2 2 4 3q2 0 4 1q3 0 5 1h4h5q2 -1 4 -1l5 -1l3 -3l4 -2l3 -3q1 -2 3 -3q1 -2 2 -5q3 -3 4 -8l2 -4v-4v-7q-1 -4 -3 -8q-1 -3 -3 -5z
M1090 161h4q2 0 4 1q1 0 3 1l2 2q1 0 3 2l4 2l2 3q0 1 1 2l2 4v4q1 1 1 3v4v4q-1 3 -1 6l-2 4q-2 2 -3 5q-3 1 -5 3q-3 1 -5 3h-5h-5h-5h-6q-3 -2 -4 -3q-2 -2 -4 -3q-3 -3 -4 -5l-2 -4q-1 -3 -1 -6v-4v-7q0 -3 1 -4q0 -2 2 -4q0 -1 2 -2q1 -1 2 -3l3 -2q1 -2 2 -2
q1 -1 3 -2q1 -1 4 -1q1 -1 3 -1h4zM1201 221q1 1 2 1h1h6v-68h-7v56l-1 -1v-1q-2 -4 -3 -8q-1 -5 -3 -8t-3 -6l-4 -7q-1 -4 -2 -7l-2 -6q-2 -3 -3 -5q-2 -3 -3 -7h-7q-5 6 -7 13q-3 7 -6 13q-2 7 -5 14q-4 7 -6 14v1l-2 1v-56h-8v68h7q3 0 4 -1l1 -1v-2l24 -53q0 -1 1 -1v-2
q0 1 1 2v2q0 2 2 4l21 48q0 2 1 2zM36 128h77v-10v-2v-2q0 -2 -1 -3l-2 -2l-52 -71h1v1h2h1h51v-18h-81v6q0 5 1 6q0 1 2 4q1 1 1 2t1 2l2 2l1 3l46 63h-50v19zM127 128h68v-19h-49v-24h39v-20h-39v-26h49v-18h-68v107zM279 109h-29v-88h-21v88h-31v19h81v-19zM328 128
l46 -107h-12q-4 0 -8 2q-2 1 -2 3q-1 2 -3 4l-6 14h-49l-5 -14l-1 -2q-1 -1 -2 -1v-2q-1 -1 -3 -2h-2q-1 -1 -2 -1q0 -1 -1 -1h-2h-12l46 107h18zM334 63l-13 33v2q-1 0 -1 1q0 2 -1 3v-3q0 -1 -1 -1q-1 -1 -1 -2l-13 -33h30zM378 128h68v-19h-49v-27h40v-19h-40v-42h-19
v107zM553 101q2 -3 3 -6t3 -6q1 -4 1 -7v-7v-8q0 -4 -1 -7q-2 -3 -3 -6q-1 -4 -3 -7q-2 -2 -4 -5l-4 -6q-4 -2 -6 -4q-2 -3 -5 -4q-3 -3 -6 -4q-4 -1 -7 -2q-4 -1 -7 -1q-4 -1 -8 -1q-5 0 -10 2q-6 1 -11 2q-6 3 -9 6q-4 3 -9 6q-7 8 -10 17q-3 6 -4 11t-1 11q0 3 1 7
q0 3 1 7q2 8 6 12q2 4 4 7q1 2 3 5q4 2 7 4q2 2 5 4t6 3t7 3q3 0 7 1h7h8q3 -1 7 -1q3 -2 7 -3q3 -1 6 -3t5 -4t6 -4q2 -3 4 -5zM539 62l2 6v7q0 6 -2 12q-2 5 -4 8q-2 2 -5 4l-4 4q-3 2 -6 3q-6 3 -14 3t-14 -3q-2 -1 -4 -3l-6 -4t-4 -4q-2 -3 -4 -8q-2 -2 -2 -5v-7v-7
q0 -3 2 -6l4 -7q1 -3 4 -5l6 -4l4 -4q4 -1 7 -2t7 -1t7 1t7 2l6 4l4 4q3 2 5 5zM649 128h19v-107h-18l-50 72q-1 0 -1 1l-1 1q-1 2 -1 3q-2 0 -2 2v1l-2 1v-81h-19v107h17h4q2 -1 2 -2l3 -1l2 -2q5 -8 11 -15q5 -8 10 -17l12 -14q5 -8 12 -15q0 -2 1 -3v-3q0 -1 1 -2v-2v76z
M678 128h81v-19h-32v-88h-19v88h-30v19zM825 73q1 -2 3 -4l2 -4q0 -2 1 -4q1 -3 1 -7q0 -6 -3 -13l-4 -6q-2 -3 -4 -5q-4 -2 -6 -4t-6 -3t-7 -2q-4 -1 -7 -1q-4 0 -7 1q-4 1 -9 2q-3 1 -5 3q-3 2 -7 6q-2 1 -3 3q-1 1 -2 3q-2 1 -2 6l1 1l1 1q1 0 1 1h1t2 1h1h5h2q1 0 1 -1
q3 0 5 -1q2 -2 4 -3t3 -2q1 0 3 -1t5 -1q1 0 3 1q1 0 3 1q3 1 6 3l4 4q1 2 2 3t1 3q0 4 -3 6q-2 3 -4 3l-3 3h-3q-3 1 -8 4q-2 0 -4 1q-3 0 -5 2q-4 1 -6 3q-2 1 -4 3q-3 2 -4 4q-2 2 -3 4q-3 6 -3 12q0 9 3 13q1 3 3 5t5 4q2 2 5 3l6 3q2 0 5 1h7h4q2 -1 5 -1l4 -2
q1 -1 4 -2q1 -1 3 -2l4 -4l3 -2l2 -4l-4 -2l-2 -2q-2 -1 -2 -2h-4h-2h-2h-1q-3 0 -3 1l-4 2q-1 0 -1 1h-1h-3h-6h-2q-1 -1 -3 -2q-1 -1 -2 -4q-1 -1 -1 -4t1 -3l2 -2v-3h4q1 -1 2 -1l6 -2q2 -1 3 -2l5 -1q2 -2 5 -2q2 -1 5 -4zM857 39q3 0 3 -3q1 0 1 -1v-3q0 -3 -1 -5
q0 -2 -3 -4q-2 0 -3 -2h-2q-1 -1 -3 -1q-1 0 -2 1h-2l-2 2h-2q-1 1 -1 2l-2 2q-1 2 -1 5v3q0 1 1 1q1 2 2 3h1q3 3 4 3l2 2h2h3l2 -2zM898 99q-4 -4 -8 -12q-1 -2 -2 -5q-1 -4 -1 -7q0 -4 1 -7l2 -6l4 -7q1 -3 4 -5q2 -2 5 -4q2 -2 6 -4q4 -1 7 -2t7 -1q3 0 5 1t5 1q2 1 5 3
q2 1 4 3q2 0 4 1h3h3q2 0 3 -1q3 -1 5 -3l3 -5q-3 -4 -8 -7q-3 -2 -5 -3q-2 -2 -5 -3q-3 -2 -5 -2l-6 -2t-5 -1q-3 -1 -6 -1q-7 0 -12 2l-10 2q-10 5 -17 12q-8 8 -12 17q-1 6 -2 11q-2 5 -2 11q0 3 1 7q0 3 1 7l2 6q1 3 3 6q3 4 5 7q1 2 4 5l6 4q2 2 6 4q2 2 5 3t8 3
q2 0 6 1h8h6q2 0 5 -1l6 -2q2 -1 5 -2t5 -2q2 -2 5 -4q5 -4 8 -8l-3 -4l-2 -2q-1 -1 -3 -2h-3h-3h-3q-2 0 -4 1l-4 4q-3 1 -5 2q-3 1 -5 1h-5q-8 0 -14 -3q-4 -1 -6 -3zM1072 101q1 -3 3 -6l2 -6q1 -4 1 -7v-7v-8q0 -4 -1 -7l-2 -6q-2 -4 -3 -7q-4 -5 -8 -11q-4 -2 -7 -4
q-3 -3 -5 -4q-3 -3 -6 -4l-8 -2q-3 -1 -6 -1q-4 -1 -8 -1q-10 0 -21 4l-8 6q-5 3 -8 6q-4 4 -7 8t-5 9q-2 6 -3 11t-1 11q0 3 1 7v7q1 3 3 6t3 6q2 4 4 7l5 5q2 2 5 4l6 4q2 2 6 3q3 1 6 3q4 0 8 1h6h8q3 -1 6 -1q4 -2 8 -3q3 -1 6 -3q2 -2 5 -4t7 -4q1 -3 4 -5zM1057 62
q2 5 2 13v7q-1 3 -2 5q-2 5 -3 8l-4 4q-5 5 -12 7q-3 2 -6 3h-8q-7 0 -13 -3q-3 -1 -5 -3l-6 -4l-4 -4q-2 -3 -4 -8q-1 -2 -1 -5q-1 -4 -1 -7q0 -4 1 -7q0 -3 1 -6q4 -8 8 -12l6 -4q2 -2 5 -4q3 -1 7 -2t6 -1q4 0 8 1l6 2q3 2 7 4q3 2 5 4zM1188 127l1 1h2h19v-107h-19v78
v-2l-2 -3v-3q0 -1 -1 -2q-3 -9 -7 -17q-4 -9 -7 -17l-6 -16q-4 -9 -7 -18h-19l-27 68q-1 1 -1 5q-1 2 -1 3q-1 0 -1 1v-77h-20v107h19h3l1 -1q2 -1 3 -1l1 -1l3 -2l2 -2q1 -1 1 -2q2 -8 6 -15q3 -8 6 -17q3 -8 7 -16l6 -16v-1v-2v-2q2 0 2 -2v2v2q0 1 1 2v1l4 8l22 56
q0 1 1 2v2q1 1 3 2h1q1 1 2 1z" />
    <glyph glyph-name="six" unicode="6" horiz-adv-x="1236" 
d="M1210 533v-286h-1174v286h445q0 15 3 29q2 13 8 26t14 25q7 12 18 21q18 19 44 30q14 6 28 9q13 2 27 2q16 0 30 -3t26 -9q14 -6 26 -14q11 -8 20 -17q18 -18 30 -46q10 -26 10 -53h445zM503 582q-11 -23 -11 -49q0 -28 11 -51q5 -11 12 -22t15 -20q9 -9 20 -16
q10 -7 22 -12q23 -11 51 -11q14 0 27 2q12 2 24 7q12 6 22 13q10 6 19 16q9 9 16 20q7 10 13 21q11 25 11 53q0 11 -2 23q-2 11 -7 21q-6 20 -20 37q-7 8 -15 15t-16 12l-18 10l-20 8q-7 2 -15 3q-9 1 -19 1q-14 0 -27 -2q-13 -3 -25 -9q-24 -9 -42 -28q-8 -9 -14 -20z
M144 337q3 5 3 9v5q-1 2 -3 5q0 1 -2 3l-3 3l-2 4q-2 1 -5 1l-4 2q-3 1 -5 1h-26v-75h8v28h18q2 0 5 1q2 0 4 1q5 2 7 4q1 2 3 4zM200 370h-46v-75h46v9h-35v23h29v10h-29v22h35v11zM273 295l-23 32q1 1 3 1q1 0 2 2q4 2 5 5q1 1 2 3q1 1 2 3v6v5q0 2 -1 4q-2 4 -5 7
q-2 4 -7 4q-1 1 -3 2q-3 1 -5 1h-27v-75h11v31h11l20 -27q1 -2 3 -3q1 -1 2 -1h3h7zM324 308q0 2 1 4v4q0 6 -2 10t-6 7q-1 0 -1 1q-1 1 -3 2v0q-1 0 -3 1h-1q-1 0 -1 2q-3 0 -4 1q-3 0 -4 1l-3 1q-4 1 -4 2q-3 2 -3 3v4v4q1 0 2 1t1 2l2 1h2q2 1 3 1h2h1q1 -1 2 -1
q4 0 4 -2q1 -1 2 -1h2q4 0 7 2l2 1q0 1 -1 2l-2 2q-2 1 -3 2t-3 2q-1 0 -2 1q-1 0 -3 2q-3 0 -3 1h-3h-4q-3 -1 -5 -1l-3 -3q-2 -1 -4 -1q-1 -2 -2 -3q-2 -2 -3 -4t-1 -3q-1 -2 -1 -5v-4q0 -2 2 -4q1 -2 3 -3q1 -2 1 -3l4 -2q2 -2 4 -2l4 -2q1 -1 3 -2q1 -1 3 -1h2
q3 -1 4 -1l1 -1l2 -1q0 -1 1 -3q1 -1 1 -2v-4v-1q0 -2 -1 -3l-1 -2q0 -1 -2 -2q-1 -2 -2 -2q-2 -1 -3 -2h-2h-3h-3h-3l-2 2q-2 0 -2 2l-1 1q-3 2 -6 2h-2q-1 0 -2 -1l-3 -1q0 -2 1 -2q0 -2 2 -3q0 -1 1 -2l1 -1h1q4 -4 9 -5q4 -1 9 -1h5q2 0 4 1t5 2q2 1 3 3q3 1 5 3z
M409 322q1 3 1 5v5q0 6 -1 10q0 3 -1 5q-2 2 -3 5q-2 3 -6 7q-2 2 -4 3t-5 4q-1 0 -3 1t-5 3q-3 0 -5 1h-5h-5q-3 -1 -5 -1q-3 -2 -5 -3t-4 -1q-2 -3 -4 -4t-4 -3l-3 -3q-2 -2 -3 -4q-2 -3 -2 -5q-1 -2 -2 -5q-1 -4 -1 -10q0 -4 1 -7l2 -8q1 -3 3 -6t5 -7l6 -4q3 -2 7 -2
q6 -3 14 -3h5h5q5 2 8 4q7 3 9 5q3 4 6 9q1 2 3 5zM487 370h-10v-58v3l-1 1l-36 51q-2 0 -4 3h-2h-2h-7v-75h10v61l1 -1v-2l43 -58h8v75zM571 295l-33 75h-11l-32 -75h6q3 0 4 1l2 2l2 1l4 13h39l5 -13q1 -2 3 -3q0 -1 4 -1h7zM620 304h-32v66h-11v-75h43v9zM722 370h-10
v-45v-5q0 -2 -1 -4q-1 -4 -5 -6l-2 -2q-2 -1 -3 -3q-3 -1 -4 -1h-4q-5 0 -7 1q-3 2 -5 3t-2 2q-1 1 -2 3l-3 3v4q-1 2 -1 5v45h-10v-45v-5q0 -3 1 -4q0 -4 2 -7q2 -5 6 -7q1 -1 3 -2q1 -1 3 -2q1 -1 3 -1q2 -1 3 -2q3 0 5 -1q1 -1 4 -1q2 0 4 1q1 1 4 1l4 2q1 0 3 1l6 4
q2 2 3 4q0 1 1 3l3 3q1 2 1 4v9v45zM780 308q3 4 3 8q0 6 -2 10t-6 7q-3 2 -3 3h-2q-2 0 -3 1h-1q-2 0 -3 2h-1q-1 0 -2 1q-1 0 -2 1l-3 1q-4 1 -4 2q-2 1 -2 2q-1 1 -2 1v2q-1 0 -1 2t2 4l3 3q1 0 2 1h2q0 1 5 1h1q1 -1 2 -1q1 -1 4 -2q4 -1 5 -1q3 0 4 2l3 1l-2 2l-2 2
q0 1 -1 2q-2 1 -3 2q-2 0 -3 1q-1 0 -3 2q-2 0 -3 1h-2h-5q-2 -1 -4 -1q-2 -2 -4 -3t-3 -1l-3 -3q-1 -2 -3 -4q0 -2 -1 -3q-1 -2 -1 -5t1 -4q1 -2 1 -4q2 -4 5 -6l4 -2q1 -2 2 -2q3 -1 5 -2q1 -1 3 -2t3 -1h2q1 -1 3 -1q1 0 2 -1t3 -1q1 -1 1 -3q1 -1 1 -2v-4v-1q0 -2 -1 -3
q-1 -3 -4 -4q-2 -2 -3 -2l-2 -2h-2h-3h-3h-3q-2 1 -5 4v1q-3 2 -6 2h-1q-2 0 -3 -1l-3 -1l1 -1q0 -1 1 -1q0 -1 1 -1v-2h1v-2q2 -1 3 -1q3 -4 8 -5q4 -1 9 -1h5q2 0 5 1l4 2q2 1 4 3l3 3zM841 370h-46v-75h46v9h-36v23h30v10h-30v22h36v11zM960 322v5v5v6v4q-2 5 -5 10
q-2 3 -6 7q-1 2 -3 3t-4 4q-2 0 -4 1q-3 1 -5 3q-3 0 -5 1h-5h-5q-3 -1 -5 -1q-6 -3 -10 -4q-2 -3 -3 -4q-2 -1 -4 -3l-3 -3l-4 -4q-1 -3 -2 -5t-1 -5q-2 -4 -2 -10q0 -4 1 -7l2 -8q3 -7 9 -13q2 -2 5 -4t7 -2q6 -3 15 -3h5h5q2 1 5 2l4 2q2 2 4 3t3 2q4 4 6 9zM1038 370
h-11v-58v3q-1 1 -2 1l-36 51v1q-1 0 -2 2h-2h-3h-8v-75h12v59l1 -1l42 -58h9v75zM1099 304h-32v66h-11v-75h43v9zM1159 370h-9q-2 0 -4 -2q-4 -2 -4 -4l-17 -23l-1 -1h-1l-1 1l-18 23q-1 2 -3 4t-5 2h-8l27 -37l1 -1q0 -1 1 -1v-1v-1q0 -1 1 -1v-1v-32h11v32v1v2q1 0 1 2v1
h1zM942 352l4 -4q2 -3 3 -5q0 -3 1 -5v-6q0 -6 -1 -11q-1 -3 -3 -5t-4 -3q-2 -2 -4 -3l-4 -4q-6 -2 -11 -2q-3 0 -6 1q-3 0 -5 1q-3 2 -5 4q-2 1 -4 3q-2 1 -3 3q-2 2 -2 5q-2 3 -2 6q-1 2 -1 5q0 5 3 11q0 2 2 5q1 2 3 4l4 4q2 1 5 2q4 2 11 2h5l6 -2l4 -2zM253 343
q0 -1 -2 -4q-1 0 -1 -1q-1 -1 -3 -1q-1 -1 -4 -1h-16v23h16q2 0 4 -1h3l1 -2l2 -4q1 -1 1 -5zM391 352l4 -4q2 -3 3 -5q1 -3 2 -5v-6v-5l-2 -6t-3 -5t-4 -3q-1 -2 -3 -3q-2 -2 -5 -4q-2 -1 -5 -1q-3 -1 -6 -1q-6 0 -11 2l-4 4q-3 1 -5 3l-3 3q-2 2 -3 5l-2 6q-1 2 -1 5
q0 5 3 11q1 2 3 5q2 2 3 4q2 2 5 4l4 2l6 2h5q6 0 11 -2q3 -1 5 -2zM532 358q0 -2 1 -3v-2l14 -31h-29l14 31v2v3zM132 356l2 -2q0 -2 1 -3q1 -2 1 -5v-2q0 -2 -1 -3t-1 -2q-1 -2 -2 -2l-4 -4h-5h-18v26h18q3 0 5 -1q1 0 3 -1zM580 422q-9 4 -18 10q-10 5 -17 12h157
q-8 -7 -17 -12q-9 -6 -19 -10q-10 -3 -21 -6t-22 -3q-12 0 -22 3zM557 457l154 155q14 -19 22 -39t8 -40q0 -11 -1 -21q-2 -11 -6 -21q-4 -9 -9 -17q-5 -9 -11 -17h-157zM534 453q-13 17 -22 36q-3 10 -5 21t-2 23q0 10 2 20t5 20q3 9 8 18q5 8 12 16h156zM666 642
q10 -4 19 -10t16 -11h-158q18 14 37 21q19 9 43 9zM38 171q-2 2 -2 4l-2 4q-1 3 -1 5q-1 2 -1 5t2 8q1 2 2 5q0 2 2 3l2 5q0 1 3 3q0 1 3 3q2 1 3 2q3 2 5 3l4 1q1 0 4 1h5h7q3 -1 7 -3q4 -1 7 -3l4 -4q-1 -1 -2 -1v-2h-1h-1h-2h-3q-2 1 -4 3q-2 1 -4 1h-3h-5h-5h-4l-6 -3
q-2 -2 -4 -3q-2 -3 -3 -5q-2 -2 -3 -4q-2 -3 -2 -6v-4q0 -4 1 -7l2 -4v-4q1 -1 3 -2q1 -1 2 -3q2 -1 3 -2q1 -2 3 -2q1 -1 3 -2t4 -1q1 -1 3 -1h3h5q2 0 4 1q2 0 5 1l4 2v14h-6h-1l-1 1l-1 2l-2 1v1q-1 0 -1 1v1v1h19v-26l-2 -2l-3 -3q-3 -1 -6 -1q-3 -1 -7 -1h-7h-5h-4
q-3 1 -4 2l-5 3q-1 0 -3 2q-3 1 -3 3q-3 1 -3 3zM117 214v-22h27v-7h-27v-23h33v-8h-41v68h41v-8h-33zM180 154v60h-22v8h52v-8h-23v-60h-7zM260 214v-24h29v-6h-29v-30h-8v68h41v-8h-33zM313 222v-42q0 -2 1 -3q1 -2 2 -3q1 -3 3 -4l2 -4q0 -1 2 -2l2 -2q3 -1 5 -1h4h4
q1 0 2 1q3 1 5 2q1 1 3 2q0 2 2 4q1 1 2 4q2 2 2 6v42h7v-42v-5q-1 -2 -2 -5t-2 -5l-4 -4t-4 -3q-2 -2 -4 -3q-6 -1 -11 -1q-6 0 -12 1l-3 3q-3 1 -5 3q-3 3 -5 9q-1 3 -2 5t-1 5v42h7zM383 222v-60h30v-8h-38v68h8zM428 222v-60h32v-8h-39v68h7zM522 154l-30 68h4q2 0 4 -1
q1 -1 2 -1l1 -2l21 -51v-2q1 -1 1 -3v3l1 1v1q3 7 6 13l6 12q2 8 5 14l6 12q0 2 1 2t1 1q1 1 2 1h2h4q-4 -8 -7 -16q-4 -9 -9 -17q-3 -10 -6 -18q-4 -8 -8 -17h-7zM572 214v-22h28v-7h-28v-23h33v-8h-41v68h41v-8h-33zM655 186q-1 -1 -5 -2l23 -30h-5q-1 0 -2 1h-2l-2 2
q-1 0 -2 2l-19 25h-12v-30h-7v68h25h3q1 0 3 -1q4 -1 7 -4q1 -2 2 -3l2 -4q1 -1 1 -3v-3v-4q0 -2 -1 -3q0 -2 -1 -4t-2 -3l-2 -2zM647 190q2 0 3 2q1 0 2 1h2l2 3q0 1 1 2q0 1 1 2v4v1q-1 1 -1 3l-1 2q-1 0 -2 2q-1 0 -2 1q-1 0 -2 1h-3h-18v-24h18zM709 164q1 1 2 4
q1 1 2 3v3q0 3 -1 5q-1 0 -1 2l-2 2t-4 2q-2 0 -3 1l-3 1q-2 0 -4 1t-2 2q-5 0 -7 3q-2 0 -2 2q-1 2 -2 3v7v5q0 1 1 3q0 3 4 5l3 3q1 0 4 1q2 0 3 1h4h3q1 -1 2 -1h2l3 -2q1 0 2 -1t1 -2q2 -1 3 -2q0 -1 1 -1l-2 -1q-1 -1 -4 -1h-3q-2 1 -2 2h-1h-1h-1h-1h-1h-1h-4
q-4 0 -4 -1q-3 -3 -3 -4q-2 0 -2 -4q0 -3 2 -3q0 -2 1 -3t3 -1l1 -1q2 -2 3 -2t4 -2h2q1 0 1 -1h2q1 0 2 -2h1h1v0h2l1 -1l3 -3q1 -2 3 -3q1 -5 1 -9v-5q0 -2 -3 -4q0 -3 -4 -6q-1 -1 -3 -2l-4 -2q-2 -1 -4 -1h-5q-5 0 -8 1q-4 1 -7 4q-1 0 -2 1l-2 2v2l-1 1l1 1l1 1h2h1h2
l2 -2q2 -1 3 -2t3 -1q0 -1 2 -1h3q4 0 5 1zM744 222v-68h-8v68h8zM771 164q-6 4 -9 10q-2 7 -2 15v4v4q3 5 4 8q3 4 7 8q3 3 6 5q2 2 5 3q2 0 4 1q2 0 4 1h5h5q2 -1 5 -1q2 -1 4 -1q2 -1 4 -3l3 -2q1 -2 3 -3l3 -3l3 -5q1 -3 3 -8l2 -4v-4q0 -4 -1 -7q-1 -4 -3 -8
q-1 -3 -2 -5q-2 -3 -5 -5q-3 -3 -5 -4l-6 -4q-5 -2 -13 -2q-4 0 -7 1q-4 0 -6 1zM771 199q-2 -3 -3 -6t-1 -4q0 -2 1 -4v-3q1 -4 4 -8q0 -1 1 -2t2 -3l3 -2q1 -2 4 -2q1 -1 3 -2q1 -1 2 -1q2 -1 4 -1h4h4q2 0 3 1q1 0 3 1l4 2q1 0 3 2l2 2q1 2 2 3l2 2l2 4l1 4q0 1 1 3v4v4
q-1 3 -3 6q0 2 -2 4t-3 5q-2 1 -4 3q-2 1 -5 3h-4h-6h-6h-5q-2 -2 -4 -3q-3 -2 -5 -3q-1 -3 -2 -5zM850 154h-8v68h6h3q1 0 2 -2l35 -50q1 0 1 -2l1 -1v55h8v-68h-7l-40 56v2h-1v-58zM955 214v-24h28v-6h-28v-30h-7v68h41v-8h-34zM1032 186q-4 -1 -6 -2l22 -30h-6q-2 0 -4 1
v2q-1 0 -2 2l-19 25h-12v-30h-8v68h25h3q2 0 4 -1l4 -2l2 -2q1 -2 2 -3q1 -2 3 -4q0 -1 1 -3v-3v-4q-1 -2 -1 -3l-2 -4q-1 -2 -1 -3zM1026 192q1 0 2 1h1q3 4 3 5q1 2 1 6q0 1 -1 4q0 1 -3 4q-1 0 -1 1l-2 1h-4h-17v-24h17zM1114 164q-2 -3 -5 -4l-6 -4q-3 -1 -6 -1
q-3 -1 -7 -1t-7 1q-4 0 -7 1q-6 2 -11 8q-2 2 -4 5q-2 2 -3 5l-2 8q-2 3 -2 7q0 1 1 4q0 2 1 4t2 5q0 2 1 3q2 3 4 5q1 1 2 3q2 1 4 3l4 2q2 2 4 3q2 0 4 1q3 0 5 1h4h5q2 -1 4 -1l5 -1l3 -3l4 -2l3 -3q1 -2 3 -3q1 -2 2 -5q3 -3 4 -8l2 -4v-4v-7q-1 -4 -3 -8q-1 -3 -3 -5z
M1090 161h4q2 0 4 1q1 0 3 1l2 2q1 0 3 2l4 2l2 3q0 1 1 2l2 4v4q1 1 1 3v4v4q-1 3 -1 6l-2 4q-2 2 -3 5q-3 1 -5 3q-3 1 -5 3h-5h-5h-5h-6q-3 -2 -4 -3q-2 -2 -4 -3q-3 -3 -4 -5l-2 -4q-1 -3 -1 -6v-4v-7q0 -3 1 -4q0 -2 2 -4q0 -1 2 -2q1 -1 2 -3l3 -2q1 -2 2 -2
q1 -1 3 -2q1 -1 4 -1q1 -1 3 -1h4zM1201 221q1 1 2 1h1h6v-68h-7v56l-1 -1v-1q-2 -4 -3 -8q-1 -5 -3 -8t-3 -6l-4 -7q-1 -4 -2 -7l-2 -6q-2 -3 -3 -5q-2 -3 -3 -7h-7q-5 6 -7 13q-3 7 -6 13q-2 7 -5 14q-4 7 -6 14v1l-2 1v-56h-8v68h7q3 0 4 -1l1 -1v-2l24 -53q0 -1 1 -1v-2
q0 1 1 2v2q0 2 2 4l21 48q0 2 1 2zM36 128h77v-10v-2v-2q0 -2 -1 -3l-2 -2l-52 -71h1v1h2h1h51v-18h-81v6q0 5 1 6q0 1 2 4q1 1 1 2t1 2l2 2l1 3l46 63h-50v19zM127 128h68v-19h-49v-24h39v-20h-39v-26h49v-18h-68v107zM279 109h-29v-88h-21v88h-31v19h81v-19zM328 128
l46 -107h-12q-4 0 -8 2q-2 1 -2 3q-1 2 -3 4l-6 14h-49l-5 -14l-1 -2q-1 -1 -2 -1v-2q-1 -1 -3 -2h-2q-1 -1 -2 -1q0 -1 -1 -1h-2h-12l46 107h18zM334 63l-13 33v2q-1 0 -1 1q0 2 -1 3v-3q0 -1 -1 -1q-1 -1 -1 -2l-13 -33h30zM378 128h68v-19h-49v-27h40v-19h-40v-42h-19
v107zM553 101q2 -3 3 -6t3 -6q1 -4 1 -7v-7v-8q0 -4 -1 -7q-2 -3 -3 -6q-1 -4 -3 -7q-2 -2 -4 -5l-4 -6q-4 -2 -6 -4q-2 -3 -5 -4q-3 -3 -6 -4q-4 -1 -7 -2q-4 -1 -7 -1q-4 -1 -8 -1q-5 0 -10 2q-6 1 -11 2q-6 3 -9 6q-4 3 -9 6q-7 8 -10 17q-3 6 -4 11t-1 11q0 3 1 7
q0 3 1 7q2 8 6 12q2 4 4 7q1 2 3 5q4 2 7 4q2 2 5 4t6 3t7 3q3 0 7 1h7h8q3 -1 7 -1q3 -2 7 -3q3 -1 6 -3t5 -4t6 -4q2 -3 4 -5zM539 62l2 6v7q0 6 -2 12q-2 5 -4 8q-2 2 -5 4l-4 4q-3 2 -6 3q-6 3 -14 3t-14 -3q-2 -1 -4 -3l-6 -4t-4 -4q-2 -3 -4 -8q-2 -2 -2 -5v-7v-7
q0 -3 2 -6l4 -7q1 -3 4 -5l6 -4l4 -4q4 -1 7 -2t7 -1t7 1t7 2l6 4l4 4q3 2 5 5zM649 128h19v-107h-18l-50 72q-1 0 -1 1l-1 1q-1 2 -1 3q-2 0 -2 2v1l-2 1v-81h-19v107h17h4q2 -1 2 -2l3 -1l2 -2q5 -8 11 -15q5 -8 10 -17l12 -14q5 -8 12 -15q0 -2 1 -3v-3q0 -1 1 -2v-2v76z
M678 128h81v-19h-32v-88h-19v88h-30v19zM825 73q1 -2 3 -4l2 -4q0 -2 1 -4q1 -3 1 -7q0 -6 -3 -13l-4 -6q-2 -3 -4 -5q-4 -2 -6 -4t-6 -3t-7 -2q-4 -1 -7 -1q-4 0 -7 1q-4 1 -9 2q-3 1 -5 3q-3 2 -7 6q-2 1 -3 3q-1 1 -2 3q-2 1 -2 6l1 1l1 1q1 0 1 1h1t2 1h1h5h2q1 0 1 -1
q3 0 5 -1q2 -2 4 -3t3 -2q1 0 3 -1t5 -1q1 0 3 1q1 0 3 1q3 1 6 3l4 4q1 2 2 3t1 3q0 4 -3 6q-2 3 -4 3l-3 3h-3q-3 1 -8 4q-2 0 -4 1q-3 0 -5 2q-4 1 -6 3q-2 1 -4 3q-3 2 -4 4q-2 2 -3 4q-3 6 -3 12q0 9 3 13q1 3 3 5t5 4q2 2 5 3l6 3q2 0 5 1h7h4q2 -1 5 -1l4 -2
q1 -1 4 -2q1 -1 3 -2l4 -4l3 -2l2 -4l-4 -2l-2 -2q-2 -1 -2 -2h-4h-2h-2h-1q-3 0 -3 1l-4 2q-1 0 -1 1h-1h-3h-6h-2q-1 -1 -3 -2q-1 -1 -2 -4q-1 -1 -1 -4t1 -3l2 -2v-3h4q1 -1 2 -1l6 -2q2 -1 3 -2l5 -1q2 -2 5 -2q2 -1 5 -4zM857 39q3 0 3 -3q1 0 1 -1v-3q0 -3 -1 -5
q0 -2 -3 -4q-2 0 -3 -2h-2q-1 -1 -3 -1q-1 0 -2 1h-2l-2 2h-2q-1 1 -1 2l-2 2q-1 2 -1 5v3q0 1 1 1q1 2 2 3h1q3 3 4 3l2 2h2h3l2 -2zM898 99q-4 -4 -8 -12q-1 -2 -2 -5q-1 -4 -1 -7q0 -4 1 -7l2 -6l4 -7q1 -3 4 -5q2 -2 5 -4q2 -2 6 -4q4 -1 7 -2t7 -1q3 0 5 1t5 1q2 1 5 3
q2 1 4 3q2 0 4 1h3h3q2 0 3 -1q3 -1 5 -3l3 -5q-3 -4 -8 -7q-3 -2 -5 -3q-2 -2 -5 -3q-3 -2 -5 -2l-6 -2t-5 -1q-3 -1 -6 -1q-7 0 -12 2l-10 2q-10 5 -17 12q-8 8 -12 17q-1 6 -2 11q-2 5 -2 11q0 3 1 7q0 3 1 7l2 6q1 3 3 6q3 4 5 7q1 2 4 5l6 4q2 2 6 4q2 2 5 3t8 3
q2 0 6 1h8h6q2 0 5 -1l6 -2q2 -1 5 -2t5 -2q2 -2 5 -4q5 -4 8 -8l-3 -4l-2 -2q-1 -1 -3 -2h-3h-3h-3q-2 0 -4 1l-4 4q-3 1 -5 2q-3 1 -5 1h-5q-8 0 -14 -3q-4 -1 -6 -3zM1072 101q1 -3 3 -6l2 -6q1 -4 1 -7v-7v-8q0 -4 -1 -7l-2 -6q-2 -4 -3 -7q-4 -5 -8 -11q-4 -2 -7 -4
q-3 -3 -5 -4q-3 -3 -6 -4l-8 -2q-3 -1 -6 -1q-4 -1 -8 -1q-10 0 -21 4l-8 6q-5 3 -8 6q-4 4 -7 8t-5 9q-2 6 -3 11t-1 11q0 3 1 7v7q1 3 3 6t3 6q2 4 4 7l5 5q2 2 5 4l6 4q2 2 6 3q3 1 6 3q4 0 8 1h6h8q3 -1 6 -1q4 -2 8 -3q3 -1 6 -3q2 -2 5 -4t7 -4q1 -3 4 -5zM1057 62
q2 5 2 13v7q-1 3 -2 5q-2 5 -3 8l-4 4q-5 5 -12 7q-3 2 -6 3h-8q-7 0 -13 -3q-3 -1 -5 -3l-6 -4l-4 -4q-2 -3 -4 -8q-1 -2 -1 -5q-1 -4 -1 -7q0 -4 1 -7q0 -3 1 -6q4 -8 8 -12l6 -4q2 -2 5 -4q3 -1 7 -2t6 -1q4 0 8 1l6 2q3 2 7 4q3 2 5 4zM1188 127l1 1h2h19v-107h-19v78
v-2l-2 -3v-3q0 -1 -1 -2q-3 -9 -7 -17q-4 -9 -7 -17l-6 -16q-4 -9 -7 -18h-19l-27 68q-1 1 -1 5q-1 2 -1 3q-1 0 -1 1v-77h-20v107h19h3l1 -1q2 -1 3 -1l1 -1l3 -2l2 -2q1 -1 1 -2q2 -8 6 -15q3 -8 6 -17q3 -8 7 -16l6 -16v-1v-2v-2q2 0 2 -2v2v2q0 1 1 2v1l4 8l22 56
q0 1 1 2v2q1 1 3 2h1q1 1 2 1z" />
    <glyph glyph-name="seven" unicode="7" horiz-adv-x="1236" 
d="M1210 533v-286h-1174v286h445q0 15 3 29q2 13 8 26t14 25q7 12 18 21q18 19 44 30q14 6 28 9q13 2 27 2q16 0 30 -3t26 -9q14 -6 26 -14q11 -8 20 -17q18 -18 30 -46q10 -26 10 -53h445zM503 582q-11 -23 -11 -49q0 -28 11 -51q5 -11 12 -22t15 -20q9 -9 20 -16
q10 -7 22 -12q23 -11 51 -11q14 0 27 2q12 2 24 7q12 6 22 13q10 6 19 16q9 9 16 20q7 10 13 21q11 25 11 53q0 11 -2 23q-2 11 -7 21q-6 20 -20 37q-7 8 -15 15t-16 12l-18 10l-20 8q-7 2 -15 3q-9 1 -19 1q-14 0 -27 -2q-13 -3 -25 -9q-24 -9 -42 -28q-8 -9 -14 -20z
M144 337q3 5 3 9v5q-1 2 -3 5q0 1 -2 3l-3 3l-2 4q-2 1 -5 1l-4 2q-3 1 -5 1h-26v-75h8v28h18q2 0 5 1q2 0 4 1q5 2 7 4q1 2 3 4zM200 370h-46v-75h46v9h-35v23h29v10h-29v22h35v11zM273 295l-23 32q1 1 3 1q1 0 2 2q4 2 5 5q1 1 2 3q1 1 2 3v6v5q0 2 -1 4q-2 4 -5 7
q-2 4 -7 4q-1 1 -3 2q-3 1 -5 1h-27v-75h11v31h11l20 -27q1 -2 3 -3q1 -1 2 -1h3h7zM324 308q0 2 1 4v4q0 6 -2 10t-6 7q-1 0 -1 1q-1 1 -3 2v0q-1 0 -3 1h-1q-1 0 -1 2q-3 0 -4 1q-3 0 -4 1l-3 1q-4 1 -4 2q-3 2 -3 3v4v4q1 0 2 1t1 2l2 1h2q2 1 3 1h2h1q1 -1 2 -1
q4 0 4 -2q1 -1 2 -1h2q4 0 7 2l2 1q0 1 -1 2l-2 2q-2 1 -3 2t-3 2q-1 0 -2 1q-1 0 -3 2q-3 0 -3 1h-3h-4q-3 -1 -5 -1l-3 -3q-2 -1 -4 -1q-1 -2 -2 -3q-2 -2 -3 -4t-1 -3q-1 -2 -1 -5v-4q0 -2 2 -4q1 -2 3 -3q1 -2 1 -3l4 -2q2 -2 4 -2l4 -2q1 -1 3 -2q1 -1 3 -1h2
q3 -1 4 -1l1 -1l2 -1q0 -1 1 -3q1 -1 1 -2v-4v-1q0 -2 -1 -3l-1 -2q0 -1 -2 -2q-1 -2 -2 -2q-2 -1 -3 -2h-2h-3h-3h-3l-2 2q-2 0 -2 2l-1 1q-3 2 -6 2h-2q-1 0 -2 -1l-3 -1q0 -2 1 -2q0 -2 2 -3q0 -1 1 -2l1 -1h1q4 -4 9 -5q4 -1 9 -1h5q2 0 4 1t5 2q2 1 3 3q3 1 5 3z
M409 322q1 3 1 5v5q0 6 -1 10q0 3 -1 5q-2 2 -3 5q-2 3 -6 7q-2 2 -4 3t-5 4q-1 0 -3 1t-5 3q-3 0 -5 1h-5h-5q-3 -1 -5 -1q-3 -2 -5 -3t-4 -1q-2 -3 -4 -4t-4 -3l-3 -3q-2 -2 -3 -4q-2 -3 -2 -5q-1 -2 -2 -5q-1 -4 -1 -10q0 -4 1 -7l2 -8q1 -3 3 -6t5 -7l6 -4q3 -2 7 -2
q6 -3 14 -3h5h5q5 2 8 4q7 3 9 5q3 4 6 9q1 2 3 5zM487 370h-10v-58v3l-1 1l-36 51q-2 0 -4 3h-2h-2h-7v-75h10v61l1 -1v-2l43 -58h8v75zM571 295l-33 75h-11l-32 -75h6q3 0 4 1l2 2l2 1l4 13h39l5 -13q1 -2 3 -3q0 -1 4 -1h7zM620 304h-32v66h-11v-75h43v9zM722 370h-10
v-45v-5q0 -2 -1 -4q-1 -4 -5 -6l-2 -2q-2 -1 -3 -3q-3 -1 -4 -1h-4q-5 0 -7 1q-3 2 -5 3t-2 2q-1 1 -2 3l-3 3v4q-1 2 -1 5v45h-10v-45v-5q0 -3 1 -4q0 -4 2 -7q2 -5 6 -7q1 -1 3 -2q1 -1 3 -2q1 -1 3 -1q2 -1 3 -2q3 0 5 -1q1 -1 4 -1q2 0 4 1q1 1 4 1l4 2q1 0 3 1l6 4
q2 2 3 4q0 1 1 3l3 3q1 2 1 4v9v45zM780 308q3 4 3 8q0 6 -2 10t-6 7q-3 2 -3 3h-2q-2 0 -3 1h-1q-2 0 -3 2h-1q-1 0 -2 1q-1 0 -2 1l-3 1q-4 1 -4 2q-2 1 -2 2q-1 1 -2 1v2q-1 0 -1 2t2 4l3 3q1 0 2 1h2q0 1 5 1h1q1 -1 2 -1q1 -1 4 -2q4 -1 5 -1q3 0 4 2l3 1l-2 2l-2 2
q0 1 -1 2q-2 1 -3 2q-2 0 -3 1q-1 0 -3 2q-2 0 -3 1h-2h-5q-2 -1 -4 -1q-2 -2 -4 -3t-3 -1l-3 -3q-1 -2 -3 -4q0 -2 -1 -3q-1 -2 -1 -5t1 -4q1 -2 1 -4q2 -4 5 -6l4 -2q1 -2 2 -2q3 -1 5 -2q1 -1 3 -2t3 -1h2q1 -1 3 -1q1 0 2 -1t3 -1q1 -1 1 -3q1 -1 1 -2v-4v-1q0 -2 -1 -3
q-1 -3 -4 -4q-2 -2 -3 -2l-2 -2h-2h-3h-3h-3q-2 1 -5 4v1q-3 2 -6 2h-1q-2 0 -3 -1l-3 -1l1 -1q0 -1 1 -1q0 -1 1 -1v-2h1v-2q2 -1 3 -1q3 -4 8 -5q4 -1 9 -1h5q2 0 5 1l4 2q2 1 4 3l3 3zM841 370h-46v-75h46v9h-36v23h30v10h-30v22h36v11zM960 322v5v5v6v4q-2 5 -5 10
q-2 3 -6 7q-1 2 -3 3t-4 4q-2 0 -4 1q-3 1 -5 3q-3 0 -5 1h-5h-5q-3 -1 -5 -1q-6 -3 -10 -4q-2 -3 -3 -4q-2 -1 -4 -3l-3 -3l-4 -4q-1 -3 -2 -5t-1 -5q-2 -4 -2 -10q0 -4 1 -7l2 -8q3 -7 9 -13q2 -2 5 -4t7 -2q6 -3 15 -3h5h5q2 1 5 2l4 2q2 2 4 3t3 2q4 4 6 9zM1038 370
h-11v-58v3q-1 1 -2 1l-36 51v1q-1 0 -2 2h-2h-3h-8v-75h12v59l1 -1l42 -58h9v75zM1099 304h-32v66h-11v-75h43v9zM1159 370h-9q-2 0 -4 -2q-4 -2 -4 -4l-17 -23l-1 -1h-1l-1 1l-18 23q-1 2 -3 4t-5 2h-8l27 -37l1 -1q0 -1 1 -1v-1v-1q0 -1 1 -1v-1v-32h11v32v1v2q1 0 1 2v1
h1zM942 352l4 -4q2 -3 3 -5q0 -3 1 -5v-6q0 -6 -1 -11q-1 -3 -3 -5t-4 -3q-2 -2 -4 -3l-4 -4q-6 -2 -11 -2q-3 0 -6 1q-3 0 -5 1q-3 2 -5 4q-2 1 -4 3q-2 1 -3 3q-2 2 -2 5q-2 3 -2 6q-1 2 -1 5q0 5 3 11q0 2 2 5q1 2 3 4l4 4q2 1 5 2q4 2 11 2h5l6 -2l4 -2zM253 343
q0 -1 -2 -4q-1 0 -1 -1q-1 -1 -3 -1q-1 -1 -4 -1h-16v23h16q2 0 4 -1h3l1 -2l2 -4q1 -1 1 -5zM391 352l4 -4q2 -3 3 -5q1 -3 2 -5v-6v-5l-2 -6t-3 -5t-4 -3q-1 -2 -3 -3q-2 -2 -5 -4q-2 -1 -5 -1q-3 -1 -6 -1q-6 0 -11 2l-4 4q-3 1 -5 3l-3 3q-2 2 -3 5l-2 6q-1 2 -1 5
q0 5 3 11q1 2 3 5q2 2 3 4q2 2 5 4l4 2l6 2h5q6 0 11 -2q3 -1 5 -2zM532 358q0 -2 1 -3v-2l14 -31h-29l14 31v2v3zM132 356l2 -2q0 -2 1 -3q1 -2 1 -5v-2q0 -2 -1 -3t-1 -2q-1 -2 -2 -2l-4 -4h-5h-18v26h18q3 0 5 -1q1 0 3 -1zM580 422q-9 4 -18 10q-10 5 -17 12h157
q-8 -7 -17 -12q-9 -6 -19 -10q-10 -3 -21 -6t-22 -3q-12 0 -22 3zM557 457l154 155q14 -19 22 -39t8 -40q0 -11 -1 -21q-2 -11 -6 -21q-4 -9 -9 -17q-5 -9 -11 -17h-157zM534 453q-13 17 -22 36q-3 10 -5 21t-2 23q0 10 2 20t5 20q3 9 8 18q5 8 12 16h156zM666 642
q10 -4 19 -10t16 -11h-158q18 14 37 21q19 9 43 9zM38 171q-2 2 -2 4l-2 4q-1 3 -1 5q-1 2 -1 5t2 8q1 2 2 5q0 2 2 3l2 5q0 1 3 3q0 1 3 3q2 1 3 2q3 2 5 3l4 1q1 0 4 1h5h7q3 -1 7 -3q4 -1 7 -3l4 -4q-1 -1 -2 -1v-2h-1h-1h-2h-3q-2 1 -4 3q-2 1 -4 1h-3h-5h-5h-4l-6 -3
q-2 -2 -4 -3q-2 -3 -3 -5q-2 -2 -3 -4q-2 -3 -2 -6v-4q0 -4 1 -7l2 -4v-4q1 -1 3 -2q1 -1 2 -3q2 -1 3 -2q1 -2 3 -2q1 -1 3 -2t4 -1q1 -1 3 -1h3h5q2 0 4 1q2 0 5 1l4 2v14h-6h-1l-1 1l-1 2l-2 1v1q-1 0 -1 1v1v1h19v-26l-2 -2l-3 -3q-3 -1 -6 -1q-3 -1 -7 -1h-7h-5h-4
q-3 1 -4 2l-5 3q-1 0 -3 2q-3 1 -3 3q-3 1 -3 3zM117 214v-22h27v-7h-27v-23h33v-8h-41v68h41v-8h-33zM180 154v60h-22v8h52v-8h-23v-60h-7zM260 214v-24h29v-6h-29v-30h-8v68h41v-8h-33zM313 222v-42q0 -2 1 -3q1 -2 2 -3q1 -3 3 -4l2 -4q0 -1 2 -2l2 -2q3 -1 5 -1h4h4
q1 0 2 1q3 1 5 2q1 1 3 2q0 2 2 4q1 1 2 4q2 2 2 6v42h7v-42v-5q-1 -2 -2 -5t-2 -5l-4 -4t-4 -3q-2 -2 -4 -3q-6 -1 -11 -1q-6 0 -12 1l-3 3q-3 1 -5 3q-3 3 -5 9q-1 3 -2 5t-1 5v42h7zM383 222v-60h30v-8h-38v68h8zM428 222v-60h32v-8h-39v68h7zM522 154l-30 68h4q2 0 4 -1
q1 -1 2 -1l1 -2l21 -51v-2q1 -1 1 -3v3l1 1v1q3 7 6 13l6 12q2 8 5 14l6 12q0 2 1 2t1 1q1 1 2 1h2h4q-4 -8 -7 -16q-4 -9 -9 -17q-3 -10 -6 -18q-4 -8 -8 -17h-7zM572 214v-22h28v-7h-28v-23h33v-8h-41v68h41v-8h-33zM655 186q-1 -1 -5 -2l23 -30h-5q-1 0 -2 1h-2l-2 2
q-1 0 -2 2l-19 25h-12v-30h-7v68h25h3q1 0 3 -1q4 -1 7 -4q1 -2 2 -3l2 -4q1 -1 1 -3v-3v-4q0 -2 -1 -3q0 -2 -1 -4t-2 -3l-2 -2zM647 190q2 0 3 2q1 0 2 1h2l2 3q0 1 1 2q0 1 1 2v4v1q-1 1 -1 3l-1 2q-1 0 -2 2q-1 0 -2 1q-1 0 -2 1h-3h-18v-24h18zM709 164q1 1 2 4
q1 1 2 3v3q0 3 -1 5q-1 0 -1 2l-2 2t-4 2q-2 0 -3 1l-3 1q-2 0 -4 1t-2 2q-5 0 -7 3q-2 0 -2 2q-1 2 -2 3v7v5q0 1 1 3q0 3 4 5l3 3q1 0 4 1q2 0 3 1h4h3q1 -1 2 -1h2l3 -2q1 0 2 -1t1 -2q2 -1 3 -2q0 -1 1 -1l-2 -1q-1 -1 -4 -1h-3q-2 1 -2 2h-1h-1h-1h-1h-1h-1h-4
q-4 0 -4 -1q-3 -3 -3 -4q-2 0 -2 -4q0 -3 2 -3q0 -2 1 -3t3 -1l1 -1q2 -2 3 -2t4 -2h2q1 0 1 -1h2q1 0 2 -2h1h1v0h2l1 -1l3 -3q1 -2 3 -3q1 -5 1 -9v-5q0 -2 -3 -4q0 -3 -4 -6q-1 -1 -3 -2l-4 -2q-2 -1 -4 -1h-5q-5 0 -8 1q-4 1 -7 4q-1 0 -2 1l-2 2v2l-1 1l1 1l1 1h2h1h2
l2 -2q2 -1 3 -2t3 -1q0 -1 2 -1h3q4 0 5 1zM744 222v-68h-8v68h8zM771 164q-6 4 -9 10q-2 7 -2 15v4v4q3 5 4 8q3 4 7 8q3 3 6 5q2 2 5 3q2 0 4 1q2 0 4 1h5h5q2 -1 5 -1q2 -1 4 -1q2 -1 4 -3l3 -2q1 -2 3 -3l3 -3l3 -5q1 -3 3 -8l2 -4v-4q0 -4 -1 -7q-1 -4 -3 -8
q-1 -3 -2 -5q-2 -3 -5 -5q-3 -3 -5 -4l-6 -4q-5 -2 -13 -2q-4 0 -7 1q-4 0 -6 1zM771 199q-2 -3 -3 -6t-1 -4q0 -2 1 -4v-3q1 -4 4 -8q0 -1 1 -2t2 -3l3 -2q1 -2 4 -2q1 -1 3 -2q1 -1 2 -1q2 -1 4 -1h4h4q2 0 3 1q1 0 3 1l4 2q1 0 3 2l2 2q1 2 2 3l2 2l2 4l1 4q0 1 1 3v4v4
q-1 3 -3 6q0 2 -2 4t-3 5q-2 1 -4 3q-2 1 -5 3h-4h-6h-6h-5q-2 -2 -4 -3q-3 -2 -5 -3q-1 -3 -2 -5zM850 154h-8v68h6h3q1 0 2 -2l35 -50q1 0 1 -2l1 -1v55h8v-68h-7l-40 56v2h-1v-58zM955 214v-24h28v-6h-28v-30h-7v68h41v-8h-34zM1032 186q-4 -1 -6 -2l22 -30h-6q-2 0 -4 1
v2q-1 0 -2 2l-19 25h-12v-30h-8v68h25h3q2 0 4 -1l4 -2l2 -2q1 -2 2 -3q1 -2 3 -4q0 -1 1 -3v-3v-4q-1 -2 -1 -3l-2 -4q-1 -2 -1 -3zM1026 192q1 0 2 1h1q3 4 3 5q1 2 1 6q0 1 -1 4q0 1 -3 4q-1 0 -1 1l-2 1h-4h-17v-24h17zM1114 164q-2 -3 -5 -4l-6 -4q-3 -1 -6 -1
q-3 -1 -7 -1t-7 1q-4 0 -7 1q-6 2 -11 8q-2 2 -4 5q-2 2 -3 5l-2 8q-2 3 -2 7q0 1 1 4q0 2 1 4t2 5q0 2 1 3q2 3 4 5q1 1 2 3q2 1 4 3l4 2q2 2 4 3q2 0 4 1q3 0 5 1h4h5q2 -1 4 -1l5 -1l3 -3l4 -2l3 -3q1 -2 3 -3q1 -2 2 -5q3 -3 4 -8l2 -4v-4v-7q-1 -4 -3 -8q-1 -3 -3 -5z
M1090 161h4q2 0 4 1q1 0 3 1l2 2q1 0 3 2l4 2l2 3q0 1 1 2l2 4v4q1 1 1 3v4v4q-1 3 -1 6l-2 4q-2 2 -3 5q-3 1 -5 3q-3 1 -5 3h-5h-5h-5h-6q-3 -2 -4 -3q-2 -2 -4 -3q-3 -3 -4 -5l-2 -4q-1 -3 -1 -6v-4v-7q0 -3 1 -4q0 -2 2 -4q0 -1 2 -2q1 -1 2 -3l3 -2q1 -2 2 -2
q1 -1 3 -2q1 -1 4 -1q1 -1 3 -1h4zM1201 221q1 1 2 1h1h6v-68h-7v56l-1 -1v-1q-2 -4 -3 -8q-1 -5 -3 -8t-3 -6l-4 -7q-1 -4 -2 -7l-2 -6q-2 -3 -3 -5q-2 -3 -3 -7h-7q-5 6 -7 13q-3 7 -6 13q-2 7 -5 14q-4 7 -6 14v1l-2 1v-56h-8v68h7q3 0 4 -1l1 -1v-2l24 -53q0 -1 1 -1v-2
q0 1 1 2v2q0 2 2 4l21 48q0 2 1 2zM36 128h77v-10v-2v-2q0 -2 -1 -3l-2 -2l-52 -71h1v1h2h1h51v-18h-81v6q0 5 1 6q0 1 2 4q1 1 1 2t1 2l2 2l1 3l46 63h-50v19zM127 128h68v-19h-49v-24h39v-20h-39v-26h49v-18h-68v107zM279 109h-29v-88h-21v88h-31v19h81v-19zM328 128
l46 -107h-12q-4 0 -8 2q-2 1 -2 3q-1 2 -3 4l-6 14h-49l-5 -14l-1 -2q-1 -1 -2 -1v-2q-1 -1 -3 -2h-2q-1 -1 -2 -1q0 -1 -1 -1h-2h-12l46 107h18zM334 63l-13 33v2q-1 0 -1 1q0 2 -1 3v-3q0 -1 -1 -1q-1 -1 -1 -2l-13 -33h30zM378 128h68v-19h-49v-27h40v-19h-40v-42h-19
v107zM553 101q2 -3 3 -6t3 -6q1 -4 1 -7v-7v-8q0 -4 -1 -7q-2 -3 -3 -6q-1 -4 -3 -7q-2 -2 -4 -5l-4 -6q-4 -2 -6 -4q-2 -3 -5 -4q-3 -3 -6 -4q-4 -1 -7 -2q-4 -1 -7 -1q-4 -1 -8 -1q-5 0 -10 2q-6 1 -11 2q-6 3 -9 6q-4 3 -9 6q-7 8 -10 17q-3 6 -4 11t-1 11q0 3 1 7
q0 3 1 7q2 8 6 12q2 4 4 7q1 2 3 5q4 2 7 4q2 2 5 4t6 3t7 3q3 0 7 1h7h8q3 -1 7 -1q3 -2 7 -3q3 -1 6 -3t5 -4t6 -4q2 -3 4 -5zM539 62l2 6v7q0 6 -2 12q-2 5 -4 8q-2 2 -5 4l-4 4q-3 2 -6 3q-6 3 -14 3t-14 -3q-2 -1 -4 -3l-6 -4t-4 -4q-2 -3 -4 -8q-2 -2 -2 -5v-7v-7
q0 -3 2 -6l4 -7q1 -3 4 -5l6 -4l4 -4q4 -1 7 -2t7 -1t7 1t7 2l6 4l4 4q3 2 5 5zM649 128h19v-107h-18l-50 72q-1 0 -1 1l-1 1q-1 2 -1 3q-2 0 -2 2v1l-2 1v-81h-19v107h17h4q2 -1 2 -2l3 -1l2 -2q5 -8 11 -15q5 -8 10 -17l12 -14q5 -8 12 -15q0 -2 1 -3v-3q0 -1 1 -2v-2v76z
M678 128h81v-19h-32v-88h-19v88h-30v19zM825 73q1 -2 3 -4l2 -4q0 -2 1 -4q1 -3 1 -7q0 -6 -3 -13l-4 -6q-2 -3 -4 -5q-4 -2 -6 -4t-6 -3t-7 -2q-4 -1 -7 -1q-4 0 -7 1q-4 1 -9 2q-3 1 -5 3q-3 2 -7 6q-2 1 -3 3q-1 1 -2 3q-2 1 -2 6l1 1l1 1q1 0 1 1h1t2 1h1h5h2q1 0 1 -1
q3 0 5 -1q2 -2 4 -3t3 -2q1 0 3 -1t5 -1q1 0 3 1q1 0 3 1q3 1 6 3l4 4q1 2 2 3t1 3q0 4 -3 6q-2 3 -4 3l-3 3h-3q-3 1 -8 4q-2 0 -4 1q-3 0 -5 2q-4 1 -6 3q-2 1 -4 3q-3 2 -4 4q-2 2 -3 4q-3 6 -3 12q0 9 3 13q1 3 3 5t5 4q2 2 5 3l6 3q2 0 5 1h7h4q2 -1 5 -1l4 -2
q1 -1 4 -2q1 -1 3 -2l4 -4l3 -2l2 -4l-4 -2l-2 -2q-2 -1 -2 -2h-4h-2h-2h-1q-3 0 -3 1l-4 2q-1 0 -1 1h-1h-3h-6h-2q-1 -1 -3 -2q-1 -1 -2 -4q-1 -1 -1 -4t1 -3l2 -2v-3h4q1 -1 2 -1l6 -2q2 -1 3 -2l5 -1q2 -2 5 -2q2 -1 5 -4zM857 39q3 0 3 -3q1 0 1 -1v-3q0 -3 -1 -5
q0 -2 -3 -4q-2 0 -3 -2h-2q-1 -1 -3 -1q-1 0 -2 1h-2l-2 2h-2q-1 1 -1 2l-2 2q-1 2 -1 5v3q0 1 1 1q1 2 2 3h1q3 3 4 3l2 2h2h3l2 -2zM898 99q-4 -4 -8 -12q-1 -2 -2 -5q-1 -4 -1 -7q0 -4 1 -7l2 -6l4 -7q1 -3 4 -5q2 -2 5 -4q2 -2 6 -4q4 -1 7 -2t7 -1q3 0 5 1t5 1q2 1 5 3
q2 1 4 3q2 0 4 1h3h3q2 0 3 -1q3 -1 5 -3l3 -5q-3 -4 -8 -7q-3 -2 -5 -3q-2 -2 -5 -3q-3 -2 -5 -2l-6 -2t-5 -1q-3 -1 -6 -1q-7 0 -12 2l-10 2q-10 5 -17 12q-8 8 -12 17q-1 6 -2 11q-2 5 -2 11q0 3 1 7q0 3 1 7l2 6q1 3 3 6q3 4 5 7q1 2 4 5l6 4q2 2 6 4q2 2 5 3t8 3
q2 0 6 1h8h6q2 0 5 -1l6 -2q2 -1 5 -2t5 -2q2 -2 5 -4q5 -4 8 -8l-3 -4l-2 -2q-1 -1 -3 -2h-3h-3h-3q-2 0 -4 1l-4 4q-3 1 -5 2q-3 1 -5 1h-5q-8 0 -14 -3q-4 -1 -6 -3zM1072 101q1 -3 3 -6l2 -6q1 -4 1 -7v-7v-8q0 -4 -1 -7l-2 -6q-2 -4 -3 -7q-4 -5 -8 -11q-4 -2 -7 -4
q-3 -3 -5 -4q-3 -3 -6 -4l-8 -2q-3 -1 -6 -1q-4 -1 -8 -1q-10 0 -21 4l-8 6q-5 3 -8 6q-4 4 -7 8t-5 9q-2 6 -3 11t-1 11q0 3 1 7v7q1 3 3 6t3 6q2 4 4 7l5 5q2 2 5 4l6 4q2 2 6 3q3 1 6 3q4 0 8 1h6h8q3 -1 6 -1q4 -2 8 -3q3 -1 6 -3q2 -2 5 -4t7 -4q1 -3 4 -5zM1057 62
q2 5 2 13v7q-1 3 -2 5q-2 5 -3 8l-4 4q-5 5 -12 7q-3 2 -6 3h-8q-7 0 -13 -3q-3 -1 -5 -3l-6 -4l-4 -4q-2 -3 -4 -8q-1 -2 -1 -5q-1 -4 -1 -7q0 -4 1 -7q0 -3 1 -6q4 -8 8 -12l6 -4q2 -2 5 -4q3 -1 7 -2t6 -1q4 0 8 1l6 2q3 2 7 4q3 2 5 4zM1188 127l1 1h2h19v-107h-19v78
v-2l-2 -3v-3q0 -1 -1 -2q-3 -9 -7 -17q-4 -9 -7 -17l-6 -16q-4 -9 -7 -18h-19l-27 68q-1 1 -1 5q-1 2 -1 3q-1 0 -1 1v-77h-20v107h19h3l1 -1q2 -1 3 -1l1 -1l3 -2l2 -2q1 -1 1 -2q2 -8 6 -15q3 -8 6 -17q3 -8 7 -16l6 -16v-1v-2v-2q2 0 2 -2v2v2q0 1 1 2v1l4 8l22 56
q0 1 1 2v2q1 1 3 2h1q1 1 2 1z" />
    <glyph glyph-name="eight" unicode="8" horiz-adv-x="1236" 
d="M1210 533v-286h-1174v286h445q0 15 3 29q2 13 8 26t14 25q7 12 18 21q18 19 44 30q14 6 28 9q13 2 27 2q16 0 30 -3t26 -9q14 -6 26 -14q11 -8 20 -17q18 -18 30 -46q10 -26 10 -53h445zM503 582q-11 -23 -11 -49q0 -28 11 -51q5 -11 12 -22t15 -20q9 -9 20 -16
q10 -7 22 -12q23 -11 51 -11q14 0 27 2q12 2 24 7q12 6 22 13q10 6 19 16q9 9 16 20q7 10 13 21q11 25 11 53q0 11 -2 23q-2 11 -7 21q-6 20 -20 37q-7 8 -15 15t-16 12l-18 10l-20 8q-7 2 -15 3q-9 1 -19 1q-14 0 -27 -2q-13 -3 -25 -9q-24 -9 -42 -28q-8 -9 -14 -20z
M144 337q3 5 3 9v5q-1 2 -3 5q0 1 -2 3l-3 3l-2 4q-2 1 -5 1l-4 2q-3 1 -5 1h-26v-75h8v28h18q2 0 5 1q2 0 4 1q5 2 7 4q1 2 3 4zM200 370h-46v-75h46v9h-35v23h29v10h-29v22h35v11zM273 295l-23 32q1 1 3 1q1 0 2 2q4 2 5 5q1 1 2 3q1 1 2 3v6v5q0 2 -1 4q-2 4 -5 7
q-2 4 -7 4q-1 1 -3 2q-3 1 -5 1h-27v-75h11v31h11l20 -27q1 -2 3 -3q1 -1 2 -1h3h7zM324 308q0 2 1 4v4q0 6 -2 10t-6 7q-1 0 -1 1q-1 1 -3 2v0q-1 0 -3 1h-1q-1 0 -1 2q-3 0 -4 1q-3 0 -4 1l-3 1q-4 1 -4 2q-3 2 -3 3v4v4q1 0 2 1t1 2l2 1h2q2 1 3 1h2h1q1 -1 2 -1
q4 0 4 -2q1 -1 2 -1h2q4 0 7 2l2 1q0 1 -1 2l-2 2q-2 1 -3 2t-3 2q-1 0 -2 1q-1 0 -3 2q-3 0 -3 1h-3h-4q-3 -1 -5 -1l-3 -3q-2 -1 -4 -1q-1 -2 -2 -3q-2 -2 -3 -4t-1 -3q-1 -2 -1 -5v-4q0 -2 2 -4q1 -2 3 -3q1 -2 1 -3l4 -2q2 -2 4 -2l4 -2q1 -1 3 -2q1 -1 3 -1h2
q3 -1 4 -1l1 -1l2 -1q0 -1 1 -3q1 -1 1 -2v-4v-1q0 -2 -1 -3l-1 -2q0 -1 -2 -2q-1 -2 -2 -2q-2 -1 -3 -2h-2h-3h-3h-3l-2 2q-2 0 -2 2l-1 1q-3 2 -6 2h-2q-1 0 -2 -1l-3 -1q0 -2 1 -2q0 -2 2 -3q0 -1 1 -2l1 -1h1q4 -4 9 -5q4 -1 9 -1h5q2 0 4 1t5 2q2 1 3 3q3 1 5 3z
M409 322q1 3 1 5v5q0 6 -1 10q0 3 -1 5q-2 2 -3 5q-2 3 -6 7q-2 2 -4 3t-5 4q-1 0 -3 1t-5 3q-3 0 -5 1h-5h-5q-3 -1 -5 -1q-3 -2 -5 -3t-4 -1q-2 -3 -4 -4t-4 -3l-3 -3q-2 -2 -3 -4q-2 -3 -2 -5q-1 -2 -2 -5q-1 -4 -1 -10q0 -4 1 -7l2 -8q1 -3 3 -6t5 -7l6 -4q3 -2 7 -2
q6 -3 14 -3h5h5q5 2 8 4q7 3 9 5q3 4 6 9q1 2 3 5zM487 370h-10v-58v3l-1 1l-36 51q-2 0 -4 3h-2h-2h-7v-75h10v61l1 -1v-2l43 -58h8v75zM571 295l-33 75h-11l-32 -75h6q3 0 4 1l2 2l2 1l4 13h39l5 -13q1 -2 3 -3q0 -1 4 -1h7zM620 304h-32v66h-11v-75h43v9zM722 370h-10
v-45v-5q0 -2 -1 -4q-1 -4 -5 -6l-2 -2q-2 -1 -3 -3q-3 -1 -4 -1h-4q-5 0 -7 1q-3 2 -5 3t-2 2q-1 1 -2 3l-3 3v4q-1 2 -1 5v45h-10v-45v-5q0 -3 1 -4q0 -4 2 -7q2 -5 6 -7q1 -1 3 -2q1 -1 3 -2q1 -1 3 -1q2 -1 3 -2q3 0 5 -1q1 -1 4 -1q2 0 4 1q1 1 4 1l4 2q1 0 3 1l6 4
q2 2 3 4q0 1 1 3l3 3q1 2 1 4v9v45zM780 308q3 4 3 8q0 6 -2 10t-6 7q-3 2 -3 3h-2q-2 0 -3 1h-1q-2 0 -3 2h-1q-1 0 -2 1q-1 0 -2 1l-3 1q-4 1 -4 2q-2 1 -2 2q-1 1 -2 1v2q-1 0 -1 2t2 4l3 3q1 0 2 1h2q0 1 5 1h1q1 -1 2 -1q1 -1 4 -2q4 -1 5 -1q3 0 4 2l3 1l-2 2l-2 2
q0 1 -1 2q-2 1 -3 2q-2 0 -3 1q-1 0 -3 2q-2 0 -3 1h-2h-5q-2 -1 -4 -1q-2 -2 -4 -3t-3 -1l-3 -3q-1 -2 -3 -4q0 -2 -1 -3q-1 -2 -1 -5t1 -4q1 -2 1 -4q2 -4 5 -6l4 -2q1 -2 2 -2q3 -1 5 -2q1 -1 3 -2t3 -1h2q1 -1 3 -1q1 0 2 -1t3 -1q1 -1 1 -3q1 -1 1 -2v-4v-1q0 -2 -1 -3
q-1 -3 -4 -4q-2 -2 -3 -2l-2 -2h-2h-3h-3h-3q-2 1 -5 4v1q-3 2 -6 2h-1q-2 0 -3 -1l-3 -1l1 -1q0 -1 1 -1q0 -1 1 -1v-2h1v-2q2 -1 3 -1q3 -4 8 -5q4 -1 9 -1h5q2 0 5 1l4 2q2 1 4 3l3 3zM841 370h-46v-75h46v9h-36v23h30v10h-30v22h36v11zM960 322v5v5v6v4q-2 5 -5 10
q-2 3 -6 7q-1 2 -3 3t-4 4q-2 0 -4 1q-3 1 -5 3q-3 0 -5 1h-5h-5q-3 -1 -5 -1q-6 -3 -10 -4q-2 -3 -3 -4q-2 -1 -4 -3l-3 -3l-4 -4q-1 -3 -2 -5t-1 -5q-2 -4 -2 -10q0 -4 1 -7l2 -8q3 -7 9 -13q2 -2 5 -4t7 -2q6 -3 15 -3h5h5q2 1 5 2l4 2q2 2 4 3t3 2q4 4 6 9zM1038 370
h-11v-58v3q-1 1 -2 1l-36 51v1q-1 0 -2 2h-2h-3h-8v-75h12v59l1 -1l42 -58h9v75zM1099 304h-32v66h-11v-75h43v9zM1159 370h-9q-2 0 -4 -2q-4 -2 -4 -4l-17 -23l-1 -1h-1l-1 1l-18 23q-1 2 -3 4t-5 2h-8l27 -37l1 -1q0 -1 1 -1v-1v-1q0 -1 1 -1v-1v-32h11v32v1v2q1 0 1 2v1
h1zM942 352l4 -4q2 -3 3 -5q0 -3 1 -5v-6q0 -6 -1 -11q-1 -3 -3 -5t-4 -3q-2 -2 -4 -3l-4 -4q-6 -2 -11 -2q-3 0 -6 1q-3 0 -5 1q-3 2 -5 4q-2 1 -4 3q-2 1 -3 3q-2 2 -2 5q-2 3 -2 6q-1 2 -1 5q0 5 3 11q0 2 2 5q1 2 3 4l4 4q2 1 5 2q4 2 11 2h5l6 -2l4 -2zM253 343
q0 -1 -2 -4q-1 0 -1 -1q-1 -1 -3 -1q-1 -1 -4 -1h-16v23h16q2 0 4 -1h3l1 -2l2 -4q1 -1 1 -5zM391 352l4 -4q2 -3 3 -5q1 -3 2 -5v-6v-5l-2 -6t-3 -5t-4 -3q-1 -2 -3 -3q-2 -2 -5 -4q-2 -1 -5 -1q-3 -1 -6 -1q-6 0 -11 2l-4 4q-3 1 -5 3l-3 3q-2 2 -3 5l-2 6q-1 2 -1 5
q0 5 3 11q1 2 3 5q2 2 3 4q2 2 5 4l4 2l6 2h5q6 0 11 -2q3 -1 5 -2zM532 358q0 -2 1 -3v-2l14 -31h-29l14 31v2v3zM132 356l2 -2q0 -2 1 -3q1 -2 1 -5v-2q0 -2 -1 -3t-1 -2q-1 -2 -2 -2l-4 -4h-5h-18v26h18q3 0 5 -1q1 0 3 -1zM580 422q-9 4 -18 10q-10 5 -17 12h157
q-8 -7 -17 -12q-9 -6 -19 -10q-10 -3 -21 -6t-22 -3q-12 0 -22 3zM557 457l154 155q14 -19 22 -39t8 -40q0 -11 -1 -21q-2 -11 -6 -21q-4 -9 -9 -17q-5 -9 -11 -17h-157zM534 453q-13 17 -22 36q-3 10 -5 21t-2 23q0 10 2 20t5 20q3 9 8 18q5 8 12 16h156zM666 642
q10 -4 19 -10t16 -11h-158q18 14 37 21q19 9 43 9zM38 171q-2 2 -2 4l-2 4q-1 3 -1 5q-1 2 -1 5t2 8q1 2 2 5q0 2 2 3l2 5q0 1 3 3q0 1 3 3q2 1 3 2q3 2 5 3l4 1q1 0 4 1h5h7q3 -1 7 -3q4 -1 7 -3l4 -4q-1 -1 -2 -1v-2h-1h-1h-2h-3q-2 1 -4 3q-2 1 -4 1h-3h-5h-5h-4l-6 -3
q-2 -2 -4 -3q-2 -3 -3 -5q-2 -2 -3 -4q-2 -3 -2 -6v-4q0 -4 1 -7l2 -4v-4q1 -1 3 -2q1 -1 2 -3q2 -1 3 -2q1 -2 3 -2q1 -1 3 -2t4 -1q1 -1 3 -1h3h5q2 0 4 1q2 0 5 1l4 2v14h-6h-1l-1 1l-1 2l-2 1v1q-1 0 -1 1v1v1h19v-26l-2 -2l-3 -3q-3 -1 -6 -1q-3 -1 -7 -1h-7h-5h-4
q-3 1 -4 2l-5 3q-1 0 -3 2q-3 1 -3 3q-3 1 -3 3zM117 214v-22h27v-7h-27v-23h33v-8h-41v68h41v-8h-33zM180 154v60h-22v8h52v-8h-23v-60h-7zM260 214v-24h29v-6h-29v-30h-8v68h41v-8h-33zM313 222v-42q0 -2 1 -3q1 -2 2 -3q1 -3 3 -4l2 -4q0 -1 2 -2l2 -2q3 -1 5 -1h4h4
q1 0 2 1q3 1 5 2q1 1 3 2q0 2 2 4q1 1 2 4q2 2 2 6v42h7v-42v-5q-1 -2 -2 -5t-2 -5l-4 -4t-4 -3q-2 -2 -4 -3q-6 -1 -11 -1q-6 0 -12 1l-3 3q-3 1 -5 3q-3 3 -5 9q-1 3 -2 5t-1 5v42h7zM383 222v-60h30v-8h-38v68h8zM428 222v-60h32v-8h-39v68h7zM522 154l-30 68h4q2 0 4 -1
q1 -1 2 -1l1 -2l21 -51v-2q1 -1 1 -3v3l1 1v1q3 7 6 13l6 12q2 8 5 14l6 12q0 2 1 2t1 1q1 1 2 1h2h4q-4 -8 -7 -16q-4 -9 -9 -17q-3 -10 -6 -18q-4 -8 -8 -17h-7zM572 214v-22h28v-7h-28v-23h33v-8h-41v68h41v-8h-33zM655 186q-1 -1 -5 -2l23 -30h-5q-1 0 -2 1h-2l-2 2
q-1 0 -2 2l-19 25h-12v-30h-7v68h25h3q1 0 3 -1q4 -1 7 -4q1 -2 2 -3l2 -4q1 -1 1 -3v-3v-4q0 -2 -1 -3q0 -2 -1 -4t-2 -3l-2 -2zM647 190q2 0 3 2q1 0 2 1h2l2 3q0 1 1 2q0 1 1 2v4v1q-1 1 -1 3l-1 2q-1 0 -2 2q-1 0 -2 1q-1 0 -2 1h-3h-18v-24h18zM709 164q1 1 2 4
q1 1 2 3v3q0 3 -1 5q-1 0 -1 2l-2 2t-4 2q-2 0 -3 1l-3 1q-2 0 -4 1t-2 2q-5 0 -7 3q-2 0 -2 2q-1 2 -2 3v7v5q0 1 1 3q0 3 4 5l3 3q1 0 4 1q2 0 3 1h4h3q1 -1 2 -1h2l3 -2q1 0 2 -1t1 -2q2 -1 3 -2q0 -1 1 -1l-2 -1q-1 -1 -4 -1h-3q-2 1 -2 2h-1h-1h-1h-1h-1h-1h-4
q-4 0 -4 -1q-3 -3 -3 -4q-2 0 -2 -4q0 -3 2 -3q0 -2 1 -3t3 -1l1 -1q2 -2 3 -2t4 -2h2q1 0 1 -1h2q1 0 2 -2h1h1v0h2l1 -1l3 -3q1 -2 3 -3q1 -5 1 -9v-5q0 -2 -3 -4q0 -3 -4 -6q-1 -1 -3 -2l-4 -2q-2 -1 -4 -1h-5q-5 0 -8 1q-4 1 -7 4q-1 0 -2 1l-2 2v2l-1 1l1 1l1 1h2h1h2
l2 -2q2 -1 3 -2t3 -1q0 -1 2 -1h3q4 0 5 1zM744 222v-68h-8v68h8zM771 164q-6 4 -9 10q-2 7 -2 15v4v4q3 5 4 8q3 4 7 8q3 3 6 5q2 2 5 3q2 0 4 1q2 0 4 1h5h5q2 -1 5 -1q2 -1 4 -1q2 -1 4 -3l3 -2q1 -2 3 -3l3 -3l3 -5q1 -3 3 -8l2 -4v-4q0 -4 -1 -7q-1 -4 -3 -8
q-1 -3 -2 -5q-2 -3 -5 -5q-3 -3 -5 -4l-6 -4q-5 -2 -13 -2q-4 0 -7 1q-4 0 -6 1zM771 199q-2 -3 -3 -6t-1 -4q0 -2 1 -4v-3q1 -4 4 -8q0 -1 1 -2t2 -3l3 -2q1 -2 4 -2q1 -1 3 -2q1 -1 2 -1q2 -1 4 -1h4h4q2 0 3 1q1 0 3 1l4 2q1 0 3 2l2 2q1 2 2 3l2 2l2 4l1 4q0 1 1 3v4v4
q-1 3 -3 6q0 2 -2 4t-3 5q-2 1 -4 3q-2 1 -5 3h-4h-6h-6h-5q-2 -2 -4 -3q-3 -2 -5 -3q-1 -3 -2 -5zM850 154h-8v68h6h3q1 0 2 -2l35 -50q1 0 1 -2l1 -1v55h8v-68h-7l-40 56v2h-1v-58zM955 214v-24h28v-6h-28v-30h-7v68h41v-8h-34zM1032 186q-4 -1 -6 -2l22 -30h-6q-2 0 -4 1
v2q-1 0 -2 2l-19 25h-12v-30h-8v68h25h3q2 0 4 -1l4 -2l2 -2q1 -2 2 -3q1 -2 3 -4q0 -1 1 -3v-3v-4q-1 -2 -1 -3l-2 -4q-1 -2 -1 -3zM1026 192q1 0 2 1h1q3 4 3 5q1 2 1 6q0 1 -1 4q0 1 -3 4q-1 0 -1 1l-2 1h-4h-17v-24h17zM1114 164q-2 -3 -5 -4l-6 -4q-3 -1 -6 -1
q-3 -1 -7 -1t-7 1q-4 0 -7 1q-6 2 -11 8q-2 2 -4 5q-2 2 -3 5l-2 8q-2 3 -2 7q0 1 1 4q0 2 1 4t2 5q0 2 1 3q2 3 4 5q1 1 2 3q2 1 4 3l4 2q2 2 4 3q2 0 4 1q3 0 5 1h4h5q2 -1 4 -1l5 -1l3 -3l4 -2l3 -3q1 -2 3 -3q1 -2 2 -5q3 -3 4 -8l2 -4v-4v-7q-1 -4 -3 -8q-1 -3 -3 -5z
M1090 161h4q2 0 4 1q1 0 3 1l2 2q1 0 3 2l4 2l2 3q0 1 1 2l2 4v4q1 1 1 3v4v4q-1 3 -1 6l-2 4q-2 2 -3 5q-3 1 -5 3q-3 1 -5 3h-5h-5h-5h-6q-3 -2 -4 -3q-2 -2 -4 -3q-3 -3 -4 -5l-2 -4q-1 -3 -1 -6v-4v-7q0 -3 1 -4q0 -2 2 -4q0 -1 2 -2q1 -1 2 -3l3 -2q1 -2 2 -2
q1 -1 3 -2q1 -1 4 -1q1 -1 3 -1h4zM1201 221q1 1 2 1h1h6v-68h-7v56l-1 -1v-1q-2 -4 -3 -8q-1 -5 -3 -8t-3 -6l-4 -7q-1 -4 -2 -7l-2 -6q-2 -3 -3 -5q-2 -3 -3 -7h-7q-5 6 -7 13q-3 7 -6 13q-2 7 -5 14q-4 7 -6 14v1l-2 1v-56h-8v68h7q3 0 4 -1l1 -1v-2l24 -53q0 -1 1 -1v-2
q0 1 1 2v2q0 2 2 4l21 48q0 2 1 2zM36 128h77v-10v-2v-2q0 -2 -1 -3l-2 -2l-52 -71h1v1h2h1h51v-18h-81v6q0 5 1 6q0 1 2 4q1 1 1 2t1 2l2 2l1 3l46 63h-50v19zM127 128h68v-19h-49v-24h39v-20h-39v-26h49v-18h-68v107zM279 109h-29v-88h-21v88h-31v19h81v-19zM328 128
l46 -107h-12q-4 0 -8 2q-2 1 -2 3q-1 2 -3 4l-6 14h-49l-5 -14l-1 -2q-1 -1 -2 -1v-2q-1 -1 -3 -2h-2q-1 -1 -2 -1q0 -1 -1 -1h-2h-12l46 107h18zM334 63l-13 33v2q-1 0 -1 1q0 2 -1 3v-3q0 -1 -1 -1q-1 -1 -1 -2l-13 -33h30zM378 128h68v-19h-49v-27h40v-19h-40v-42h-19
v107zM553 101q2 -3 3 -6t3 -6q1 -4 1 -7v-7v-8q0 -4 -1 -7q-2 -3 -3 -6q-1 -4 -3 -7q-2 -2 -4 -5l-4 -6q-4 -2 -6 -4q-2 -3 -5 -4q-3 -3 -6 -4q-4 -1 -7 -2q-4 -1 -7 -1q-4 -1 -8 -1q-5 0 -10 2q-6 1 -11 2q-6 3 -9 6q-4 3 -9 6q-7 8 -10 17q-3 6 -4 11t-1 11q0 3 1 7
q0 3 1 7q2 8 6 12q2 4 4 7q1 2 3 5q4 2 7 4q2 2 5 4t6 3t7 3q3 0 7 1h7h8q3 -1 7 -1q3 -2 7 -3q3 -1 6 -3t5 -4t6 -4q2 -3 4 -5zM539 62l2 6v7q0 6 -2 12q-2 5 -4 8q-2 2 -5 4l-4 4q-3 2 -6 3q-6 3 -14 3t-14 -3q-2 -1 -4 -3l-6 -4t-4 -4q-2 -3 -4 -8q-2 -2 -2 -5v-7v-7
q0 -3 2 -6l4 -7q1 -3 4 -5l6 -4l4 -4q4 -1 7 -2t7 -1t7 1t7 2l6 4l4 4q3 2 5 5zM649 128h19v-107h-18l-50 72q-1 0 -1 1l-1 1q-1 2 -1 3q-2 0 -2 2v1l-2 1v-81h-19v107h17h4q2 -1 2 -2l3 -1l2 -2q5 -8 11 -15q5 -8 10 -17l12 -14q5 -8 12 -15q0 -2 1 -3v-3q0 -1 1 -2v-2v76z
M678 128h81v-19h-32v-88h-19v88h-30v19zM825 73q1 -2 3 -4l2 -4q0 -2 1 -4q1 -3 1 -7q0 -6 -3 -13l-4 -6q-2 -3 -4 -5q-4 -2 -6 -4t-6 -3t-7 -2q-4 -1 -7 -1q-4 0 -7 1q-4 1 -9 2q-3 1 -5 3q-3 2 -7 6q-2 1 -3 3q-1 1 -2 3q-2 1 -2 6l1 1l1 1q1 0 1 1h1t2 1h1h5h2q1 0 1 -1
q3 0 5 -1q2 -2 4 -3t3 -2q1 0 3 -1t5 -1q1 0 3 1q1 0 3 1q3 1 6 3l4 4q1 2 2 3t1 3q0 4 -3 6q-2 3 -4 3l-3 3h-3q-3 1 -8 4q-2 0 -4 1q-3 0 -5 2q-4 1 -6 3q-2 1 -4 3q-3 2 -4 4q-2 2 -3 4q-3 6 -3 12q0 9 3 13q1 3 3 5t5 4q2 2 5 3l6 3q2 0 5 1h7h4q2 -1 5 -1l4 -2
q1 -1 4 -2q1 -1 3 -2l4 -4l3 -2l2 -4l-4 -2l-2 -2q-2 -1 -2 -2h-4h-2h-2h-1q-3 0 -3 1l-4 2q-1 0 -1 1h-1h-3h-6h-2q-1 -1 -3 -2q-1 -1 -2 -4q-1 -1 -1 -4t1 -3l2 -2v-3h4q1 -1 2 -1l6 -2q2 -1 3 -2l5 -1q2 -2 5 -2q2 -1 5 -4zM857 39q3 0 3 -3q1 0 1 -1v-3q0 -3 -1 -5
q0 -2 -3 -4q-2 0 -3 -2h-2q-1 -1 -3 -1q-1 0 -2 1h-2l-2 2h-2q-1 1 -1 2l-2 2q-1 2 -1 5v3q0 1 1 1q1 2 2 3h1q3 3 4 3l2 2h2h3l2 -2zM898 99q-4 -4 -8 -12q-1 -2 -2 -5q-1 -4 -1 -7q0 -4 1 -7l2 -6l4 -7q1 -3 4 -5q2 -2 5 -4q2 -2 6 -4q4 -1 7 -2t7 -1q3 0 5 1t5 1q2 1 5 3
q2 1 4 3q2 0 4 1h3h3q2 0 3 -1q3 -1 5 -3l3 -5q-3 -4 -8 -7q-3 -2 -5 -3q-2 -2 -5 -3q-3 -2 -5 -2l-6 -2t-5 -1q-3 -1 -6 -1q-7 0 -12 2l-10 2q-10 5 -17 12q-8 8 -12 17q-1 6 -2 11q-2 5 -2 11q0 3 1 7q0 3 1 7l2 6q1 3 3 6q3 4 5 7q1 2 4 5l6 4q2 2 6 4q2 2 5 3t8 3
q2 0 6 1h8h6q2 0 5 -1l6 -2q2 -1 5 -2t5 -2q2 -2 5 -4q5 -4 8 -8l-3 -4l-2 -2q-1 -1 -3 -2h-3h-3h-3q-2 0 -4 1l-4 4q-3 1 -5 2q-3 1 -5 1h-5q-8 0 -14 -3q-4 -1 -6 -3zM1072 101q1 -3 3 -6l2 -6q1 -4 1 -7v-7v-8q0 -4 -1 -7l-2 -6q-2 -4 -3 -7q-4 -5 -8 -11q-4 -2 -7 -4
q-3 -3 -5 -4q-3 -3 -6 -4l-8 -2q-3 -1 -6 -1q-4 -1 -8 -1q-10 0 -21 4l-8 6q-5 3 -8 6q-4 4 -7 8t-5 9q-2 6 -3 11t-1 11q0 3 1 7v7q1 3 3 6t3 6q2 4 4 7l5 5q2 2 5 4l6 4q2 2 6 3q3 1 6 3q4 0 8 1h6h8q3 -1 6 -1q4 -2 8 -3q3 -1 6 -3q2 -2 5 -4t7 -4q1 -3 4 -5zM1057 62
q2 5 2 13v7q-1 3 -2 5q-2 5 -3 8l-4 4q-5 5 -12 7q-3 2 -6 3h-8q-7 0 -13 -3q-3 -1 -5 -3l-6 -4l-4 -4q-2 -3 -4 -8q-1 -2 -1 -5q-1 -4 -1 -7q0 -4 1 -7q0 -3 1 -6q4 -8 8 -12l6 -4q2 -2 5 -4q3 -1 7 -2t6 -1q4 0 8 1l6 2q3 2 7 4q3 2 5 4zM1188 127l1 1h2h19v-107h-19v78
v-2l-2 -3v-3q0 -1 -1 -2q-3 -9 -7 -17q-4 -9 -7 -17l-6 -16q-4 -9 -7 -18h-19l-27 68q-1 1 -1 5q-1 2 -1 3q-1 0 -1 1v-77h-20v107h19h3l1 -1q2 -1 3 -1l1 -1l3 -2l2 -2q1 -1 1 -2q2 -8 6 -15q3 -8 6 -17q3 -8 7 -16l6 -16v-1v-2v-2q2 0 2 -2v2v2q0 1 1 2v1l4 8l22 56
q0 1 1 2v2q1 1 3 2h1q1 1 2 1z" />
    <glyph glyph-name="nine" unicode="9" horiz-adv-x="1236" 
d="M1210 533v-286h-1174v286h445q0 15 3 29q2 13 8 26t14 25q7 12 18 21q18 19 44 30q14 6 28 9q13 2 27 2q16 0 30 -3t26 -9q14 -6 26 -14q11 -8 20 -17q18 -18 30 -46q10 -26 10 -53h445zM503 582q-11 -23 -11 -49q0 -28 11 -51q5 -11 12 -22t15 -20q9 -9 20 -16
q10 -7 22 -12q23 -11 51 -11q14 0 27 2q12 2 24 7q12 6 22 13q10 6 19 16q9 9 16 20q7 10 13 21q11 25 11 53q0 11 -2 23q-2 11 -7 21q-6 20 -20 37q-7 8 -15 15t-16 12l-18 10l-20 8q-7 2 -15 3q-9 1 -19 1q-14 0 -27 -2q-13 -3 -25 -9q-24 -9 -42 -28q-8 -9 -14 -20z
M144 337q3 5 3 9v5q-1 2 -3 5q0 1 -2 3l-3 3l-2 4q-2 1 -5 1l-4 2q-3 1 -5 1h-26v-75h8v28h18q2 0 5 1q2 0 4 1q5 2 7 4q1 2 3 4zM200 370h-46v-75h46v9h-35v23h29v10h-29v22h35v11zM273 295l-23 32q1 1 3 1q1 0 2 2q4 2 5 5q1 1 2 3q1 1 2 3v6v5q0 2 -1 4q-2 4 -5 7
q-2 4 -7 4q-1 1 -3 2q-3 1 -5 1h-27v-75h11v31h11l20 -27q1 -2 3 -3q1 -1 2 -1h3h7zM324 308q0 2 1 4v4q0 6 -2 10t-6 7q-1 0 -1 1q-1 1 -3 2v0q-1 0 -3 1h-1q-1 0 -1 2q-3 0 -4 1q-3 0 -4 1l-3 1q-4 1 -4 2q-3 2 -3 3v4v4q1 0 2 1t1 2l2 1h2q2 1 3 1h2h1q1 -1 2 -1
q4 0 4 -2q1 -1 2 -1h2q4 0 7 2l2 1q0 1 -1 2l-2 2q-2 1 -3 2t-3 2q-1 0 -2 1q-1 0 -3 2q-3 0 -3 1h-3h-4q-3 -1 -5 -1l-3 -3q-2 -1 -4 -1q-1 -2 -2 -3q-2 -2 -3 -4t-1 -3q-1 -2 -1 -5v-4q0 -2 2 -4q1 -2 3 -3q1 -2 1 -3l4 -2q2 -2 4 -2l4 -2q1 -1 3 -2q1 -1 3 -1h2
q3 -1 4 -1l1 -1l2 -1q0 -1 1 -3q1 -1 1 -2v-4v-1q0 -2 -1 -3l-1 -2q0 -1 -2 -2q-1 -2 -2 -2q-2 -1 -3 -2h-2h-3h-3h-3l-2 2q-2 0 -2 2l-1 1q-3 2 -6 2h-2q-1 0 -2 -1l-3 -1q0 -2 1 -2q0 -2 2 -3q0 -1 1 -2l1 -1h1q4 -4 9 -5q4 -1 9 -1h5q2 0 4 1t5 2q2 1 3 3q3 1 5 3z
M409 322q1 3 1 5v5q0 6 -1 10q0 3 -1 5q-2 2 -3 5q-2 3 -6 7q-2 2 -4 3t-5 4q-1 0 -3 1t-5 3q-3 0 -5 1h-5h-5q-3 -1 -5 -1q-3 -2 -5 -3t-4 -1q-2 -3 -4 -4t-4 -3l-3 -3q-2 -2 -3 -4q-2 -3 -2 -5q-1 -2 -2 -5q-1 -4 -1 -10q0 -4 1 -7l2 -8q1 -3 3 -6t5 -7l6 -4q3 -2 7 -2
q6 -3 14 -3h5h5q5 2 8 4q7 3 9 5q3 4 6 9q1 2 3 5zM487 370h-10v-58v3l-1 1l-36 51q-2 0 -4 3h-2h-2h-7v-75h10v61l1 -1v-2l43 -58h8v75zM571 295l-33 75h-11l-32 -75h6q3 0 4 1l2 2l2 1l4 13h39l5 -13q1 -2 3 -3q0 -1 4 -1h7zM620 304h-32v66h-11v-75h43v9zM722 370h-10
v-45v-5q0 -2 -1 -4q-1 -4 -5 -6l-2 -2q-2 -1 -3 -3q-3 -1 -4 -1h-4q-5 0 -7 1q-3 2 -5 3t-2 2q-1 1 -2 3l-3 3v4q-1 2 -1 5v45h-10v-45v-5q0 -3 1 -4q0 -4 2 -7q2 -5 6 -7q1 -1 3 -2q1 -1 3 -2q1 -1 3 -1q2 -1 3 -2q3 0 5 -1q1 -1 4 -1q2 0 4 1q1 1 4 1l4 2q1 0 3 1l6 4
q2 2 3 4q0 1 1 3l3 3q1 2 1 4v9v45zM780 308q3 4 3 8q0 6 -2 10t-6 7q-3 2 -3 3h-2q-2 0 -3 1h-1q-2 0 -3 2h-1q-1 0 -2 1q-1 0 -2 1l-3 1q-4 1 -4 2q-2 1 -2 2q-1 1 -2 1v2q-1 0 -1 2t2 4l3 3q1 0 2 1h2q0 1 5 1h1q1 -1 2 -1q1 -1 4 -2q4 -1 5 -1q3 0 4 2l3 1l-2 2l-2 2
q0 1 -1 2q-2 1 -3 2q-2 0 -3 1q-1 0 -3 2q-2 0 -3 1h-2h-5q-2 -1 -4 -1q-2 -2 -4 -3t-3 -1l-3 -3q-1 -2 -3 -4q0 -2 -1 -3q-1 -2 -1 -5t1 -4q1 -2 1 -4q2 -4 5 -6l4 -2q1 -2 2 -2q3 -1 5 -2q1 -1 3 -2t3 -1h2q1 -1 3 -1q1 0 2 -1t3 -1q1 -1 1 -3q1 -1 1 -2v-4v-1q0 -2 -1 -3
q-1 -3 -4 -4q-2 -2 -3 -2l-2 -2h-2h-3h-3h-3q-2 1 -5 4v1q-3 2 -6 2h-1q-2 0 -3 -1l-3 -1l1 -1q0 -1 1 -1q0 -1 1 -1v-2h1v-2q2 -1 3 -1q3 -4 8 -5q4 -1 9 -1h5q2 0 5 1l4 2q2 1 4 3l3 3zM841 370h-46v-75h46v9h-36v23h30v10h-30v22h36v11zM960 322v5v5v6v4q-2 5 -5 10
q-2 3 -6 7q-1 2 -3 3t-4 4q-2 0 -4 1q-3 1 -5 3q-3 0 -5 1h-5h-5q-3 -1 -5 -1q-6 -3 -10 -4q-2 -3 -3 -4q-2 -1 -4 -3l-3 -3l-4 -4q-1 -3 -2 -5t-1 -5q-2 -4 -2 -10q0 -4 1 -7l2 -8q3 -7 9 -13q2 -2 5 -4t7 -2q6 -3 15 -3h5h5q2 1 5 2l4 2q2 2 4 3t3 2q4 4 6 9zM1038 370
h-11v-58v3q-1 1 -2 1l-36 51v1q-1 0 -2 2h-2h-3h-8v-75h12v59l1 -1l42 -58h9v75zM1099 304h-32v66h-11v-75h43v9zM1159 370h-9q-2 0 -4 -2q-4 -2 -4 -4l-17 -23l-1 -1h-1l-1 1l-18 23q-1 2 -3 4t-5 2h-8l27 -37l1 -1q0 -1 1 -1v-1v-1q0 -1 1 -1v-1v-32h11v32v1v2q1 0 1 2v1
h1zM942 352l4 -4q2 -3 3 -5q0 -3 1 -5v-6q0 -6 -1 -11q-1 -3 -3 -5t-4 -3q-2 -2 -4 -3l-4 -4q-6 -2 -11 -2q-3 0 -6 1q-3 0 -5 1q-3 2 -5 4q-2 1 -4 3q-2 1 -3 3q-2 2 -2 5q-2 3 -2 6q-1 2 -1 5q0 5 3 11q0 2 2 5q1 2 3 4l4 4q2 1 5 2q4 2 11 2h5l6 -2l4 -2zM253 343
q0 -1 -2 -4q-1 0 -1 -1q-1 -1 -3 -1q-1 -1 -4 -1h-16v23h16q2 0 4 -1h3l1 -2l2 -4q1 -1 1 -5zM391 352l4 -4q2 -3 3 -5q1 -3 2 -5v-6v-5l-2 -6t-3 -5t-4 -3q-1 -2 -3 -3q-2 -2 -5 -4q-2 -1 -5 -1q-3 -1 -6 -1q-6 0 -11 2l-4 4q-3 1 -5 3l-3 3q-2 2 -3 5l-2 6q-1 2 -1 5
q0 5 3 11q1 2 3 5q2 2 3 4q2 2 5 4l4 2l6 2h5q6 0 11 -2q3 -1 5 -2zM532 358q0 -2 1 -3v-2l14 -31h-29l14 31v2v3zM132 356l2 -2q0 -2 1 -3q1 -2 1 -5v-2q0 -2 -1 -3t-1 -2q-1 -2 -2 -2l-4 -4h-5h-18v26h18q3 0 5 -1q1 0 3 -1zM580 422q-9 4 -18 10q-10 5 -17 12h157
q-8 -7 -17 -12q-9 -6 -19 -10q-10 -3 -21 -6t-22 -3q-12 0 -22 3zM557 457l154 155q14 -19 22 -39t8 -40q0 -11 -1 -21q-2 -11 -6 -21q-4 -9 -9 -17q-5 -9 -11 -17h-157zM534 453q-13 17 -22 36q-3 10 -5 21t-2 23q0 10 2 20t5 20q3 9 8 18q5 8 12 16h156zM666 642
q10 -4 19 -10t16 -11h-158q18 14 37 21q19 9 43 9zM38 171q-2 2 -2 4l-2 4q-1 3 -1 5q-1 2 -1 5t2 8q1 2 2 5q0 2 2 3l2 5q0 1 3 3q0 1 3 3q2 1 3 2q3 2 5 3l4 1q1 0 4 1h5h7q3 -1 7 -3q4 -1 7 -3l4 -4q-1 -1 -2 -1v-2h-1h-1h-2h-3q-2 1 -4 3q-2 1 -4 1h-3h-5h-5h-4l-6 -3
q-2 -2 -4 -3q-2 -3 -3 -5q-2 -2 -3 -4q-2 -3 -2 -6v-4q0 -4 1 -7l2 -4v-4q1 -1 3 -2q1 -1 2 -3q2 -1 3 -2q1 -2 3 -2q1 -1 3 -2t4 -1q1 -1 3 -1h3h5q2 0 4 1q2 0 5 1l4 2v14h-6h-1l-1 1l-1 2l-2 1v1q-1 0 -1 1v1v1h19v-26l-2 -2l-3 -3q-3 -1 -6 -1q-3 -1 -7 -1h-7h-5h-4
q-3 1 -4 2l-5 3q-1 0 -3 2q-3 1 -3 3q-3 1 -3 3zM117 214v-22h27v-7h-27v-23h33v-8h-41v68h41v-8h-33zM180 154v60h-22v8h52v-8h-23v-60h-7zM260 214v-24h29v-6h-29v-30h-8v68h41v-8h-33zM313 222v-42q0 -2 1 -3q1 -2 2 -3q1 -3 3 -4l2 -4q0 -1 2 -2l2 -2q3 -1 5 -1h4h4
q1 0 2 1q3 1 5 2q1 1 3 2q0 2 2 4q1 1 2 4q2 2 2 6v42h7v-42v-5q-1 -2 -2 -5t-2 -5l-4 -4t-4 -3q-2 -2 -4 -3q-6 -1 -11 -1q-6 0 -12 1l-3 3q-3 1 -5 3q-3 3 -5 9q-1 3 -2 5t-1 5v42h7zM383 222v-60h30v-8h-38v68h8zM428 222v-60h32v-8h-39v68h7zM522 154l-30 68h4q2 0 4 -1
q1 -1 2 -1l1 -2l21 -51v-2q1 -1 1 -3v3l1 1v1q3 7 6 13l6 12q2 8 5 14l6 12q0 2 1 2t1 1q1 1 2 1h2h4q-4 -8 -7 -16q-4 -9 -9 -17q-3 -10 -6 -18q-4 -8 -8 -17h-7zM572 214v-22h28v-7h-28v-23h33v-8h-41v68h41v-8h-33zM655 186q-1 -1 -5 -2l23 -30h-5q-1 0 -2 1h-2l-2 2
q-1 0 -2 2l-19 25h-12v-30h-7v68h25h3q1 0 3 -1q4 -1 7 -4q1 -2 2 -3l2 -4q1 -1 1 -3v-3v-4q0 -2 -1 -3q0 -2 -1 -4t-2 -3l-2 -2zM647 190q2 0 3 2q1 0 2 1h2l2 3q0 1 1 2q0 1 1 2v4v1q-1 1 -1 3l-1 2q-1 0 -2 2q-1 0 -2 1q-1 0 -2 1h-3h-18v-24h18zM709 164q1 1 2 4
q1 1 2 3v3q0 3 -1 5q-1 0 -1 2l-2 2t-4 2q-2 0 -3 1l-3 1q-2 0 -4 1t-2 2q-5 0 -7 3q-2 0 -2 2q-1 2 -2 3v7v5q0 1 1 3q0 3 4 5l3 3q1 0 4 1q2 0 3 1h4h3q1 -1 2 -1h2l3 -2q1 0 2 -1t1 -2q2 -1 3 -2q0 -1 1 -1l-2 -1q-1 -1 -4 -1h-3q-2 1 -2 2h-1h-1h-1h-1h-1h-1h-4
q-4 0 -4 -1q-3 -3 -3 -4q-2 0 -2 -4q0 -3 2 -3q0 -2 1 -3t3 -1l1 -1q2 -2 3 -2t4 -2h2q1 0 1 -1h2q1 0 2 -2h1h1v0h2l1 -1l3 -3q1 -2 3 -3q1 -5 1 -9v-5q0 -2 -3 -4q0 -3 -4 -6q-1 -1 -3 -2l-4 -2q-2 -1 -4 -1h-5q-5 0 -8 1q-4 1 -7 4q-1 0 -2 1l-2 2v2l-1 1l1 1l1 1h2h1h2
l2 -2q2 -1 3 -2t3 -1q0 -1 2 -1h3q4 0 5 1zM744 222v-68h-8v68h8zM771 164q-6 4 -9 10q-2 7 -2 15v4v4q3 5 4 8q3 4 7 8q3 3 6 5q2 2 5 3q2 0 4 1q2 0 4 1h5h5q2 -1 5 -1q2 -1 4 -1q2 -1 4 -3l3 -2q1 -2 3 -3l3 -3l3 -5q1 -3 3 -8l2 -4v-4q0 -4 -1 -7q-1 -4 -3 -8
q-1 -3 -2 -5q-2 -3 -5 -5q-3 -3 -5 -4l-6 -4q-5 -2 -13 -2q-4 0 -7 1q-4 0 -6 1zM771 199q-2 -3 -3 -6t-1 -4q0 -2 1 -4v-3q1 -4 4 -8q0 -1 1 -2t2 -3l3 -2q1 -2 4 -2q1 -1 3 -2q1 -1 2 -1q2 -1 4 -1h4h4q2 0 3 1q1 0 3 1l4 2q1 0 3 2l2 2q1 2 2 3l2 2l2 4l1 4q0 1 1 3v4v4
q-1 3 -3 6q0 2 -2 4t-3 5q-2 1 -4 3q-2 1 -5 3h-4h-6h-6h-5q-2 -2 -4 -3q-3 -2 -5 -3q-1 -3 -2 -5zM850 154h-8v68h6h3q1 0 2 -2l35 -50q1 0 1 -2l1 -1v55h8v-68h-7l-40 56v2h-1v-58zM955 214v-24h28v-6h-28v-30h-7v68h41v-8h-34zM1032 186q-4 -1 -6 -2l22 -30h-6q-2 0 -4 1
v2q-1 0 -2 2l-19 25h-12v-30h-8v68h25h3q2 0 4 -1l4 -2l2 -2q1 -2 2 -3q1 -2 3 -4q0 -1 1 -3v-3v-4q-1 -2 -1 -3l-2 -4q-1 -2 -1 -3zM1026 192q1 0 2 1h1q3 4 3 5q1 2 1 6q0 1 -1 4q0 1 -3 4q-1 0 -1 1l-2 1h-4h-17v-24h17zM1114 164q-2 -3 -5 -4l-6 -4q-3 -1 -6 -1
q-3 -1 -7 -1t-7 1q-4 0 -7 1q-6 2 -11 8q-2 2 -4 5q-2 2 -3 5l-2 8q-2 3 -2 7q0 1 1 4q0 2 1 4t2 5q0 2 1 3q2 3 4 5q1 1 2 3q2 1 4 3l4 2q2 2 4 3q2 0 4 1q3 0 5 1h4h5q2 -1 4 -1l5 -1l3 -3l4 -2l3 -3q1 -2 3 -3q1 -2 2 -5q3 -3 4 -8l2 -4v-4v-7q-1 -4 -3 -8q-1 -3 -3 -5z
M1090 161h4q2 0 4 1q1 0 3 1l2 2q1 0 3 2l4 2l2 3q0 1 1 2l2 4v4q1 1 1 3v4v4q-1 3 -1 6l-2 4q-2 2 -3 5q-3 1 -5 3q-3 1 -5 3h-5h-5h-5h-6q-3 -2 -4 -3q-2 -2 -4 -3q-3 -3 -4 -5l-2 -4q-1 -3 -1 -6v-4v-7q0 -3 1 -4q0 -2 2 -4q0 -1 2 -2q1 -1 2 -3l3 -2q1 -2 2 -2
q1 -1 3 -2q1 -1 4 -1q1 -1 3 -1h4zM1201 221q1 1 2 1h1h6v-68h-7v56l-1 -1v-1q-2 -4 -3 -8q-1 -5 -3 -8t-3 -6l-4 -7q-1 -4 -2 -7l-2 -6q-2 -3 -3 -5q-2 -3 -3 -7h-7q-5 6 -7 13q-3 7 -6 13q-2 7 -5 14q-4 7 -6 14v1l-2 1v-56h-8v68h7q3 0 4 -1l1 -1v-2l24 -53q0 -1 1 -1v-2
q0 1 1 2v2q0 2 2 4l21 48q0 2 1 2zM36 128h77v-10v-2v-2q0 -2 -1 -3l-2 -2l-52 -71h1v1h2h1h51v-18h-81v6q0 5 1 6q0 1 2 4q1 1 1 2t1 2l2 2l1 3l46 63h-50v19zM127 128h68v-19h-49v-24h39v-20h-39v-26h49v-18h-68v107zM279 109h-29v-88h-21v88h-31v19h81v-19zM328 128
l46 -107h-12q-4 0 -8 2q-2 1 -2 3q-1 2 -3 4l-6 14h-49l-5 -14l-1 -2q-1 -1 -2 -1v-2q-1 -1 -3 -2h-2q-1 -1 -2 -1q0 -1 -1 -1h-2h-12l46 107h18zM334 63l-13 33v2q-1 0 -1 1q0 2 -1 3v-3q0 -1 -1 -1q-1 -1 -1 -2l-13 -33h30zM378 128h68v-19h-49v-27h40v-19h-40v-42h-19
v107zM553 101q2 -3 3 -6t3 -6q1 -4 1 -7v-7v-8q0 -4 -1 -7q-2 -3 -3 -6q-1 -4 -3 -7q-2 -2 -4 -5l-4 -6q-4 -2 -6 -4q-2 -3 -5 -4q-3 -3 -6 -4q-4 -1 -7 -2q-4 -1 -7 -1q-4 -1 -8 -1q-5 0 -10 2q-6 1 -11 2q-6 3 -9 6q-4 3 -9 6q-7 8 -10 17q-3 6 -4 11t-1 11q0 3 1 7
q0 3 1 7q2 8 6 12q2 4 4 7q1 2 3 5q4 2 7 4q2 2 5 4t6 3t7 3q3 0 7 1h7h8q3 -1 7 -1q3 -2 7 -3q3 -1 6 -3t5 -4t6 -4q2 -3 4 -5zM539 62l2 6v7q0 6 -2 12q-2 5 -4 8q-2 2 -5 4l-4 4q-3 2 -6 3q-6 3 -14 3t-14 -3q-2 -1 -4 -3l-6 -4t-4 -4q-2 -3 -4 -8q-2 -2 -2 -5v-7v-7
q0 -3 2 -6l4 -7q1 -3 4 -5l6 -4l4 -4q4 -1 7 -2t7 -1t7 1t7 2l6 4l4 4q3 2 5 5zM649 128h19v-107h-18l-50 72q-1 0 -1 1l-1 1q-1 2 -1 3q-2 0 -2 2v1l-2 1v-81h-19v107h17h4q2 -1 2 -2l3 -1l2 -2q5 -8 11 -15q5 -8 10 -17l12 -14q5 -8 12 -15q0 -2 1 -3v-3q0 -1 1 -2v-2v76z
M678 128h81v-19h-32v-88h-19v88h-30v19zM825 73q1 -2 3 -4l2 -4q0 -2 1 -4q1 -3 1 -7q0 -6 -3 -13l-4 -6q-2 -3 -4 -5q-4 -2 -6 -4t-6 -3t-7 -2q-4 -1 -7 -1q-4 0 -7 1q-4 1 -9 2q-3 1 -5 3q-3 2 -7 6q-2 1 -3 3q-1 1 -2 3q-2 1 -2 6l1 1l1 1q1 0 1 1h1t2 1h1h5h2q1 0 1 -1
q3 0 5 -1q2 -2 4 -3t3 -2q1 0 3 -1t5 -1q1 0 3 1q1 0 3 1q3 1 6 3l4 4q1 2 2 3t1 3q0 4 -3 6q-2 3 -4 3l-3 3h-3q-3 1 -8 4q-2 0 -4 1q-3 0 -5 2q-4 1 -6 3q-2 1 -4 3q-3 2 -4 4q-2 2 -3 4q-3 6 -3 12q0 9 3 13q1 3 3 5t5 4q2 2 5 3l6 3q2 0 5 1h7h4q2 -1 5 -1l4 -2
q1 -1 4 -2q1 -1 3 -2l4 -4l3 -2l2 -4l-4 -2l-2 -2q-2 -1 -2 -2h-4h-2h-2h-1q-3 0 -3 1l-4 2q-1 0 -1 1h-1h-3h-6h-2q-1 -1 -3 -2q-1 -1 -2 -4q-1 -1 -1 -4t1 -3l2 -2v-3h4q1 -1 2 -1l6 -2q2 -1 3 -2l5 -1q2 -2 5 -2q2 -1 5 -4zM857 39q3 0 3 -3q1 0 1 -1v-3q0 -3 -1 -5
q0 -2 -3 -4q-2 0 -3 -2h-2q-1 -1 -3 -1q-1 0 -2 1h-2l-2 2h-2q-1 1 -1 2l-2 2q-1 2 -1 5v3q0 1 1 1q1 2 2 3h1q3 3 4 3l2 2h2h3l2 -2zM898 99q-4 -4 -8 -12q-1 -2 -2 -5q-1 -4 -1 -7q0 -4 1 -7l2 -6l4 -7q1 -3 4 -5q2 -2 5 -4q2 -2 6 -4q4 -1 7 -2t7 -1q3 0 5 1t5 1q2 1 5 3
q2 1 4 3q2 0 4 1h3h3q2 0 3 -1q3 -1 5 -3l3 -5q-3 -4 -8 -7q-3 -2 -5 -3q-2 -2 -5 -3q-3 -2 -5 -2l-6 -2t-5 -1q-3 -1 -6 -1q-7 0 -12 2l-10 2q-10 5 -17 12q-8 8 -12 17q-1 6 -2 11q-2 5 -2 11q0 3 1 7q0 3 1 7l2 6q1 3 3 6q3 4 5 7q1 2 4 5l6 4q2 2 6 4q2 2 5 3t8 3
q2 0 6 1h8h6q2 0 5 -1l6 -2q2 -1 5 -2t5 -2q2 -2 5 -4q5 -4 8 -8l-3 -4l-2 -2q-1 -1 -3 -2h-3h-3h-3q-2 0 -4 1l-4 4q-3 1 -5 2q-3 1 -5 1h-5q-8 0 -14 -3q-4 -1 -6 -3zM1072 101q1 -3 3 -6l2 -6q1 -4 1 -7v-7v-8q0 -4 -1 -7l-2 -6q-2 -4 -3 -7q-4 -5 -8 -11q-4 -2 -7 -4
q-3 -3 -5 -4q-3 -3 -6 -4l-8 -2q-3 -1 -6 -1q-4 -1 -8 -1q-10 0 -21 4l-8 6q-5 3 -8 6q-4 4 -7 8t-5 9q-2 6 -3 11t-1 11q0 3 1 7v7q1 3 3 6t3 6q2 4 4 7l5 5q2 2 5 4l6 4q2 2 6 3q3 1 6 3q4 0 8 1h6h8q3 -1 6 -1q4 -2 8 -3q3 -1 6 -3q2 -2 5 -4t7 -4q1 -3 4 -5zM1057 62
q2 5 2 13v7q-1 3 -2 5q-2 5 -3 8l-4 4q-5 5 -12 7q-3 2 -6 3h-8q-7 0 -13 -3q-3 -1 -5 -3l-6 -4l-4 -4q-2 -3 -4 -8q-1 -2 -1 -5q-1 -4 -1 -7q0 -4 1 -7q0 -3 1 -6q4 -8 8 -12l6 -4q2 -2 5 -4q3 -1 7 -2t6 -1q4 0 8 1l6 2q3 2 7 4q3 2 5 4zM1188 127l1 1h2h19v-107h-19v78
v-2l-2 -3v-3q0 -1 -1 -2q-3 -9 -7 -17q-4 -9 -7 -17l-6 -16q-4 -9 -7 -18h-19l-27 68q-1 1 -1 5q-1 2 -1 3q-1 0 -1 1v-77h-20v107h19h3l1 -1q2 -1 3 -1l1 -1l3 -2l2 -2q1 -1 1 -2q2 -8 6 -15q3 -8 6 -17q3 -8 7 -16l6 -16v-1v-2v-2q2 0 2 -2v2v2q0 1 1 2v1l4 8l22 56
q0 1 1 2v2q1 1 3 2h1q1 1 2 1z" />
    <glyph glyph-name="colon" unicode=":" horiz-adv-x="275" 
d="M149 420q8 35 36.5 58t61.5 23q35 0 53 -23t10 -58q-7 -33 -35 -56.5t-63 -23.5q-33 0 -51.5 23.5t-11.5 56.5zM74 68q8 34 36.5 57.5t61.5 23.5q35 0 53 -23.5t10 -57.5q-7 -33 -35 -57t-63 -24q-33 0 -51.5 24t-11.5 57z" />
    <glyph glyph-name="semicolon" unicode=";" horiz-adv-x="292" 
d="M72 66q8 35 36.5 58.5t63.5 23.5t53.5 -24t10.5 -65q-9 -42 -24.5 -73t-32 -51.5t-31.5 -31t-23 -10.5q-6 0 -13 4.5t-12.5 10.5t-9 13t-2.5 13q2 7 6.5 12.5t9.5 11t10 11.5t6 15v1q-26 5 -40 28.5t-8 52.5zM149 420q8 35 36.5 58t61.5 23q35 0 53.5 -23t10.5 -58
q-7 -33 -35 -56.5t-63 -23.5q-33 0 -52 23.5t-12 56.5z" />
    <glyph glyph-name="less" unicode="&#x3c;" horiz-adv-x="480" 
d="M431 557q8 5 17 5t15 -6l50 -64q6 -6 4 -15q-1 -4 -3.5 -7.5t-5.5 -8.5l-220 -181l143 -181q4 -9 2 -15q-1 -8 -11 -18l-79 -63q-7 -7 -15 -7q-10 0 -14 7l-207 262q-5 8 -4 15q2 8 11 15z" />
    <glyph glyph-name="equal" unicode="=" horiz-adv-x="517" 
d="M112 162l15 72q5 22 28 22h330q9 0 14.5 -5.5t3.5 -16.5l-15 -72q-2 -8 -9.5 -15.5t-17.5 -7.5h-331q-22 0 -18 23zM150 339l15 72q5 22 28 22h330q9 0 14 -5.5t3 -16.5l-15 -72q-2 -8 -9 -15.5t-18 -7.5h-330q-24 0 -18 23z" />
    <glyph glyph-name="greater" unicode="&#x3e;" horiz-adv-x="485" 
d="M260 536q8 6 18 6q6 0 14 -5l207 -262q6 -7 4 -15q-1 -7 -11 -15l-318 -262q-7 -7 -17 -7q-9 0 -12 7l-52 63q-6 10 -5 18q2 8 10 15l220 181l-143 181q-3 10 -2 16q2 10 10 15z" />
    <glyph glyph-name="question" unicode="?" horiz-adv-x="568" 
d="M415 284l-14 -65q-2 -11 -10.5 -18t-17.5 -7h-90q-11 0 -15.5 8t-2.5 17l18 84q7 33 25 56t41.5 41t50 33t50 32t41 38.5t24.5 51.5q4 21 -1 40.5t-17 34.5t-30 24t-41 9q-22 0 -44.5 -9.5t-41.5 -25t-32.5 -35.5t-18.5 -41l-3 -15q-2 -11 -10 -16.5t-18 -5.5h-91
q-13 0 -16.5 6.5t-1.5 13.5l4 17q11 53 40.5 96.5t70.5 75t89.5 49t98.5 17.5q52 0 94.5 -17.5t70.5 -49.5t39 -75.5t0 -96.5q-10 -48 -30.5 -80.5t-46 -54.5t-52.5 -37.5t-50.5 -29t-40 -28.5t-21.5 -37zM217 66q7 34 35.5 57.5t61.5 23.5q35 0 53.5 -23.5t10.5 -57.5
q-7 -33 -35 -56.5t-63 -23.5q-33 0 -52 23.5t-11 56.5z" />
    <glyph glyph-name="at" unicode="@" horiz-adv-x="1236" 
d="M1210 533v-286h-1174v286h445q0 15 3 29q2 13 8 26t14 25q7 12 18 21q18 19 44 30q14 6 28 9q13 2 27 2q16 0 30 -3t26 -9q14 -6 26 -14q11 -8 20 -17q18 -18 30 -46q10 -26 10 -53h445zM503 582q-11 -23 -11 -49q0 -28 11 -51q5 -11 12 -22t15 -20q9 -9 20 -16
q10 -7 22 -12q23 -11 51 -11q14 0 27 2q12 2 24 7q12 6 22 13q10 6 19 16q9 9 16 20q7 10 13 21q11 25 11 53q0 11 -2 23q-2 11 -7 21q-6 20 -20 37q-7 8 -15 15t-16 12l-18 10l-20 8q-7 2 -15 3q-9 1 -19 1q-14 0 -27 -2q-13 -3 -25 -9q-24 -9 -42 -28q-8 -9 -14 -20z
M144 337q3 5 3 9v5q-1 2 -3 5q0 1 -2 3l-3 3l-2 4q-2 1 -5 1l-4 2q-3 1 -5 1h-26v-75h8v28h18q2 0 5 1q2 0 4 1q5 2 7 4q1 2 3 4zM200 370h-46v-75h46v9h-35v23h29v10h-29v22h35v11zM273 295l-23 32q1 1 3 1q1 0 2 2q4 2 5 5q1 1 2 3q1 1 2 3v6v5q0 2 -1 4q-2 4 -5 7
q-2 4 -7 4q-1 1 -3 2q-3 1 -5 1h-27v-75h11v31h11l20 -27q1 -2 3 -3q1 -1 2 -1h3h7zM324 308q0 2 1 4v4q0 6 -2 10t-6 7q-1 0 -1 1q-1 1 -3 2v0q-1 0 -3 1h-1q-1 0 -1 2q-3 0 -4 1q-3 0 -4 1l-3 1q-4 1 -4 2q-3 2 -3 3v4v4q1 0 2 1t1 2l2 1h2q2 1 3 1h2h1q1 -1 2 -1
q4 0 4 -2q1 -1 2 -1h2q4 0 7 2l2 1q0 1 -1 2l-2 2q-2 1 -3 2t-3 2q-1 0 -2 1q-1 0 -3 2q-3 0 -3 1h-3h-4q-3 -1 -5 -1l-3 -3q-2 -1 -4 -1q-1 -2 -2 -3q-2 -2 -3 -4t-1 -3q-1 -2 -1 -5v-4q0 -2 2 -4q1 -2 3 -3q1 -2 1 -3l4 -2q2 -2 4 -2l4 -2q1 -1 3 -2q1 -1 3 -1h2
q3 -1 4 -1l1 -1l2 -1q0 -1 1 -3q1 -1 1 -2v-4v-1q0 -2 -1 -3l-1 -2q0 -1 -2 -2q-1 -2 -2 -2q-2 -1 -3 -2h-2h-3h-3h-3l-2 2q-2 0 -2 2l-1 1q-3 2 -6 2h-2q-1 0 -2 -1l-3 -1q0 -2 1 -2q0 -2 2 -3q0 -1 1 -2l1 -1h1q4 -4 9 -5q4 -1 9 -1h5q2 0 4 1t5 2q2 1 3 3q3 1 5 3z
M409 322q1 3 1 5v5q0 6 -1 10q0 3 -1 5q-2 2 -3 5q-2 3 -6 7q-2 2 -4 3t-5 4q-1 0 -3 1t-5 3q-3 0 -5 1h-5h-5q-3 -1 -5 -1q-3 -2 -5 -3t-4 -1q-2 -3 -4 -4t-4 -3l-3 -3q-2 -2 -3 -4q-2 -3 -2 -5q-1 -2 -2 -5q-1 -4 -1 -10q0 -4 1 -7l2 -8q1 -3 3 -6t5 -7l6 -4q3 -2 7 -2
q6 -3 14 -3h5h5q5 2 8 4q7 3 9 5q3 4 6 9q1 2 3 5zM487 370h-10v-58v3l-1 1l-36 51q-2 0 -4 3h-2h-2h-7v-75h10v61l1 -1v-2l43 -58h8v75zM571 295l-33 75h-11l-32 -75h6q3 0 4 1l2 2l2 1l4 13h39l5 -13q1 -2 3 -3q0 -1 4 -1h7zM620 304h-32v66h-11v-75h43v9zM722 370h-10
v-45v-5q0 -2 -1 -4q-1 -4 -5 -6l-2 -2q-2 -1 -3 -3q-3 -1 -4 -1h-4q-5 0 -7 1q-3 2 -5 3t-2 2q-1 1 -2 3l-3 3v4q-1 2 -1 5v45h-10v-45v-5q0 -3 1 -4q0 -4 2 -7q2 -5 6 -7q1 -1 3 -2q1 -1 3 -2q1 -1 3 -1q2 -1 3 -2q3 0 5 -1q1 -1 4 -1q2 0 4 1q1 1 4 1l4 2q1 0 3 1l6 4
q2 2 3 4q0 1 1 3l3 3q1 2 1 4v9v45zM780 308q3 4 3 8q0 6 -2 10t-6 7q-3 2 -3 3h-2q-2 0 -3 1h-1q-2 0 -3 2h-1q-1 0 -2 1q-1 0 -2 1l-3 1q-4 1 -4 2q-2 1 -2 2q-1 1 -2 1v2q-1 0 -1 2t2 4l3 3q1 0 2 1h2q0 1 5 1h1q1 -1 2 -1q1 -1 4 -2q4 -1 5 -1q3 0 4 2l3 1l-2 2l-2 2
q0 1 -1 2q-2 1 -3 2q-2 0 -3 1q-1 0 -3 2q-2 0 -3 1h-2h-5q-2 -1 -4 -1q-2 -2 -4 -3t-3 -1l-3 -3q-1 -2 -3 -4q0 -2 -1 -3q-1 -2 -1 -5t1 -4q1 -2 1 -4q2 -4 5 -6l4 -2q1 -2 2 -2q3 -1 5 -2q1 -1 3 -2t3 -1h2q1 -1 3 -1q1 0 2 -1t3 -1q1 -1 1 -3q1 -1 1 -2v-4v-1q0 -2 -1 -3
q-1 -3 -4 -4q-2 -2 -3 -2l-2 -2h-2h-3h-3h-3q-2 1 -5 4v1q-3 2 -6 2h-1q-2 0 -3 -1l-3 -1l1 -1q0 -1 1 -1q0 -1 1 -1v-2h1v-2q2 -1 3 -1q3 -4 8 -5q4 -1 9 -1h5q2 0 5 1l4 2q2 1 4 3l3 3zM841 370h-46v-75h46v9h-36v23h30v10h-30v22h36v11zM960 322v5v5v6v4q-2 5 -5 10
q-2 3 -6 7q-1 2 -3 3t-4 4q-2 0 -4 1q-3 1 -5 3q-3 0 -5 1h-5h-5q-3 -1 -5 -1q-6 -3 -10 -4q-2 -3 -3 -4q-2 -1 -4 -3l-3 -3l-4 -4q-1 -3 -2 -5t-1 -5q-2 -4 -2 -10q0 -4 1 -7l2 -8q3 -7 9 -13q2 -2 5 -4t7 -2q6 -3 15 -3h5h5q2 1 5 2l4 2q2 2 4 3t3 2q4 4 6 9zM1038 370
h-11v-58v3q-1 1 -2 1l-36 51v1q-1 0 -2 2h-2h-3h-8v-75h12v59l1 -1l42 -58h9v75zM1099 304h-32v66h-11v-75h43v9zM1159 370h-9q-2 0 -4 -2q-4 -2 -4 -4l-17 -23l-1 -1h-1l-1 1l-18 23q-1 2 -3 4t-5 2h-8l27 -37l1 -1q0 -1 1 -1v-1v-1q0 -1 1 -1v-1v-32h11v32v1v2q1 0 1 2v1
h1zM942 352l4 -4q2 -3 3 -5q0 -3 1 -5v-6q0 -6 -1 -11q-1 -3 -3 -5t-4 -3q-2 -2 -4 -3l-4 -4q-6 -2 -11 -2q-3 0 -6 1q-3 0 -5 1q-3 2 -5 4q-2 1 -4 3q-2 1 -3 3q-2 2 -2 5q-2 3 -2 6q-1 2 -1 5q0 5 3 11q0 2 2 5q1 2 3 4l4 4q2 1 5 2q4 2 11 2h5l6 -2l4 -2zM253 343
q0 -1 -2 -4q-1 0 -1 -1q-1 -1 -3 -1q-1 -1 -4 -1h-16v23h16q2 0 4 -1h3l1 -2l2 -4q1 -1 1 -5zM391 352l4 -4q2 -3 3 -5q1 -3 2 -5v-6v-5l-2 -6t-3 -5t-4 -3q-1 -2 -3 -3q-2 -2 -5 -4q-2 -1 -5 -1q-3 -1 -6 -1q-6 0 -11 2l-4 4q-3 1 -5 3l-3 3q-2 2 -3 5l-2 6q-1 2 -1 5
q0 5 3 11q1 2 3 5q2 2 3 4q2 2 5 4l4 2l6 2h5q6 0 11 -2q3 -1 5 -2zM532 358q0 -2 1 -3v-2l14 -31h-29l14 31v2v3zM132 356l2 -2q0 -2 1 -3q1 -2 1 -5v-2q0 -2 -1 -3t-1 -2q-1 -2 -2 -2l-4 -4h-5h-18v26h18q3 0 5 -1q1 0 3 -1zM580 422q-9 4 -18 10q-10 5 -17 12h157
q-8 -7 -17 -12q-9 -6 -19 -10q-10 -3 -21 -6t-22 -3q-12 0 -22 3zM557 457l154 155q14 -19 22 -39t8 -40q0 -11 -1 -21q-2 -11 -6 -21q-4 -9 -9 -17q-5 -9 -11 -17h-157zM534 453q-13 17 -22 36q-3 10 -5 21t-2 23q0 10 2 20t5 20q3 9 8 18q5 8 12 16h156zM666 642
q10 -4 19 -10t16 -11h-158q18 14 37 21q19 9 43 9zM38 171q-2 2 -2 4l-2 4q-1 3 -1 5q-1 2 -1 5t2 8q1 2 2 5q0 2 2 3l2 5q0 1 3 3q0 1 3 3q2 1 3 2q3 2 5 3l4 1q1 0 4 1h5h7q3 -1 7 -3q4 -1 7 -3l4 -4q-1 -1 -2 -1v-2h-1h-1h-2h-3q-2 1 -4 3q-2 1 -4 1h-3h-5h-5h-4l-6 -3
q-2 -2 -4 -3q-2 -3 -3 -5q-2 -2 -3 -4q-2 -3 -2 -6v-4q0 -4 1 -7l2 -4v-4q1 -1 3 -2q1 -1 2 -3q2 -1 3 -2q1 -2 3 -2q1 -1 3 -2t4 -1q1 -1 3 -1h3h5q2 0 4 1q2 0 5 1l4 2v14h-6h-1l-1 1l-1 2l-2 1v1q-1 0 -1 1v1v1h19v-26l-2 -2l-3 -3q-3 -1 -6 -1q-3 -1 -7 -1h-7h-5h-4
q-3 1 -4 2l-5 3q-1 0 -3 2q-3 1 -3 3q-3 1 -3 3zM117 214v-22h27v-7h-27v-23h33v-8h-41v68h41v-8h-33zM180 154v60h-22v8h52v-8h-23v-60h-7zM260 214v-24h29v-6h-29v-30h-8v68h41v-8h-33zM313 222v-42q0 -2 1 -3q1 -2 2 -3q1 -3 3 -4l2 -4q0 -1 2 -2l2 -2q3 -1 5 -1h4h4
q1 0 2 1q3 1 5 2q1 1 3 2q0 2 2 4q1 1 2 4q2 2 2 6v42h7v-42v-5q-1 -2 -2 -5t-2 -5l-4 -4t-4 -3q-2 -2 -4 -3q-6 -1 -11 -1q-6 0 -12 1l-3 3q-3 1 -5 3q-3 3 -5 9q-1 3 -2 5t-1 5v42h7zM383 222v-60h30v-8h-38v68h8zM428 222v-60h32v-8h-39v68h7zM522 154l-30 68h4q2 0 4 -1
q1 -1 2 -1l1 -2l21 -51v-2q1 -1 1 -3v3l1 1v1q3 7 6 13l6 12q2 8 5 14l6 12q0 2 1 2t1 1q1 1 2 1h2h4q-4 -8 -7 -16q-4 -9 -9 -17q-3 -10 -6 -18q-4 -8 -8 -17h-7zM572 214v-22h28v-7h-28v-23h33v-8h-41v68h41v-8h-33zM655 186q-1 -1 -5 -2l23 -30h-5q-1 0 -2 1h-2l-2 2
q-1 0 -2 2l-19 25h-12v-30h-7v68h25h3q1 0 3 -1q4 -1 7 -4q1 -2 2 -3l2 -4q1 -1 1 -3v-3v-4q0 -2 -1 -3q0 -2 -1 -4t-2 -3l-2 -2zM647 190q2 0 3 2q1 0 2 1h2l2 3q0 1 1 2q0 1 1 2v4v1q-1 1 -1 3l-1 2q-1 0 -2 2q-1 0 -2 1q-1 0 -2 1h-3h-18v-24h18zM709 164q1 1 2 4
q1 1 2 3v3q0 3 -1 5q-1 0 -1 2l-2 2t-4 2q-2 0 -3 1l-3 1q-2 0 -4 1t-2 2q-5 0 -7 3q-2 0 -2 2q-1 2 -2 3v7v5q0 1 1 3q0 3 4 5l3 3q1 0 4 1q2 0 3 1h4h3q1 -1 2 -1h2l3 -2q1 0 2 -1t1 -2q2 -1 3 -2q0 -1 1 -1l-2 -1q-1 -1 -4 -1h-3q-2 1 -2 2h-1h-1h-1h-1h-1h-1h-4
q-4 0 -4 -1q-3 -3 -3 -4q-2 0 -2 -4q0 -3 2 -3q0 -2 1 -3t3 -1l1 -1q2 -2 3 -2t4 -2h2q1 0 1 -1h2q1 0 2 -2h1h1v0h2l1 -1l3 -3q1 -2 3 -3q1 -5 1 -9v-5q0 -2 -3 -4q0 -3 -4 -6q-1 -1 -3 -2l-4 -2q-2 -1 -4 -1h-5q-5 0 -8 1q-4 1 -7 4q-1 0 -2 1l-2 2v2l-1 1l1 1l1 1h2h1h2
l2 -2q2 -1 3 -2t3 -1q0 -1 2 -1h3q4 0 5 1zM744 222v-68h-8v68h8zM771 164q-6 4 -9 10q-2 7 -2 15v4v4q3 5 4 8q3 4 7 8q3 3 6 5q2 2 5 3q2 0 4 1q2 0 4 1h5h5q2 -1 5 -1q2 -1 4 -1q2 -1 4 -3l3 -2q1 -2 3 -3l3 -3l3 -5q1 -3 3 -8l2 -4v-4q0 -4 -1 -7q-1 -4 -3 -8
q-1 -3 -2 -5q-2 -3 -5 -5q-3 -3 -5 -4l-6 -4q-5 -2 -13 -2q-4 0 -7 1q-4 0 -6 1zM771 199q-2 -3 -3 -6t-1 -4q0 -2 1 -4v-3q1 -4 4 -8q0 -1 1 -2t2 -3l3 -2q1 -2 4 -2q1 -1 3 -2q1 -1 2 -1q2 -1 4 -1h4h4q2 0 3 1q1 0 3 1l4 2q1 0 3 2l2 2q1 2 2 3l2 2l2 4l1 4q0 1 1 3v4v4
q-1 3 -3 6q0 2 -2 4t-3 5q-2 1 -4 3q-2 1 -5 3h-4h-6h-6h-5q-2 -2 -4 -3q-3 -2 -5 -3q-1 -3 -2 -5zM850 154h-8v68h6h3q1 0 2 -2l35 -50q1 0 1 -2l1 -1v55h8v-68h-7l-40 56v2h-1v-58zM955 214v-24h28v-6h-28v-30h-7v68h41v-8h-34zM1032 186q-4 -1 -6 -2l22 -30h-6q-2 0 -4 1
v2q-1 0 -2 2l-19 25h-12v-30h-8v68h25h3q2 0 4 -1l4 -2l2 -2q1 -2 2 -3q1 -2 3 -4q0 -1 1 -3v-3v-4q-1 -2 -1 -3l-2 -4q-1 -2 -1 -3zM1026 192q1 0 2 1h1q3 4 3 5q1 2 1 6q0 1 -1 4q0 1 -3 4q-1 0 -1 1l-2 1h-4h-17v-24h17zM1114 164q-2 -3 -5 -4l-6 -4q-3 -1 -6 -1
q-3 -1 -7 -1t-7 1q-4 0 -7 1q-6 2 -11 8q-2 2 -4 5q-2 2 -3 5l-2 8q-2 3 -2 7q0 1 1 4q0 2 1 4t2 5q0 2 1 3q2 3 4 5q1 1 2 3q2 1 4 3l4 2q2 2 4 3q2 0 4 1q3 0 5 1h4h5q2 -1 4 -1l5 -1l3 -3l4 -2l3 -3q1 -2 3 -3q1 -2 2 -5q3 -3 4 -8l2 -4v-4v-7q-1 -4 -3 -8q-1 -3 -3 -5z
M1090 161h4q2 0 4 1q1 0 3 1l2 2q1 0 3 2l4 2l2 3q0 1 1 2l2 4v4q1 1 1 3v4v4q-1 3 -1 6l-2 4q-2 2 -3 5q-3 1 -5 3q-3 1 -5 3h-5h-5h-5h-6q-3 -2 -4 -3q-2 -2 -4 -3q-3 -3 -4 -5l-2 -4q-1 -3 -1 -6v-4v-7q0 -3 1 -4q0 -2 2 -4q0 -1 2 -2q1 -1 2 -3l3 -2q1 -2 2 -2
q1 -1 3 -2q1 -1 4 -1q1 -1 3 -1h4zM1201 221q1 1 2 1h1h6v-68h-7v56l-1 -1v-1q-2 -4 -3 -8q-1 -5 -3 -8t-3 -6l-4 -7q-1 -4 -2 -7l-2 -6q-2 -3 -3 -5q-2 -3 -3 -7h-7q-5 6 -7 13q-3 7 -6 13q-2 7 -5 14q-4 7 -6 14v1l-2 1v-56h-8v68h7q3 0 4 -1l1 -1v-2l24 -53q0 -1 1 -1v-2
q0 1 1 2v2q0 2 2 4l21 48q0 2 1 2zM36 128h77v-10v-2v-2q0 -2 -1 -3l-2 -2l-52 -71h1v1h2h1h51v-18h-81v6q0 5 1 6q0 1 2 4q1 1 1 2t1 2l2 2l1 3l46 63h-50v19zM127 128h68v-19h-49v-24h39v-20h-39v-26h49v-18h-68v107zM279 109h-29v-88h-21v88h-31v19h81v-19zM328 128
l46 -107h-12q-4 0 -8 2q-2 1 -2 3q-1 2 -3 4l-6 14h-49l-5 -14l-1 -2q-1 -1 -2 -1v-2q-1 -1 -3 -2h-2q-1 -1 -2 -1q0 -1 -1 -1h-2h-12l46 107h18zM334 63l-13 33v2q-1 0 -1 1q0 2 -1 3v-3q0 -1 -1 -1q-1 -1 -1 -2l-13 -33h30zM378 128h68v-19h-49v-27h40v-19h-40v-42h-19
v107zM553 101q2 -3 3 -6t3 -6q1 -4 1 -7v-7v-8q0 -4 -1 -7q-2 -3 -3 -6q-1 -4 -3 -7q-2 -2 -4 -5l-4 -6q-4 -2 -6 -4q-2 -3 -5 -4q-3 -3 -6 -4q-4 -1 -7 -2q-4 -1 -7 -1q-4 -1 -8 -1q-5 0 -10 2q-6 1 -11 2q-6 3 -9 6q-4 3 -9 6q-7 8 -10 17q-3 6 -4 11t-1 11q0 3 1 7
q0 3 1 7q2 8 6 12q2 4 4 7q1 2 3 5q4 2 7 4q2 2 5 4t6 3t7 3q3 0 7 1h7h8q3 -1 7 -1q3 -2 7 -3q3 -1 6 -3t5 -4t6 -4q2 -3 4 -5zM539 62l2 6v7q0 6 -2 12q-2 5 -4 8q-2 2 -5 4l-4 4q-3 2 -6 3q-6 3 -14 3t-14 -3q-2 -1 -4 -3l-6 -4t-4 -4q-2 -3 -4 -8q-2 -2 -2 -5v-7v-7
q0 -3 2 -6l4 -7q1 -3 4 -5l6 -4l4 -4q4 -1 7 -2t7 -1t7 1t7 2l6 4l4 4q3 2 5 5zM649 128h19v-107h-18l-50 72q-1 0 -1 1l-1 1q-1 2 -1 3q-2 0 -2 2v1l-2 1v-81h-19v107h17h4q2 -1 2 -2l3 -1l2 -2q5 -8 11 -15q5 -8 10 -17l12 -14q5 -8 12 -15q0 -2 1 -3v-3q0 -1 1 -2v-2v76z
M678 128h81v-19h-32v-88h-19v88h-30v19zM825 73q1 -2 3 -4l2 -4q0 -2 1 -4q1 -3 1 -7q0 -6 -3 -13l-4 -6q-2 -3 -4 -5q-4 -2 -6 -4t-6 -3t-7 -2q-4 -1 -7 -1q-4 0 -7 1q-4 1 -9 2q-3 1 -5 3q-3 2 -7 6q-2 1 -3 3q-1 1 -2 3q-2 1 -2 6l1 1l1 1q1 0 1 1h1t2 1h1h5h2q1 0 1 -1
q3 0 5 -1q2 -2 4 -3t3 -2q1 0 3 -1t5 -1q1 0 3 1q1 0 3 1q3 1 6 3l4 4q1 2 2 3t1 3q0 4 -3 6q-2 3 -4 3l-3 3h-3q-3 1 -8 4q-2 0 -4 1q-3 0 -5 2q-4 1 -6 3q-2 1 -4 3q-3 2 -4 4q-2 2 -3 4q-3 6 -3 12q0 9 3 13q1 3 3 5t5 4q2 2 5 3l6 3q2 0 5 1h7h4q2 -1 5 -1l4 -2
q1 -1 4 -2q1 -1 3 -2l4 -4l3 -2l2 -4l-4 -2l-2 -2q-2 -1 -2 -2h-4h-2h-2h-1q-3 0 -3 1l-4 2q-1 0 -1 1h-1h-3h-6h-2q-1 -1 -3 -2q-1 -1 -2 -4q-1 -1 -1 -4t1 -3l2 -2v-3h4q1 -1 2 -1l6 -2q2 -1 3 -2l5 -1q2 -2 5 -2q2 -1 5 -4zM857 39q3 0 3 -3q1 0 1 -1v-3q0 -3 -1 -5
q0 -2 -3 -4q-2 0 -3 -2h-2q-1 -1 -3 -1q-1 0 -2 1h-2l-2 2h-2q-1 1 -1 2l-2 2q-1 2 -1 5v3q0 1 1 1q1 2 2 3h1q3 3 4 3l2 2h2h3l2 -2zM898 99q-4 -4 -8 -12q-1 -2 -2 -5q-1 -4 -1 -7q0 -4 1 -7l2 -6l4 -7q1 -3 4 -5q2 -2 5 -4q2 -2 6 -4q4 -1 7 -2t7 -1q3 0 5 1t5 1q2 1 5 3
q2 1 4 3q2 0 4 1h3h3q2 0 3 -1q3 -1 5 -3l3 -5q-3 -4 -8 -7q-3 -2 -5 -3q-2 -2 -5 -3q-3 -2 -5 -2l-6 -2t-5 -1q-3 -1 -6 -1q-7 0 -12 2l-10 2q-10 5 -17 12q-8 8 -12 17q-1 6 -2 11q-2 5 -2 11q0 3 1 7q0 3 1 7l2 6q1 3 3 6q3 4 5 7q1 2 4 5l6 4q2 2 6 4q2 2 5 3t8 3
q2 0 6 1h8h6q2 0 5 -1l6 -2q2 -1 5 -2t5 -2q2 -2 5 -4q5 -4 8 -8l-3 -4l-2 -2q-1 -1 -3 -2h-3h-3h-3q-2 0 -4 1l-4 4q-3 1 -5 2q-3 1 -5 1h-5q-8 0 -14 -3q-4 -1 -6 -3zM1072 101q1 -3 3 -6l2 -6q1 -4 1 -7v-7v-8q0 -4 -1 -7l-2 -6q-2 -4 -3 -7q-4 -5 -8 -11q-4 -2 -7 -4
q-3 -3 -5 -4q-3 -3 -6 -4l-8 -2q-3 -1 -6 -1q-4 -1 -8 -1q-10 0 -21 4l-8 6q-5 3 -8 6q-4 4 -7 8t-5 9q-2 6 -3 11t-1 11q0 3 1 7v7q1 3 3 6t3 6q2 4 4 7l5 5q2 2 5 4l6 4q2 2 6 3q3 1 6 3q4 0 8 1h6h8q3 -1 6 -1q4 -2 8 -3q3 -1 6 -3q2 -2 5 -4t7 -4q1 -3 4 -5zM1057 62
q2 5 2 13v7q-1 3 -2 5q-2 5 -3 8l-4 4q-5 5 -12 7q-3 2 -6 3h-8q-7 0 -13 -3q-3 -1 -5 -3l-6 -4l-4 -4q-2 -3 -4 -8q-1 -2 -1 -5q-1 -4 -1 -7q0 -4 1 -7q0 -3 1 -6q4 -8 8 -12l6 -4q2 -2 5 -4q3 -1 7 -2t6 -1q4 0 8 1l6 2q3 2 7 4q3 2 5 4zM1188 127l1 1h2h19v-107h-19v78
v-2l-2 -3v-3q0 -1 -1 -2q-3 -9 -7 -17q-4 -9 -7 -17l-6 -16q-4 -9 -7 -18h-19l-27 68q-1 1 -1 5q-1 2 -1 3q-1 0 -1 1v-77h-20v107h19h3l1 -1q2 -1 3 -1l1 -1l3 -2l2 -2q1 -1 1 -2q2 -8 6 -15q3 -8 6 -17q3 -8 7 -16l6 -16v-1v-2v-2q2 0 2 -2v2v2q0 1 1 2v1l4 8l22 56
q0 1 1 2v2q1 1 3 2h1q1 1 2 1z" />
    <glyph glyph-name="A" unicode="A" horiz-adv-x="728" 
d="M450 726q5 7 12 11.5t21 4.5h75q11 0 16 -4.5t7 -11.5l148 -703l-1 -3q-2 -8 -8 -14t-23 -6h-106q-10 0 -14 3t-5 12l-24 122h-297l-75 -122q-7 -15 -22 -15h-131q-22 0 -18 18q0 2 112.5 178.5t332.5 529.5zM484 532l-157 -264h202z" />
    <glyph glyph-name="B" unicode="B" horiz-adv-x="678" 
d="M728 535q-8 -41 -29.5 -76t-51.5 -61q26 -24 41 -59t15 -76q0 -51 -23 -98t-60.5 -84t-85.5 -59t-97 -22h-329q-23 0 -23 20q0 2 0.5 3t0.5 3l146 688q7 28 34 28h297q38 0 69 -12t53.5 -33.5t35 -51.5t12.5 -65q0 -11 -1.5 -22t-3.5 -23zM476 324h-179l-41 -195h179
q21 0 42 9.5t37 25.5t26 37t10 43q0 32 -20 56t-54 24zM580 533q1 5 1.5 9.5t0.5 9.5q0 29 -19.5 45t-54.5 16h-149l-36 -171h148q40 0 70.5 26.5t38.5 64.5z" />
    <glyph glyph-name="C" unicode="C" horiz-adv-x="705" 
d="M785 688q10 -7 10 -17q0 -9 -5 -15l-66 -82q-12 -12 -21 -12q-6 0 -14 5q-26 23 -59.5 35.5t-74.5 12.5q-57 0 -109.5 -24.5t-92.5 -66t-64 -96t-24 -114.5q0 -40 13 -74.5t37 -59.5t59 -39t78 -14q41 0 80 12.5t75 35.5q8 5 17 5q8 0 15 -11l31 -83q1 -3 1 -7
q0 -9 -5 -14t-13 -10q-54 -32 -112 -49t-118 -17q-69 0 -126 23t-97.5 63t-63 95.5t-22.5 119.5q0 92 40.5 176t107 148t151.5 101.5t173 37.5q60 0 109.5 -16.5t89.5 -48.5z" />
    <glyph glyph-name="D" unicode="D" horiz-adv-x="745" 
d="M795 370q-17 -79 -61 -147t-106.5 -117.5t-138 -77.5t-154.5 -28h-230q-7 0 -14 1.5t-7 12.5q0 3 1 6l148 698q6 25 30 25h230q68 0 125 -22.5t98 -61.5t64 -93t23 -118q0 -35 -8 -78zM357 608l-100 -472h96q55 0 108.5 21.5t95.5 60t68 91t26 113.5q0 41 -14.5 75
t-41 58.5t-62.5 38.5t-80 14h-96z" />
    <glyph glyph-name="E" unicode="E" horiz-adv-x="642" 
d="M85 21l148 697q6 24 27 24h482q20 0 20 -17q0 -2 -0.5 -4t-0.5 -4l-19 -88q-2 -9 -9.5 -16t-20.5 -7h-355l-32 -152h274h2q16 0 16 -15q0 -2 -0.5 -3.5t-0.5 -3.5l-19 -91q-2 -9 -8.5 -16t-17.5 -7h-275l-39 -182h369q19 0 19 -14q0 -2 -2 -10l-19 -91q-4 -21 -26 -21
h-495q-19 0 -19 15q0 4 1 6z" />
    <glyph glyph-name="F" unicode="F" horiz-adv-x="627" 
d="M233 718q6 24 27 24h475q20 0 20 -17q0 -2 -0.5 -4t-0.5 -4l-19 -88q-2 -9 -9.5 -16t-20.5 -7h-348l-42 -197h266q19 0 19 -16q0 -4 -1 -6l-19 -90q-2 -9 -8.5 -16t-17.5 -7h-268l-54 -253q-4 -21 -26 -21h-103q-19 0 -19 15q0 4 1 6z" />
    <glyph glyph-name="G" unicode="G" horiz-adv-x="726" 
d="M575 154l33 156q5 22 27 22h82q7 0 13 -4.5t6 -12.5q0 -3 -1 -5l-48 -229v-1q-1 -2 -3.5 -6.5t-16.5 -15.5q-54 -33 -117.5 -51t-126.5 -18q-69 0 -126 23t-97.5 63t-63 95.5t-22.5 119.5q0 92 40.5 176t106.5 147.5t151 101.5t174 38q71 0 133 -25q11 -5 26 -12.5
t28.5 -16t22.5 -17.5t9 -17q0 -4 -12 -20.5t-27.5 -34.5t-31 -32.5t-22.5 -14.5t-15 6q-26 22 -63 35t-78 13q-60 0 -114.5 -25.5t-96 -67t-66 -95.5t-24.5 -111q0 -42 14.5 -77t40 -61t61.5 -40.5t79 -14.5q38 0 72.5 9.5t52.5 19.5z" />
    <glyph glyph-name="H" unicode="H" horiz-adv-x="773" 
d="M234 720q2 8 9 15t16 7h104q7 0 13 -5t6 -13q0 -1 -0.5 -2t-0.5 -2l-55 -258h331l55 258q2 9 10 15.5t18 6.5h99q8 0 14.5 -5t6.5 -13v-4l-149 -698q-4 -22 -30 -22h-99q-8 0 -13.5 4t-5.5 13q0 3 1 5l64 303h-331l-64 -303q-2 -10 -10.5 -16t-19.5 -6h-101q-18 0 -18 14
q0 2 0.5 4t0.5 4z" />
    <glyph glyph-name="I" unicode="I" horiz-adv-x="309" 
d="M85 22l149 698q2 9 8.5 15.5t17.5 6.5h101q7 0 14 -5t7 -13q0 -2 -0.5 -2.5t-0.5 -1.5l-148 -698q-4 -22 -29 -22h-101q-19 0 -19 15q0 2 0.5 3.5t0.5 3.5z" />
    <glyph glyph-name="J" unicode="J" horiz-adv-x="455" 
d="M169 -11q-50 0 -90 19.5t-63 58.5q-2 4 -2 6q0 15 15 28l62 56q12 11 22 11q6 0 11.5 -6t14 -13.5t21.5 -13.5t34 -6q29 0 53 20t30 48l111 519q5 26 31 26h94q23 0 23 -21q0 -5 -1 -8l-105 -494q-5 -26 -12 -46q-14 -39 -39.5 -72.5t-59 -58t-72 -39t-78.5 -14.5z" />
    <glyph glyph-name="K" unicode="K" horiz-adv-x="734" 
d="M234 720q2 9 8.5 15.5t17.5 6.5h102q6 0 13 -5t7 -13q0 -2 -0.5 -2.5t-0.5 -1.5l-63 -297l345 304q14 15 25 15h143q13 0 13 -6q-1 -4 -9 -10l-343 -312l221 -394q4 -8 4 -13q0 -7 -11 -7h-136q-11 0 -19 15l-171 300l-104 -88l-43 -205q-4 -22 -29 -22h-101
q-19 0 -19 15q0 2 0.5 3.5t0.5 3.5z" />
    <glyph glyph-name="L" unicode="L" horiz-adv-x="574" 
d="M234 721q2 9 9.5 15.5t18.5 6.5h102q17 0 17 -17v-5l-124 -585h292q8 0 13 -4.5t5 -12.5q0 -4 -1 -6l-19 -91q-5 -21 -27 -22h-417q-19 0 -19 15q0 2 0.5 3.5t0.5 3.5z" />
    <glyph glyph-name="M" unicode="M" horiz-adv-x="926" 
d="M516 16h-84q-7 0 -12.5 7.5t-7.5 13.5q-17 110 -34 219l-34 218l-141 -448q-8 -26 -34 -26h-91q-22 0 -22 19q0 2 0.5 4t0.5 5l218 688q3 11 12 18.5t21 7.5h117q19 0 22 -22q4 -28 9.5 -61.5t13 -86.5t17 -133.5t22.5 -203.5l291 484q6 12 15 17.5t19 5.5h116
q12 0 17 -7.5t5 -18.5l-75 -690q-6 -26 -32 -26h-91q-23 0 -23 20q0 4 1 6l48 448l-252 -434q-6 -8 -15 -16t-17 -8z" />
    <glyph glyph-name="N" unicode="N" horiz-adv-x="791" 
d="M234 720q2 9 8.5 15.5t17.5 6.5h118q8 0 15.5 -3.5t10.5 -11.5l230 -484l98 484q5 9 12.5 12t12.5 3h101q8 0 15 -6t5 -16l-148 -698q-4 -22 -29 -22h-107q-5 0 -8.5 4.5t-8.5 11.5l-242 520l-105 -514q-3 -22 -26 -22h-101q-22 0 -18 22z" />
    <glyph glyph-name="O" unicode="O" horiz-adv-x="853" 
d="M271 370q-6 -28 -6 -56q0 -40 13 -74.5t37 -59.5t59 -39t78 -14q57 0 109.5 24.5t92.5 65.5t64 95.5t24 114.5q0 41 -13 75t-37 59.5t-58.5 39.5t-78.5 14q-51 0 -97.5 -19t-84.5 -52.5t-64.5 -78t-37.5 -95.5zM122 370q17 80 61.5 149.5t107.5 121.5t139.5 82t155.5 30
q69 0 125.5 -23t97.5 -63.5t63.5 -96t22.5 -120.5q0 -92 -40.5 -175.5t-107 -147t-151 -101t-173.5 -37.5q-69 0 -126 23t-97.5 63t-63 95.5t-22.5 119.5q0 20 1.5 40t6.5 40z" />
    <glyph glyph-name="P" unicode="P" horiz-adv-x="648" 
d="M86 26l146 688q7 28 34 28h280q51 0 89.5 -19.5t62.5 -52.5t32 -76.5t-2 -90.5q-10 -46 -36 -89t-63.5 -76t-84 -52.5t-96.5 -19.5h-163l-51 -240q-6 -26 -32 -26h-94q-28 0 -22 26zM579 504q4 20 0.5 39.5t-14.5 34.5t-28 24.5t-40 9.5h-138l-46 -216h138q23 0 44 9
t38.5 24t29.5 34.5t16 40.5z" />
    <glyph glyph-name="Q" unicode="Q" horiz-adv-x="853" 
d="M124 370q17 80 61.5 149.5t107.5 121.5t139 82t155 30q69 0 126 -23t98 -63.5t63.5 -96t22.5 -120.5q0 -83 -33 -159.5t-88 -138t-127 -103t-150 -54.5l-28 -128q-4 -22 -28 -22h-102q-18 0 -18 15q0 4 1 7l27 128q-54 10 -98 36t-74.5 64.5t-47 87t-16.5 104.5
q0 41 9 83zM272 370q-6 -28 -6 -56q0 -40 13 -74.5t37 -59.5t59 -39t78 -14q57 0 109.5 24.5t93 65.5t64.5 95.5t24 114.5q0 41 -13 75t-37.5 59.5t-59 39.5t-77.5 14q-51 0 -98 -19t-85 -52.5t-64.5 -78t-37.5 -95.5z" />
    <glyph glyph-name="R" unicode="R" horiz-adv-x="687" 
d="M233 718q6 24 27 24h302q51 0 91 -19.5t65.5 -52.5t35 -77t-1.5 -94q-14 -68 -59 -122.5t-106 -86.5l70 -267q0 -1 0.5 -2t-0.5 -3q-3 -18 -25 -18h-112q-14 0 -16 15l-59 244h-162l-51 -238q-4 -21 -26 -21h-103q-9 0 -14.5 5t-3.5 16zM610 500q4 19 0.5 38t-14 34
t-28 24.5t-40.5 9.5h-171l-45 -211h174q49 0 82 31.5t42 73.5z" />
    <glyph glyph-name="S" unicode="S" horiz-adv-x="641" 
d="M619 544q-11 0 -23 13q-8 9 -20.5 20t-29 21.5t-36 17.5t-41.5 7q-56 0 -90.5 -23t-41.5 -56q-4 -18 4.5 -31.5t25.5 -24t40.5 -19.5t48.5 -17q44 -15 86 -32.5t72.5 -43t45.5 -61.5t4 -86q-12 -55 -43.5 -99t-76.5 -75t-101 -48t-116 -17q-78 0 -142 35t-103 93
q-9 13 -6 23q1 9 16 22l9 7l11 9q9 7 19 15t20 14.5t18.5 11t12.5 4.5q8 0 12.5 -5t8.5 -10q13 -17 31.5 -32.5t39.5 -27t42.5 -18t41.5 -6.5q28 0 53.5 7t45.5 20t34 31t18 40q5 22 -4.5 38t-28 27.5t-43 20t-49.5 15.5q-115 37 -164.5 88.5t-32.5 134.5q10 47 37 85
t67.5 65.5t92 42.5t111.5 15q46 0 89.5 -14t78.5 -39q10 -7 20.5 -16.5t19 -19.5t13.5 -19t4 -16q-2 -7 -6 -12.5t-10 -11.5l-18 -16v1q-18 -17 -38.5 -32.5t-28.5 -15.5z" />
    <glyph glyph-name="T" unicode="T" horiz-adv-x="611" 
d="M174 720q2 9 10.5 15.5t18.5 6.5h511q9 0 15.5 -5.5t5.5 -16.5l-19 -88q-2 -11 -10.5 -18.5t-20.5 -7.5h-182l-123 -581q-2 -8 -10.5 -16.5t-17.5 -8.5h-100q-7 0 -14.5 8t-5.5 17l124 581h-182q-10 0 -16 7t-3 19z" />
    <glyph glyph-name="U" unicode="U" horiz-adv-x="752" 
d="M370 720l-91 -427q-7 -35 -2 -66t21 -54t42.5 -36.5t61.5 -13.5t67 13.5t57.5 36.5t44 54t25.5 66l91 427q2 9 9.5 15.5t18.5 6.5h99q9 0 15.5 -6t4.5 -16l-91 -427q-13 -63 -49 -118.5t-86 -97t-111 -65.5t-124 -24t-114 24t-83.5 65.5t-44.5 97t1 118.5l91 427
q2 8 9 15t16 7h104q7 0 13.5 -6.5t4.5 -15.5z" />
    <glyph glyph-name="V" unicode="V" horiz-adv-x="718" 
d="M329 719l74 -499q32 55 70 117.5t77.5 127l79 129t73.5 123.5q8 9 18 17t21 8h99q27 0 22 -21q-1 -2 -2.5 -5.5t-1.5 -5.5l-417 -676q-7 -10 -16.5 -22t-26.5 -12h-66q-17 0 -22.5 15t-8.5 34q-31 165 -52 278t-35 187t-22 115t-11.5 60.5t-3.5 24.5v8q5 20 29 20h97
q23 0 25 -23z" />
    <glyph glyph-name="W" unicode="W" horiz-adv-x="1065" 
d="M407 216l290 507q11 19 32 19h117q20 0 20 -14q0 -3 -0.5 -7t-3.5 -10l-154 -258l31 -237q5 9 11.5 20t18.5 31t31.5 53t51.5 85.5t78 129.5t111 185q5 10 14 16t22 6h108q22 0 22 -15q0 -5 -1 -9t-2 -6q-18 -29 -36.5 -59t-42.5 -68.5t-54.5 -88t-72.5 -116t-97 -154.5
t-127 -203q-2 -5 -10.5 -14t-22.5 -9h-76q-14 0 -19.5 6t-5.5 14q-11 60 -23.5 124t-24.5 124l-142 -231q-8 -14 -19.5 -25.5t-25.5 -11.5h-73q-18 0 -23 13.5t-5 21.5q-32 168 -64.5 339t-63.5 338q3 14 7.5 22t21.5 8h104q21 0 25 -24z" />
    <glyph glyph-name="X" unicode="X" horiz-adv-x="708" 
d="M506 355l158 -321q4 -9 4 -18q0 -16 -18 -16h-99q-20 0 -27 20q-26 57 -54 115.5t-54 115.5q-51 -58 -102 -115t-102 -116q-8 -8 -17.5 -14t-18.5 -6h-118q-15 0 -15 11q0 5 6 13t14 16l297 335q-16 35 -32.5 71t-35.5 76.5t-40.5 87t-47.5 101.5q-4 10 -4 14
q0 10 7.5 13.5t18.5 3.5h92q14 0 20 -7.5t13 -21.5l98 -234l217 241q19 20 41 22h107q22 0 22 -10q-1 -3 -3 -8.5t-8 -11.5z" />
    <glyph glyph-name="Y" unicode="Y" horiz-adv-x="684" 
d="M347 314l-151 397q-1 2 -2.5 8t-1.5 8q0 7 6 11t13 4h128q9 -2 12 -4t9 -17l80 -271l217 273q11 13 15 15.5t12 3.5h130q12 0 12 -9q0 -8 -10 -20l-321 -398l-60 -287q-6 -28 -34 -28h-96q-20 0 -20 19q0 6 1 9z" />
    <glyph glyph-name="Z" unicode="Z" horiz-adv-x="677" 
d="M602 0h-542q-10 0 -17.5 6t-5.5 16l17 82q1 4 3 8t7 9l486 484h-357q-23 0 -23 20q0 1 0.5 3t2 11t5.5 26.5t11 49.5q5 27 33 27h536q10 0 16.5 -5.5t6.5 -15.5v-3t-1.5 -9.5t-5 -23t-9.5 -43.5q-2 -5 -3 -9t-6 -9l-487 -487h362q10 0 16.5 -5t6.5 -15q0 -1 -0.5 -3
t-2 -10.5t-5.5 -26t-10 -48.5q-2 -11 -12 -20t-22 -9z" />
    <glyph glyph-name="bracketleft" unicode="[" horiz-adv-x="296" 
d="M49 -94l197 929q6 26 33 26h174q26 -2 20 -26l-16 -80q-6 -28 -33 -28h-60l-152 -714h60q11 0 17.5 -7.5t3.5 -20.5l-17 -79q-6 -26 -32 -26h-174q-27 0 -21 26z" />
    <glyph glyph-name="backslash" unicode="\" horiz-adv-x="527" 
d="M335 19q-38 177 -76.5 350t-77.5 350q-1 2 -0.5 4t0.5 4q2 9 10 12t16 3h93q22 0 26 -22l153 -699v-10q-3 -11 -21 -11h-101q-18 0 -22 19z" />
    <glyph glyph-name="bracketright" unicode="]" horiz-adv-x="323" 
d="M438 835l-197 -929q-6 -26 -33 -26h-173q-26 0 -21 26l17 79q3 13 12 20.5t20 7.5h60l152 714h-60q-11 0 -17 7t-3 21l16 80q6 24 33 26h173q27 0 21 -26z" />
    <glyph glyph-name="asciicircum" unicode="^" horiz-adv-x="488" 
d="M193 639l208 172q9 7 16 7t12 -7l136 -172q2 -3 4 -7t1 -9q-2 -8 -8.5 -12.5t-12.5 -10.5l-44 -36q-11 -9 -19 -9t-14 7l-86 111l-134 -111q-5 -3 -8 -5t-8 -2q-8 0 -15 9l-34 43q-3 4 -5 7.5t0 8.5q1 8 11 16z" />
    <glyph glyph-name="underscore" unicode="_" horiz-adv-x="451" 
d="M18 -39h403q11 0 17 -7t3 -20l-14 -65q-2 -10 -11 -19.5t-21 -9.5h-402q-27 0 -21 29l14 65q6 27 32 27z" />
    <glyph glyph-name="grave" unicode="`" horiz-adv-x="258" 
d="M230 608l-23 105q-4 11 -2 19q3 10 16 10h75q10 0 14.5 -5t8.5 -16l22 -102q2 -7 2 -11v-8q-3 -13 -20 -13h-71q-18 0 -22 21z" />
    <glyph glyph-name="a" unicode="a" horiz-adv-x="594" 
d="M425 27q2 10 2 19t1 19q-12 -13 -26 -26.5t-31 -24.5t-39 -17.5t-49 -6.5h-3q-53 0 -93.5 19.5t-65 54t-32.5 80.5t3 100q12 54 39.5 100.5t66.5 80.5t87.5 53.5t102.5 19.5q28 0 48.5 -7t35 -18.5t23.5 -26.5t15 -31l19 48q8 17 13.5 22.5t19.5 5.5h54q11 0 18.5 -7.5
t4.5 -19.5l-93 -439q-3 -12 -13 -18.5t-21 -6.5h-64q-15 0 -19 7.5t-4 19.5zM223 243q-12 -56 12.5 -94t79.5 -38q28 0 52.5 10t44 27.5t33 41.5t19.5 52q6 27 2.5 51.5t-15.5 43t-32 29t-48 10.5t-52.5 -10.5t-44 -29t-32.5 -42.5t-19 -51z" />
    <glyph glyph-name="b" unicode="b" horiz-adv-x="593" 
d="M85 25l148 692q2 11 12 18t21 7h77q27 0 22 -25l-60 -281q26 26 60.5 43.5t79.5 17.5q51 0 89.5 -20t62 -54.5t30.5 -80.5t-4 -99q-11 -52 -39 -98.5t-66.5 -80.5t-85 -54t-95.5 -20q-48 0 -76.5 18t-45.5 54q-5 -11 -8.5 -21t-7.5 -19q-9 -18 -24 -20t-32 -2h-39
q-24 1 -19 25zM250 241q-6 -27 -1.5 -51t17.5 -41.5t32.5 -28t43.5 -10.5q25 0 49 10.5t44 28.5t34 42t20 51t2.5 51.5t-15.5 42.5t-31 28.5t-44 10.5t-49.5 -10.5t-45 -28.5t-35.5 -42.5t-21 -51.5v-1z" />
    <glyph glyph-name="c" unicode="c" horiz-adv-x="511" 
d="M318 115q30 1 53.5 8.5t50.5 18.5q8 5 16 5q7 0 10.5 -6t6.5 -14l24 -53q2 -8 2 -11q-2 -9 -9 -14t-13 -9q-38 -22 -79.5 -36.5t-85.5 -14.5q-52 0 -94.5 20t-70 54.5t-38 81t0.5 99.5q12 53 42 100t72 82t93 55t104 20q40 0 74.5 -13t63.5 -36q16 -11 13 -25
q-1 -2 -2.5 -5.5t-3.5 -5.5l-53 -67q-8 -10 -18 -10q-5 0 -14 7q-15 14 -38 23t-47 9q-28 0 -54 -11t-47.5 -29.5t-36.5 -43t-21 -51.5q-13 -57 16 -92.5t83 -35.5z" />
    <glyph glyph-name="d" unicode="d" horiz-adv-x="594" 
d="M681 717l-147 -692q-5 -24 -30 -25h-39q-19 0 -34 3q-13 4 -12.5 22t1.5 37q-33 -36 -67.5 -54t-85.5 -18t-90 20t-62.5 54t-30.5 80.5t4 98.5q11 53 38 99t65 80.5t85.5 54.5t100.5 20q48 0 72.5 -17.5t39.5 -43.5l60 281q5 25 32 25h77q11 0 18 -7t5 -18zM462 242
q6 27 2 51.5t-16 42.5t-32 28.5t-47 10.5q-28 0 -52.5 -10.5t-43 -28.5t-31.5 -42.5t-19 -51.5q-12 -55 10.5 -93.5t79.5 -38.5q26 0 50.5 10.5t44 28t33.5 41.5t20 51z" />
    <glyph glyph-name="e" unicode="e" horiz-adv-x="532" 
d="M317 107q21 -1 44 6t45 18q9 4 17 9t13 5q9 0 14 -9l27 -62q2 -4 2 -7.5v-5.5q-2 -8 -8 -13.5t-13 -10.5q-37 -25 -79 -37t-85 -12q-52 0 -94 20t-69.5 54.5t-38 81.5t0.5 100q11 52 41 98.5t70.5 82t87.5 56t93 20.5q55 0 96 -20t66.5 -53.5t34 -77t-0.5 -90.5
q-7 -35 -30.5 -45.5t-55.5 -10.5h-271q-2 -22 5 -39.5t20.5 -30.5t31 -20t36.5 -7zM243 290h215q8 42 -18 67t-71 25q-18 0 -38 -7t-37 -19.5t-31 -29.5t-20 -36z" />
    <glyph glyph-name="f" unicode="f" horiz-adv-x="341" 
d="M-12 -204q-22 0 -22 19q0 5 1 7l13 64q2 12 10.5 18.5t19.5 6.5h2q25 2 47 21.5t28 46.5l86 404h-39q-21 0 -21 20q0 6 1 9l11 52q6 27 32 27h40l18 87q9 40 30.5 72t52 54t67.5 33.5t77 11.5q22 0 22 -20v-8l-15 -69q-2 -11 -9.5 -18.5t-18.5 -7.5q-29 0 -50 -14.5
t-28 -47.5l-16 -73h53q21 0 21 -19q0 -5 -1 -8l-11 -52q-2 -13 -11 -21t-21 -8h-52l-79 -373q-3 -11 -5.5 -22.5t-6.5 -22.5q-12 -38 -34 -68.5t-52 -53t-66 -35t-74 -12.5z" />
    <glyph glyph-name="g" unicode="g" horiz-adv-x="596" 
d="M392 -10q4 6 7.5 17.5t7 24t6.5 24.5t5 21q-22 -29 -56 -52.5t-81 -23.5q-52 0 -92.5 18t-66 50.5t-34 77.5t3.5 98q11 53 39 99t67 80t87.5 53.5t100.5 19.5q48 0 79.5 -24t33.5 -57l25 46q8 13 14 20.5t21 7.5h58q11 0 19 -7t5 -21l-90 -423q-13 -60 -42 -106
t-70 -77.5t-90.5 -48t-103.5 -16.5q-21 0 -44 3t-45.5 9.5t-42.5 17.5t-34 26q-11 9 -8 25q2 5 4.5 10t7.5 10l52 54q13 11 22 11t19 -9q16 -18 43.5 -23.5t47.5 -5.5q17 0 36 5t36 14t31 22t22 30zM230 245q-11 -51 11.5 -86t73.5 -35q25 0 49 9.5t44 26t34.5 38.5t19.5 46
t0 46t-17.5 39.5t-32.5 27.5t-45 10t-47.5 -10t-40.5 -26.5t-31 -38.5t-18 -47z" />
    <glyph glyph-name="h" unicode="h" horiz-adv-x="614" 
d="M358 718l-61 -286q12 11 31 23t41.5 21.5t47 15.5t48.5 6q46 0 78 -16t50.5 -44.5t24 -67t-2.5 -82.5q0 -3 -2 -11l-53 -252q-6 -25 -30 -25h-83q-14 0 -17.5 6t-1.5 18l54 253q8 40 -13 68.5t-62 28.5q-18 0 -41 -6.5t-44 -18.5t-37 -30.5t-21 -42.5l-54 -254
q-4 -14 -14.5 -18t-21.5 -4h-74q-27 0 -22 23l148 695q2 11 9.5 17.5t20.5 6.5h81q25 0 21 -24z" />
    <glyph glyph-name="i" unicode="i" horiz-adv-x="288" 
d="M306 467l-95 -444q-5 -23 -29 -23h-84q-24 0 -19 23l95 444q2 11 9.5 17.5t18.5 6.5h84q9 0 15.5 -6.5t4.5 -17.5zM198 637q7 32 33.5 54.5t58.5 22.5q33 0 50.5 -22.5t10.5 -54.5t-33.5 -54t-59.5 -22q-32 0 -49.5 22t-10.5 54z" />
    <glyph glyph-name="j" unicode="j" horiz-adv-x="282" 
d="M-24 -204q-28 0 -21 26l13 64q6 25 30 25h2q26 2 47.5 21.5t27.5 46.5l103 486q3 13 12 19.5t20 6.5h79q12 0 18 -7.5t3 -18.5l-96 -455q-3 -11 -5.5 -22.5t-6.5 -22.5q-12 -38 -34 -68.5t-52 -53t-66 -35t-74 -12.5zM203 637q7 32 33.5 54.5t58.5 22.5q33 0 50.5 -22.5
t10.5 -54.5t-33.5 -54t-59.5 -22q-32 0 -49.5 22t-10.5 54z" />
    <glyph glyph-name="k" unicode="k" horiz-adv-x="573" 
d="M226 713q3 13 8 21t28 8h84q15 0 18 -8.5t1 -16.5l-84 -394l171 154q12 11 27 11h118q20 0 17 -16q-1 -5 -2.5 -7.5t-7.5 -7.5l-193 -167l144 -255h-1q8 -9 6 -20q-2 -9 -7.5 -12t-15.5 -3h-130q-11 0 -21 20l-87 178l-53 -44l-26 -125q-2 -6 -9 -17.5t-23 -11.5h-88
q-7 0 -11 4t-6 8.5t-2.5 8.5l-0.5 4z" />
    <glyph glyph-name="l" unicode="l" horiz-adv-x="282" 
d="M362 714l-146 -687q-5 -27 -34 -27h-80q-27 0 -22 27l146 687q3 13 11.5 21t22.5 8h80q9 0 17 -8t5 -21z" />
    <glyph glyph-name="m" unicode="m" horiz-adv-x="904" 
d="M207 491h66q9 0 13.5 -7t6 -16.5t1.5 -20.5v-20q26 25 64.5 46.5t86.5 21.5q52 0 85 -22.5t46 -54.5q32 35 78 57.5t91 22.5q51 0 83 -16t49.5 -44.5t21 -66t-4.5 -81.5q-2 -11 -4.5 -22t-4.5 -23l-46 -216q-3 -14 -13 -21.5t-24 -7.5h-75q-32 0 -26 28l52 249
q8 38 -3 64t-46 26q-18 0 -37 -7t-36 -19t-29.5 -28t-16.5 -35l-53 -249q-3 -14 -12.5 -21.5t-22.5 -7.5h-83q-27 0 -21 28l53 254q9 41 -7 63t-51 22q-17 0 -35.5 -6.5t-35 -18.5t-28 -28t-15.5 -34l-54 -254q-2 -11 -11 -18.5t-20 -7.5h-85q-14 0 -20 7.5t-3 19.5l92 433
q3 14 14 22.5t20 8.5z" />
    <glyph glyph-name="n" unicode="n" horiz-adv-x="614" 
d="M262 491q15 0 21.5 -5t8.5 -14t1.5 -20.5t-0.5 -24.5q29 26 73 48t93 22q47 0 80 -15t52 -41t24 -62.5t-4 -79.5l-57 -270q-3 -14 -13 -21.5t-22 -7.5h-82q-16 0 -20.5 7t-1.5 21l52 248q9 41 -11.5 65.5t-59.5 24.5q-16 0 -35 -7t-36.5 -18.5t-31.5 -27.5t-21 -34
l-54 -252q-5 -27 -35 -27h-80q-15 0 -20.5 7.5t-3.5 19.5l92 434q8 30 37 30h54z" />
    <glyph glyph-name="o" unicode="o" horiz-adv-x="585" 
d="M76 244q11 53 41 100t72.5 82t94 55t105.5 20t97 -20t70.5 -55t38 -82t-0.5 -100t-41.5 -99.5t-73 -81t-93.5 -54.5t-105 -20t-97 20t-70.5 54.5t-38 81t0.5 99.5zM209 243q-6 -27 -1 -50.5t18 -41.5t34 -28t48 -10t52 10t45.5 28t35.5 41.5t21 50.5t1 50.5t-18.5 41.5
t-34 28.5t-47.5 10.5t-52 -10.5t-46 -28.5t-35.5 -41.5t-20.5 -50.5z" />
    <glyph glyph-name="p" unicode="p" horiz-adv-x="591" 
d="M41 -169l134 632q3 13 11.5 21t22.5 9h49q16 0 26.5 -3.5t12.5 -22.5l-1 -33q32 32 66 50t79 18q50 0 88.5 -20t62.5 -54t32 -80t-3 -99t-38.5 -99t-66 -80.5t-86 -54t-98.5 -19.5q-38 0 -64.5 15t-42.5 36l-45 -216q-3 -13 -13 -21.5t-25 -8.5h-75q-14 0 -21.5 8
t-4.5 22zM256 252q-6 -27 -2 -50t16 -40t30.5 -27t41.5 -10t45.5 10t41.5 27t32.5 39.5t18.5 48.5q6 26 2 48.5t-15.5 39.5t-30 26.5t-41.5 9.5t-45.5 -9.5t-41.5 -26t-33 -39t-19 -47.5z" />
    <glyph glyph-name="q" unicode="q" horiz-adv-x="585" 
d="M634 463l-135 -631q-2 -13 -13.5 -21t-24.5 -8h-76q-15 0 -21 8t-4 21l46 215q-24 -21 -57 -36t-71 -15q-51 0 -90 19.5t-63 54t-31.5 80.5t3.5 99t38.5 99t66 80t85.5 54t97 20q45 0 71.5 -18t44.5 -50l13 33q10 19 22 22.5t28 3.5h49q14 -1 19 -9t3 -21zM463 252
q5 25 1 47.5t-16 39t-30.5 26t-41.5 9.5t-45.5 -9.5t-41.5 -26.5t-32.5 -39.5t-18.5 -48.5q-6 -26 -2 -48.5t15.5 -39.5t30 -27t41.5 -10t46 10t42 27t32.5 40t19.5 50z" />
    <glyph glyph-name="r" unicode="r" horiz-adv-x="474" 
d="M288 465l2 -41q12 12 27 25t33 23.5t38.5 17.5t41.5 7h10t9 -1q14 -1 30.5 -7.5t30.5 -15t23.5 -18t7.5 -17.5q-1 -6 -8 -14l-54 -65q-12 -14 -24 -14q-9 0 -26 12q-13 8 -22.5 13t-23.5 5q-22 0 -41.5 -8.5t-34.5 -22.5t-25 -31.5t-13 -34.5l-54 -253q-6 -25 -32 -25
h-77q-27 0 -21 25l93 441q3 12 12.5 18.5t19.5 6.5h57q13 0 16.5 -8t4.5 -18z" />
    <glyph glyph-name="s" unicode="s" horiz-adv-x="470" 
d="M492 399l-63 -48q-9 -8 -14.5 -4.5t-9.5 5.5q-7 5 -15.5 11.5t-19.5 13.5t-24 11.5t-29 4.5q-38 0 -54 -12.5t-20 -30.5q-3 -12 4.5 -20t20 -13t29 -9t32.5 -9q31 -9 59 -20t48 -28t29.5 -41.5t1.5 -60.5q-8 -38 -31 -68t-55.5 -50.5t-72.5 -31.5t-83 -11q-51 0 -96 21
t-71 60q-7 12 -4 21q1 10 13 20l53 42q10 7 18 7q6 0 11.5 -4.5t9.5 -8.5q20 -23 45 -34.5t43 -11.5q40 0 64 13.5t29 35.5t-19.5 32.5t-61.5 21.5q-87 24 -118.5 60.5t-20.5 92.5q7 32 26.5 59t49 46t66.5 29.5t79 10.5q46 0 88 -14.5t67 -49.5q16 -22 -4 -38z" />
    <glyph glyph-name="t" unicode="t" horiz-adv-x="328" 
d="M215 626q5 26 37 29l79 11q3 1 7 1q14 0 17.5 -8.5t0.5 -21.5l-31 -146h60q12 0 18 -7.5t3 -21.5l-11 -55q-7 -31 -35 -31h-60l-73 -347q-6 -29 -38 -29h-77q-30 0 -24 29l74 347h-27q-29 0 -23 31l12 55q6 29 35 29h27z" />
    <glyph glyph-name="u" unicode="u" horiz-adv-x="608" 
d="M453 0q-15 0 -22 4.5t-9.5 12.5t-2.5 19t-1 24q-29 -26 -75 -46t-95 -20q-46 0 -78.5 14.5t-51 41t-23 62.5t4.5 79l58 270q3 14 13 22t22 8h82q16 0 20.5 -7.5t1.5 -21.5l-53 -248q-8 -41 10 -65t57 -24q16 0 37.5 6.5t41 17.5t34.5 27t19 35l54 252q6 28 35 28h81
q14 0 19.5 -8t3.5 -20l-92 -433q-6 -30 -37 -30h-54z" />
    <glyph glyph-name="v" unicode="v" horiz-adv-x="543" 
d="M269 468l40 -276l158 277q13 22 38 22h89q27 0 22 -23q-1 -4 -3 -8t-2 -5l-264 -424q-8 -12 -18 -21.5t-23 -9.5h-74q-18 0 -23.5 13t-8.5 28l-80 411q-3 16 5 27.5t26 11.5h91q24 0 27 -23z" />
    <glyph glyph-name="w" unicode="w" horiz-adv-x="813" 
d="M275 468l38 -268l150 265q8 12 17 19t24 7h80q17 0 22.5 -10t-2.5 -24l-50 -88l27 -170l150 266q8 14 18.5 20t21.5 6h91q28 0 23 -21q-1 -3 -2.5 -6.5t-3.5 -6.5l-262 -428q-5 -6 -14 -17.5t-20 -11.5h-79q-9 0 -15 5t-9 12t-4.5 14t-2.5 10l-28 149l-101 -164
q-5 -8 -14 -17t-23 -9h-74q-19 0 -24 12.5t-7 25.5l-77 419q-2 15 7.5 24.5t23.5 9.5h91q23 0 28 -23z" />
    <glyph glyph-name="x" unicode="x" horiz-adv-x="527" 
d="M146 0h-118q-13 0 -13 6.5t7 14.5l212 235l-100 208q-7 12 -3 19.5t19 7.5h90q21 0 31 -6t18 -27l44 -113l109 129q9 11 17 14t16 3h107q19 0 16 -10q-2 -5 -9 -14q-28 -30 -50 -54t-44 -47.5t-45.5 -49.5t-54.5 -60l108 -227q5 -11 4 -20t-16 -9h-117q-14 0 -18.5 8.5
t-12.5 22.5q-13 31 -25.5 61t-24.5 61l-113 -134q-17 -19 -34 -19z" />
    <glyph glyph-name="y" unicode="y" horiz-adv-x="559" 
d="M629 448l-373 -624q-5 -8 -13.5 -15t-19.5 -7h-85q-17 0 -21.5 10t3.5 24l95 169l-88 448q-3 17 6 27.5t26 10.5h87q13 0 19.5 -6.5t7.5 -17.5v1l47 -293l170 294q13 22 38 22h86q16 0 20.5 -7t2.5 -18q-1 -2 -2.5 -6.5t-5.5 -11.5z" />
    <glyph glyph-name="z" unicode="z" horiz-adv-x="517" 
d="M158 461q3 14 13.5 22t24.5 8h355q12 0 20 -7.5t4 -22.5l-14 -67q-1 -3 -2 -7.5t-6 -9.5l-285 -253h209q14 0 21 -7.5t3 -23.5l-12 -60q-2 -12 -13 -22.5t-25 -10.5h-370q-13 0 -20 10t-4 23l11 53q1 5 3 10.5t8 10.5q32 29 70 62t78 67.5t78.5 68t70.5 62.5h-207
q-31 0 -24 32z" />
    <glyph glyph-name="braceleft" unicode="{" horiz-adv-x="357" 
d="M504 890q2 0 5 0.5t6 0.5q30 -2 24 -28l-20 -95q-2 -12 -11.5 -20.5t-21.5 -8.5h-2q-26 0 -51.5 -20.5t-31.5 -48.5l-49 -232q-4 -17 -16 -34t-29 -31q24 -31 17 -66l-50 -235q-6 -29 10.5 -48t36.5 -19q13 0 22.5 -9t6.5 -23l-20 -97q-7 -28 -35 -28q-45 3 -80.5 20
t-58 46t-30.5 68.5t2 87.5l39 182q3 14 2.5 30.5t-17.5 16.5h-30q-27 0 -21 28l20 92q5 27 32 27h28q20 0 26.5 15.5t10.5 32.5l37 174q10 45 33.5 84.5t56.5 69t74 47.5t85 21z" />
    <glyph glyph-name="bar" unicode="|" horiz-adv-x="293" 
d="M39 -174l191 900q2 11 10.5 19t22.5 8h83q10 0 17.5 -7.5t4.5 -19.5l-191 -900q-5 -26 -34 -26h-83q-27 0 -21 26z" />
    <glyph glyph-name="braceright" unicode="}" horiz-adv-x="360" 
d="M230 890q43 -3 76 -21t54 -47.5t27.5 -69t-2.5 -84.5l-37 -174q-4 -16 -3.5 -32t19.5 -16h28q27 0 21 -27l-19 -92q-6 -28 -33 -28h-30q-17 0 -24.5 -16.5t-10.5 -30.5l-39 -182q-10 -48 -34.5 -87.5t-59.5 -68.5t-77.5 -46t-89.5 -20q-29 0 -22 28l20 97q3 14 16.5 23
t26.5 9q10 0 21.5 5t22.5 14t19.5 21t11.5 27l50 235q9 36 45 66q-11 14 -15.5 31t-1.5 34l49 232q6 28 -10.5 48.5t-42.5 20.5h-2q-12 0 -18 8.5t-3 20.5l20 95q6 27 36 28q3 0 6 -0.5t5 -0.5z" />
    <glyph glyph-name="asciitilde" unicode="~" horiz-adv-x="659" 
d="M187 197q-2 -1 -8 -1q-5 0 -7 1q-4 2 -14.5 9t-20.5 15.5t-17 18t-6 16.5q1 3 5 8.5t8 10.5l20 20q75 75 167 75q26 0 51 -9.5t46 -25.5q17 -14 35.5 -27.5t41.5 -13.5q16 0 34 7t29 21l27 27q3 4 7.5 5.5t8.5 1.5q3 0 14 -6.5t23 -16.5t21 -20t7 -18t-8.5 -14.5
t-8.5 -9.5q-47 -46 -88.5 -68t-94.5 -22q-26 0 -51 9t-45 26l-36 28q-19 13 -41 13q-32 0 -57 -22q-4 -3 -9.5 -9.5t-11.5 -13t-11.5 -11t-9.5 -4.5z" />
    <glyph glyph-name="exclamdown" unicode="&#xa1;" horiz-adv-x="248" 
d="M20 -236l100 471q6 27 33 27h91q12 0 18.5 -7t4.5 -20l-100 -471q-6 -27 -35 -27h-91q-26 0 -21 27zM312 413q-8 -34 -36.5 -57.5t-61.5 -23.5q-35 0 -53 23.5t-10 57.5q7 33 35 56.5t63 23.5q33 0 51.5 -23.5t11.5 -56.5z" />
    <glyph glyph-name="cent" unicode="&#xa2;" horiz-adv-x="488" 
d="M302 116q46 0 96 25q6 3 13.5 7t11.5 4q12 0 16.5 -6t11.5 -21q2 -6 6 -14t7 -16.5t5.5 -15.5t1.5 -10q-2 -11 -17 -22.5t-36 -21.5t-44 -18t-42 -12l-13 -61q-5 -26 -31 -26h-78q-26 0 -21 26l16 71q-34 12 -59.5 35t-40.5 54.5t-19 70t5 81.5q9 44 29.5 82t49 69
t64 54.5t74.5 37.5l13 64q2 11 10.5 18t20.5 7h78q11 0 17 -7.5t4 -17.5l-12 -57q15 -3 34.5 -9.5t37 -16t29 -21t8.5 -23.5q-1 -3 -3 -6.5t-8 -10.5l-2 -3l-44 -55q-11 -12 -16.5 -13t-9.5 -1q-5 0 -10 4.5t-10 8.5q-33 27 -78 27q-24 0 -47.5 -10.5t-43 -28.5t-33.5 -42
t-20 -51q-5 -24 -2 -47.5t13 -41.5t27.5 -29t40.5 -11z" />
    <glyph glyph-name="sterling" unicode="&#xa3;" horiz-adv-x="600" 
d="M304 410h127q11 0 16.5 -6t3.5 -17l-15 -71q-2 -11 -10.5 -18.5t-19.5 -7.5h-127l-32 -151h312q24 0 19 -24l-19 -90q-2 -8 -10 -16.5t-19 -8.5h-433q-24 0 -20 23l97 454q12 59 44.5 109.5t78 88t101 59t113.5 21.5q60 0 102.5 -17t75.5 -46q10 -10 9 -20q-1 -2 -3 -7
t-7 -11l-63 -72q-10 -10 -17 -10q-3 0 -13 5q-19 17 -42.5 32t-64.5 15q-28 0 -55.5 -9.5t-50 -26.5t-38.5 -40.5t-22 -52.5z" />
    <glyph glyph-name="currency" unicode="&#xa4;" horiz-adv-x="539" 
d="M241 266q-8 -35 11.5 -60t54.5 -25q36 0 65.5 25t37.5 60t-11.5 60t-55.5 25q-35 0 -64.5 -25t-37.5 -60zM154 403l77 64q9 8 16 8q10 0 15 -8l42 -53q33 9 55 9q21 0 49 -9l65 53q8 7 16 7q11 0 16 -8l51 -64q6 -7 4 -15q-1 -8 -11 -16l-64 -53q1 -30 -2 -52
q-2 -11 -7.5 -24t-13.5 -29l42 -53q6 -7 4 -15q-1 -9 -10 -16l-78 -63q-7 -7 -19 -7q-8 0 -13 6l-43 52q-35 -8 -53 -8q-20 0 -52 8l-63 -52q-9 -8 -17 -8q-10 0 -14 8l-50 63q-6 6 -3 18q2 9 8 14l64 53q-2 32 3 53q2 10 7 23t13 29l-42 53q-5 9 -3 15q2 9 11 17z" />
    <glyph glyph-name="yen" unicode="&#xa5;" horiz-adv-x="650" 
d="M467 230h116q10 0 15.5 -6.5t3.5 -17.5l-9 -44q-2 -8 -10.5 -17t-19.5 -9h-115l-23 -108q-6 -28 -34 -28h-95q-25 0 -19 28l23 108h-104q-25 0 -19 26l9 44q6 24 29 24h104l10 44h-104q-23 0 -19 26l9 43q6 24 30 24h63l-122 344v2l-1 1q-1 5 -2 8.5t-1 5.5q4 14 20 14
h127q10 -1 14.5 -5.5t12.5 -29.5l32 -98q13 -41 24 -87.5t25 -86.5l210 288q11 13 15.5 15.5t11.5 3.5h131q14 0 11 -13q-2 -8 -10 -16l-40 -49l-30 -37l-200 -260h76q10 0 15.5 -6t3.5 -18l-9 -43q-2 -9 -10.5 -17.5t-19.5 -8.5h-115z" />
    <glyph glyph-name="brokenbar" unicode="&#xa6;" horiz-adv-x="248" 
d="M158 365l79 373q2 9 9 15.5t18 6.5h86q9 0 15 -6t4 -16l-79 -373q-5 -22 -29 -22h-86q-22 0 -17 22zM41 -187l79 373q2 9 9 15.5t18 6.5h85q9 0 15.5 -6t4.5 -16l-80 -373q-4 -22 -28 -22h-86q-21 0 -17 22z" />
    <glyph glyph-name="section" unicode="&#xa7;" horiz-adv-x="587" 
d="M537 611q-21 26 -52.5 40t-51.5 14q-17 0 -36.5 -5t-36.5 -15t-30 -24.5t-17 -33.5q-5 -23 19 -35.5t59 -23.5h2q8 -3 17.5 -5.5t17.5 -6.5q84 -26 115 -62.5t19 -91.5q-8 -36 -30 -65.5t-54 -49.5q23 -18 34 -44t3 -63q-8 -39 -31 -72t-56.5 -56t-74.5 -36t-85 -13
q-88 0 -142 51q-20 18 -31 38.5t-9 27.5q1 7 10.5 15.5t21.5 16t24 13t18 5.5q8 0 14 -4t14 -15q9 -13 23 -22.5t28 -16t28 -10t23 -3.5q18 0 38 5t37 14.5t30 24t17 33.5q5 26 -22 39t-68 25l-25 8q-82 28 -115 62.5t-21 91.5q8 35 29.5 64t53.5 50q-22 18 -33 44.5
t-3 62.5q9 40 32 72.5t56.5 56t74.5 36.5t85 13q41 0 78 -14t64 -38q20 -17 30.5 -38t8.5 -27q-2 -7 -7 -13t-12 -11q-2 -2 -2.5 -2t-1.5 -1q-13 -9 -27.5 -17t-24.5 -8t-14.5 5.5t-10.5 13.5zM365 422q-45 0 -70 -18t-30 -40q-1 -5 0 -15t9.5 -20.5t27 -18.5t52.5 -8h5
q45 0 68.5 18.5t28.5 39.5q4 18 -2 29.5t-18.5 19t-31 10.5t-39.5 3z" />
    <glyph glyph-name="dieresis" unicode="&#xa8;" horiz-adv-x="442" 
d="M203 633q7 30 32 50.5t54 20.5q30 0 46 -20.5t10 -50.5q-7 -29 -31.5 -49.5t-54.5 -20.5q-29 0 -45.5 20.5t-10.5 49.5zM406 634q7 30 32 51t54 21q31 0 46.5 -21t9.5 -51q-6 -29 -31 -49.5t-55 -20.5q-29 0 -45.5 20.5t-10.5 49.5z" />
    <glyph glyph-name="copyright" unicode="&#xa9;" horiz-adv-x="878" 
d="M623 780q84 0 151.5 -32t111 -87.5t60 -130.5t-1.5 -160q-18 -84 -65.5 -158t-115 -129.5t-149.5 -88t-167 -32.5q-84 0 -151.5 32t-111.5 87.5t-60 130.5t2 160q18 84 65.5 158t115 129.5t149.5 88t167 32.5zM438 634q-86 -45 -142 -117t-73 -152q-14 -65 -0.5 -120.5
t47 -96.5t84.5 -64t112 -23q68 0 131 27.5t115 72t88 101t48 115.5q15 68 0.5 123t-49 95t-84 61.5t-106.5 21.5q-42 0 -84.5 -10.5t-86.5 -33.5zM714 566q9 -9 6 -18q0 -2 -2 -6l-50 -64q-9 -11 -16 -11q-4 0 -6 2q-32 23 -78 23q-26 0 -50.5 -9.5t-45 -26t-34.5 -39.5
t-20 -49q-12 -57 18 -89t84 -32q23 0 43 4.5t40 16.5q5 3 9 3q6 -2 8 -8l26 -65q2 -5 0 -8q-1 -5 -5 -8.5t-9 -6.5q-34 -20 -69.5 -30.5t-73.5 -10.5q-48 0 -87 18.5t-64 50t-34 74.5t1 92q11 49 38.5 91.5t66.5 74.5t86 50.5t95 18.5q38 0 67.5 -9.5t55.5 -28.5z" />
    <glyph glyph-name="ordfeminine" unicode="&#xaa;" horiz-adv-x="511" 
 />
    <glyph glyph-name="guillemotleft" unicode="&#xab;" horiz-adv-x="689" 
d="M129 262q-6 6 -4 19q3 10 12 18l310 256q5 2 11 4.5t11 2.5q11 0 18 -7l39 -50q5 -10 4 -18q-2 -4 -4 -9.5t-7 -9.5l-226 -188l146 -187q5 -8 3 -20q-3 -12 -13 -20l-61 -50q-4 -2 -8.5 -4.5t-10.5 -2.5q-8 0 -14 5.5t-10 10.5l-78 99q-2 3 -6.5 8t-9 11t-8.5 11.5
t-6 7.5zM400 262q-6 6 -4 19q3 10 12 18l311 256q5 2 10.5 4.5t10.5 2.5q11 0 18 -7l39 -50q5 -10 4 -18q-2 -4 -4 -9.5t-7 -9.5l-226 -188l146 -187q5 -8 3 -20q-3 -12 -13 -20l-61 -50q-4 -2 -8.5 -4.5t-10.5 -2.5q-8 0 -13.5 5.5t-9.5 10.5l-79 99l-50 65q-17 22 -34 43
t-34 43z" />
    <glyph glyph-name="logicalnot" unicode="&#xac;" horiz-adv-x="581" 
d="M603 378l-46 -216q-2 -10 -10 -17t-19 -7h-60q-9 0 -16 6.5t-5 17.5l28 130h-317q-26 0 -20 25l13 61q5 24 30 24h403q24 0 19 -24z" />
    <glyph glyph-name="uni00AD" unicode="&#xad;" horiz-adv-x="528" 
d="M185 347h326q11 0 17.5 -7t3.5 -19l-15 -71q-2 -10 -11.5 -19t-21.5 -9h-326q-26 0 -20 28l15 71q5 26 32 26z" />
    <glyph glyph-name="registered" unicode="&#xae;" horiz-adv-x="878" 
d="M633 779q84 0 151.5 -32t111 -87.5t59.5 -130t-2 -159.5q-18 -84 -65.5 -158t-114.5 -129.5t-148.5 -87.5t-166.5 -32q-84 0 -151.5 32t-111.5 87t-60.5 130t1.5 160q18 84 65.5 158t115 129.5t149.5 87.5t167 32zM616 668q-82 0 -164 -41q-84 -44 -138 -113.5
t-71 -147.5q-13 -63 -0.5 -117.5t45.5 -94t82 -62t108 -22.5q67 0 129 26.5t111.5 70t84 99t46.5 112.5q14 66 0 120t-48 91.5t-82.5 58t-102.5 20.5zM339 175l82 389q5 20 23 20h186q29 -1 51.5 -12.5t37 -30.5t20 -44t-0.5 -54q-8 -38 -32.5 -69.5t-58.5 -50.5l39 -145
q1 -2 0 -5q-3 -15 -21 -15h-83q-5 0 -8.5 3.5t-4.5 8.5l-13 51l-20 82h-58l-27 -128q-3 -17 -22 -17h-75q-19 0 -15 17zM627 444q4 17 -5 30t-28 13h-76l-19 -86h77q18 0 32.5 12.5t18.5 30.5z" />
    <glyph glyph-name="macron" unicode="&#xaf;" horiz-adv-x="487" 
d="M181 618l11 50q3 18 21 18h362q18 0 15 -18l-11 -50q-2 -6 -7.5 -13t-14.5 -7h-363q-18 0 -13 20z" />
    <glyph glyph-name="degree" unicode="&#xb0;" horiz-adv-x="325" 
d="M309 675q47 0 72.5 -32.5t14.5 -80.5q-5 -24 -18 -44.5t-31 -35.5t-40.5 -23.5t-45.5 -8.5t-42 8.5t-31 23.5t-16.5 35.5t0.5 44.5t18 44.5t31.5 36t41 24t46.5 8.5zM295 610q-21 0 -37 -14t-21 -34t6 -34t32 -14q20 0 36 14t21 34t-6 34t-31 14z" />
    <glyph glyph-name="plusminus" unicode="&#xb1;" horiz-adv-x="497" 
d="M367 282l-21 -100q-2 -11 -10.5 -19t-21.5 -8h-76q-10 0 -18 7.5t-5 19.5l21 100h-96q-28 0 -22 29l15 70q6 27 33 27h97l21 100q6 27 35 27h75q27 0 21 -27l-21 -100h98q11 0 17.5 -6.5t3.5 -20.5l-15 -70q-2 -10 -11.5 -19.5t-21.5 -9.5h-98zM109 117h322
q11 0 17.5 -6.5t4.5 -19.5l-14 -63q-2 -11 -11 -19.5t-21 -8.5h-322q-26 0 -22 28l14 63q5 26 32 26z" />
    <glyph glyph-name="twosuperior" unicode="&#xb2;" horiz-adv-x="418" 
d="M249 630l-8 -9q-6 -7 -13 -7t-10 3l-41 21q-7 3 -5 11q0 5 4 9h-1q29 42 67.5 67t83.5 25q27 0 51 -9.5t40.5 -26.5t23.5 -41t1 -54q-5 -27 -19 -47.5t-35 -40.5q-28 -25 -61 -52.5t-74 -62.5h135q14 0 11 -14l-12 -54q-3 -15 -17 -15h-252q-15 0 -13 15l9 41q2 4 4 7
l211 183q11 9 15.5 16t6.5 16q5 22 -7 38.5t-36 16.5q-17 0 -33.5 -10t-25.5 -26z" />
    <glyph glyph-name="threesuperior" unicode="&#xb3;" horiz-adv-x="378" 
d="M242 410q23 0 42.5 14t24.5 39q5 23 -8 38.5t-39 15.5q-14 0 -11 12l11 52q3 14 17 14q17 0 30 12.5t15 23.5q2 14 -4 26t-25 12q-13 0 -23 -6.5t-17.5 -14.5t-13.5 -14.5t-11 -6.5q-3 0 -9 4l-34 22q-7 4 -6 11q2 5 6 11q22 32 56.5 52.5t72.5 20.5q22 0 40.5 -8.5
t31 -23.5t18 -35.5t0.5 -43.5q-5 -22 -17.5 -39.5t-28.5 -31.5q22 -17 34.5 -40.5t4.5 -63.5q-6 -28 -22 -52.5t-39 -42.5t-51 -28t-57 -10q-56 0 -87.5 29.5t-33.5 76.5q0 5 1 8q2 9 12 13l49 13q6 2 11 2t6 -2.5t3 -10.5q14 -48 51 -48z" />
    <glyph glyph-name="acute" unicode="&#xb4;" horiz-adv-x="248" 
d="M391 713l-68 -105q-13 -21 -31 -21h-71q-17 0 -14 13q2 4 3.5 8t6.5 11l65 102q8 11 15 16t17 5h75q13 0 12 -10q-1 -4 -3 -8t-7 -11z" />
    <glyph glyph-name="mu" unicode="&#xb5;" horiz-adv-x="614" 
d="M169 -171q-3 -14 -11.5 -19t-19.5 -5h-81q-13 0 -17.5 6.5t-2.5 17.5l136 639q5 23 31 23h74q11 0 20 -4t7 -18l-54 -254q-5 -24 3 -42.5t24 -30.5t36 -18.5t38 -6.5q20 0 39.5 7.5t35 21t27 31t15.5 37.5l53 253q3 12 9 18t20 6h83q11 0 16.5 -6.5t3.5 -18.5l-54 -252
q-2 -8 -3 -11q-11 -44 -32.5 -82.5t-52 -67t-69.5 -44.5t-85 -16q-24 0 -46 6t-40.5 15.5t-32 21.5t-21.5 23z" />
    <glyph glyph-name="paragraph" unicode="&#xb6;" horiz-adv-x="698" 
d="M395 741h410q13 0 15.5 -8.5t0.5 -16.5l-11 -51q-3 -15 -10 -20.5t-17 -5.5h-77l-130 -613q-5 -21 -11.5 -23.5t-20.5 -2.5h-60q-14 1 -14 8t2 18l130 613h-114l-130 -613q-5 -21 -11.5 -23.5t-20.5 -2.5h-60q-14 1 -14 7.5t2 17.5l66 313q-43 0 -78.5 16t-58.5 43
t-32 63.5t0 78.5t32.5 78.5t56.5 64t73 43.5t82 16z" />
    <glyph glyph-name="periodcentered" unicode="&#xb7;" horiz-adv-x="227" 
d="M114 280q8 35 36.5 58t61.5 23q35 0 53 -23t11 -58q-8 -33 -35.5 -56.5t-62.5 -23.5q-33 0 -52 23.5t-12 56.5z" />
    <glyph glyph-name="cedilla" unicode="&#xb8;" horiz-adv-x="278" 
d="M62 -265q-7 -2 -12 -1t-6 6l-12 52q-1 5 3 10t9 7l6 1q52 13 73.5 25.5t24.5 27.5q4 17 -9.5 29.5t-30.5 25.5t-30 28.5t-9 38.5l5 21h84q-4 -18 10.5 -32.5t32.5 -29.5t31.5 -34t7.5 -47q-4 -18 -13.5 -35.5t-29.5 -34t-52.5 -31.5t-82.5 -27z" />
    <glyph glyph-name="onesuperior" unicode="&#xb9;" horiz-adv-x="234" 
d="M159 647l12 54q1 10 18 20l49 20q5 2 8.5 2.5t11.5 0.5h50q14 0 11 -13l-81 -383q-3 -13 -16 -13h-64q-14 0 -11 12l64 303l-36 -15q-1 0 -4 -0.5t-3 -1.5q-12 0 -9 14z" />
    <glyph glyph-name="ordmasculine" unicode="&#xba;" horiz-adv-x="511" 
d="M177 557q9 41 31.5 76t54 61.5t70 41.5t78.5 15q41 0 73 -15t52.5 -41.5t28 -61.5t-0.5 -76q-9 -40 -31.5 -75t-54 -61t-70 -41t-79.5 -15q-40 0 -72 15t-52.5 41t-28.5 61t1 75zM285 557q-8 -35 11.5 -59.5t54.5 -24.5q36 0 65 24.5t37 59.5t-11 60t-56 25
q-34 0 -63.5 -25t-37.5 -60z" />
    <glyph glyph-name="guillemotright" unicode="&#xbb;" horiz-adv-x="691" 
d="M750 260q-44 -37 -86.5 -72.5t-87.5 -71.5l-129 -107q-6 -5 -14 -10t-17 -5q-11 0 -16 7l-39 49q-7 10 -4 21q1 5 3.5 10.5t6.5 8.5l227 187l-147 188h1q-4 5 -4 10.5v8.5q3 11 12 18l59 50q11 7 21 7q5 0 10.5 -1.5t7.5 -3.5l203 -258q7 -8 4 -18q-2 -10 -11 -18z
M479 260l-174 -144l-129 -107q-6 -5 -14 -10t-17 -5q-11 0 -16 7l-39 49q-7 10 -4 21q1 4 3.5 10t6.5 9l226 187l-146 188h1q-4 5 -4 10.5v8.5q3 11 12 18l59 50q11 7 21 7q5 0 10.5 -1.5t7.5 -3.5l203 -258q7 -8 4 -18q-2 -10 -11 -18z" />
    <glyph glyph-name="onequarter" unicode="&#xbc;" horiz-adv-x="742" 
d="M551 63h-172q-8 0 -11 5.5t-1 11.5q2 10 8 16l252 311q5 6 8 7.5t9 1.5h56q5 -1 8.5 -5t1.5 -9l-53 -251h36q6 0 10 -3t2 -10l-12 -60q-3 -14 -19 -14h-35l-11 -49q-3 -13 -18 -13h-59q-13 0 -10 13zM509 151h63l23 109zM186 647l12 54q1 10 18 20l49 20q5 2 8.5 2.5
t11.5 0.5h50q14 0 11 -13l-81 -383q-3 -13 -16 -13h-64q-14 0 -11 12l64 303l-36 -15q-1 0 -4 -0.5t-3 -1.5q-12 0 -9 14zM100 27l524 690h-1q7 11 17.5 18t24.5 7h43q12 0 20 -5t6 -15q-2 -9 -5 -10l-522 -687q-9 -14 -15.5 -19.5t-18.5 -5.5h-55q-26 0 -20 21q0 2 1 3.5
t1 2.5z" />
    <glyph glyph-name="onehalf" unicode="&#xbd;" horiz-adv-x="742" 
d="M100 27l524 690h-1q7 11 17.5 18t24.5 7h43q12 0 20 -5t6 -15q-2 -9 -5 -10l-522 -687q-9 -14 -15.5 -19.5t-18.5 -5.5h-55q-26 0 -20 21q0 2 1 3.5t1 2.5zM186 647l12 54q1 10 18 20l49 20q5 2 8.5 2.5t11.5 0.5h50q14 0 11 -13l-81 -383q-3 -13 -16 -13h-64
q-14 0 -11 12l64 303l-36 -15q-1 0 -4 -0.5t-3 -1.5q-12 0 -9 14zM529 299l-8 -10q-5 -7 -12 -7q-3 0 -6 1t-5 2l-40 21q-8 4 -6 12q2 6 4 9v-1q29 43 67.5 67.5t83.5 24.5q27 0 51 -9t40 -26.5t23.5 -41.5t1.5 -54q-6 -27 -19.5 -47.5t-35.5 -39.5q-28 -25 -60.5 -52.5
t-73.5 -62.5h134q14 0 11 -14l-12 -55q-1 -6 -6 -10.5t-11 -4.5h-252q-6 0 -10 4.5t-2 10.5l9 41q0 2 1 4l2 4l212 183q18 15 21 32q5 21 -7 37.5t-35 16.5q-18 0 -34 -10t-26 -25z" />
    <glyph glyph-name="threequarters" unicode="&#xbe;" horiz-adv-x="766" 
d="M171 27l523 690q7 11 17.5 18t24.5 7h43q12 0 19.5 -5t5.5 -15q0 -9 -4 -10l-522 -687q-10 -14 -16.5 -19.5t-18.5 -5.5h-55q-26 0 -20 21q1 2 2 3.5t1 2.5zM239 421q23 0 42.5 14t25.5 39q5 23 -8 38.5t-40 15.5q-13 0 -10 12l11 52q3 14 16 14q18 0 30.5 12.5
t14.5 23.5q3 14 -3.5 26t-24.5 12q-13 0 -23.5 -6.5t-18 -14.5t-13.5 -14.5t-11 -6.5q-4 0 -8 4l-35 22q-6 5 -5 11q0 3 6 11q22 32 56 52.5t72 20.5q22 0 41 -8.5t31.5 -23.5t17.5 -35.5t0 -43.5q-5 -22 -17 -39.5t-28 -31.5q21 -17 34 -40.5t5 -63.5q-6 -28 -22 -52.5
t-39 -42.5t-51 -28t-57 -10q-57 0 -88 29.5t-33 76.5q-1 2 -0.5 4t0.5 4q2 9 12 13l49 13q8 2 11 2q5 0 6.5 -2.5t2.5 -10.5q14 -48 51 -48zM604 64h-172q-8 0 -11 5.5t-1 11.5q2 10 8 16l252 311q5 6 8 7.5t9 1.5h56q5 -1 8.5 -5t1.5 -9l-53 -251h36q6 0 10 -3t2 -10
l-12 -60q-3 -14 -19 -14h-35l-11 -49q-3 -13 -18 -13h-59q-13 0 -10 13zM562 152h63l23 109z" />
    <glyph glyph-name="questiondown" unicode="&#xbf;" horiz-adv-x="568" 
d="M263 205l14 65q2 11 10.5 17.5t17.5 6.5h90q11 0 15.5 -7.5t2.5 -16.5l-18 -85q-7 -33 -25 -56t-41.5 -41t-50 -33t-50 -32t-41 -38.5t-24.5 -51.5q-4 -21 1 -40.5t17 -34.5t30.5 -24t40.5 -9q23 0 45 9.5t41 25t32.5 35.5t18.5 42l3 15q2 10 10 16t18 6h91
q13 0 16.5 -6.5t1.5 -14.5l-4 -16q-11 -53 -40.5 -96.5t-70.5 -75t-89.5 -49t-98.5 -17.5q-52 0 -94.5 17.5t-70.5 49.5t-39 75.5t0 96.5q10 48 30.5 80t46 54.5t52.5 37.5t50.5 29t40 29t21.5 37zM461 422q-7 -34 -35.5 -57.5t-61.5 -23.5q-35 0 -53.5 23.5t-10.5 57.5
q7 33 35 56.5t63 23.5q33 0 52 -23.5t11 -56.5z" />
    <glyph glyph-name="Agrave" unicode="&#xc0;" horiz-adv-x="728" 
d="M450 726q5 7 12 11.5t21 4.5h75q11 0 16 -4.5t7 -11.5l148 -703l-1 -3q-2 -8 -8 -14t-23 -6h-106q-10 0 -14 3t-5 12l-24 122h-297l-75 -122q-7 -15 -22 -15h-131q-22 0 -18 18q0 2 112.5 178.5t332.5 529.5zM484 532l-157 -264h202zM469 860l-23 105q-4 11 -2 19
q3 10 16 10h75q10 0 14.5 -5t8.5 -16l22 -102q2 -7 2 -11v-8q-3 -13 -20 -13h-71q-18 0 -22 21z" />
    <glyph glyph-name="Aacute" unicode="&#xc1;" horiz-adv-x="728" 
d="M450 726q5 7 12 11.5t21 4.5h75q11 0 16 -4.5t7 -11.5l148 -703l-1 -3q-2 -8 -8 -14t-23 -6h-106q-10 0 -14 3t-5 12l-24 122h-297l-75 -122q-7 -15 -22 -15h-131q-22 0 -18 18q0 2 112.5 178.5t332.5 529.5zM484 532l-157 -264h202zM686 965l-68 -105q-13 -21 -31 -21
h-71q-17 0 -14 13q2 4 3.5 8t6.5 11l65 102q8 11 15 16t17 5h75q13 0 12 -10q-1 -4 -3 -8t-7 -11z" />
    <glyph glyph-name="Acircumflex" unicode="&#xc2;" horiz-adv-x="728" 
d="M450 726q5 7 12 11.5t21 4.5h75q11 0 16 -4.5t7 -11.5l148 -703l-1 -3q-2 -8 -8 -14t-23 -6h-106q-10 0 -14 3t-5 12l-24 122h-297l-75 -122q-7 -15 -22 -15h-131q-22 0 -18 18q0 2 112.5 178.5t332.5 529.5zM484 532l-157 -264h202zM416 894l163 135q5 5 12 5q4 0 9 -5
q26 -34 53 -67.5t53 -67.5q5 -4 3 -12q-1 -5 -8 -10l-34 -28q-5 -5 -12.5 -10.5t-14.5 -5.5q-2 0 -5 1t-10 9l-59 77l-94 -77q-11 -9 -20 -9q-5 0 -9.5 5t-9.5 10l-22 27q-5 6 -2 15q1 4 7 8z" />
    <glyph glyph-name="Atilde" unicode="&#xc3;" horiz-adv-x="728" 
d="M450 726q5 7 12 11.5t21 4.5h75q11 0 16 -4.5t7 -11.5l148 -703l-1 -3q-2 -8 -8 -14t-23 -6h-106q-10 0 -14 3t-5 12l-24 122h-297l-75 -122q-7 -15 -22 -15h-131q-22 0 -18 18q0 2 112.5 178.5t332.5 529.5zM484 532l-157 -264h202zM508 871q-11 0 -22.5 -8.5t-22 -16.5
t-19.5 -12.5t-16 2.5l-27 32q-6 7 -3.5 12t8.5 12l13 13q50 51 109 51q35 -2 64 -24l24 -18q11 -9 24 -9q21 0 38 14q6 6 15.5 16t17.5 10q5 0 9 -4l30 -35q3 -6 2 -12q-1 -2 -3 -5.5t-4 -4.5l-17 -18q-51 -46 -106 -46q-37 0 -64 24q-11 8 -23.5 17.5t-26.5 9.5z" />
    <glyph glyph-name="Adieresis" unicode="&#xc4;" horiz-adv-x="728" 
d="M450 726q5 7 12 11.5t21 4.5h75q11 0 16 -4.5t7 -11.5l148 -703l-1 -3q-2 -8 -8 -14t-23 -6h-106q-10 0 -14 3t-5 12l-24 122h-297l-75 -122q-7 -15 -22 -15h-131q-22 0 -18 18q0 2 112.5 178.5t332.5 529.5zM484 532l-157 -264h202zM405 885q7 30 32 50.5t54 20.5
q30 0 46 -20.5t10 -50.5q-7 -29 -31.5 -49.5t-54.5 -20.5q-29 0 -45.5 20.5t-10.5 49.5zM608 886q7 30 32 51t54 21q31 0 46.5 -21t9.5 -51q-6 -29 -31 -49.5t-55 -20.5q-29 0 -45.5 20.5t-10.5 49.5z" />
    <glyph glyph-name="Aring" unicode="&#xc5;" horiz-adv-x="728" 
d="M450 726q5 7 12 11.5t21 4.5h75q11 0 16 -4.5t7 -11.5l148 -703l-1 -3q-2 -8 -8 -14t-23 -6h-106q-10 0 -14 3t-5 12l-24 122h-297l-75 -122q-7 -15 -22 -15h-131q-22 0 -18 18q0 2 112.5 178.5t332.5 529.5zM484 532l-157 -264h202zM590 1028q22 0 39.5 -8.5t28.5 -23
t15.5 -33.5t-0.5 -41q-4 -22 -16.5 -41t-30 -33t-38.5 -22t-43 -8q-44 0 -67.5 30t-14.5 74q5 22 17 41t29 33.5t38 23t43 8.5zM577 964q-18 0 -31.5 -12t-17.5 -30q-4 -17 5 -28.5t26 -11.5t31.5 11.5t18.5 28.5q4 18 -5.5 30t-26.5 12z" />
    <glyph glyph-name="AE" unicode="&#xc6;" horiz-adv-x="1151" 
d="M306 139l-117 -118q-19 -21 -40 -21h-111q-20 0 -17 14q2 5 5.5 10t6.5 8l-1 -1l28 29q105 104 185.5 183.5t142.5 141t108.5 108.5t85 86t71.5 73t68 69q7 7 18 14t24 7h471q27 0 21 -29l-17 -81q-2 -9 -11 -18t-23 -9h-354l-34 -162h283q11 0 17.5 -6t3.5 -20l-15 -74
q-2 -8 -10.5 -16.5t-22.5 -8.5h-284l-39 -181h368q27 0 21 -27l-17 -83q-6 -27 -34 -27h-489q-27 0 -21 24q6 30 12 57.5t13 57.5h-296zM688 523l-253 -253h199z" />
    <glyph glyph-name="Ccedilla" unicode="&#xc7;" horiz-adv-x="705" 
d="M785 688q10 -7 10 -17q0 -9 -5 -15l-66 -82q-12 -12 -21 -12q-6 0 -14 5q-26 23 -59.5 35.5t-74.5 12.5q-57 0 -109.5 -24.5t-92.5 -66t-64 -96t-24 -114.5q0 -40 13 -74.5t37 -59.5t59 -39t78 -14q41 0 80 12.5t75 35.5q8 5 17 5q8 0 15 -11l31 -83q1 -3 1 -7
q0 -9 -5 -14t-13 -10q-54 -32 -112 -49t-118 -17q-69 0 -126 23t-97.5 63t-63 95.5t-22.5 119.5q0 92 40.5 176t107 148t151.5 101.5t173 37.5q60 0 109.5 -16.5t89.5 -48.5zM365 -265q-7 -2 -12 -1t-6 6l-12 52q-1 5 3 10t9 7l6 1q52 13 73.5 25.5t24.5 27.5
q4 17 -9.5 29.5t-30.5 25.5t-30 28.5t-9 38.5l5 21h84q-4 -18 10.5 -32.5t32.5 -29.5t31.5 -34t7.5 -47q-4 -18 -13.5 -35.5t-29.5 -34t-52.5 -31.5t-82.5 -27z" />
    <glyph glyph-name="Egrave" unicode="&#xc8;" horiz-adv-x="642" 
d="M85 21l148 697q6 24 27 24h482q20 0 20 -17q0 -2 -0.5 -4t-0.5 -4l-19 -88q-2 -9 -9.5 -16t-20.5 -7h-355l-32 -152h274h2q16 0 16 -15q0 -2 -0.5 -3.5t-0.5 -3.5l-19 -91q-2 -9 -8.5 -16t-17.5 -7h-275l-39 -182h369q19 0 19 -14q0 -2 -2 -10l-19 -91q-4 -21 -26 -21
h-495q-19 0 -19 15q0 4 1 6zM479 860l-23 105q-4 11 -2 19q3 10 16 10h75q10 0 14.5 -5t8.5 -16l22 -102q2 -7 2 -11v-8q-3 -13 -20 -13h-71q-18 0 -22 21z" />
    <glyph glyph-name="Eacute" unicode="&#xc9;" horiz-adv-x="642" 
d="M85 21l148 697q6 24 27 24h482q20 0 20 -17q0 -2 -0.5 -4t-0.5 -4l-19 -88q-2 -9 -9.5 -16t-20.5 -7h-355l-32 -152h274h2q16 0 16 -15q0 -2 -0.5 -3.5t-0.5 -3.5l-19 -91q-2 -9 -8.5 -16t-17.5 -7h-275l-39 -182h369q19 0 19 -14q0 -2 -2 -10l-19 -91q-4 -21 -26 -21
h-495q-19 0 -19 15q0 4 1 6zM665 965l-68 -105q-13 -21 -31 -21h-71q-17 0 -14 13q2 4 3.5 8t6.5 11l65 102q8 11 15 16t17 5h75q13 0 12 -10q-1 -4 -3 -8t-7 -11z" />
    <glyph glyph-name="Ecircumflex" unicode="&#xca;" horiz-adv-x="642" 
d="M85 21l148 697q6 24 27 24h482q20 0 20 -17q0 -2 -0.5 -4t-0.5 -4l-19 -88q-2 -9 -9.5 -16t-20.5 -7h-355l-32 -152h274h2q16 0 16 -15q0 -2 -0.5 -3.5t-0.5 -3.5l-19 -91q-2 -9 -8.5 -16t-17.5 -7h-275l-39 -182h369q19 0 19 -14q0 -2 -2 -10l-19 -91q-4 -21 -26 -21
h-495q-19 0 -19 15q0 4 1 6zM391 894l163 135q5 5 12 5q4 0 9 -5q26 -34 53 -67.5t53 -67.5q5 -4 3 -12q-1 -5 -8 -10l-34 -28q-5 -5 -12.5 -10.5t-14.5 -5.5q-2 0 -5 1t-10 9l-59 77l-94 -77q-11 -9 -20 -9q-5 0 -9.5 5t-9.5 10l-22 27q-5 6 -2 15q1 4 7 8z" />
    <glyph glyph-name="Edieresis" unicode="&#xcb;" horiz-adv-x="642" 
d="M85 21l148 697q6 24 27 24h482q20 0 20 -17q0 -2 -0.5 -4t-0.5 -4l-19 -88q-2 -9 -9.5 -16t-20.5 -7h-355l-32 -152h274h2q16 0 16 -15q0 -2 -0.5 -3.5t-0.5 -3.5l-19 -91q-2 -9 -8.5 -16t-17.5 -7h-275l-39 -182h369q19 0 19 -14q0 -2 -2 -10l-19 -91q-4 -21 -26 -21
h-495q-19 0 -19 15q0 4 1 6zM374 879q7 30 32 50.5t54 20.5q30 0 46 -20.5t10 -50.5q-7 -29 -31.5 -49.5t-54.5 -20.5q-29 0 -45.5 20.5t-10.5 49.5zM577 880q7 30 32 51t54 21q31 0 46.5 -21t9.5 -51q-6 -29 -31 -49.5t-55 -20.5q-29 0 -45.5 20.5t-10.5 49.5z" />
    <glyph glyph-name="Igrave" unicode="&#xcc;" horiz-adv-x="309" 
d="M85 22l149 698q2 9 8.5 15.5t17.5 6.5h101q7 0 14 -5t7 -13q0 -2 -0.5 -2.5t-0.5 -1.5l-148 -698q-4 -22 -29 -22h-101q-19 0 -19 15q0 2 0.5 3.5t0.5 3.5zM270 860l-23 105q-4 11 -2 19q3 10 16 10h75q10 0 14.5 -5t8.5 -16l22 -102q2 -7 2 -11v-8q-3 -13 -20 -13h-71
q-18 0 -22 21z" />
    <glyph glyph-name="Iacute" unicode="&#xcd;" horiz-adv-x="309" 
d="M85 22l149 698q2 9 8.5 15.5t17.5 6.5h101q7 0 14 -5t7 -13q0 -2 -0.5 -2.5t-0.5 -1.5l-148 -698q-4 -22 -29 -22h-101q-19 0 -19 15q0 2 0.5 3.5t0.5 3.5zM466 965l-68 -105q-13 -21 -31 -21h-71q-17 0 -14 13q2 4 3.5 8t6.5 11l65 102q8 11 15 16t17 5h75q13 0 12 -10
q-1 -4 -3 -8t-7 -11z" />
    <glyph glyph-name="Icircumflex" unicode="&#xce;" horiz-adv-x="309" 
d="M85 22l149 698q2 9 8.5 15.5t17.5 6.5h101q7 0 14 -5t7 -13q0 -2 -0.5 -2.5t-0.5 -1.5l-148 -698q-4 -22 -29 -22h-101q-19 0 -19 15q0 2 0.5 3.5t0.5 3.5zM200 894l163 135q5 5 12 5q4 0 9 -5q26 -34 53 -67.5t53 -67.5q5 -4 3 -12q-1 -5 -8 -10l-34 -28
q-5 -5 -12.5 -10.5t-14.5 -5.5q-2 0 -5 1t-10 9l-59 77l-94 -77q-11 -9 -20 -9q-5 0 -9.5 5t-9.5 10l-22 27q-5 6 -2 15q1 4 7 8z" />
    <glyph glyph-name="Idieresis" unicode="&#xcf;" horiz-adv-x="309" 
d="M85 22l149 698q2 9 8.5 15.5t17.5 6.5h101q7 0 14 -5t7 -13q0 -2 -0.5 -2.5t-0.5 -1.5l-148 -698q-4 -22 -29 -22h-101q-19 0 -19 15q0 2 0.5 3.5t0.5 3.5zM170 884q7 30 32 50.5t54 20.5q30 0 46 -20.5t10 -50.5q-7 -29 -31.5 -49.5t-54.5 -20.5q-29 0 -45.5 20.5
t-10.5 49.5zM373 885q7 30 32 51t54 21q31 0 46.5 -21t9.5 -51q-6 -29 -31 -49.5t-55 -20.5q-29 0 -45.5 20.5t-10.5 49.5z" />
    <glyph glyph-name="Eth" unicode="&#xd0;" horiz-adv-x="775" 
d="M165 424l62 290q6 28 34 28h236q80 0 142.5 -28.5t103 -79t55.5 -118.5t-2 -146q-16 -78 -60 -145.5t-106 -117.5t-137 -78.5t-153 -28.5h-237q-11 0 -18.5 5t-3.5 21l59 280h-44q-23 0 -17 24l15 74q5 20 27 20h44zM258 145h43h36.5t37.5 1q48 2 92.5 20t80.5 48.5
t61.5 71.5t35.5 87q10 47 1.5 86.5t-31 69t-57.5 46.5t-79 20q-11 1 -22 1.5t-22 0.5h-81z" />
    <glyph glyph-name="Ntilde" unicode="&#xd1;" horiz-adv-x="791" 
d="M234 720q2 9 8.5 15.5t17.5 6.5h118q8 0 15.5 -3.5t10.5 -11.5l230 -484l98 484q5 9 12.5 12t12.5 3h101q8 0 15 -6t5 -16l-148 -698q-4 -22 -29 -22h-107q-5 0 -8.5 4.5t-8.5 11.5l-242 520l-105 -514q-3 -22 -26 -22h-101q-22 0 -18 22zM532 871q-11 0 -22.5 -8.5
t-22 -16.5t-19.5 -12.5t-16 2.5l-27 32q-6 7 -3.5 12t8.5 12l13 13q50 51 109 51q35 -2 64 -24l24 -18q11 -9 24 -9q21 0 38 14q6 6 15.5 16t17.5 10q5 0 9 -4l30 -35q3 -6 2 -12q-1 -2 -3 -5.5t-4 -4.5l-17 -18q-51 -46 -106 -46q-37 0 -64 24q-11 8 -23.5 17.5t-26.5 9.5z
" />
    <glyph glyph-name="Ograve" unicode="&#xd2;" horiz-adv-x="853" 
d="M271 370q-6 -28 -6 -56q0 -40 13 -74.5t37 -59.5t59 -39t78 -14q57 0 109.5 24.5t92.5 65.5t64 95.5t24 114.5q0 41 -13 75t-37 59.5t-58.5 39.5t-78.5 14q-51 0 -97.5 -19t-84.5 -52.5t-64.5 -78t-37.5 -95.5zM122 370q17 80 61.5 149.5t107.5 121.5t139.5 82t155.5 30
q69 0 125.5 -23t97.5 -63.5t63.5 -96t22.5 -120.5q0 -92 -40.5 -175.5t-107 -147t-151 -101t-173.5 -37.5q-69 0 -126 23t-97.5 63t-63 95.5t-22.5 119.5q0 20 1.5 40t6.5 40zM540 860l-23 105q-4 11 -2 19q3 10 16 10h75q10 0 14.5 -5t8.5 -16l22 -102q2 -7 2 -11v-8
q-3 -13 -20 -13h-71q-18 0 -22 21z" />
    <glyph glyph-name="Oacute" unicode="&#xd3;" horiz-adv-x="853" 
d="M271 370q-6 -28 -6 -56q0 -40 13 -74.5t37 -59.5t59 -39t78 -14q57 0 109.5 24.5t92.5 65.5t64 95.5t24 114.5q0 41 -13 75t-37 59.5t-58.5 39.5t-78.5 14q-51 0 -97.5 -19t-84.5 -52.5t-64.5 -78t-37.5 -95.5zM122 370q17 80 61.5 149.5t107.5 121.5t139.5 82t155.5 30
q69 0 125.5 -23t97.5 -63.5t63.5 -96t22.5 -120.5q0 -92 -40.5 -175.5t-107 -147t-151 -101t-173.5 -37.5q-69 0 -126 23t-97.5 63t-63 95.5t-22.5 119.5q0 20 1.5 40t6.5 40zM732 965l-68 -105q-13 -21 -31 -21h-71q-17 0 -14 13q2 4 3.5 8t6.5 11l65 102q8 11 15 16t17 5
h75q13 0 12 -10q-1 -4 -3 -8t-7 -11z" />
    <glyph glyph-name="Ocircumflex" unicode="&#xd4;" horiz-adv-x="853" 
d="M271 370q-6 -28 -6 -56q0 -40 13 -74.5t37 -59.5t59 -39t78 -14q57 0 109.5 24.5t92.5 65.5t64 95.5t24 114.5q0 41 -13 75t-37 59.5t-58.5 39.5t-78.5 14q-51 0 -97.5 -19t-84.5 -52.5t-64.5 -78t-37.5 -95.5zM122 370q17 80 61.5 149.5t107.5 121.5t139.5 82t155.5 30
q69 0 125.5 -23t97.5 -63.5t63.5 -96t22.5 -120.5q0 -92 -40.5 -175.5t-107 -147t-151 -101t-173.5 -37.5q-69 0 -126 23t-97.5 63t-63 95.5t-22.5 119.5q0 20 1.5 40t6.5 40zM471 894l163 135q5 5 12 5q4 0 9 -5q26 -34 53 -67.5t53 -67.5q5 -4 3 -12q-1 -5 -8 -10l-34 -28
q-5 -5 -12.5 -10.5t-14.5 -5.5q-2 0 -5 1t-10 9l-59 77l-94 -77q-11 -9 -20 -9q-5 0 -9.5 5t-9.5 10l-22 27q-5 6 -2 15q1 4 7 8z" />
    <glyph glyph-name="Otilde" unicode="&#xd5;" horiz-adv-x="853" 
d="M271 370q-6 -28 -6 -56q0 -40 13 -74.5t37 -59.5t59 -39t78 -14q57 0 109.5 24.5t92.5 65.5t64 95.5t24 114.5q0 41 -13 75t-37 59.5t-58.5 39.5t-78.5 14q-51 0 -97.5 -19t-84.5 -52.5t-64.5 -78t-37.5 -95.5zM122 370q17 80 61.5 149.5t107.5 121.5t139.5 82t155.5 30
q69 0 125.5 -23t97.5 -63.5t63.5 -96t22.5 -120.5q0 -92 -40.5 -175.5t-107 -147t-151 -101t-173.5 -37.5q-69 0 -126 23t-97.5 63t-63 95.5t-22.5 119.5q0 20 1.5 40t6.5 40zM562 871q-11 0 -22.5 -8.5t-22 -16.5t-19.5 -12.5t-16 2.5l-27 32q-6 7 -3.5 12t8.5 12l13 13
q50 51 109 51q35 -2 64 -24l24 -18q11 -9 24 -9q21 0 38 14q6 6 15.5 16t17.5 10q5 0 9 -4l30 -35q3 -6 2 -12q-1 -2 -3 -5.5t-4 -4.5l-17 -18q-51 -46 -106 -46q-37 0 -64 24q-11 8 -23.5 17.5t-26.5 9.5z" />
    <glyph glyph-name="Odieresis" unicode="&#xd6;" horiz-adv-x="853" 
d="M271 370q-6 -28 -6 -56q0 -40 13 -74.5t37 -59.5t59 -39t78 -14q57 0 109.5 24.5t92.5 65.5t64 95.5t24 114.5q0 41 -13 75t-37 59.5t-58.5 39.5t-78.5 14q-51 0 -97.5 -19t-84.5 -52.5t-64.5 -78t-37.5 -95.5zM122 370q17 80 61.5 149.5t107.5 121.5t139.5 82t155.5 30
q69 0 125.5 -23t97.5 -63.5t63.5 -96t22.5 -120.5q0 -92 -40.5 -175.5t-107 -147t-151 -101t-173.5 -37.5q-69 0 -126 23t-97.5 63t-63 95.5t-22.5 119.5q0 20 1.5 40t6.5 40zM427 875q7 30 32 50.5t54 20.5q30 0 46 -20.5t10 -50.5q-7 -29 -31.5 -49.5t-54.5 -20.5
q-29 0 -45.5 20.5t-10.5 49.5zM630 876q7 30 32 51t54 21q31 0 46.5 -21t9.5 -51q-6 -29 -31 -49.5t-55 -20.5q-29 0 -45.5 20.5t-10.5 49.5z" />
    <glyph glyph-name="multiply" unicode="&#xd7;" horiz-adv-x="466" 
d="M488 383l-85 -70l57 -72q5 -8 4 -20q-3 -12 -13 -20l-64 -52q-9 -9 -24 -9q-10 0 -15 7l-58 73q-22 -18 -42.5 -35t-42.5 -35q-9 -9 -20 -9q-10 0 -19 9l-38 49q-8 11 -5 21q1 10 12 19l85 70l-56 71q-7 8 -4 20q1 8 14 19l64 54q11 9 21 9q11 0 17 -9v1l56 -72l85 70
q9 8 21 8q11 0 19 -8l39 -51q6 -8 3 -19q-1 -11 -11 -19z" />
    <glyph glyph-name="Oslash" unicode="&#xd8;" horiz-adv-x="853" 
d="M586 753q43 0 84 -11l48 72q14 23 38 23h98q25 0 22 -14q-2 -6 -5 -11l-11 -16q-7 -10 -16.5 -25t-19.5 -30.5t-19.5 -30.5t-17.5 -26q64 -51 92 -133t7 -181q-17 -79 -61.5 -148.5t-107.5 -121t-139 -81.5t-155 -30q-42 0 -80 9q-13 -17 -25 -35t-24 -35q-8 -11 -14 -16
t-17 -5h-108q-19 0 -18 13l5 10q20 31 41.5 61.5t41.5 62.5q-66 51 -95 133.5t-8 182.5q17 79 61.5 149t107.5 122t139.5 82t155.5 30zM262 371q-11 -52 -2 -97t34.5 -78.5t66 -52.5t91.5 -19t99 19t88 52.5t68 78.5t39 97q11 51 2 96t-34.5 78t-65.5 52.5t-91 19.5
t-99.5 -19.5t-88.5 -52.5t-68 -78t-39 -96z" />
    <glyph glyph-name="Ugrave" unicode="&#xd9;" horiz-adv-x="752" 
d="M370 720l-91 -427q-7 -35 -2 -66t21 -54t42.5 -36.5t61.5 -13.5t67 13.5t57.5 36.5t44 54t25.5 66l91 427q2 9 9.5 15.5t18.5 6.5h99q9 0 15.5 -6t4.5 -16l-91 -427q-13 -63 -49 -118.5t-86 -97t-111 -65.5t-124 -24t-114 24t-83.5 65.5t-44.5 97t1 118.5l91 427
q2 8 9 15t16 7h104q7 0 13.5 -6.5t4.5 -15.5zM494 860l-23 105q-4 11 -2 19q3 10 16 10h75q10 0 14.5 -5t8.5 -16l22 -102q2 -7 2 -11v-8q-3 -13 -20 -13h-71q-18 0 -22 21z" />
    <glyph glyph-name="Uacute" unicode="&#xda;" horiz-adv-x="752" 
d="M370 720l-91 -427q-7 -35 -2 -66t21 -54t42.5 -36.5t61.5 -13.5t67 13.5t57.5 36.5t44 54t25.5 66l91 427q2 9 9.5 15.5t18.5 6.5h99q9 0 15.5 -6t4.5 -16l-91 -427q-13 -63 -49 -118.5t-86 -97t-111 -65.5t-124 -24t-114 24t-83.5 65.5t-44.5 97t1 118.5l91 427
q2 8 9 15t16 7h104q7 0 13.5 -6.5t4.5 -15.5zM695 965l-68 -105q-13 -21 -31 -21h-71q-17 0 -14 13q2 4 3.5 8t6.5 11l65 102q8 11 15 16t17 5h75q13 0 12 -10q-1 -4 -3 -8t-7 -11z" />
    <glyph glyph-name="Ucircumflex" unicode="&#xdb;" horiz-adv-x="752" 
d="M370 720l-91 -427q-7 -35 -2 -66t21 -54t42.5 -36.5t61.5 -13.5t67 13.5t57.5 36.5t44 54t25.5 66l91 427q2 9 9.5 15.5t18.5 6.5h99q9 0 15.5 -6t4.5 -16l-91 -427q-13 -63 -49 -118.5t-86 -97t-111 -65.5t-124 -24t-114 24t-83.5 65.5t-44.5 97t1 118.5l91 427
q2 8 9 15t16 7h104q7 0 13.5 -6.5t4.5 -15.5zM420 894l163 135q5 5 12 5q4 0 9 -5q26 -34 53 -67.5t53 -67.5q5 -4 3 -12q-1 -5 -8 -10l-34 -28q-5 -5 -12.5 -10.5t-14.5 -5.5q-2 0 -5 1t-10 9l-59 77l-94 -77q-11 -9 -20 -9q-5 0 -9.5 5t-9.5 10l-22 27q-5 6 -2 15q1 4 7 8
z" />
    <glyph glyph-name="Udieresis" unicode="&#xdc;" horiz-adv-x="752" 
d="M370 720l-91 -427q-7 -35 -2 -66t21 -54t42.5 -36.5t61.5 -13.5t67 13.5t57.5 36.5t44 54t25.5 66l91 427q2 9 9.5 15.5t18.5 6.5h99q9 0 15.5 -6t4.5 -16l-91 -427q-13 -63 -49 -118.5t-86 -97t-111 -65.5t-124 -24t-114 24t-83.5 65.5t-44.5 97t1 118.5l91 427
q2 8 9 15t16 7h104q7 0 13.5 -6.5t4.5 -15.5zM406 875q7 30 32 50.5t54 20.5q30 0 46 -20.5t10 -50.5q-7 -29 -31.5 -49.5t-54.5 -20.5q-29 0 -45.5 20.5t-10.5 49.5zM609 876q7 30 32 51t54 21q31 0 46.5 -21t9.5 -51q-6 -29 -31 -49.5t-55 -20.5q-29 0 -45.5 20.5
t-10.5 49.5z" />
    <glyph glyph-name="Yacute" unicode="&#xdd;" horiz-adv-x="684" 
d="M347 314l-151 397q-1 2 -2.5 8t-1.5 8q0 7 6 11t13 4h128q9 -2 12 -4t9 -17l80 -271l217 273q11 13 15 15.5t12 3.5h130q12 0 12 -9q0 -8 -10 -20l-321 -398l-60 -287q-6 -28 -34 -28h-96q-20 0 -20 19q0 6 1 9zM663 965l-68 -105q-13 -21 -31 -21h-71q-17 0 -14 13
q2 4 3.5 8t6.5 11l65 102q8 11 15 16t17 5h75q13 0 12 -10q-1 -4 -3 -8t-7 -11z" />
    <glyph glyph-name="Thorn" unicode="&#xde;" horiz-adv-x="640" 
d="M376 715l-22 -104h160q51 0 89.5 -20t62.5 -53t32 -76.5t-2 -90.5q-9 -42 -32.5 -81.5t-57.5 -71.5t-75.5 -53.5t-86.5 -27.5q-25 -3 -54 -3h-137l-23 -107q-4 -27 -33 -27h-94q-27 0 -21 27l146 688q2 12 10.5 19.5t22.5 7.5h93q11 0 17.5 -7.5t4.5 -19.5zM547 372
q4 21 0.5 40.5t-14.5 34.5t-28 24t-40 9h-138l-46 -217h138q23 0 44 9t38.5 24.5t29.5 35t16 40.5z" />
    <glyph glyph-name="germandbls" unicode="&#xdf;" horiz-adv-x="576" 
d="M46 -159l112 527q9 44 18.5 87.5t19.5 88.5q11 52 37.5 89t62.5 61t77.5 35.5t81.5 11.5q41 0 75 -14.5t56 -40.5t30.5 -63.5t-1.5 -82.5q-8 -41 -29.5 -70t-55.5 -53q96 -63 69 -197q-23 -108 -101.5 -169t-199.5 -61q-11 0 -15 6.5t-3 17.5l18 81q2 11 10 19.5t21 8.5
h7q47 0 82 29t46 79q11 54 -17 81t-79 27q-11 0 -16.5 5.5t-2.5 18.5l16 79q6 24 30 24q32 0 55.5 20.5t30.5 51.5q2 9 1.5 22.5t-6.5 26t-18 21.5t-33 9q-39 0 -61 -22.5t-28 -49.5l-150 -704q-5 -26 -34 -26h-86q-26 0 -20 26z" />
    <glyph glyph-name="agrave" unicode="&#xe0;" horiz-adv-x="594" 
d="M425 27q2 10 2 19t1 19q-12 -13 -26 -26.5t-31 -24.5t-39 -17.5t-49 -6.5h-3q-53 0 -93.5 19.5t-65 54t-32.5 80.5t3 100q12 54 39.5 100.5t66.5 80.5t87.5 53.5t102.5 19.5q28 0 48.5 -7t35 -18.5t23.5 -26.5t15 -31l19 48q8 17 13.5 22.5t19.5 5.5h54q11 0 18.5 -7.5
t4.5 -19.5l-93 -439q-3 -12 -13 -18.5t-21 -6.5h-64q-15 0 -19 7.5t-4 19.5zM223 243q-12 -56 12.5 -94t79.5 -38q28 0 52.5 10t44 27.5t33 41.5t19.5 52q6 27 2.5 51.5t-15.5 43t-32 29t-48 10.5t-52.5 -10.5t-44 -29t-32.5 -42.5t-19 -51zM362 608l-23 105q-4 11 -2 19
q3 10 16 10h75q10 0 14.5 -5t8.5 -16l22 -102q2 -7 2 -11v-8q-3 -13 -20 -13h-71q-18 0 -22 21z" />
    <glyph glyph-name="aacute" unicode="&#xe1;" horiz-adv-x="594" 
d="M425 27q2 10 2 19t1 19q-12 -13 -26 -26.5t-31 -24.5t-39 -17.5t-49 -6.5h-3q-53 0 -93.5 19.5t-65 54t-32.5 80.5t3 100q12 54 39.5 100.5t66.5 80.5t87.5 53.5t102.5 19.5q28 0 48.5 -7t35 -18.5t23.5 -26.5t15 -31l19 48q8 17 13.5 22.5t19.5 5.5h54q11 0 18.5 -7.5
t4.5 -19.5l-93 -439q-3 -12 -13 -18.5t-21 -6.5h-64q-15 0 -19 7.5t-4 19.5zM223 243q-12 -56 12.5 -94t79.5 -38q28 0 52.5 10t44 27.5t33 41.5t19.5 52q6 27 2.5 51.5t-15.5 43t-32 29t-48 10.5t-52.5 -10.5t-44 -29t-32.5 -42.5t-19 -51zM544 713l-68 -105
q-13 -21 -31 -21h-71q-17 0 -14 13q2 4 3.5 8t6.5 11l65 102q8 11 15 16t17 5h75q13 0 12 -10q-1 -4 -3 -8t-7 -11z" />
    <glyph glyph-name="acircumflex" unicode="&#xe2;" horiz-adv-x="594" 
d="M425 27q2 10 2 19t1 19q-12 -13 -26 -26.5t-31 -24.5t-39 -17.5t-49 -6.5h-3q-53 0 -93.5 19.5t-65 54t-32.5 80.5t3 100q12 54 39.5 100.5t66.5 80.5t87.5 53.5t102.5 19.5q28 0 48.5 -7t35 -18.5t23.5 -26.5t15 -31l19 48q8 17 13.5 22.5t19.5 5.5h54q11 0 18.5 -7.5
t4.5 -19.5l-93 -439q-3 -12 -13 -18.5t-21 -6.5h-64q-15 0 -19 7.5t-4 19.5zM223 243q-12 -56 12.5 -94t79.5 -38q28 0 52.5 10t44 27.5t33 41.5t19.5 52q6 27 2.5 51.5t-15.5 43t-32 29t-48 10.5t-52.5 -10.5t-44 -29t-32.5 -42.5t-19 -51zM273 642l163 135q5 5 12 5
q4 0 9 -5q26 -34 53 -67.5t53 -67.5q5 -4 3 -12q-1 -5 -8 -10l-34 -28q-5 -5 -12.5 -10.5t-14.5 -5.5q-2 0 -5 1t-10 9l-59 77l-94 -77q-11 -9 -20 -9q-5 0 -9.5 5t-9.5 10l-22 27q-5 6 -2 15q1 4 7 8z" />
    </font>
</defs>
</svg>
